<svg width="35" height="35" viewBox="0 0 35 35" fill="none" xmlns="http://www.w3.org/2000/svg">
<path d="M17.5625 0.5C8.07007 0.5 0.375 8.19507 0.375 17.6875C0.375 27.1799 8.07007 34.875 17.5625 34.875C27.0549 34.875 34.75 27.1799 34.75 17.6875C34.75 8.19507 27.0549 0.5 17.5625 0.5ZM24.1196 9.25287L21.7424 9.25393C19.8782 9.25393 19.5177 10.1398 19.5177 11.4395V14.3056H23.9631L23.961 18.7945H19.5181V30.3143H14.8814V18.7945H11.0054V14.3056H14.8814V10.995C14.8814 7.1531 17.2288 5.06071 20.6557 5.06071L24.1199 5.06598V9.25287H24.1196Z" fill="black"/>
</svg>
