<svg width="435" height="424" viewBox="50 50 435 424" fill="none" xmlns="http://www.w3.org/2000/svg">
<g opacity="0.1" clip-path="url(#clip0_214_2)">
<path d="M436.492 144.783C432.47 121.435 413.65 104.975 383.352 107.048C357.239 108.649 337.269 117.734 309.765 99.4286C204.707 29.2057 165.05 102.795 162.443 160.301C158.817 242.889 132.452 254.075 104.541 292.746C85.0499 319.828 71.7113 343.54 76.4251 379.693C83.3497 433.73 129.533 460.299 175.141 455.734C197.627 453.512 221.708 447.587 236.68 445.05C276.817 438.243 291.988 441.916 343.58 448.594C444.25 459.689 488.324 387.996 443.463 320.72C405.064 263.17 401.884 259.723 421.524 210.466C430.065 189.756 441.16 171.516 436.492 144.783Z" fill="url(#paint0_linear_214_2)"/>
</g>
<g opacity="0.1" clip-path="url(#clip1_214_2)">
<path d="M422.124 131.861C415.969 108.982 395.714 94.3253 365.735 99.1786C339.88 103.176 320.832 114.061 291.76 98.3661C180.683 38.1137 147.969 115.041 150.667 172.543C154.66 255.114 129.437 268.68 105.205 309.756C88.2895 338.518 77.1906 363.357 85.2127 398.922C97.0827 452.093 145.516 474.297 190.51 465.553C212.696 461.27 236.129 453.153 250.804 449.248C290.144 438.775 305.589 441.036 357.577 442.935C458.84 444.716 496.127 369.269 445.263 306.409C401.728 252.639 398.245 249.499 413.267 198.643C419.864 177.235 429.233 158.051 422.124 131.861Z" fill="url(#paint1_linear_214_2)"/>
</g>
<g opacity="0.5">
<path d="M457.125 301.897C449.86 302.232 439.434 301.628 426.722 299.684C413.807 297.74 398.538 294.455 382.126 289.293C378.023 288.019 373.853 286.544 369.615 284.935C367.53 284.13 365.377 283.259 363.292 282.387C361.207 281.449 359.055 280.51 356.902 279.571C348.225 275.884 338.607 273.202 328.584 272.532C323.607 272.197 318.629 272.331 313.719 272.867C313.114 272.934 312.508 273.001 311.903 273.068C311.298 273.135 310.692 273.202 310.087 273.336C308.876 273.538 307.733 273.739 306.522 273.94C305.378 274.208 304.168 274.476 303.024 274.744C301.881 275.012 300.737 275.348 299.594 275.683C299.056 275.817 298.45 276.018 297.912 276.152C297.374 276.353 296.769 276.554 296.231 276.689C295.692 276.89 295.087 277.091 294.549 277.225L293.742 277.493L292.935 277.828C290.782 278.633 288.63 279.504 286.545 280.309C285.468 280.711 284.459 281.113 283.383 281.516C282.307 281.918 281.298 282.32 280.289 282.789C278.271 283.661 276.253 284.465 274.235 285.337C266.231 288.689 258.765 291.907 251.5 294.455C244.37 297.405 237.375 298.88 230.918 299.55C227.689 299.818 224.595 299.885 221.635 299.684C218.743 299.483 215.985 299.014 213.497 298.343C208.519 297.002 204.618 294.656 201.927 292.242C199.237 289.829 197.69 287.415 196.681 285.739C196.143 284.935 195.874 284.264 195.672 283.795C195.47 283.326 195.335 283.125 195.335 283.125C195.335 283.125 195.403 283.393 195.604 283.795C195.806 284.264 196.075 284.935 196.546 285.806C197.421 287.482 198.968 289.963 201.658 292.511C203.003 293.717 204.685 294.991 206.636 296.131C208.586 297.204 210.873 298.209 213.362 298.947C215.851 299.684 218.676 300.153 221.635 300.422C224.595 300.69 227.756 300.623 230.985 300.355C234.281 300.086 237.644 299.55 241.142 298.746C242.891 298.343 244.64 297.874 246.456 297.271C248.204 296.667 249.953 295.997 251.769 295.326C259.034 292.779 266.635 289.561 274.572 286.276C276.59 285.471 278.608 284.6 280.625 283.728C281.634 283.259 282.711 282.924 283.72 282.521C284.729 282.119 285.805 281.717 286.881 281.314C288.966 280.51 291.119 279.705 293.271 278.901L294.078 278.566L294.885 278.298C295.423 278.096 295.962 277.962 296.5 277.761C297.038 277.56 297.576 277.426 298.181 277.225C298.719 277.024 299.325 276.89 299.863 276.756C301.006 276.487 302.082 276.085 303.293 275.817C304.437 275.549 305.58 275.281 306.724 275.012C307.867 274.811 309.078 274.61 310.221 274.409C310.827 274.275 311.432 274.208 311.97 274.141L313.786 273.94C318.562 273.403 323.472 273.269 328.45 273.605C338.337 274.208 347.822 276.89 356.431 280.51C358.584 281.449 360.736 282.387 362.821 283.326C364.974 284.264 367.059 285.069 369.211 285.873C373.449 287.482 377.619 288.957 381.79 290.231C398.336 295.393 413.673 298.544 426.587 300.422C439.3 302.299 449.793 302.701 457.125 302.232V301.897Z" fill="#FF706E"/>
<path d="M457.125 293.583H457.057C449.86 293.919 439.434 292.913 426.722 290.566C414.009 288.22 399.076 284.533 382.799 279.37C378.763 278.097 374.592 276.689 370.422 275.147C369.346 274.744 368.337 274.409 367.261 274.007C366.185 273.605 365.176 273.202 364.099 272.8C361.947 271.996 359.862 271.057 357.709 270.253C349.032 266.766 339.481 264.487 329.526 264.018C324.549 263.749 319.638 264.018 314.863 264.621C310.087 265.224 305.446 266.297 300.939 267.571C291.926 270.051 283.652 273.873 276.119 277.828C268.518 281.784 261.455 285.739 254.46 288.622C252.711 289.36 250.962 289.963 249.281 290.634C247.599 291.304 245.85 291.84 244.169 292.31C240.806 293.315 237.51 294.053 234.348 294.589C228.025 295.595 222.106 295.595 217.129 294.589C212.151 293.583 208.115 291.505 205.29 289.36C202.465 287.214 200.582 285.069 199.438 283.527C198.833 282.79 198.43 282.186 198.16 281.784C197.891 281.382 197.69 281.18 197.69 281.18C197.69 281.18 197.824 281.382 198.026 281.851C198.295 282.253 198.631 282.924 199.237 283.661C200.313 285.203 202.129 287.415 205.021 289.695C207.914 291.907 211.949 294.053 216.994 295.192C222.039 296.332 228.025 296.332 234.483 295.394C237.711 294.924 241.007 294.12 244.438 293.181C246.119 292.712 247.868 292.175 249.617 291.505C251.366 290.835 253.115 290.231 254.864 289.494C261.926 286.611 269.056 282.655 276.59 278.767C284.123 274.811 292.329 271.124 301.208 268.643C305.647 267.37 310.289 266.364 314.997 265.761C319.706 265.157 324.549 264.956 329.459 265.157C339.279 265.627 348.696 267.906 357.239 271.258C359.391 272.063 361.543 273.001 363.629 273.806C364.705 274.208 365.781 274.61 366.79 275.013C367.866 275.415 368.875 275.817 369.951 276.152C374.189 277.694 378.359 279.035 382.395 280.309C398.74 285.404 413.74 289.024 426.453 291.304C439.165 293.516 449.726 294.388 456.923 293.919H456.99V293.583H457.125Z" fill="#FF706E"/>
<path d="M457.125 285.539C456.99 285.539 456.856 285.539 456.721 285.539C453.156 285.673 448.784 285.539 443.739 285.003C438.695 284.466 432.977 283.528 426.722 282.187C420.466 280.846 413.605 279.237 406.408 277.159C399.144 275.147 391.476 272.734 383.471 269.985C379.503 268.577 375.467 267.035 371.364 265.292C367.261 263.549 362.956 262.007 358.517 260.666C354.077 259.325 349.503 258.186 344.795 257.314C340.086 256.442 335.243 255.839 330.333 255.638C325.423 255.437 320.513 255.705 315.804 256.442C311.029 257.18 306.455 258.521 302.15 260.063C301.074 260.398 299.997 260.8 298.921 261.269C297.845 261.672 296.769 262.074 295.76 262.543C293.675 263.415 291.589 264.286 289.572 265.225C288.563 265.694 287.554 266.164 286.545 266.633C285.536 267.102 284.594 267.639 283.585 268.108C281.634 269.046 279.751 270.052 277.868 271.058C274.101 273.002 270.536 275.08 266.971 276.957C263.406 278.835 259.908 280.511 256.478 282.053C249.617 285.07 242.958 287.349 236.702 288.757C230.447 290.165 224.662 290.567 219.618 290.031C217.129 289.763 214.775 289.226 212.757 288.623C211.748 288.221 210.739 287.953 209.864 287.483C209.394 287.282 208.99 287.081 208.519 286.88C208.116 286.679 207.712 286.411 207.308 286.209C204.214 284.466 202.196 282.522 200.851 281.181C200.178 280.511 199.775 279.907 199.439 279.572C199.102 279.237 198.968 279.036 198.9 279.036C198.9 279.036 199.035 279.237 199.304 279.639C199.573 280.041 200.044 280.578 200.649 281.315C201.927 282.723 203.945 284.734 207.039 286.612C207.443 286.813 207.846 287.081 208.25 287.282C208.654 287.483 209.124 287.684 209.595 287.885C210.47 288.355 211.479 288.69 212.555 289.092C214.64 289.763 216.994 290.299 219.55 290.634C224.662 291.171 230.582 290.835 236.837 289.494C243.16 288.154 249.886 285.874 256.814 282.924C260.312 281.449 263.81 279.706 267.375 277.829C270.94 275.952 274.505 273.941 278.271 271.929C280.155 270.991 282.038 269.918 283.989 268.979C284.93 268.51 285.939 268.041 286.948 267.504C287.957 267.035 288.966 266.566 289.975 266.097C291.993 265.158 294.011 264.286 296.096 263.415C297.105 262.946 298.181 262.61 299.257 262.208C300.334 261.806 301.41 261.404 302.486 261.068C306.791 259.526 311.298 258.253 316.006 257.515C320.647 256.778 325.49 256.509 330.333 256.711C335.176 256.912 339.952 257.515 344.66 258.32C349.301 259.124 353.875 260.264 358.248 261.605C362.62 262.946 366.924 264.42 370.96 266.164C375.063 267.907 379.166 269.449 383.135 270.857C391.139 273.672 398.875 275.952 406.139 277.963C413.404 279.974 420.264 281.583 426.587 282.857C432.91 284.131 438.627 285.003 443.739 285.472C448.851 286.008 453.224 286.075 456.856 285.807C456.99 285.807 457.125 285.807 457.259 285.807V285.539H457.125Z" fill="#FF706E"/>
<path d="M457.125 276.957C457.058 276.957 456.99 276.957 456.923 276.957C456.519 276.957 456.049 277.024 455.645 277.024C448.582 277.493 438.224 276.22 425.847 273.404C413.404 270.655 398.875 266.297 382.933 260.867C378.965 259.459 374.862 258.118 370.759 256.576C366.588 255.034 362.418 253.492 358.113 251.95C349.436 248.732 339.885 246.989 330.064 247.056C325.154 247.056 320.311 247.525 315.67 248.263C313.316 248.665 311.029 249.134 308.742 249.604C307.598 249.872 306.455 250.14 305.311 250.475C304.168 250.743 303.092 251.146 302.015 251.481C297.576 252.822 293.473 254.632 289.37 256.442C285.401 258.319 281.5 260.331 277.868 262.476C276.926 263.012 276.052 263.549 275.11 264.018C274.235 264.554 273.361 265.091 272.487 265.627C270.738 266.7 269.056 267.772 267.375 268.912C265.693 269.985 264.079 271.057 262.397 272.063C260.783 273.069 259.101 274.074 257.487 274.946C250.962 278.633 244.64 281.516 238.586 283.46C232.532 285.405 226.815 286.41 221.837 286.343C219.349 286.276 216.994 286.008 214.909 285.539C212.824 285.002 211.008 284.332 209.394 283.594C208.586 283.192 207.846 282.79 207.174 282.388C206.501 281.918 205.896 281.583 205.358 281.181C204.82 280.779 204.349 280.376 203.878 280.041C203.474 279.639 203.071 279.304 202.734 278.968C202.398 278.633 202.129 278.365 201.86 278.097C201.591 277.829 201.389 277.628 201.255 277.426C200.918 277.091 200.717 276.89 200.717 276.89C200.717 276.89 200.851 277.091 201.187 277.493C201.322 277.695 201.524 277.896 201.793 278.164C201.995 278.432 202.264 278.767 202.6 279.103C202.936 279.438 203.34 279.773 203.743 280.242C204.214 280.644 204.685 281.047 205.223 281.449C205.761 281.918 206.367 282.254 207.039 282.723C207.712 283.125 208.452 283.594 209.259 283.997C210.873 284.801 212.757 285.539 214.842 286.075C216.994 286.611 219.349 286.947 221.905 287.014C227.017 287.148 232.801 286.209 238.922 284.265C245.043 282.321 251.433 279.438 258.025 275.817C259.639 274.879 261.321 273.94 263.003 272.935C264.684 271.929 266.298 270.856 267.98 269.784C269.662 268.711 271.343 267.638 273.092 266.566C273.966 266.029 274.841 265.493 275.715 264.956C276.59 264.42 277.531 263.951 278.406 263.415C282.038 261.336 285.872 259.392 289.841 257.515C293.876 255.772 297.979 253.961 302.352 252.621C303.428 252.285 304.504 251.883 305.648 251.615C306.791 251.347 307.867 251.012 309.011 250.81C311.298 250.274 313.585 249.872 315.872 249.47C320.513 248.732 325.288 248.33 330.131 248.33C339.817 248.263 349.234 250.006 357.777 253.157C362.082 254.699 366.319 256.241 370.489 257.783C374.66 259.258 378.763 260.666 382.731 262.007C398.74 267.37 413.336 271.661 425.78 274.342C438.224 277.024 448.65 278.231 455.78 277.628C456.25 277.628 456.654 277.561 457.058 277.561C457.125 277.561 457.192 277.561 457.259 277.561V276.957H457.125Z" fill="#FF706E"/>
<path d="M457.125 268.711C456.587 268.778 456.116 268.845 455.511 268.912C452.013 269.181 447.641 269.114 442.663 268.443C437.686 267.84 432.036 266.767 425.915 265.292C413.605 262.342 399.211 257.649 383.471 252.085C379.503 250.677 375.467 249.269 371.364 247.794C369.279 247.056 367.194 246.319 365.041 245.649C362.889 244.978 360.736 244.241 358.449 243.771C349.503 241.76 340.019 240.486 330.333 240.553C320.647 240.62 311.096 242.028 302.419 245.045C293.742 248.062 285.872 252.152 278.675 256.375C276.859 257.448 275.11 258.521 273.361 259.593C271.612 260.666 269.931 261.739 268.249 262.812C264.886 264.957 261.724 267.102 258.496 268.979C252.173 272.801 245.985 276.086 240.133 278.432C234.281 280.779 228.698 282.187 223.721 282.522C221.232 282.656 218.878 282.589 216.792 282.254C214.707 281.919 212.824 281.382 211.21 280.712C210.402 280.377 209.663 279.974 208.99 279.639C208.317 279.237 207.645 278.902 207.107 278.5C206.568 278.097 206.03 277.762 205.559 277.427C205.156 277.025 204.752 276.689 204.349 276.421C204.012 276.153 203.676 275.818 203.474 275.617C203.205 275.349 203.003 275.147 202.869 275.013C202.533 274.678 202.331 274.544 202.331 274.544C202.331 274.544 202.465 274.745 202.802 275.08C202.936 275.281 203.138 275.483 203.407 275.751C203.676 276.019 203.945 276.354 204.281 276.622C204.618 276.958 205.021 277.293 205.425 277.695C205.896 278.03 206.367 278.432 206.905 278.835C207.443 279.237 208.115 279.572 208.788 280.042C209.461 280.444 210.268 280.779 211.075 281.181C212.689 281.919 214.64 282.455 216.792 282.857C218.945 283.193 221.299 283.327 223.855 283.193C228.967 282.924 234.617 281.516 240.536 279.17C246.456 276.823 252.711 273.672 259.101 269.784C262.33 267.907 265.558 265.761 268.854 263.616C270.536 262.543 272.218 261.471 273.966 260.398C275.715 259.325 277.464 258.253 279.28 257.247C286.477 253.023 294.347 249.001 302.89 246.051C311.432 243.101 320.849 241.76 330.468 241.693C340.086 241.626 349.503 242.833 358.382 244.844C360.602 245.313 362.754 245.984 364.839 246.654C366.992 247.325 369.077 248.062 371.095 248.8C375.265 250.275 379.301 251.682 383.27 253.09C399.076 258.655 413.538 263.214 425.915 266.097C432.103 267.505 437.753 268.577 442.798 269.114C447.842 269.65 452.215 269.717 455.78 269.382C456.318 269.315 456.856 269.248 457.327 269.181V268.711H457.125Z" fill="#FF706E"/>
<path d="M311.096 255.168C311.028 255.101 310.961 255.168 310.827 255.168C310.759 255.168 310.692 255.235 310.558 255.235C310.49 255.235 310.356 255.302 310.221 255.302C309.75 255.436 309.212 255.369 308.472 255.101C307.262 254.699 305.984 254.028 305.244 255.503C304.975 256.107 304.908 256.576 304.84 257.448C304.84 258.654 304.908 260.129 305.109 261.336C305.177 261.872 305.244 262.409 305.244 263.012C305.244 263.146 305.311 264.353 305.244 264.688C305.042 264.487 304.168 264.286 303.697 264.353C302.822 264.42 302.082 264.822 301.813 264.956C301.275 265.292 300.939 265.962 301.141 266.699C301.343 267.37 301.881 267.772 302.621 267.772C302.755 267.772 302.822 267.772 302.957 267.772C303.495 267.705 304.1 267.571 304.638 267.37C306.455 266.498 306.253 264.085 306.051 262.409C305.984 261.403 305.849 260.397 305.715 259.392C305.647 258.52 305.782 258.185 306.656 258.185C307.329 258.185 308.002 258.319 308.674 258.252C309.212 258.185 309.818 257.984 310.221 257.649C310.625 257.313 310.827 256.844 310.894 256.442C311.163 255.906 311.096 255.168 311.096 255.168Z" fill="#477E7F"/>
<path d="M259.572 289.225C260.11 290.231 261.59 290.164 262.532 289.561C263.002 289.292 263.675 288.89 263.944 288.488C264.415 287.817 264.146 287.08 264.079 286.343C263.944 285.337 263.608 284.13 263.339 283.124C262.935 281.65 262.599 280.309 262.33 279.37C262.195 278.901 262.128 278.499 262.128 278.23C262.061 277.962 262.128 277.895 262.128 277.828C262.128 277.828 262.061 277.828 261.994 277.895C261.926 277.962 261.859 278.096 261.859 278.23C261.792 278.566 261.792 278.968 261.859 279.437C261.926 280.443 262.263 281.851 262.666 283.326C262.868 284.264 263.406 285.404 263.406 286.343C262.599 286.41 261.657 286.544 260.917 286.812C260.177 287.08 259.505 287.75 259.572 288.555C259.438 288.823 259.505 289.024 259.572 289.225Z" fill="#325F62"/>
<path d="M274.303 269.985C273.63 269.114 272.15 269.516 271.343 270.186C270.939 270.522 270.401 271.058 270.2 271.527C269.863 272.332 270.267 272.935 270.536 273.673C270.872 274.611 271.478 275.751 271.881 276.69C272.554 278.097 273.159 279.304 273.63 280.176C273.832 280.645 273.966 280.98 274.101 281.248C274.168 281.517 274.168 281.584 274.235 281.651C274.235 281.651 274.303 281.651 274.37 281.584C274.437 281.517 274.437 281.383 274.437 281.248C274.437 280.913 274.37 280.511 274.235 280.042C273.966 279.036 273.361 277.762 272.688 276.421C272.285 275.55 271.545 274.544 271.41 273.606C272.15 273.404 273.092 273.069 273.765 272.667C274.437 272.198 274.975 271.527 274.774 270.656C274.504 270.32 274.437 270.119 274.303 269.985Z" fill="#477E7F"/>
<path d="M223.855 280.778C223.115 278.901 221.77 277.292 220.088 276.354C218.407 275.415 216.523 275.08 214.775 275.214C213.9 275.281 213.093 275.482 212.286 275.75C211.546 276.085 210.806 276.488 210.201 277.024C209.528 277.627 209.057 278.365 208.788 279.102V279.169V279.236C208.721 279.438 208.586 279.639 208.586 279.974C208.519 280.242 208.452 280.644 208.452 280.98C208.452 281.717 208.654 282.723 209.259 283.527C209.393 283.728 209.595 283.929 209.797 284.131C209.999 284.265 210.268 284.466 210.537 284.6C211.075 284.868 211.613 285.002 212.286 285.002C212.891 285.002 213.564 284.734 214.035 284.399C214.505 284.064 214.842 283.527 214.909 282.991C215.044 282.387 214.909 281.851 214.707 281.449C214.438 281.047 214.102 280.711 213.766 280.51C213.026 280.108 211.21 280.309 210.806 280.376C210.402 280.443 210.739 279.035 211.075 278.499C212.084 277.091 213.564 276.421 215.178 276.22C218.272 275.884 222.174 278.097 222.846 281.315C223.519 284.332 222.308 287.751 219.483 289.896C218.474 290.701 217.196 291.237 216.12 291.706C215.044 292.243 213.967 292.645 212.958 292.913C211.479 293.315 209.999 293.718 208.586 294.12C207.779 294.321 207.241 294.388 207.174 295.327C207.174 295.662 207.174 295.93 207.241 296.198C207.308 296.668 207.443 297.003 207.577 297.271C207.577 297.338 207.645 297.472 207.779 297.539C207.779 297.539 207.846 297.539 207.846 297.606H207.914C207.981 297.673 208.048 297.673 208.183 297.673C208.452 297.74 208.788 297.673 209.124 297.673C210.537 297.606 212.622 297.204 215.044 296.265C216.254 295.796 217.532 295.193 218.81 294.388C220.088 293.584 221.434 292.578 222.51 291.237C224.595 288.757 225.402 284.533 223.855 280.778Z" fill="#325F62"/>
<path d="M229.775 280.98C228.968 280.711 227.958 281.047 227.756 282.254C227.555 284.333 229.708 284.467 230.381 283.394C231.054 282.254 230.583 281.248 229.775 280.98Z" fill="#325F62"/>
<path d="M229.91 286.545C229.102 286.276 228.093 286.612 227.891 287.819C227.622 289.898 229.842 290.032 230.515 288.959C231.188 287.819 230.717 286.813 229.91 286.545Z" fill="#325F62"/>
<path d="M292.531 246.988C292.329 247.055 291.859 247.323 291.186 247.591C290.715 247.792 290.177 247.926 289.504 248.128C288.832 248.262 288.092 248.463 287.352 248.664C285.872 249.133 284.527 249.669 283.585 250.273C283.249 250.474 281.971 251.077 281.971 251.48C281.971 251.815 282.173 252.351 282.307 252.82C282.576 253.826 283.182 255.1 283.787 256.508C284.325 257.581 284.796 258.586 285.132 259.458C284.594 259.391 284.056 259.525 283.518 259.793C282.711 260.195 282.173 260.799 281.971 261.067C281.567 261.536 281.567 262.341 281.971 262.877C282.374 263.413 283.047 263.614 283.72 263.346C283.787 263.279 283.921 263.279 283.989 263.212C284.46 262.944 286.007 262.072 286.074 260.732C286.141 259.994 285.738 259.324 285.468 258.653C285.132 257.782 284.796 256.977 284.392 256.173C284.258 255.837 283.652 254.362 283.518 254.094C283.787 253.96 284.123 253.826 284.594 253.558C285.468 253.089 286.746 252.485 288.226 252.016C288.966 251.815 289.706 251.614 290.379 251.413C291.051 251.211 291.657 250.943 292.128 250.675C292.531 250.407 292.867 250.206 293.069 250.005C293.406 250.675 294.213 252.619 294.549 253.357C295.289 254.899 296.029 256.307 296.5 257.379C295.962 257.379 295.491 257.446 294.953 257.715C294.145 258.117 293.607 258.72 293.406 258.988C293.002 259.458 293.002 260.262 293.406 260.866C293.809 261.402 294.482 261.603 295.154 261.335C295.222 261.268 295.356 261.268 295.491 261.201C295.962 260.933 296.5 260.597 296.836 260.195C298.047 258.854 297.643 258.184 296.5 255.636C296.096 254.765 295.76 253.893 295.289 253.022C294.482 251.346 293.809 249.938 293.271 248.798C293.002 248.262 292.666 247.457 292.531 246.988C292.598 246.921 292.666 246.921 292.531 246.988Z" fill="#325F62"/>
<path d="M249.819 272.733C249.617 272.8 249.146 273.069 248.474 273.27C248.003 273.404 247.465 273.538 246.792 273.672C246.119 273.806 245.379 273.94 244.64 274.141C243.093 274.544 241.747 275.013 240.806 275.549C240.469 275.75 239.191 276.287 239.124 276.689C239.124 277.024 239.259 277.56 239.393 278.097C239.662 279.102 240.133 280.443 240.671 281.851C241.142 282.991 241.545 283.997 241.882 284.868C241.344 284.801 240.806 284.868 240.267 285.136C239.46 285.472 238.855 286.075 238.653 286.276C238.182 286.745 238.182 287.55 238.586 288.086C238.989 288.69 239.662 288.891 240.335 288.623C240.402 288.555 240.537 288.555 240.671 288.488C241.142 288.287 242.689 287.483 242.891 286.142C242.958 285.404 242.622 284.734 242.42 284.064C242.151 283.192 241.815 282.388 241.478 281.516C241.344 281.181 241.209 280.913 241.075 280.577C241.344 280.51 241.68 280.309 242.151 280.108C243.093 279.706 244.371 279.102 245.85 278.767C246.59 278.566 247.33 278.432 248.003 278.231C248.675 278.097 249.281 277.829 249.752 277.628C250.222 277.426 250.492 277.158 250.761 276.957C251.03 277.628 251.366 278.432 251.702 279.237C252.375 280.846 252.98 282.253 253.451 283.326C252.913 283.259 252.442 283.393 251.837 283.594C251.03 283.93 250.424 284.533 250.222 284.734C249.752 285.203 249.752 286.008 250.155 286.611C250.559 287.215 251.231 287.416 251.904 287.148C251.971 287.081 252.106 287.081 252.24 287.013C252.778 286.812 253.249 286.477 253.653 286.075C254.931 284.801 254.595 284.131 253.518 281.516C253.182 280.644 252.846 279.773 252.442 278.901C251.702 277.158 251.164 275.683 250.693 274.611C250.424 274.074 250.155 273.203 250.021 272.733C249.886 272.666 249.819 272.666 249.819 272.733Z" fill="#477E7F"/>
<path d="M328.652 253.424C328.45 252.352 326.903 252.017 325.894 252.285C325.356 252.419 324.616 252.62 324.212 252.955C323.54 253.492 323.607 254.229 323.54 255.034C323.405 256.039 323.405 257.313 323.338 258.319C323.271 259.861 323.338 261.201 323.271 262.207C323.271 262.676 323.203 263.079 323.203 263.347C323.136 263.615 323.069 263.682 323.136 263.749C323.136 263.749 323.203 263.749 323.271 263.749C323.338 263.682 323.472 263.615 323.54 263.481C323.674 263.213 323.809 262.81 323.876 262.274C324.078 261.268 324.145 259.861 324.212 258.319C324.212 257.38 324.078 256.106 324.347 255.235C325.154 255.369 326.028 255.503 326.835 255.436C327.643 255.369 328.45 254.966 328.652 254.095C328.652 253.827 328.652 253.626 328.652 253.424Z" fill="#325F62"/>
<path d="M342.037 246.922C341.835 245.849 340.288 245.514 339.279 245.782C338.741 245.916 338.001 246.117 337.598 246.452C336.925 246.989 336.992 247.726 336.925 248.531C336.79 249.536 336.79 250.81 336.723 251.816C336.656 253.358 336.723 254.699 336.656 255.704C336.656 256.173 336.589 256.576 336.589 256.844C336.521 257.112 336.454 257.179 336.521 257.246C336.521 257.246 336.589 257.246 336.656 257.246C336.723 257.179 336.858 257.112 336.925 256.978C337.06 256.71 337.194 256.308 337.261 255.771C337.463 254.766 337.53 253.358 337.598 251.816C337.598 250.877 337.463 249.603 337.732 248.732C338.539 248.866 339.414 249 340.221 248.933C341.028 248.866 341.835 248.464 342.037 247.592C342.104 247.324 342.104 247.123 342.037 246.922Z" fill="#477E7F"/>
<path d="M357.238 256.844C357.171 256.777 357.104 256.844 356.969 256.844C356.902 256.844 356.835 256.911 356.7 256.911C356.633 256.911 356.499 256.978 356.364 256.978C355.893 257.113 355.355 257.045 354.615 256.777C353.404 256.375 352.126 255.705 351.387 257.18C351.118 257.783 351.05 258.252 350.983 259.124C350.983 260.331 351.05 261.806 351.252 263.012C351.319 263.549 351.387 264.085 351.387 264.688C351.387 264.822 351.454 266.029 351.387 266.364C351.185 266.163 350.31 265.962 349.839 266.029C348.965 266.096 348.225 266.499 347.956 266.633C347.418 266.968 347.082 267.638 347.283 268.376C347.485 269.046 348.023 269.448 348.763 269.448C348.831 269.448 348.965 269.448 349.1 269.448C349.638 269.381 350.243 269.247 350.781 269.046C352.597 268.175 352.396 265.761 352.194 264.085C352.126 263.079 351.992 262.074 351.857 261.068C351.79 260.196 351.925 259.861 352.799 259.861C353.472 259.861 354.144 259.995 354.817 259.928C355.355 259.861 355.96 259.66 356.364 259.325C356.768 258.99 356.969 258.52 357.037 258.118C357.306 257.649 357.306 256.911 357.238 256.844Z" fill="#325F62"/>
<path d="M380.646 265.492C380.579 264.822 380.041 264.285 379.301 264.218C379.234 264.218 379.099 264.218 378.965 264.218C378.426 264.218 376.678 264.218 375.938 265.358C375.534 265.961 375.534 266.766 375.467 267.436C375.332 268.308 375.198 272.867 375.131 273.738C375.131 274.074 375.063 275.951 375.063 276.286C374.794 276.219 374.391 276.219 373.92 276.219C372.911 276.219 371.498 276.152 370.018 275.817C369.279 275.683 368.539 275.481 367.866 275.347C367.193 275.213 366.521 275.146 365.983 275.146C365.579 275.146 365.243 275.213 364.974 275.28C365.041 273.872 365.108 270.99 365.243 270.051C365.646 270.319 366.184 270.453 366.79 270.52C367.664 270.587 368.471 270.319 368.74 270.185C369.346 269.984 369.749 269.246 369.615 268.576C369.548 267.906 369.01 267.369 368.27 267.302C368.202 267.302 368.068 267.302 367.933 267.302C367.395 267.302 366.79 267.302 366.252 267.503C364.57 268.04 364.57 268.844 364.368 271.66C364.301 272.599 364.234 273.537 364.167 274.476C363.898 276.487 363.696 278.029 363.696 278.163C363.763 278.23 363.696 278.23 364.032 278.297C364.301 278.364 364.57 278.297 365.243 278.431C365.714 278.498 366.252 278.565 366.924 278.632C367.597 278.699 368.27 278.901 369.077 279.102C370.624 279.437 372.036 279.571 373.113 279.504C373.449 279.504 375.265 279.571 375.467 279.236C375.601 278.968 375.601 278.565 375.669 278.029C375.803 277.023 375.87 275.481 376.005 274.007C376.072 272.8 376.207 268.04 376.341 267.168C376.812 267.436 377.35 267.637 377.888 267.637C378.763 267.704 379.57 267.436 379.839 267.302C380.377 266.9 380.713 266.23 380.646 265.492Z" fill="#477E7F"/>
<path d="M361.207 253.692C361.342 254.765 362.754 255.301 363.83 255.1C364.369 255.033 365.108 254.899 365.579 254.631C366.252 254.161 366.319 253.424 366.454 252.686C366.655 251.681 366.857 250.474 366.992 249.401C367.194 247.859 367.328 246.518 367.463 245.513C367.53 245.043 367.597 244.641 367.664 244.373C367.732 244.105 367.799 244.038 367.799 243.971C367.799 243.971 367.732 243.904 367.664 243.971C367.597 244.038 367.463 244.105 367.395 244.239C367.194 244.507 367.059 244.909 366.924 245.379C366.655 246.384 366.386 247.725 366.185 249.267C366.05 250.206 366.117 251.48 365.714 252.351C364.974 252.15 364.032 251.882 363.225 251.882C362.418 251.882 361.611 252.217 361.274 253.021C361.207 253.29 361.14 253.491 361.207 253.692Z" fill="#325F62"/>
<path d="M398.942 261.805C398.875 261.738 398.807 261.805 398.673 261.805C398.606 261.805 398.538 261.872 398.404 261.872C398.337 261.872 398.202 261.939 398.067 261.939C397.597 262.073 397.059 262.006 396.319 261.738C395.108 261.336 393.83 260.666 393.09 262.14C392.821 262.744 392.754 263.213 392.686 264.085C392.686 265.292 392.754 266.766 392.955 267.973C393.023 268.51 393.09 269.046 393.09 269.649C393.09 269.783 393.157 270.99 393.09 271.325C392.888 271.124 392.014 270.923 391.543 270.99C390.669 271.057 389.929 271.459 389.66 271.594C389.121 271.929 388.785 272.599 388.987 273.337C389.189 274.007 389.727 274.409 390.467 274.409C390.534 274.409 390.668 274.409 390.803 274.409C391.341 274.342 391.946 274.208 392.485 274.007C394.301 273.136 394.099 270.722 393.897 269.046C393.83 268.04 393.695 267.035 393.561 266.029C393.494 265.157 393.628 264.822 394.503 264.822C395.175 264.822 395.848 264.956 396.52 264.889C397.059 264.822 397.664 264.621 398.067 264.286C398.471 263.951 398.673 263.481 398.74 263.079C399.009 262.543 398.942 261.805 398.942 261.805Z" fill="#477E7F"/>
<path d="M378.897 176.296C378.763 176.498 378.561 176.833 378.359 177.101C378.158 177.436 377.956 177.838 377.619 178.241C376.476 179.984 374.593 182.33 371.7 184.945C370.96 185.615 370.153 186.219 369.346 186.889C368.875 187.224 368.472 187.56 368.001 187.828C367.799 187.962 367.53 188.163 367.328 188.297C367.059 188.431 366.857 188.632 366.588 188.766C364.638 190.107 362.283 191.314 359.795 192.454C354.75 194.733 348.629 196.61 341.768 197.75C334.84 198.89 327.172 199.292 318.966 198.622C314.863 198.286 310.625 197.683 306.387 196.677C305.311 196.409 304.235 196.141 303.159 195.873C302.083 195.538 301.006 195.27 299.93 194.934C297.778 194.264 295.625 193.459 293.473 192.655C284.729 189.571 275.514 186.286 265.693 183.671C255.873 181.056 245.581 179.112 234.886 177.838C224.192 176.699 213.631 176.9 203.542 177.704C193.452 178.509 183.766 180.252 174.753 182.733C165.74 185.146 157.399 187.962 149.664 190.979C141.928 193.996 134.933 197.147 128.677 200.365C125.852 201.907 123.296 203.315 120.875 204.79V205.661C123.431 204.186 126.121 202.711 129.014 201.236C135.269 198.085 142.265 194.934 150 191.984C157.735 189.035 166.076 186.286 175.022 183.872C183.968 181.392 193.519 179.783 203.609 178.978C213.631 178.174 224.124 177.972 234.752 179.112C245.38 180.386 255.671 182.263 265.357 184.878C275.11 187.493 284.258 190.711 293.069 193.795C295.289 194.532 297.374 195.337 299.594 196.074C300.67 196.476 301.746 196.744 302.823 197.013C303.899 197.281 304.975 197.549 306.051 197.817C310.356 198.756 314.661 199.359 318.764 199.694C327.037 200.365 334.84 199.895 341.768 198.689C348.696 197.482 354.884 195.538 359.929 193.191C362.485 191.984 364.772 190.711 366.723 189.37C366.992 189.236 367.194 189.035 367.463 188.9C367.732 188.699 367.934 188.565 368.135 188.364C368.606 188.029 369.077 187.694 369.481 187.358C370.288 186.621 371.162 186.018 371.835 185.347C374.727 182.665 376.611 180.185 377.687 178.442C377.956 178.04 378.225 177.637 378.359 177.235C378.561 176.9 378.696 176.632 378.83 176.363C379.099 175.894 379.167 175.626 379.167 175.626C379.368 175.626 379.167 175.827 378.897 176.296Z" fill="#82BAB0"/>
<path d="M378.965 181.056C378.83 181.257 378.628 181.593 378.427 181.861C378.225 182.196 378.023 182.598 377.687 183.001C376.543 184.744 374.66 187.09 371.768 189.705C371.028 190.375 370.22 190.979 369.413 191.649C368.942 191.984 368.539 192.32 368.068 192.655C367.866 192.789 367.597 192.99 367.395 193.191C367.126 193.325 366.925 193.526 366.655 193.66C364.705 195.001 362.418 196.208 359.862 197.348C354.817 199.627 348.763 201.571 341.835 202.711C334.974 203.851 327.239 204.253 319.033 203.583C314.93 203.247 310.76 202.644 306.455 201.638C304.302 201.102 302.217 200.566 300.065 199.828C297.912 199.158 295.76 198.353 293.54 197.616C289.168 196.141 284.661 194.599 279.953 193.191C277.666 192.454 275.244 191.783 272.89 191.113C270.469 190.442 268.115 189.772 265.626 189.168C260.716 187.895 255.671 186.822 250.559 185.95C245.38 185.012 240.133 184.408 234.752 184.006C229.371 183.604 224.057 183.537 218.81 183.738C213.564 183.872 208.385 184.61 203.407 185.414C193.452 187.157 183.901 189.37 175.089 192.521C166.412 195.672 158.273 199.091 150.74 202.51C143.206 205.996 136.413 209.549 130.292 213.036C126.929 214.98 123.767 216.924 120.875 218.868V219.74C123.902 217.729 127.198 215.717 130.763 213.706C136.884 210.287 143.677 206.734 151.211 203.315C158.744 199.895 166.883 196.543 175.627 193.526C184.372 190.442 193.856 188.297 203.811 186.554C208.788 185.749 213.833 185.012 219.012 184.878C224.192 184.677 229.505 184.744 234.819 185.146C240.133 185.548 245.38 186.152 250.492 187.09C255.604 187.962 260.648 189.034 265.491 190.241C267.913 190.845 270.334 191.515 272.756 192.118C275.11 192.789 277.464 193.459 279.818 194.197C284.46 195.605 288.966 197.08 293.338 198.554C295.558 199.292 297.643 200.096 299.863 200.767C302.015 201.504 304.235 202.041 306.387 202.577C310.692 203.516 314.997 204.119 319.1 204.454C327.374 205.125 335.176 204.655 342.104 203.449C349.032 202.242 355.153 200.298 360.265 197.884C362.754 196.677 365.108 195.403 367.059 194.063C367.328 193.929 367.53 193.727 367.799 193.593C368.068 193.392 368.27 193.258 368.472 193.057C368.942 192.722 369.413 192.387 369.817 192.051C370.624 191.314 371.498 190.71 372.171 190.04C375.063 187.358 376.88 184.878 377.956 183.135C378.225 182.732 378.494 182.33 378.628 181.928C378.83 181.593 378.965 181.324 379.099 181.056C379.368 180.587 379.436 180.319 379.436 180.319C379.436 180.386 379.234 180.654 378.965 181.056Z" fill="#82BAB0"/>
<path d="M379.032 185.816C378.897 186.017 378.696 186.285 378.494 186.621C378.292 186.956 378.09 187.358 377.754 187.76C376.61 189.436 374.794 191.85 371.902 194.397C369.077 197.012 365.108 199.627 360.198 201.973C355.221 204.253 349.234 206.197 342.441 207.337C335.647 208.476 328.046 208.946 319.975 208.342C315.939 208.007 311.769 207.471 307.598 206.532C305.513 206.063 303.361 205.527 301.275 204.856C299.19 204.186 297.038 203.448 294.818 202.778C292.666 202.04 290.446 201.37 288.226 200.632C285.939 200.029 283.652 199.359 281.365 198.755C280.222 198.42 279.078 198.085 277.868 197.817C276.657 197.549 275.514 197.28 274.303 197.012C273.092 196.744 271.881 196.476 270.671 196.208C269.46 195.939 268.249 195.671 267.038 195.47C264.55 195.068 262.061 194.599 259.572 194.196C258.294 193.928 257.083 193.861 255.805 193.66C254.527 193.526 253.249 193.392 251.971 193.191C250.693 193.057 249.415 192.923 248.137 192.721C246.859 192.654 245.514 192.587 244.236 192.453C242.958 192.386 241.613 192.319 240.335 192.185C238.989 192.118 237.711 191.984 236.366 192.051C233.743 192.051 231.052 191.984 228.496 191.984C227.218 191.917 225.873 192.051 224.595 192.118C223.317 192.185 221.972 192.252 220.694 192.319C215.515 192.453 210.47 192.99 205.492 193.861C200.582 194.733 195.739 195.872 191.165 197.347C186.591 198.889 182.219 200.565 177.982 202.241C160.897 209.013 145.964 216.253 134.193 223.494C129.148 226.645 124.709 229.729 120.875 232.813V233.685C124.776 230.601 129.417 227.45 134.597 224.232C146.435 217.058 161.3 209.951 178.318 203.247C182.555 201.571 186.995 199.895 191.501 198.42C196.008 196.945 200.784 195.805 205.627 195.001C210.537 194.196 215.515 193.593 220.694 193.459C221.972 193.392 223.25 193.325 224.528 193.325C225.806 193.258 227.084 193.191 228.429 193.191C231.052 193.191 233.676 193.258 236.299 193.258C237.644 193.258 238.922 193.325 240.2 193.392C241.478 193.459 242.823 193.526 244.101 193.66C245.379 193.727 246.725 193.794 248.003 193.928C249.281 194.062 250.559 194.196 251.837 194.397C253.115 194.532 254.393 194.666 255.671 194.867C256.949 195.001 258.227 195.135 259.438 195.403C261.926 195.805 264.415 196.275 266.837 196.677C268.047 196.878 269.258 197.146 270.469 197.414C271.68 197.683 272.89 197.951 274.034 198.219C275.244 198.487 276.388 198.755 277.599 199.023C278.742 199.292 279.953 199.627 281.096 199.962C283.383 200.565 285.67 201.236 287.957 201.839C290.177 202.577 292.397 203.247 294.549 203.985C296.702 204.722 298.854 205.393 301.006 206.063C303.159 206.666 305.311 207.27 307.464 207.739C311.701 208.678 315.939 209.214 320.042 209.482C328.181 210.086 335.849 209.549 342.71 208.342C349.571 207.136 355.624 205.124 360.602 202.778C365.579 200.364 369.548 197.616 372.373 194.934C375.198 192.252 377.014 189.839 378.09 188.095C378.359 187.693 378.628 187.291 378.763 186.956C378.965 186.621 379.099 186.352 379.234 186.084C379.503 185.615 379.57 185.414 379.57 185.347C379.436 185.146 379.301 185.414 379.032 185.816Z" fill="#82BAB0"/>
<path d="M379.435 190.777C379.301 190.978 379.166 191.247 378.965 191.582C378.763 191.917 378.561 192.319 378.225 192.722C377.081 194.398 375.265 196.744 372.507 199.292C371.835 199.962 371.028 200.566 370.22 201.236C369.817 201.571 369.346 201.839 368.942 202.175C368.472 202.51 368.068 202.845 367.53 203.18C365.579 204.454 363.427 205.728 361.005 206.935C358.584 208.074 355.893 209.147 352.934 210.153C350.041 211.091 346.88 211.896 343.517 212.566C336.858 213.84 329.324 214.443 321.32 214.041C317.351 213.84 313.181 213.371 309.011 212.566C306.926 212.164 304.84 211.695 302.688 211.091C301.612 210.823 300.603 210.488 299.527 210.153C298.45 209.818 297.374 209.415 296.365 209.08C292.06 207.605 287.621 206.264 283.047 204.99C278.473 203.784 273.765 202.644 268.854 201.772C264.011 200.901 259.034 200.163 253.922 199.694C248.81 199.292 243.631 198.957 238.451 199.091C237.173 199.091 235.828 199.158 234.55 199.225C233.272 199.292 231.927 199.292 230.649 199.426C229.371 199.56 228.093 199.627 226.815 199.694C225.537 199.828 224.259 199.962 222.981 200.096C221.703 200.23 220.425 200.432 219.214 200.633C217.936 200.834 216.725 200.968 215.447 201.236C212.959 201.705 210.537 202.309 208.116 202.912C198.564 205.46 189.551 208.544 181.143 211.896C164.327 218.533 149.731 226.176 138.498 234.02C132.915 237.975 128.139 241.998 124.305 245.887C123.027 247.16 121.884 248.434 120.875 249.708V250.58C122.018 249.172 123.364 247.764 124.776 246.356C128.61 242.534 133.386 238.579 138.969 234.69C150.202 226.913 164.731 219.405 181.546 212.834C189.954 209.549 198.968 206.465 208.452 203.985C210.806 203.381 213.228 202.778 215.649 202.309C216.86 202.041 218.138 201.906 219.349 201.705C220.627 201.504 221.837 201.303 223.115 201.169C224.393 201.035 225.671 200.901 226.882 200.767C228.16 200.633 229.438 200.566 230.716 200.499C231.994 200.364 233.272 200.364 234.55 200.297C235.828 200.297 237.106 200.163 238.451 200.163C243.631 200.096 248.81 200.364 253.855 200.767C258.899 201.169 263.81 201.974 268.653 202.778C273.496 203.65 278.204 204.789 282.711 205.929C287.285 207.203 291.724 208.477 295.962 209.952C298.114 210.622 300.266 211.427 302.352 211.963C304.504 212.566 306.656 213.036 308.742 213.438C312.979 214.242 317.15 214.645 321.185 214.846C329.257 215.181 336.858 214.578 343.584 213.17C346.947 212.499 350.109 211.628 353.068 210.689C356.028 209.683 358.718 208.544 361.14 207.404C363.561 206.197 365.781 204.856 367.732 203.583C368.202 203.247 368.673 202.912 369.144 202.577C369.615 202.242 370.019 201.906 370.422 201.571C371.229 200.901 372.036 200.23 372.709 199.56C375.467 196.945 377.283 194.465 378.359 192.789C378.628 192.386 378.83 191.984 379.032 191.649C379.234 191.314 379.368 191.046 379.503 190.777C379.772 190.308 379.839 190.107 379.839 190.107C379.839 190.107 379.704 190.308 379.435 190.777Z" fill="#82BAB0"/>
<path d="M379.503 197.146C379.234 197.548 378.897 198.219 378.292 199.09C377.216 200.766 375.4 203.113 372.575 205.661C371.162 206.934 369.548 208.208 367.664 209.549C365.714 210.823 363.561 212.097 361.207 213.236C358.786 214.376 356.095 215.516 353.203 216.454C350.311 217.393 347.149 218.198 343.853 218.868C337.194 220.209 329.795 220.812 321.791 220.41C313.854 220.008 305.379 218.667 296.971 215.65C295.894 215.315 294.818 214.912 293.742 214.577C292.666 214.242 291.522 213.907 290.446 213.572C288.226 212.901 286.007 212.298 283.72 211.694C279.146 210.555 274.437 209.549 269.594 208.745C259.908 207.203 249.684 206.532 239.326 206.934C234.147 207.136 228.967 207.605 223.99 208.275C222.712 208.409 221.501 208.678 220.223 208.812C219.012 209.013 217.734 209.147 216.524 209.415C214.035 209.884 211.681 210.555 209.326 211.225C204.618 212.633 200.111 214.309 195.672 216.052C191.3 217.795 187.062 219.605 182.959 221.55C166.681 229.26 152.825 237.841 142.265 246.49C137.018 250.78 132.579 255.138 129.014 259.228C127.265 261.239 125.718 263.317 124.373 265.195C123.767 266.133 123.095 267.072 122.556 267.943C122.018 268.882 121.548 269.753 121.077 270.558C121.009 270.692 120.942 270.826 120.875 270.96V271.899C121.077 271.564 121.211 271.161 121.48 270.826C121.951 270.022 122.489 269.15 122.96 268.279C123.565 267.407 124.171 266.468 124.843 265.53C126.189 263.653 127.736 261.708 129.485 259.697C133.05 255.674 137.489 251.451 142.736 247.16C153.296 238.579 167.152 230.064 183.43 222.421C187.466 220.544 191.703 218.734 196.075 216.991C200.448 215.248 204.954 213.639 209.595 212.231C211.95 211.56 214.304 210.89 216.725 210.421C217.936 210.152 219.147 210.018 220.425 209.817C221.636 209.616 222.914 209.415 224.124 209.281C229.102 208.61 234.214 208.208 239.393 207.94C249.752 207.538 259.841 208.208 269.46 209.75C274.303 210.488 278.944 211.56 283.518 212.633C285.805 213.236 288.025 213.773 290.244 214.51C291.32 214.845 292.464 215.181 293.54 215.516C294.616 215.851 295.693 216.253 296.769 216.589C305.311 219.673 313.854 221.013 321.925 221.349C329.93 221.684 337.463 221.013 344.122 219.605C347.485 218.935 350.647 218.064 353.539 217.058C356.431 216.052 359.122 214.912 361.544 213.706C363.965 212.499 366.117 211.158 368.068 209.884C369.951 208.543 371.633 207.203 372.978 205.862C375.736 203.247 377.552 200.834 378.561 199.09C379.099 198.286 379.436 197.548 379.705 197.079C379.974 196.61 380.041 196.409 380.041 196.409C379.974 196.476 379.772 196.677 379.503 197.146Z" fill="#82BAB0"/>
<path d="M182.959 208.744C182.219 207.738 181.21 206.867 180.067 206.331C179.192 205.928 178.183 205.861 177.309 206.129C176.435 206.398 175.695 206.867 175.157 207.403C174.618 207.94 174.282 208.476 174.013 209.146C173.744 208.878 173.408 208.61 173.139 208.409C172.062 207.47 170.919 206.465 169.775 205.392C169.641 205.258 169.574 205.191 169.439 205.057C169.574 204.185 169.641 203.381 169.775 202.509C169.977 200.632 170.179 198.755 169.91 196.743C169.775 195.738 169.506 194.732 169.103 193.794C168.699 192.855 168.094 191.983 167.287 191.313C166.883 190.978 166.412 190.643 165.874 190.441C165.336 190.24 164.663 190.173 164.058 190.374C163.453 190.575 162.982 190.978 162.646 191.38C162.309 191.782 161.973 192.185 161.771 192.721C161.368 193.794 161.502 194.866 161.704 195.738C161.973 196.676 162.309 197.548 162.713 198.285C163.52 199.894 164.596 201.302 165.605 202.576C166.143 203.247 166.681 203.85 167.152 204.453C167.287 204.654 167.488 204.856 167.623 204.99C167.556 205.258 167.488 205.593 167.421 205.861C167.152 207.202 166.883 208.677 166.749 210.286C166.614 211.828 166.681 213.504 167.219 215.113C167.758 216.722 168.767 218.13 170.045 219.136C172.399 221.281 176.435 221.214 179.192 219.873C179.865 219.538 180.605 219.069 181.21 218.532C181.479 218.868 181.681 219.203 181.95 219.538C182.354 220.208 182.757 220.812 182.959 221.415C183.026 221.482 183.026 221.549 183.026 221.616C183.026 221.683 183.094 221.75 183.026 221.75V221.817L182.959 221.884C182.892 221.952 182.757 222.019 182.623 222.086C182.286 222.153 181.883 222.287 181.547 222.488C181.21 222.622 180.941 222.756 180.739 222.957C180.538 223.091 180.336 223.292 180.201 223.426C180.067 223.561 179.932 223.762 179.865 223.896C179.798 224.03 179.73 224.164 179.663 224.298C179.663 224.365 179.596 224.432 179.596 224.499C179.192 225.17 179.327 226.041 179.865 226.645C180.403 227.248 181.345 227.315 182.017 226.98C182.825 226.645 183.43 226.041 183.834 225.304C184.573 224.03 184.708 222.555 184.304 221.147C184.103 220.41 183.766 219.739 183.43 219.069C183.094 218.465 182.69 217.929 182.286 217.326C182.69 216.789 182.959 216.253 183.161 215.784C184.035 213.973 184.372 211.962 183.632 210.018C183.564 209.884 183.564 209.817 183.497 209.683C183.43 209.482 183.228 209.146 182.959 208.744ZM163.991 197.682C163.587 196.945 163.318 196.207 163.116 195.403C162.915 194.665 162.915 193.861 163.116 193.19C163.654 191.715 165.134 191.313 166.345 192.319C166.412 192.453 166.883 192.855 167.287 193.794C167.758 194.866 168.161 196.542 168.296 198.621C168.296 198.889 168.363 199.157 168.363 199.425C168.363 199.693 168.363 199.961 168.363 200.23C168.363 200.766 168.363 201.369 168.228 201.973C168.161 202.375 168.094 202.844 168.027 203.314C167.556 202.777 167.152 202.241 166.681 201.705C165.74 200.498 164.731 199.157 163.991 197.682ZM174.887 218.264C174.215 218.197 173.475 217.996 172.87 217.661C172.264 217.326 171.659 216.789 171.255 216.253C170.314 215.113 169.91 213.571 169.775 211.895C169.641 210.42 169.775 208.945 169.91 207.403C170.381 207.873 171.188 208.543 172.264 209.415C172.735 209.75 173.206 210.219 173.677 210.688C173.677 210.889 173.677 211.024 173.677 211.225C173.744 212.431 174.148 213.303 174.618 213.839C174.753 214.04 175.022 214.175 175.224 214.309C176.031 214.711 175.291 213.705 175.157 213.437C174.887 212.901 174.753 212.297 174.753 211.694C174.955 211.828 175.157 212.029 175.358 212.23C175.964 212.767 176.502 213.37 177.107 213.906C177.376 214.175 177.713 214.51 178.049 214.778C178.318 215.113 178.654 215.448 178.923 215.784C179.192 216.119 179.529 216.454 179.798 216.789C179.865 216.856 179.932 216.923 180 216.99C179.73 217.191 179.394 217.393 178.856 217.661C177.578 218.264 176.3 218.465 174.887 218.264ZM182.556 212.901C182.488 214.04 181.883 215.18 181.143 215.918C180.538 215.18 180 214.577 179.26 213.839C177.982 212.566 176.569 211.225 175.089 209.951C175.089 209.884 175.089 209.884 175.157 209.817C175.157 209.683 175.291 209.549 175.358 209.415C175.426 209.28 175.493 209.146 175.56 209.012C175.896 208.476 176.435 208.007 177.174 207.738C177.914 207.47 178.789 207.537 179.596 207.873C180.403 208.275 181.143 208.945 181.748 209.817C182.219 210.688 182.623 211.761 182.556 212.901Z" fill="#E75B5A"/>
<path d="M349.032 191.446C348.965 191.379 348.898 191.379 348.763 191.446C348.696 191.446 348.629 191.513 348.494 191.513C348.427 191.513 348.293 191.58 348.158 191.58C347.687 191.714 347.082 191.647 346.342 191.379C345.131 190.91 343.853 190.239 343.046 191.714C342.777 192.318 342.642 192.854 342.642 193.659C342.575 194.932 342.71 196.407 342.844 197.681C342.912 198.218 342.912 198.821 342.979 199.357C342.979 199.491 343.046 200.698 342.979 201.1C342.777 200.899 341.903 200.698 341.432 200.698C340.557 200.765 339.75 201.1 339.481 201.302C338.876 201.637 338.607 202.307 338.741 203.045C338.876 203.715 339.481 204.184 340.221 204.184C340.356 204.184 340.423 204.184 340.557 204.184C341.095 204.117 341.768 204.05 342.239 203.782C344.055 202.911 343.92 200.497 343.786 198.754C343.719 197.748 343.584 196.676 343.517 195.67C343.45 194.798 343.584 194.463 344.526 194.463C345.198 194.463 345.938 194.597 346.611 194.53C347.216 194.463 347.822 194.329 348.225 193.927C348.696 193.592 348.831 193.055 348.965 192.72C349.1 192.184 349.032 191.446 349.032 191.446Z" fill="#FCA7A7"/>
<path d="M211.21 186.888C211.411 187.961 212.959 188.363 214.035 188.028C214.573 187.894 215.313 187.692 215.716 187.357C216.389 186.821 216.322 186.083 216.389 185.279C216.523 184.206 216.523 182.932 216.523 181.927C216.523 180.385 216.523 178.977 216.523 177.971C216.523 177.435 216.591 177.033 216.591 176.831C216.658 176.563 216.725 176.496 216.658 176.429C216.658 176.429 216.591 176.429 216.523 176.429C216.456 176.496 216.322 176.563 216.254 176.697C216.12 176.966 215.985 177.368 215.918 177.904C215.716 178.91 215.649 180.385 215.649 181.927C215.649 182.865 215.851 184.139 215.582 185.078C214.775 184.944 213.833 184.81 213.026 184.877C212.219 184.944 211.411 185.413 211.21 186.217C211.142 186.419 211.142 186.687 211.21 186.888Z" fill="#E75B5A"/>
<path d="M212.622 201.167C212.353 200.228 210.806 199.96 209.797 200.228C209.259 200.363 208.519 200.564 208.116 200.899C207.443 201.368 207.51 202.039 207.443 202.709C207.376 203.581 207.376 204.72 207.376 205.592C207.376 206.933 207.443 208.139 207.443 209.011C207.443 209.413 207.443 209.816 207.376 210.017C207.376 210.218 207.241 210.352 207.308 210.352C207.308 210.352 207.376 210.352 207.443 210.352C207.51 210.285 207.645 210.218 207.712 210.084C207.846 209.816 207.981 209.48 208.048 209.011C208.183 208.139 208.25 206.933 208.25 205.592C208.25 204.787 208.048 203.715 208.25 202.91C209.057 203.044 209.999 203.111 210.806 202.977C211.613 202.91 212.42 202.508 212.622 201.77C212.689 201.502 212.689 201.301 212.622 201.167Z" fill="#FCA7A7"/>
<path d="M199.035 182.061C198.766 182.061 198.295 182.195 197.555 182.195C197.017 182.195 196.479 182.195 195.806 182.128C195.134 182.061 194.394 181.994 193.519 181.927C191.905 181.86 190.425 181.994 189.416 182.195C189.08 182.262 187.6 182.463 187.466 182.865C187.331 183.2 187.331 183.804 187.331 184.273C187.264 185.346 187.398 186.754 187.533 188.296C187.667 189.502 187.802 190.642 187.869 191.581C187.398 191.38 186.793 191.313 186.188 191.38C185.313 191.514 184.573 191.916 184.304 192.05C183.766 192.385 183.497 193.123 183.699 193.86C183.901 194.531 184.506 194.933 185.246 194.866C185.381 194.866 185.448 194.866 185.582 194.799C186.12 194.732 187.869 194.397 188.407 193.123C188.676 192.452 188.542 191.648 188.542 190.91C188.542 189.972 188.475 189.1 188.34 188.162C188.273 187.826 188.206 186.217 188.138 185.882C188.407 185.882 188.811 185.815 189.282 185.748C190.291 185.614 191.703 185.413 193.25 185.48C194.057 185.48 194.797 185.547 195.47 185.614C196.143 185.614 196.815 185.614 197.353 185.48C197.824 185.413 198.228 185.279 198.497 185.145C198.564 185.882 198.699 188.028 198.833 188.899C199.035 190.642 199.237 192.251 199.371 193.391C198.9 193.19 198.362 193.123 197.757 193.19C196.883 193.324 196.143 193.726 195.874 193.86C195.335 194.195 195.066 194.933 195.268 195.67C195.47 196.341 196.075 196.743 196.815 196.676C196.95 196.676 197.017 196.676 197.152 196.609C197.69 196.542 198.295 196.408 198.833 196.073C200.448 195.201 200.313 194.397 199.977 191.581C199.909 190.642 199.842 189.637 199.708 188.698C199.506 186.821 199.371 185.212 199.17 184.005C199.102 183.402 199.035 182.463 199.102 181.994C199.17 182.061 199.102 182.061 199.035 182.061Z" fill="#E75B5A"/>
<path d="M278.069 183.671C278.002 183.604 277.935 183.671 277.8 183.671C277.733 183.671 277.666 183.738 277.531 183.805C277.464 183.805 277.33 183.872 277.195 183.939C276.724 184.073 276.119 184.073 275.379 183.805C274.101 183.403 272.823 182.799 272.15 184.341C271.881 184.945 271.814 185.481 271.814 186.285C271.814 187.559 272.016 189.034 272.15 190.241C272.218 190.777 272.285 191.381 272.352 191.917C272.352 192.051 272.487 193.258 272.419 193.66C272.218 193.459 271.343 193.258 270.805 193.325C269.931 193.459 269.191 193.861 268.922 193.995C268.384 194.331 268.114 195.068 268.316 195.806C268.518 196.476 269.123 196.878 269.863 196.878C269.998 196.878 270.065 196.878 270.2 196.878C270.738 196.811 271.343 196.677 271.881 196.409C273.697 195.47 273.428 192.99 273.226 191.314C273.092 190.308 272.957 189.235 272.823 188.23C272.688 187.358 272.823 187.023 273.765 187.023C274.437 187.023 275.177 187.09 275.85 187.023C276.455 186.956 276.993 186.755 277.464 186.353C277.868 185.95 278.069 185.481 278.137 185.079C278.137 184.408 278.137 183.671 278.069 183.671Z" fill="#FCA7A7"/>
<path d="M244.034 185.413C243.9 184.676 243.362 184.207 242.622 184.14C242.554 184.14 242.42 184.14 242.285 184.14C241.747 184.14 239.931 184.207 239.191 185.413C238.788 186.017 238.855 186.888 238.72 187.559C238.586 188.497 238.586 193.123 238.519 194.062C238.519 194.397 238.519 196.341 238.519 196.677C238.25 196.677 237.846 196.677 237.308 196.677C236.232 196.677 234.819 196.677 233.272 196.408C232.532 196.274 231.792 196.073 231.052 195.939C230.38 195.805 229.707 195.738 229.169 195.805C228.765 195.805 228.429 195.872 228.16 195.939C228.227 194.464 228.227 191.581 228.295 190.576C228.765 190.844 229.304 190.978 229.909 190.978C230.783 190.978 231.59 190.71 231.927 190.576C232.532 190.308 232.868 189.637 232.801 188.9C232.667 188.229 232.129 187.693 231.389 187.626C231.254 187.626 231.187 187.626 231.052 187.626C230.514 187.626 229.842 187.693 229.304 187.894C227.622 188.497 227.622 189.302 227.487 192.185C227.42 193.123 227.42 194.129 227.353 195.068C227.151 197.146 226.949 198.688 227.017 198.822C227.084 198.889 227.017 198.889 227.353 198.956C227.622 198.956 227.891 198.956 228.631 199.023C229.102 199.09 229.64 199.09 230.38 199.157C231.052 199.224 231.792 199.425 232.599 199.559C234.214 199.828 235.626 199.962 236.702 199.895C237.039 199.895 238.922 199.895 239.124 199.559C239.258 199.291 239.191 198.889 239.258 198.286C239.326 197.213 239.393 195.671 239.46 194.129C239.528 192.922 239.528 188.028 239.595 187.09C240.066 187.358 240.604 187.492 241.209 187.559C242.084 187.559 242.891 187.291 243.227 187.157C243.765 186.888 244.101 186.151 244.034 185.413Z" fill="#FCA7A7"/>
<path d="M290.379 202.242C290.311 202.175 290.244 202.242 290.11 202.242C290.042 202.242 289.975 202.309 289.841 202.376C289.773 202.376 289.639 202.443 289.504 202.51C289.033 202.644 288.428 202.644 287.688 202.376C286.41 201.974 285.132 201.371 284.459 202.913C284.19 203.516 284.123 204.052 284.123 204.857C284.123 206.131 284.325 207.606 284.459 208.812C284.527 209.349 284.594 209.952 284.661 210.488C284.661 210.622 284.796 211.829 284.729 212.231C284.527 212.03 283.652 211.829 283.114 211.896C282.24 212.03 281.5 212.433 281.231 212.567C280.693 212.902 280.424 213.639 280.625 214.377C280.827 215.047 281.433 215.45 282.173 215.45C282.307 215.45 282.374 215.45 282.509 215.45C283.047 215.382 283.652 215.248 284.19 214.98C286.007 214.042 285.737 211.561 285.536 209.885C285.401 208.879 285.267 207.807 285.132 206.801C284.998 205.929 285.132 205.594 286.074 205.594C286.746 205.594 287.486 205.661 288.159 205.594C288.764 205.527 289.302 205.326 289.773 204.924C290.177 204.522 290.379 204.052 290.446 203.65C290.446 203.047 290.379 202.309 290.379 202.242Z" fill="#E75B5A"/>
<path d="M257.958 192.252C257.689 191.179 256.142 190.844 255.133 191.179C254.595 191.313 253.855 191.514 253.451 191.916C252.778 192.52 252.913 193.19 252.846 193.995C252.778 195.067 252.778 196.341 252.778 197.347C252.778 198.889 252.846 200.297 252.846 201.302C252.846 201.772 252.846 202.241 252.778 202.442C252.778 202.71 252.644 202.777 252.711 202.844C252.711 202.844 252.778 202.844 252.846 202.844C252.913 202.777 253.047 202.71 253.115 202.576C253.249 202.308 253.384 201.839 253.451 201.369C253.586 200.297 253.653 198.889 253.653 197.347C253.653 196.408 253.451 195.134 253.653 194.196C254.46 194.33 255.402 194.464 256.209 194.33C257.016 194.196 257.823 193.794 258.025 192.922C257.958 192.654 257.958 192.453 257.958 192.252Z" fill="#E75B5A"/>
<path d="M334.638 205.997C334.369 204.924 332.822 204.589 331.813 204.924C331.275 205.058 330.535 205.326 330.131 205.661C329.459 206.265 329.593 206.935 329.526 207.74C329.459 208.812 329.459 210.086 329.459 211.092C329.459 212.634 329.526 214.042 329.526 215.047C329.526 215.517 329.526 215.986 329.459 216.187C329.459 216.455 329.324 216.522 329.392 216.589C329.392 216.589 329.459 216.589 329.526 216.589C329.593 216.522 329.728 216.455 329.795 216.321C329.93 216.053 330.064 215.584 330.131 215.114C330.266 214.042 330.333 212.634 330.333 211.092C330.333 210.153 330.131 208.88 330.333 207.941C331.14 208.075 332.082 208.209 332.889 208.075C333.696 207.941 334.504 207.539 334.705 206.667C334.705 206.466 334.705 206.265 334.638 205.997Z" fill="#E75B5A"/>
<path d="M311.97 188.564C311.701 188.564 311.23 188.698 310.49 188.698C309.952 188.698 309.414 188.698 308.742 188.631C308.069 188.564 307.329 188.497 306.455 188.43C304.84 188.363 303.361 188.497 302.352 188.698C302.015 188.765 300.535 188.966 300.401 189.369C300.266 189.704 300.266 190.307 300.266 190.777C300.199 191.849 300.334 193.257 300.468 194.799C300.603 196.006 300.737 197.146 300.805 198.084C300.334 197.883 299.728 197.816 299.123 197.883C298.249 198.017 297.509 198.419 297.24 198.553C296.701 198.889 296.432 199.626 296.634 200.364C296.836 201.034 297.441 201.436 298.181 201.369C298.316 201.369 298.383 201.369 298.518 201.302C299.056 201.235 300.805 200.9 301.343 199.626C301.612 198.956 301.477 198.151 301.477 197.414C301.477 196.475 301.41 195.604 301.275 194.665C301.208 194.33 301.141 192.721 301.074 192.386C301.343 192.386 301.746 192.319 302.284 192.251C303.293 192.117 304.706 191.916 306.32 191.983C307.127 191.983 307.867 192.05 308.54 192.117C309.212 192.117 309.885 192.117 310.423 191.983C310.894 191.916 311.298 191.782 311.567 191.648C311.634 192.386 311.768 194.531 311.903 195.402C312.105 197.146 312.307 198.755 312.441 199.894C311.97 199.693 311.432 199.626 310.827 199.693C309.952 199.827 309.212 200.23 308.943 200.364C308.405 200.699 308.136 201.436 308.338 202.174C308.54 202.844 309.145 203.246 309.885 203.179C310.02 203.179 310.087 203.179 310.221 203.112C310.76 203.045 311.365 202.911 311.903 202.576C313.517 201.705 313.383 200.9 313.046 198.084C312.979 197.146 312.912 196.14 312.777 195.201C312.576 193.324 312.441 191.715 312.239 190.508C312.172 189.905 312.105 188.966 312.172 188.497C312.105 188.564 312.038 188.564 311.97 188.564Z" fill="#E75B5A"/>
<path d="M311.903 215.248C312.172 216.32 313.719 216.655 314.728 216.32C315.266 216.186 316.006 215.918 316.41 215.583C317.015 214.979 316.948 214.309 317.015 213.504C317.082 212.432 317.082 211.225 317.082 210.152C317.082 208.61 317.015 207.202 317.015 206.197C317.015 205.727 317.015 205.325 317.082 205.057C317.082 204.789 317.15 204.722 317.15 204.655C317.15 204.655 317.082 204.655 317.015 204.655C316.948 204.722 316.813 204.789 316.746 204.923C316.612 205.191 316.477 205.593 316.41 206.13C316.275 207.135 316.208 208.543 316.275 210.152C316.275 211.091 316.544 212.365 316.275 213.303C315.468 213.169 314.526 213.102 313.719 213.169C312.912 213.303 312.105 213.706 311.97 214.577C311.836 214.845 311.836 215.046 311.903 215.248Z" fill="#FCA7A7"/>
</g>
<g clip-path="url(#clip2_214_2)">
<path opacity="0.1" d="M133.06 166.736C133.141 166.01 133.812 165.499 134.537 165.58C135.047 165.634 135.476 166.01 135.637 166.494L141.785 184.134C142.537 183.999 143.316 183.973 144.067 184.134C146.349 184.564 148.014 186.043 147.692 187.441C147.37 188.84 145.356 189.566 143.047 189.055C140.738 188.544 139.101 187.145 139.423 185.747L134.537 171.684C134.134 172.706 131.557 179.025 132.362 181.203C132.523 181.902 132.12 182.601 131.422 182.816C130.724 183.005 130 182.601 129.785 181.875C128.791 179.025 132.738 169.049 133.06 166.736Z" fill="#1A7F72"/>
<path opacity="0.1" d="M202.191 145.226C204.527 145.629 206.514 144.822 206.755 143.397C207.024 141.972 205.305 140.574 202.997 140.251C202.245 140.144 201.466 140.17 200.715 140.359L195.775 127.99L204.258 121.644L209.198 134.013C208.93 135.438 210.621 136.756 212.957 137.159C215.293 137.562 217.279 136.756 217.521 135.33C217.789 133.905 216.071 132.507 213.762 132.184C213.011 132.077 212.232 132.104 211.48 132.292L204.554 114.921C204.527 114.868 204.527 114.814 204.5 114.76C204.473 114.706 204.446 114.652 204.42 114.599C204.366 114.545 204.285 114.464 204.232 114.437L204.044 114.303L203.748 114.222L203.587 114.276L203.319 114.384L203.158 114.464L202.997 114.545L202.674 114.679L191.989 122.665C191.506 123.015 191.345 123.66 191.56 124.225L198.728 142.187C198.513 143.532 199.856 144.822 202.191 145.226Z" fill="#1A7F72"/>
<path opacity="0.15" d="M240.287 172.517C241.012 174.131 242.354 174.991 243.321 174.561C244.287 174.131 244.448 172.49 243.67 170.931C243.428 170.42 243.079 169.963 242.65 169.559L248.18 161.331L255.644 163.886L250.113 172.114C249.147 172.544 249.012 174.158 249.764 175.744C250.489 177.357 251.831 178.218 252.798 177.788C253.764 177.357 253.925 175.717 253.147 174.158C252.905 173.647 252.556 173.19 252.127 172.786L259.912 161.224C259.939 161.197 259.966 161.17 259.993 161.116C260.02 161.089 260.046 161.035 260.073 161.009C260.1 160.955 260.1 160.874 260.1 160.82V160.659L260.046 160.444L259.939 160.363L259.751 160.229L259.644 160.148L259.536 160.067L259.295 159.987L249.898 156.76C249.469 156.626 249.012 156.787 248.771 157.137L240.717 169.102C239.777 169.533 239.562 170.904 240.287 172.517Z" fill="#7ADBAE"/>
<path opacity="0.15" d="M387.973 149.905C387.409 149.448 386.576 149.555 386.12 150.12C385.798 150.523 385.744 151.088 385.986 151.545L393.906 168.458C393.261 168.889 392.698 169.426 392.268 170.045C390.926 171.954 390.791 174.159 392 174.939C393.208 175.719 395.141 174.831 396.456 172.841C397.772 170.852 397.933 168.727 396.725 167.948L390.416 154.476C391.409 154.933 397.664 157.649 398.604 159.773C398.98 160.392 399.758 160.607 400.403 160.257C401.047 159.908 401.262 159.101 400.913 158.456C399.597 155.713 389.798 151.357 387.973 149.905Z" fill="#7ADBAE"/>
<path opacity="0.08" d="M446.821 228.932C446.821 228.206 446.204 227.615 445.479 227.615C444.969 227.615 444.486 227.937 444.298 228.395L436.244 245.254C435.519 245.039 434.74 244.932 433.962 244.985C431.626 245.174 429.827 246.464 430.015 247.889C430.176 249.315 432.109 250.256 434.472 250.014C436.834 249.772 438.606 248.535 438.418 247.11L444.835 233.692C445.13 234.74 446.982 241.301 445.935 243.399C445.694 244.071 446.043 244.824 446.687 245.12C447.358 245.389 448.137 245.066 448.405 244.367C449.694 241.624 446.875 231.272 446.821 228.932Z" fill="#1A7F72"/>
<path opacity="0.1" d="M424.914 195.94L415.464 179.08C415.169 178.569 414.551 178.3 413.987 178.435L401.074 181.742L400.779 181.904L400.618 181.984L400.456 182.065L400.188 182.226L400.054 182.307L399.946 182.576L399.92 182.818C399.92 182.898 399.92 182.979 399.92 183.087C399.946 183.14 399.973 183.194 400 183.248C400.027 183.302 400.054 183.356 400.081 183.382L409.235 199.677C408.618 200.135 408.108 200.726 407.705 201.398C406.524 203.415 406.524 205.62 407.786 206.319C409.048 206.991 410.927 205.97 412.081 203.899C413.236 201.829 413.263 199.677 412.001 198.978L405.477 187.362L415.732 184.754L422.256 196.37C421.639 196.827 421.129 197.419 420.726 198.091C419.545 200.108 419.545 202.313 420.807 203.012C422.068 203.684 423.948 202.662 425.102 200.592C426.283 198.494 426.122 196.666 424.914 195.94Z" fill="#1A7F72"/>
<path opacity="0.15" d="M424.377 126.269L427.008 107.096C427.089 106.505 426.767 105.913 426.23 105.698L413.961 100.509L413.612 100.455L413.424 100.428L413.236 100.401L412.94 100.347L412.779 100.32L412.511 100.482L412.35 100.643C412.296 100.697 412.242 100.777 412.215 100.858C412.215 100.912 412.189 100.993 412.189 101.046C412.189 101.1 412.162 101.154 412.162 101.208L409.611 119.734C408.833 119.734 408.081 119.896 407.356 120.192C405.182 121.079 403.866 122.854 404.457 124.144C405.047 125.462 407.168 125.758 409.343 124.817C411.517 123.875 412.833 122.155 412.242 120.864L414.068 107.661L423.813 111.802L421.988 125.005C421.209 125.005 420.457 125.166 419.733 125.462C417.558 126.349 416.243 128.124 416.833 129.415C417.424 130.732 419.545 131.028 421.719 130.087C423.921 129.119 424.914 127.559 424.377 126.269Z" fill="#7ADBAE"/>
<path d="M342.386 103.547C338.44 97.9544 336.883 100.939 333.473 97.6586C330.815 95.1041 328.829 94.3243 326.869 94.3781C324.936 94.3243 322.949 95.1041 320.264 97.6586C316.855 100.939 315.271 97.9544 311.351 103.547C307.405 109.14 317.043 115.002 317.043 115.002L326.386 116.643C326.386 116.643 326.6 115.728 326.896 114.249C327.191 115.728 327.406 116.643 327.406 116.643L336.748 115.002C336.695 115.002 346.333 109.14 342.386 103.547Z" fill="#2C2858"/>
<path d="M327.486 156.869C339.808 156.869 349.796 146.13 349.796 132.883C349.796 119.637 339.808 108.898 327.486 108.898C315.165 108.898 305.176 119.637 305.176 132.883C305.176 146.13 315.165 156.869 327.486 156.869Z" fill="#2C2858"/>
<path d="M308.317 170.933L349.393 171.928L329.956 189.701L308.317 170.933Z" fill="#F4A082"/>
<path d="M349.447 250.014H305.525C299.726 257.112 297.793 265.126 297.149 270.261C296.693 273.891 295.028 277.253 292.37 279.753C279.242 292.23 242.354 328.907 248.986 340.981C255.107 352.14 288.773 345.041 304.505 341.034C306.519 340.523 308.237 340.066 309.552 339.69C313.069 339.179 315.539 339.744 316.667 340.47C319.271 342.164 323.083 351.79 325.151 357.491C326.063 359.991 329.017 361.551 331.674 361.524C331.674 361.524 331.567 339.555 330.976 327.805C330.359 316.054 322.412 320.572 315.432 323.26C314.331 323.691 312.935 324.121 311.351 324.551L286.518 325.439C286.518 325.439 309.955 301.292 318.331 296.64C326.708 291.961 330.386 298.522 330.386 298.522L333.473 446.737C333.554 451.173 333.607 457.6 333.393 458.353C333.07 459.482 326.896 469.431 331.111 469.431C335.326 469.431 339.728 469.431 339.728 469.431C339.728 469.431 344.131 469.431 348.346 469.431C352.561 469.431 346.387 459.482 346.064 458.353C345.85 457.654 345.903 451.711 345.984 447.301C345.984 447.301 351.461 411.458 352.132 384.972C352.803 358.486 356.481 341.653 361.85 304.277C367.193 266.846 349.447 250.014 349.447 250.014Z" fill="#F4A082"/>
<path d="M346.843 242.969L349.259 233.934L344.561 229.014L327.459 232.778L310.358 229.014L305.66 233.934L308.076 242.969L305.525 250.014H323.674H331.245H349.393L346.843 242.969Z" fill="#F4A082"/>
<path d="M338.44 173.943C330.198 177.52 322.654 176.095 316.667 173.164C306.948 168.404 295.216 170.663 287.941 178.703C280.826 186.555 274.034 194.379 274.034 194.379C274.034 194.379 287.968 206.668 298.814 207.985C298.814 207.985 304.103 232.374 305.176 233.961C305.176 233.961 310.626 236.542 318.573 237.886C321.473 238.424 324.292 238.666 327.03 238.666C327.191 238.666 327.379 238.666 327.54 238.666C327.701 238.666 327.889 238.666 328.05 238.666C330.762 238.666 333.607 238.424 336.507 237.886C344.454 236.542 349.904 233.961 349.904 233.961C350.951 232.374 356.266 207.985 356.266 207.985C367.113 206.668 378.496 196.262 378.496 196.262C378.496 196.262 373.314 189.109 367.542 181.446C360.75 172.465 348.749 169.48 338.44 173.943Z" fill="#E62552"/>
<path d="M306.707 186.985C305.472 188.518 304.317 190.104 303.27 191.717C302.223 193.358 301.31 195.052 300.532 196.826C299.78 198.601 299.189 200.43 298.867 202.339C298.545 204.248 298.491 206.184 298.733 208.147C298.116 206.265 297.955 204.248 298.169 202.258C298.357 200.268 298.921 198.305 299.7 196.477C300.505 194.648 301.498 192.927 302.68 191.314C303.861 189.728 305.176 188.249 306.707 186.985Z" fill="#C4204A"/>
<path d="M348.266 186.985C349.501 188.518 350.655 190.104 351.702 191.717C352.749 193.358 353.662 195.052 354.441 196.826C355.192 198.601 355.783 200.43 356.105 202.339C356.427 204.248 356.481 206.184 356.239 208.147C356.857 206.265 357.018 204.248 356.803 202.258C356.615 200.268 356.052 198.305 355.273 196.477C354.468 194.648 353.474 192.927 352.293 191.314C351.112 189.728 349.796 188.249 348.266 186.985Z" fill="#C4204A"/>
<path d="M334.869 158.858H321.983V171.765H334.869V158.858Z" fill="#F4A082"/>
<path d="M334.869 166.602V158.858H321.983V165.446C324.748 166.952 328.855 167.812 334.869 166.602Z" fill="#DB8C70"/>
<path d="M353.259 135.814C351.998 135.195 350.548 135.303 349.232 135.975C349.689 124.117 340.024 114.141 327.862 114.544C315.7 114.114 306.035 124.09 306.492 135.975C305.176 135.303 303.727 135.195 302.465 135.814C300.049 136.997 299.324 140.412 300.8 143.423C302.277 146.435 305.418 147.914 307.834 146.731C308.156 146.569 308.479 146.354 308.747 146.112C310.116 155.927 318.305 163.268 327.889 163.133C337.473 163.268 345.635 155.927 347.031 146.112C347.299 146.354 347.595 146.569 347.944 146.731C350.36 147.914 353.501 146.435 354.978 143.423C356.401 140.412 355.649 136.997 353.259 135.814Z" fill="#F4A082"/>
<path d="M324.426 136.513C323.513 136.19 322.681 135.948 321.822 135.814C320.962 135.652 320.13 135.626 319.298 135.706C318.493 135.814 317.66 135.975 316.882 136.325L316.586 136.432C316.479 136.459 316.398 136.54 316.291 136.567L315.674 136.862C315.271 137.078 314.895 137.32 314.439 137.535C314.68 137.131 314.949 136.728 315.271 136.352C315.62 136.029 315.942 135.652 316.372 135.41C317.177 134.819 318.17 134.496 319.164 134.389C320.157 134.281 321.177 134.442 322.09 134.819C323.003 135.195 323.835 135.733 324.426 136.513Z" fill="#07095B"/>
<path d="M331.674 136.487C332.265 135.707 333.07 135.169 333.983 134.766C334.896 134.39 335.916 134.228 336.91 134.309C337.903 134.416 338.896 134.739 339.702 135.304C340.131 135.546 340.453 135.922 340.802 136.245C341.125 136.594 341.393 136.998 341.635 137.401C341.178 137.213 340.802 136.944 340.4 136.756L339.809 136.46C339.702 136.406 339.621 136.352 339.514 136.326L339.218 136.218C338.44 135.868 337.608 135.707 336.775 135.626C335.943 135.546 335.111 135.6 334.252 135.761C333.419 135.922 332.587 136.164 331.674 136.487Z" fill="#07095B"/>
<path d="M328.184 137.724C328.104 138.665 328.157 139.606 328.345 140.548C328.426 141.032 328.56 141.489 328.748 141.946C328.936 142.403 329.178 142.86 329.58 143.263L329.768 143.398L329.929 143.505C329.983 143.559 330.09 143.613 330.144 143.667C330.278 143.774 330.359 143.909 330.439 144.07C330.574 144.366 330.52 144.742 330.359 145.092C330.01 145.818 329.258 146.356 328.399 146.759C329.339 146.705 330.359 146.356 330.95 145.441C331.245 145.011 331.406 144.366 331.218 143.801C331.164 143.667 331.111 143.505 331.03 143.398C330.95 143.263 330.842 143.156 330.762 143.048C330.654 142.941 330.547 142.86 330.439 142.779C330.359 142.726 330.359 142.726 330.332 142.672L330.225 142.591C329.956 142.349 329.741 141.973 329.553 141.596C329.366 141.22 329.204 140.79 329.043 140.359C328.721 139.526 328.48 138.638 328.184 137.724Z" fill="#DB8C70"/>
<path d="M392.107 220.758C388.214 213.955 381.261 206.319 374.227 199.569C365.314 206.13 359.783 207.287 357.448 207.798C371.166 217.343 372.133 221.242 372.133 221.242C364.938 223.259 334.359 222.694 334.359 222.694C334.359 222.694 333.339 220.005 332.104 218.311C330.869 216.617 330.305 206.05 329.285 203.226C329.124 202.796 328.963 202.42 328.775 202.097C327.755 201.156 327.11 201.317 326.735 201.586L326.332 202.097C326.171 202.366 326.037 202.689 325.902 203.038C324.882 205.861 324.318 216.429 323.083 218.123C321.848 219.817 320.828 222.506 320.828 222.506C320.828 222.506 290.249 223.071 283.054 221.054C283.054 221.054 283.833 217.263 297.552 207.717C295.243 207.421 289.444 205.673 280.772 199.542C273.739 206.292 266.919 213.794 263.027 220.597C253.12 237.941 315.19 234.553 326.198 230.277C326.198 230.277 326.842 230.304 327.486 229.551C328.184 230.465 328.909 230.438 328.909 230.438C339.943 234.741 401.987 238.102 392.107 220.758Z" fill="#F4A082"/>
<path opacity="0.5" d="M331.084 464.646C331.084 464.646 333.044 463.059 334.279 464.646C334.279 464.646 336.963 463.704 338.198 464.296C339.433 464.888 340.292 464.108 342.923 464.646C345.554 465.183 346.172 464.242 347.702 464.646L345.581 459.779C345.286 459.08 344.588 458.622 343.836 458.595L335.943 458.273C335.191 458.246 334.493 458.622 334.118 459.295L331.084 464.646Z" fill="#DB8C70"/>
<path d="M306.304 306.186C311.029 301.91 315.513 298.173 318.305 296.613C326.681 291.934 330.359 298.495 330.359 298.495L330.708 315.489C337.796 317.237 347.434 318.609 359.756 318.232C360.401 313.876 361.099 309.251 361.824 304.223C367.193 266.82 349.447 250.014 349.447 250.014H305.525C299.726 257.112 297.793 265.126 297.149 270.261C296.693 273.891 295.028 277.253 292.37 279.753C290.518 281.501 288.209 283.733 285.605 286.314C289.337 292.472 295.995 301.023 306.304 306.186Z" fill="#1F5148"/>
<g opacity="0.5">
<path opacity="0.5" d="M330.923 325.601C331.137 328.586 331.272 331.597 331.406 334.582C331.46 336.088 331.513 337.567 331.567 339.073L331.674 343.563L331.755 348.054C331.755 349.56 331.782 351.038 331.782 352.544C331.782 355.529 331.782 358.541 331.674 361.525C331.46 358.541 331.299 355.529 331.191 352.544C331.137 351.038 331.084 349.56 331.03 348.054L330.923 343.563L330.842 339.073C330.842 337.567 330.815 336.088 330.815 334.582C330.815 331.597 330.842 328.586 330.923 325.601Z" fill="#DB8C70"/>
</g>
<path d="M286.491 325.412C284.88 326.622 283.162 327.644 281.417 328.585C279.645 329.526 277.846 330.36 275.967 331.113C275.027 331.489 274.087 331.812 273.148 332.161C272.665 332.323 272.181 332.457 271.725 332.592L271 332.807C270.758 332.86 270.517 332.941 270.275 332.995L268.825 333.344L267.349 333.64L266.624 333.775L265.872 333.882C265.389 333.936 264.879 334.017 264.396 334.044C264.879 333.909 265.362 333.775 265.845 333.667L266.57 333.479L267.295 333.264L268.718 332.86L270.141 332.403C272.02 331.785 273.9 331.14 275.725 330.387C276.182 330.198 276.638 330.037 277.094 329.822C277.551 329.634 278.007 329.446 278.464 329.23L279.833 328.639C280.289 328.424 280.746 328.236 281.175 328.02C282.947 327.241 284.719 326.353 286.491 325.412Z" fill="#DB8C70"/>
<path d="M327.459 201.371C327.621 203.71 327.701 206.077 327.755 208.416C327.782 209.599 327.808 210.755 327.835 211.939L327.862 215.461L327.835 218.984C327.808 220.167 327.808 221.323 327.782 222.506C327.728 224.846 327.647 227.212 327.486 229.551C327.325 227.212 327.245 224.846 327.191 222.506C327.164 221.323 327.137 220.167 327.137 218.984L327.11 215.461L327.137 211.939C327.164 210.755 327.164 209.599 327.191 208.416C327.218 206.077 327.298 203.71 327.459 201.371Z" fill="#DB8C70"/>
<path d="M283.054 221.054C281.095 221.027 279.162 221.081 277.229 221.269C276.262 221.349 275.323 221.511 274.356 221.699C273.39 221.86 272.477 222.129 271.51 222.371C271.725 222.264 271.94 222.156 272.181 222.049L272.53 221.887L272.879 221.753L273.577 221.511L274.275 221.296C274.383 221.269 274.517 221.215 274.624 221.188L274.974 221.107C275.215 221.054 275.457 221 275.698 220.946C276.182 220.865 276.665 220.785 277.175 220.731C278.168 220.623 279.135 220.597 280.128 220.623C281.095 220.731 282.088 220.812 283.054 221.054Z" fill="#DB8C70"/>
<path d="M372.026 221.215C373.985 221.188 375.918 221.242 377.851 221.43C378.818 221.511 379.757 221.672 380.724 221.861C381.69 222.022 382.603 222.291 383.57 222.533C383.355 222.425 383.14 222.318 382.899 222.21L382.549 222.049L382.2 221.914L381.502 221.672L380.804 221.457C380.697 221.43 380.563 221.377 380.455 221.35L380.106 221.296C379.865 221.242 379.623 221.188 379.382 221.135C378.898 221.054 378.415 220.973 377.905 220.92C376.912 220.812 375.945 220.785 374.952 220.812C373.985 220.893 372.992 221 372.026 221.215Z" fill="#DB8C70"/>
<path d="M306.492 135.923C306.492 135.923 313.445 121.725 319.996 120.031C326.547 118.31 324.936 125.274 334.896 127.99C344.829 130.679 341.098 137.912 349.259 135.949L349.823 131.351C349.823 131.351 346.628 123.311 346.628 123.016C346.628 122.72 341.205 117.127 340.614 116.912C340.024 116.697 334.735 114.653 334.064 114.519C333.393 114.384 326.493 113.12 326.171 113.12C325.875 113.12 320.855 112.825 319.459 113.631C318.063 114.438 313.096 114.223 311.378 116.24C309.66 118.256 308.559 123.177 308.264 123.822C307.968 124.495 305.15 129.173 305.203 130.088C305.257 130.975 306.492 135.923 306.492 135.923Z" fill="#2C2858"/>
<path opacity="0.3" d="M323.835 150.55C323.835 150.55 326.547 149.313 329.339 150.792C329.339 150.792 332.023 148.749 334.413 150.281C334.413 150.281 333.742 154.611 329.043 154.745C324.345 154.853 323.835 150.55 323.835 150.55Z" fill="#F79691"/>
<path d="M321.258 149.232C321.822 149.609 322.412 149.958 323.03 150.254C323.62 150.55 324.265 150.819 324.882 151.034C326.144 151.464 327.486 151.733 328.802 151.733C330.144 151.733 331.46 151.464 332.695 150.953C333.93 150.442 335.084 149.69 336.131 148.829C335.675 149.34 335.165 149.797 334.601 150.227C334.064 150.658 333.446 151.007 332.829 151.303C332.211 151.599 331.54 151.841 330.869 152.002C330.198 152.163 329.5 152.217 328.802 152.244C327.406 152.244 326.01 151.948 324.748 151.41C323.459 150.9 322.278 150.174 321.258 149.232Z" fill="white"/>
<path d="M315.486 140.439C315.727 140.816 315.996 141.112 316.318 141.407C316.157 141.461 316.023 141.488 315.861 141.488C315.647 141.515 315.432 141.515 315.217 141.461C315.11 141.461 315.002 141.407 314.895 141.407C314.788 141.381 314.68 141.354 314.573 141.3C314.68 141.354 314.761 141.407 314.868 141.434C314.976 141.461 315.083 141.515 315.19 141.542C315.405 141.623 315.62 141.649 315.861 141.676C316.076 141.703 316.291 141.676 316.506 141.649C316.398 141.73 316.291 141.784 316.184 141.865C315.996 141.972 315.808 142.053 315.593 142.107C315.486 142.133 315.378 142.16 315.271 142.16C315.163 142.187 315.056 142.187 314.949 142.187C315.056 142.187 315.163 142.214 315.271 142.214C315.378 142.214 315.486 142.214 315.593 142.187C315.808 142.16 316.049 142.107 316.264 142.053C316.452 141.999 316.64 141.891 316.801 141.784C319.244 143.424 322.922 142.537 324.426 140.439C321.016 141.73 318.17 141.623 315.486 140.439Z" fill="#333333"/>
<path d="M341.581 140.439C341.339 140.816 341.071 141.112 340.749 141.407C340.91 141.461 341.044 141.488 341.205 141.488C341.42 141.515 341.635 141.515 341.849 141.461C341.957 141.461 342.064 141.407 342.172 141.407C342.279 141.381 342.386 141.354 342.494 141.3C342.386 141.354 342.306 141.407 342.198 141.434C342.091 141.461 341.984 141.515 341.876 141.542C341.661 141.623 341.447 141.649 341.205 141.676C340.99 141.703 340.776 141.676 340.561 141.649C340.668 141.73 340.776 141.784 340.883 141.865C341.071 141.972 341.259 142.053 341.474 142.107C341.581 142.133 341.688 142.16 341.796 142.16C341.903 142.187 342.01 142.187 342.118 142.187C342.01 142.187 341.903 142.214 341.796 142.214C341.688 142.214 341.581 142.214 341.474 142.187C341.259 142.16 341.017 142.107 340.802 142.053C340.614 141.999 340.426 141.891 340.265 141.784C337.822 143.424 334.144 142.537 332.641 140.439C336.05 141.73 338.896 141.623 341.581 140.439Z" fill="#333333"/>
<path d="M208.796 209.25C208.796 209.25 209.279 197.688 196.902 194.918C184.526 192.148 182.136 206.292 173.089 204.921C173.089 204.921 182.566 215.919 193.144 212.665C201.171 210.191 204.339 211.159 205.413 211.751C206.057 212.127 206.809 212.262 207.507 212.02C208.312 211.778 209.037 211.052 208.796 209.25Z" fill="#2C2858"/>
<path d="M200.231 211.481C199.99 211.159 200.07 210.728 200.392 210.513C201.735 209.626 205.171 207.636 209.306 207.421C209.682 207.394 210.031 207.717 210.031 208.093C210.031 208.443 209.735 208.765 209.386 208.765C205.601 208.954 202.352 210.836 201.144 211.616C200.822 211.831 200.446 211.777 200.231 211.481Z" fill="#07095B"/>
<path d="M194.298 232.509C194.298 232.509 190.754 217.935 199.211 212.476C207.668 207.018 216.608 207.636 222.702 210.89C228.797 214.17 232.448 225.571 229.709 232.079L209.467 225.867L194.298 232.509Z" fill="#2C2858"/>
<path d="M198.728 256.871L227.991 257.57L214.138 270.235L198.728 256.871Z" fill="#F4A082"/>
<path d="M228.85 256.736C225.897 256.548 224.609 257.085 221.816 258.457C219.293 259.694 216.393 260.554 213.252 260.527C210.084 260.554 207.185 259.694 204.688 258.457C201.896 257.085 198.862 256.521 195.909 256.736C197.52 278.973 191.989 282.281 191.989 282.281L196.768 313.204C196.768 313.204 203.399 317.398 213.279 317.076C223.132 317.398 229.79 313.204 229.79 313.204L234.193 281.662C234.166 281.635 227.24 278.946 228.85 256.736Z" fill="#F5A3B7"/>
<path d="M215.373 392.581L214.863 368.569C214.433 360.206 208.769 363.433 203.802 365.342C203.507 365.45 203.158 365.584 202.809 365.692C202.621 368.972 202.379 373.543 202.164 376.931C203.346 377.012 204.178 377.281 204.688 377.604C206.54 378.814 209.252 385.671 210.729 389.704C211.373 391.506 213.467 392.608 215.373 392.581Z" fill="#F4A082"/>
<path d="M225.548 453.648C225.548 453.648 225.656 452.896 225.843 451.578L216.528 448.997L216.608 453.245C216.662 456.391 216.715 460.989 216.554 461.527C216.313 462.334 211.91 469.406 214.944 469.406C217.95 469.406 221.092 469.406 221.092 469.406C221.092 469.406 224.233 469.406 227.239 469.406C230.246 469.406 225.843 462.334 225.629 461.527C225.468 460.989 225.494 456.768 225.548 453.648Z" fill="#F4A082"/>
<path d="M218.058 248.266H208.098V258.242H218.058V248.266Z" fill="#F4A082"/>
<path d="M218.058 254.262V248.266H208.098V253.348C210.245 254.504 213.413 255.177 218.058 254.262Z" fill="#DB8C70"/>
<path d="M232.287 230.438C231.32 229.954 230.193 230.035 229.172 230.573C229.521 221.403 222.058 213.686 212.635 214.009C203.211 213.686 195.748 221.403 196.097 230.573C195.077 230.062 193.949 229.981 192.983 230.438C191.13 231.352 190.54 233.988 191.694 236.327C192.848 238.666 195.265 239.796 197.144 238.882C197.412 238.747 197.627 238.586 197.842 238.397C198.916 245.98 205.225 251.681 212.635 251.573C220.044 251.681 226.38 245.98 227.427 238.397C227.642 238.586 227.857 238.747 228.125 238.882C229.978 239.796 232.421 238.666 233.575 236.327C234.73 233.988 234.139 231.352 232.287 230.438Z" fill="#F4A082"/>
<path d="M210.004 230.976C209.306 230.734 208.635 230.546 207.99 230.438C207.319 230.331 206.675 230.277 206.057 230.358C205.413 230.438 204.795 230.573 204.178 230.842L203.936 230.922C203.856 230.949 203.775 231.003 203.722 231.03L203.265 231.245C202.943 231.406 202.674 231.595 202.325 231.756C202.513 231.433 202.728 231.138 202.97 230.842C203.238 230.6 203.48 230.304 203.829 230.116C204.446 229.659 205.225 229.417 205.977 229.336C206.755 229.255 207.534 229.363 208.259 229.659C208.903 229.954 209.547 230.385 210.004 230.976Z" fill="#2C2858"/>
<path d="M215.588 230.949C216.044 230.357 216.689 229.927 217.36 229.631C218.058 229.336 218.863 229.201 219.615 229.282C220.394 229.363 221.145 229.605 221.79 230.062C222.112 230.25 222.38 230.546 222.649 230.788C222.89 231.057 223.105 231.379 223.293 231.675C222.944 231.514 222.649 231.325 222.353 231.164L221.897 230.949C221.816 230.922 221.736 230.868 221.682 230.841L221.441 230.761C220.823 230.492 220.179 230.357 219.561 230.304C218.917 230.25 218.273 230.277 217.628 230.411C216.957 230.519 216.286 230.707 215.588 230.949Z" fill="#2C2858"/>
<path d="M212.903 232.777C212.823 233.503 212.876 234.229 213.011 234.955C213.091 235.331 213.172 235.681 213.306 236.03C213.44 236.38 213.628 236.756 213.95 237.052L214.084 237.16L214.192 237.24C214.245 237.294 214.326 237.321 214.353 237.375C214.46 237.456 214.514 237.563 214.568 237.671C214.675 237.886 214.621 238.182 214.514 238.451C214.245 239.015 213.655 239.445 213.011 239.741C213.735 239.714 214.514 239.419 214.997 238.719C215.239 238.37 215.346 237.886 215.212 237.429C215.185 237.321 215.131 237.214 215.051 237.106C214.997 236.998 214.917 236.918 214.836 236.837C214.756 236.756 214.675 236.703 214.568 236.622C214.514 236.595 214.514 236.568 214.487 236.541L214.407 236.488C214.192 236.299 214.031 236.004 213.896 235.708C213.735 235.412 213.628 235.089 213.521 234.74C213.306 234.148 213.118 233.476 212.903 232.777Z" fill="#DB8C70"/>
<path opacity="0.5" d="M214.944 466.016C214.944 466.016 216.34 464.886 217.199 466.016C217.199 466.016 219.105 465.344 219.991 465.774C220.85 466.204 221.467 465.639 223.347 466.016C225.226 466.419 225.655 465.747 226.756 466.016L225.226 462.547C225.011 462.036 224.528 461.713 223.991 461.687L218.38 461.445C217.843 461.418 217.333 461.713 217.091 462.171L214.944 466.016Z" fill="#DB8C70"/>
<g opacity="0.5">
<path opacity="0.5" d="M214.836 367.01C214.997 369.135 215.105 371.286 215.185 373.41C215.239 374.485 215.266 375.534 215.293 376.61L215.373 379.81L215.427 383.009C215.427 384.085 215.454 385.134 215.454 386.209C215.454 388.334 215.454 390.485 215.373 392.609C215.212 390.485 215.105 388.334 215.024 386.209C214.97 385.134 214.944 384.085 214.917 383.009L214.836 379.81L214.782 376.61C214.782 375.534 214.756 374.485 214.756 373.41C214.756 371.259 214.756 369.135 214.836 367.01Z" fill="#F79691"/>
</g>
<path d="M183.184 366.875C182.056 367.735 180.821 368.461 179.559 369.134C178.297 369.806 177.009 370.398 175.693 370.935C175.022 371.204 174.351 371.446 173.68 371.661C173.331 371.769 173.008 371.876 172.659 371.984L172.149 372.145C171.988 372.199 171.8 372.226 171.639 372.28L170.592 372.549L169.545 372.764L169.008 372.871L168.471 372.952C168.122 373.006 167.773 373.033 167.424 373.086C167.773 373.006 168.122 372.898 168.445 372.818L168.955 372.683L169.465 372.522L170.485 372.226L171.505 371.903C172.847 371.473 174.19 370.989 175.478 370.478C175.801 370.344 176.123 370.209 176.472 370.075C176.794 369.94 177.116 369.806 177.438 369.671L178.405 369.241C178.727 369.08 179.049 368.945 179.371 368.811C180.66 368.166 181.949 367.547 183.184 366.875Z" fill="#F79691"/>
<path d="M223.159 234.123C222.971 234.391 222.568 234.849 222.165 235.117C220.34 236.354 217.575 235.682 216.447 234.123C218.997 235.117 221.145 235.037 223.159 234.123Z" fill="#333333"/>
<path d="M202.782 234.123C202.97 234.391 203.373 234.849 203.775 235.117C205.601 236.354 208.366 235.682 209.494 234.123C206.943 235.117 204.795 235.037 202.782 234.123Z" fill="#333333"/>
<path d="M229.763 313.177H196.741C128.872 394.975 156.444 384.784 203.426 377.12C203.587 373.302 203.399 368.865 203.158 365.558C202.164 366.66 184.687 366.687 183.184 366.875C185.895 365.047 215.427 330.252 214.568 355.044C214.568 355.044 214.836 368.543 214.863 368.569C214.863 368.354 214.836 368.166 214.809 367.978L215.266 392.582C215.293 392.582 215.319 392.582 215.346 392.582C215.373 394.814 215.4 436.519 215.695 453.056H226.139C228.018 436.519 234.005 405.058 235.938 387.661C239.455 352.543 245.308 331.112 229.763 313.177Z" fill="#1A7F72"/>
<path d="M258.275 292.23C255.509 287.39 228.85 256.709 228.85 256.709C228.85 256.709 230.381 272.466 235.213 278.516L234.193 281.609C241.898 289.998 244.046 292.526 244.046 292.526C238.918 293.978 217.145 293.574 217.145 293.574C217.145 293.574 216.42 291.638 215.534 290.455C214.648 289.245 214.245 281.716 213.521 279.7C213.44 279.431 213.333 279.216 213.225 279.027L212.957 278.678C212.823 278.57 212.635 278.489 212.393 278.543C212.151 278.516 211.963 278.597 211.856 278.678L211.588 279.027C211.48 279.216 211.373 279.458 211.292 279.7C210.567 281.716 210.165 289.245 209.279 290.455C208.393 291.665 207.668 293.574 207.668 293.574C207.668 293.574 185.895 293.978 180.767 292.526C180.767 292.526 181.331 289.837 191.103 283.034L193.09 281.313C197.923 275.236 195.963 256.682 195.963 256.682C195.963 256.682 169.304 287.336 166.538 292.203C159.504 304.545 203.668 302.152 211.534 299.087C211.534 299.087 211.964 299.114 212.42 298.603V298.576C212.876 299.114 213.333 299.087 213.333 299.087C216.635 300.378 226.407 301.534 236.099 301.534C249.281 301.588 262.329 299.383 258.275 292.23Z" fill="#F4A082"/>
<path d="M241.28 301.588H236.045H230.676C234.166 301.749 237.79 301.749 241.28 301.588Z" fill="#FDBEB9"/>
<path d="M212.366 278.544C212.474 280.212 212.527 281.879 212.581 283.573C212.608 284.406 212.608 285.24 212.635 286.073L212.662 288.574V291.075C212.635 291.908 212.635 292.742 212.608 293.576C212.581 295.243 212.527 296.91 212.393 298.604C212.286 296.937 212.232 295.27 212.178 293.576C212.152 292.742 212.152 291.908 212.125 291.075L212.098 288.574V286.073C212.125 285.24 212.125 284.406 212.152 283.573C212.205 281.906 212.259 280.212 212.366 278.544Z" fill="#DB8C70"/>
<path d="M180.74 292.553C179.344 292.526 177.975 292.553 176.606 292.714C175.908 292.768 175.237 292.902 174.566 293.01C173.894 293.144 173.223 293.333 172.552 293.494C172.713 293.413 172.874 293.333 173.035 293.279L173.277 293.171L173.519 293.091L174.002 292.902L174.512 292.768C174.592 292.741 174.673 292.714 174.754 292.687L175.022 292.634C175.183 292.607 175.371 292.553 175.532 292.526C175.881 292.472 176.23 292.418 176.579 292.365C177.277 292.284 177.975 292.257 178.673 292.284C179.344 292.338 180.042 292.392 180.74 292.553Z" fill="#DB8C70"/>
<path d="M244.099 292.687C245.495 292.66 246.865 292.687 248.234 292.848C248.932 292.902 249.603 293.036 250.274 293.144C250.945 293.278 251.617 293.467 252.288 293.628C252.127 293.547 251.966 293.467 251.804 293.413L251.563 293.305L251.321 293.198L250.838 293.009L250.328 292.875C250.247 292.848 250.167 292.821 250.086 292.794L249.818 292.741C249.657 292.714 249.469 292.66 249.308 292.633C248.959 292.579 248.61 292.525 248.261 292.472C247.563 292.391 246.865 292.364 246.167 292.391C245.469 292.445 244.771 292.525 244.099 292.687Z" fill="#DB8C70"/>
<path d="M195.909 256.736C195.909 256.736 189.519 259.963 185.68 262.705C181.841 265.448 181.949 278.382 191.962 282.281C202.003 286.18 200.017 269.508 200.017 269.508L195.909 256.736Z" fill="#F57191"/>
<path d="M228.824 256.736C228.824 256.736 235.213 259.963 239.052 262.705C242.891 265.448 242.784 278.382 232.77 282.281C222.729 286.18 224.716 269.508 224.716 269.508L228.824 256.736Z" fill="#F57191"/>
<path d="M208.071 241.301C208.554 243.157 210.755 244.528 213.386 244.528C216.662 244.528 218.192 243.076 218.648 241.194L208.071 241.301Z" fill="white"/>
<path d="M196.661 231.352C196.661 231.352 207.963 226.781 213.977 219.817C213.977 219.817 213.843 223.635 212.581 224.98C212.984 225.248 220.796 222.129 222.595 216.133C224.394 210.137 213.709 212.449 213.709 212.449C213.709 212.449 207.614 211.454 207.346 211.589C207.077 211.723 202.728 214.331 202.54 214.547C202.352 214.735 196.634 222.855 196.634 222.855L195.184 225.867L194.862 230.008L196.661 231.352Z" fill="#2C2858"/>
<path opacity="0.56" d="M383.999 471.566C383.999 472.755 336.729 473.753 278.373 473.753C220.019 473.753 172.749 472.802 172.749 471.566C172.749 470.377 220.019 469.378 278.373 469.378C336.729 469.378 383.999 470.377 383.999 471.566Z" fill="black" fill-opacity="0.2"/>
</g>
<defs>
<linearGradient id="paint0_linear_214_2" x1="124.666" y1="182.334" x2="453.736" y2="405.749" gradientUnits="userSpaceOnUse">
<stop stop-color="#1A7F72"/>
<stop offset="1" stop-color="#7ADBAE"/>
</linearGradient>
<linearGradient id="paint1_linear_214_2" x1="115.079" y1="197.96" x2="463.32" y2="390.132" gradientUnits="userSpaceOnUse">
<stop stop-color="#1A7F72"/>
<stop offset="1" stop-color="#7ADBAE"/>
</linearGradient>
<clipPath id="clip0_214_2">
<rect width="397.816" height="440.769" fill="white" transform="translate(248.457) rotate(34.1738)"/>
</clipPath>
<clipPath id="clip1_214_2">
<rect width="397.816" height="440.769" fill="white" transform="translate(221.558 5.00244) rotate(28.8914)"/>
</clipPath>
<clipPath id="clip2_214_2">
<rect width="319.375" height="384.375" fill="white" transform="translate(129.625 91.876)"/>
</clipPath>
</defs>
</svg>
