<svg width="451" height="348" viewBox="0 0 451 348" fill="none" xmlns="http://www.w3.org/2000/svg">
<g opacity="0.1" clip-path="url(#clip0_34_7)">
<path d="M141.898 97.1818C163.286 92.6432 185.962 93.2207 206.835 86.589C235.003 77.8226 256.811 57.4469 280.402 40.7875C304.246 24.3596 334.656 10.9239 362.915 19.389C400.511 30.5986 413.836 72.9088 421.333 108.73C429.346 146.877 437.359 185.024 445.373 223.404C449.764 243.64 453.661 265.741 443.179 284.193C429.952 307.55 399.011 315.866 371.072 320.207C260.072 338.031 -32.3277 351.702 49.5774 169.164C65.5092 133.451 101.133 105.783 141.898 97.1818Z" fill="url(#paint0_linear_34_7)"/>
</g>
<g opacity="0.1" clip-path="url(#clip1_34_7)">
<path d="M124.573 105.532C145.539 99.3282 168.19 98.1238 188.479 89.8739C215.871 78.9232 236.012 56.8984 258.223 38.4385C280.703 20.1894 309.965 4.40789 338.802 10.6283C377.161 18.852 393.767 59.9855 404.053 95.1075C415.036 132.508 426.019 169.908 437.021 207.54C442.987 227.369 448.607 249.096 439.606 268.314C428.254 292.638 398.061 303.357 370.548 309.877C261.291 336.361 -29.1336 372.944 38.1888 184.54C51.2678 147.686 84.61 117.306 124.573 105.532Z" fill="url(#paint1_linear_34_7)"/>
</g>
<path d="M95.7161 299.355C95.7161 299.355 77.1002 302.763 76.1921 302.763C68.7003 303.217 37.8252 312.531 38.7332 318.892C39.1873 319.801 43.5007 320.937 45.3169 317.757C51.6736 320.71 53.9438 319.801 58.2572 317.984C61.2085 316.848 63.7058 316.166 66.203 318.665C68.4733 321.164 75.738 323.436 79.8244 321.164C83.4568 319.12 82.0947 315.712 84.8189 312.986C85.046 312.759 103.208 308.442 103.662 308.215C107.067 305.489 97.0782 298.674 95.7161 299.355Z" fill="#F4A082"/>
<path fill-rule="evenodd" clip-rule="evenodd" d="M340.22 88.7636C340.22 88.7636 334.544 63.0926 312.75 56.2773C296.177 51.0523 267.118 50.5979 255.994 75.8145C243.508 104.666 260.989 101.713 252.816 114.435C244.643 127.156 232.157 123.294 229.887 133.517C227.616 143.74 236.697 157.825 233.973 163.505C231.022 169.184 216.719 179.634 220.352 188.721C224.665 199.626 233.519 202.352 230.341 208.031C224.211 218.936 213.314 216.891 214.903 219.39C216.492 221.889 250.546 236.656 261.67 224.842C270.07 216.21 265.983 202.125 267.345 195.537C270.297 182.36 289.367 175.999 301.399 171.229C313.658 166.458 315.02 148.511 318.426 140.105C322.058 131.927 347.031 132.609 340.22 88.7636Z" fill="#1D3542"/>
<path d="M311.615 61.9556C301.399 56.2762 275.064 54.2316 263.713 79.4482C253.043 103.302 269.389 109.436 261.216 121.93C253.043 134.425 240.103 131.472 237.832 141.695C235.562 151.918 244.643 161.459 241.692 167.138C238.741 172.818 225.573 180.087 229.206 188.947C233.519 199.852 242.827 202.805 226.254 218.707" stroke="#01080A" stroke-width="0.625" stroke-miterlimit="10" stroke-linecap="round" stroke-linejoin="round"/>
<path d="M257.356 74.4497C244.87 98.7576 255.767 97.8489 247.367 111.479C238.968 125.11 227.162 122.157 224.665 133.061C222.168 143.966 232.611 157.142 229.66 163.276C226.708 169.41 214.676 178.724 220.579 188.492" stroke="#01080A" stroke-width="0.625" stroke-miterlimit="10" stroke-linecap="round" stroke-linejoin="round"/>
<path d="M314.112 68.5429C303.896 62.8635 301.172 72.6321 269.616 80.5833C258.945 104.437 278.242 111.934 270.07 124.656C261.897 137.377 248.956 134.197 246.686 144.42C244.416 154.643 253.497 164.184 250.546 169.864C247.594 175.543 234.427 182.813 238.059 191.673C242.373 202.577 251.681 205.53 235.108 221.433" stroke="#01080A" stroke-width="0.625" stroke-miterlimit="10" stroke-linecap="round" stroke-linejoin="round"/>
<path d="M287.096 86.4902C275.064 109.662 294.134 118.295 285.28 130.562C276.426 142.83 263.713 138.968 260.762 148.964C258.037 158.96 266.664 168.955 263.486 174.635C260.308 180.314 246.686 186.675 249.864 195.989C253.724 207.121 259.172 207.575 241.692 222.796" stroke="#01080A" stroke-width="0.625" stroke-miterlimit="10" stroke-linecap="round" stroke-linejoin="round"/>
<path d="M306.848 93.0781C292.545 114.887 310.48 125.337 300.491 136.696C290.502 148.055 278.016 142.83 274.383 152.598C270.524 162.367 278.016 173.044 274.383 178.269C270.524 183.494 256.449 188.492 258.719 198.034C261.443 209.393 266.665 210.528 247.822 223.932" stroke="#01080A" stroke-width="0.625" stroke-miterlimit="10" stroke-linecap="round" stroke-linejoin="round"/>
<path d="M293.907 111.934C292.999 116.932 292.545 136.242 290.048 135.788C289.14 135.561 282.102 136.469 280.967 136.469C273.021 137.605 259.173 135.788 256.221 143.512C253.497 150.327 281.648 175.771 277.335 192.582C275.518 199.624 268.254 223.932 267.8 231.202C300.264 237.108 334.09 231.656 333.636 228.93C333.636 210.983 324.555 201.896 326.372 187.13C327.734 185.312 332.501 170.319 332.728 165.775C332.955 161.459 353.614 147.374 342.944 140.331C329.55 131.699 312.977 137.832 312.523 134.652C312.069 131.471 312.296 123.293 311.161 114.433C310.026 106.482 294.815 106.709 293.907 111.934Z" fill="#F4A082"/>
<path opacity="0.6" d="M310.026 118.294C310.026 121.929 303.896 127.381 298.221 127.154C292.545 127.154 292.495 124.852 293.058 121.05C293.058 117.416 292.318 113.523 297.993 113.523C303.896 113.751 310.026 114.432 310.026 118.294Z" fill="#DB8C70"/>
<path d="M282.329 94.2151C282.329 94.2151 278.697 90.3531 278.47 95.1238C278.016 105.12 283.918 106.483 284.599 106.71C285.507 106.937 282.329 94.2151 282.329 94.2151Z" fill="#F4A082"/>
<path d="M322.285 94.4397C322.285 94.4397 325.918 90.5777 326.145 95.3484C326.599 105.344 320.696 106.707 320.015 106.934C319.107 107.162 322.285 94.4397 322.285 94.4397Z" fill="#F4A082"/>
<path fill-rule="evenodd" clip-rule="evenodd" d="M282.556 84.4458C282.102 87.8534 281.648 91.9426 281.875 96.2589C281.875 116.478 293.907 121.93 304.35 122.157C318.199 122.839 325.01 103.756 323.647 92.6241C322.739 85.5816 321.831 82.4012 319.561 78.0848C311.615 66.726 313.885 75.5859 282.556 84.4458Z" fill="#F4A082"/>
<path d="M332.917 158.167C329.656 153.453 327.001 144.41 326.022 140.338C325.043 136.265 324.123 135.599 324.123 135.599C324.123 135.599 321.387 134.966 320.491 135.663C320.73 136.34 327.398 154.174 325.16 156.03C323.372 157.652 306.948 166.346 300.635 168.955C294.236 166.568 276.385 158.472 274.541 156.914C272.467 155.133 278.081 137.508 278.296 136.822C276.89 136.541 274.781 136.822 274.781 136.822C274.781 136.822 273.97 137.157 273.134 141.261C272.297 145.366 271.081 153.794 268.448 159.065C264.286 167.772 264.467 178.221 273.016 186.705C273.478 187.152 274.191 188.957 274.661 189.858C275.361 190.981 273.38 207.602 273.38 207.602C288.938 214.374 321.589 211.759 329.9 206.616C329.9 206.616 329.079 185.499 329.525 185.037C337.132 178.543 336.178 162.882 332.917 158.167Z" fill="#FFD2B9"/>
<path d="M302.761 88.5347C303.896 93.5326 302.988 98.7576 302.534 99.6663C301.626 101.029 299.356 99.8935 299.583 101.029C300.037 103.755 303.442 103.983 305.031 102.847" stroke="#EFAFA3" stroke-width="0.8625" stroke-miterlimit="10" stroke-linecap="round" stroke-linejoin="round"/>
<path opacity="0.69" d="M287.777 86.9455C289.14 86.264 292.091 85.8096 294.361 86.7183" stroke="#682C1A" stroke-width="0.81875" stroke-miterlimit="10" stroke-linecap="round" stroke-linejoin="round"/>
<path d="M295.042 94.2148C293.907 96.0323 289.821 96.2594 288.459 94.442" stroke="#49241B" stroke-width="0.625" stroke-miterlimit="10" stroke-linecap="round" stroke-linejoin="round"/>
<path d="M317.291 94.4409C316.155 96.2583 312.069 96.4855 310.707 94.6681" stroke="#49241B" stroke-width="0.625" stroke-miterlimit="10" stroke-linecap="round" stroke-linejoin="round"/>
<path opacity="0.69" d="M316.837 87.1716C315.474 86.4901 312.296 86.0357 310.026 86.9444" stroke="#682C1A" stroke-width="0.81875" stroke-miterlimit="10" stroke-linecap="round" stroke-linejoin="round"/>
<path d="M297.993 109.266C298.447 110.174 303.896 112.901 307.528 109.039" stroke="#BC4926" stroke-width="0.90625" stroke-miterlimit="10" stroke-linecap="round" stroke-linejoin="round"/>
<path opacity="0.24" fill-rule="evenodd" clip-rule="evenodd" d="M294.588 102.62C293.68 104.438 290.729 104.892 288.005 103.983C285.28 102.848 283.918 100.576 285.053 98.7583C285.961 96.9409 288.913 96.4866 291.637 97.3953C294.361 98.5312 295.496 100.803 294.588 102.62Z" fill="#ED5851"/>
<path opacity="0.24" fill-rule="evenodd" clip-rule="evenodd" d="M311.615 102.847C312.75 104.437 315.701 104.892 318.199 103.529C320.696 102.166 321.831 99.8939 320.696 98.0765C319.561 96.4863 316.61 96.0319 314.112 97.395C311.388 98.758 310.253 101.257 311.615 102.847Z" fill="#ED5851"/>
<path d="M302.082 229.159C302.082 230.296 301.627 231.432 300.946 231.432C300.264 231.432 299.81 230.523 299.81 229.159C299.81 228.022 300.264 226.886 300.946 226.886C301.4 227.113 302.082 228.022 302.082 229.159Z" fill="#EFAFA3"/>
<path d="M279.605 74.4492C283.01 68.7698 297.54 59.4555 312.296 61.0457" stroke="#01080A" stroke-width="0.625" stroke-miterlimit="10" stroke-linecap="round" stroke-linejoin="round"/>
<path d="M400.154 177.36C402.425 170.09 394.252 158.504 383.355 163.047C369.96 166.455 332.728 220.296 332.728 220.296C332.728 220.296 306.848 229.156 268.935 222.795C267.573 225.975 263.486 235.062 263.486 235.062C263.486 235.062 229.887 253.237 179.942 275.954C160.418 284.814 95.4891 298.445 95.4891 299.126C95.4891 301.398 95.4891 309.349 95.4891 309.349C95.4891 309.349 171.996 317.982 195.606 292.538C195.606 292.538 257.13 286.632 302.534 265.731C335.226 268.457 348.166 250.51 368.144 225.975C383.809 206.665 396.522 188.946 400.154 177.36Z" fill="#1F5148"/>
<path d="M268.455 224.685C268.455 224.685 299.103 233.979 332.047 222.568" stroke="#1D4941" stroke-width="0.9" stroke-miterlimit="10" stroke-linecap="round" stroke-linejoin="round"/>
<path d="M267.471 226.798C267.471 226.798 300.087 237.077 331.139 225.068" stroke="#1D4941" stroke-width="0.9" stroke-miterlimit="10" stroke-linecap="round" stroke-linejoin="round"/>
<path d="M333.126 220.32L327.28 234.154" stroke="#1D4941" stroke-width="0.9" stroke-miterlimit="10" stroke-linecap="round"/>
<path d="M380.176 263.689C380.176 263.689 375.862 281.636 375.635 282.545C375.181 287.088 377.452 294.812 372.911 312.305C380.63 313.441 378.133 319.575 372.457 319.575C356.339 319.575 360.652 309.352 363.149 302.309C364.284 299.129 362.695 295.721 360.198 293.449C357.701 291.178 354.976 284.135 357.02 280.046C359.063 276.411 363.83 277.32 366.328 274.594C366.555 274.367 366.101 259.146 366.328 258.691C369.052 254.602 380.63 262.326 380.176 263.689Z" fill="#F4A082"/>
<path d="M400.154 173.271C403.105 196.443 379.949 253.692 379.949 273.229C379.949 273.229 370.868 277.318 366.1 272.093C366.782 255.282 352.933 225.294 374.954 195.534C388.349 177.133 391.981 178.496 400.154 173.271Z" fill="#1F5148"/>
<path d="M370.507 198.606C370.507 198.606 360.361 215.535 362.509 236.655" stroke="#1D4941" stroke-width="1.09375" stroke-miterlimit="10" stroke-linecap="round"/>
<path d="M256.221 143.511C253.043 146.237 236.016 215.754 241.465 218.48C247.14 221.206 302.08 194.172 302.08 194.172C302.08 194.172 300.945 163.503 300.945 155.552C297.767 155.097 293.907 187.811 293.907 187.811C293.907 187.811 260.762 200.306 258.946 201.896C257.129 203.486 266.891 161.913 268.935 158.732C269.616 155.552 259.627 141.012 256.221 143.511Z" fill="#F4A082"/>
<path d="M345.215 143.511C348.393 146.237 365.42 215.754 359.971 218.48C354.295 221.206 299.583 194.172 299.583 194.172C299.583 194.172 300.718 163.503 300.718 155.552C303.896 155.097 307.756 187.811 307.756 187.811C307.756 187.811 340.901 200.306 342.717 201.896C344.533 203.486 334.771 161.913 332.728 158.732C331.82 155.552 342.036 141.012 345.215 143.511Z" fill="#F4A082"/>
<path d="M300.718 194.626L300.945 154.643" stroke="#DB8C70" stroke-width="0.8625" stroke-miterlimit="10" stroke-linecap="round" stroke-linejoin="round"/>
<path d="M303.897 222.115C303.897 223.252 303.216 224.161 302.535 224.161C301.853 224.161 301.399 223.025 301.399 221.888C301.399 220.752 302.08 219.843 302.762 219.843C303.443 219.843 304.124 220.752 303.897 222.115Z" fill="#DB8C70"/>
<path d="M263.713 236.427L283.918 246.65" stroke="#1D4941" stroke-width="0.9" stroke-miterlimit="10" stroke-linecap="round"/>
<path opacity="0.56" d="M391.849 321.228C391.861 322.417 315.237 324.213 220.63 325.198C126.025 326.183 49.3802 326.03 49.3674 324.793C49.355 323.604 125.979 321.808 220.584 320.823C315.191 319.838 391.836 320.039 391.849 321.228Z" fill="black" fill-opacity="0.2"/>
<path opacity="0.5" d="M15.2796 86.5574C15.2515 87.2676 15.182 87.9927 15.1539 88.7029C15.0402 90.7509 15.0242 92.8108 15.0082 94.8708C14.9921 96.9308 15.0738 99.0028 15.2383 101.045C15.3881 103.046 15.6356 105.06 15.8269 107.046C16.1788 110.143 16.3915 113.242 16.8262 116.309C16.9573 117.336 17.0737 118.322 17.2316 119.293C17.3694 119.945 17.6463 120.594 17.867 121.216C17.9406 121.423 18.0823 121.559 18.2241 121.696C18.4221 121.859 18.7833 121.824 18.8903 121.599C18.9558 121.389 19.0775 121.206 19.0869 120.969C19.1083 120.635 19.0882 120.315 19.0682 119.996C18.723 116.523 18.4193 113.036 18.0742 109.563C17.8428 106.938 17.7504 104.309 17.8387 101.663C17.9577 98.4463 18.1329 95.256 18.4619 92.1045C18.5917 90.8913 18.6652 89.6513 18.7535 88.4528C18.9073 87.0442 19.0049 85.6089 19.1587 84.2004C19.3981 81.4542 19.9452 78.7856 20.5485 76.1438C20.626 75.8361 20.7036 75.5285 20.6983 75.2502C20.8066 74.3714 20.2341 73.5474 19.3967 73.4244C18.5446 73.2599 17.8009 73.6638 17.4411 74.4918C17.2926 74.7313 17.2565 75.0242 17.1789 75.3319C16.7402 77.1216 16.0915 78.8459 15.3304 80.5166C14.6616 81.9211 14.0195 83.2695 13.336 84.6325C13.2022 84.9134 13.027 85.209 12.8518 85.5047C11.8004 87.2784 10.9176 89.1324 10.091 91.0131C9.8114 91.6726 9.6442 92.3855 9.57465 93.1105C9.45695 94.2261 9.63219 95.3778 10.1392 96.4118C10.2422 96.7021 10.4134 96.9214 10.6675 97.1114C10.8093 97.2478 11.0876 97.2425 11.2387 97.1421C11.3899 97.0418 11.4848 96.9147 11.4674 96.7342C11.4621 96.4559 11.4006 96.151 11.3537 95.8874C11.1638 94.6943 11.2106 93.5105 11.6627 92.4163C12.076 91.4759 12.5041 90.577 13.0297 89.6901C13.6477 88.5371 14.3366 87.4523 15.0107 86.326C15.0375 86.2698 15.1204 86.2403 15.2034 86.2109C15.2475 86.3353 15.2916 86.4597 15.2796 86.5574ZM67.5755 103.81C67.9487 103.677 68.2804 103.56 68.6536 103.427C70.4635 102.738 72.3321 102.215 73.9975 101.251C74.0389 101.236 74.0804 101.221 74.1219 101.207C75.5144 100.526 76.8092 99.833 78.001 98.8498C78.508 98.4365 79.0564 98.0084 79.5486 97.5536C79.7948 97.3262 80.0409 97.0988 80.2308 96.8447C80.4355 96.632 80.5278 96.3658 80.5906 96.0167C80.7137 95.1793 79.8295 94.7927 79.2637 95.0402C79.0564 95.1138 78.9052 95.2141 78.7126 95.3291C78.0665 95.7451 77.4204 96.1612 76.8011 96.521C76.0159 96.9397 75.1866 97.234 74.4456 97.7771C73.8971 98.2051 73.2778 98.5649 72.6879 99.0077C71.0961 100.179 69.3599 101.076 67.538 101.862C66.1161 102.46 64.7384 103.183 63.2456 103.712C63.1212 103.756 63.0382 103.786 62.9285 103.871C62.4457 104.09 62.0042 104.293 61.5628 104.496C61.2043 104.67 60.8458 104.844 60.5288 105.003C60.1289 105.192 59.7704 105.366 59.3704 105.554C59.0949 105.699 58.7632 105.816 58.4876 105.961C57.4536 106.468 56.4611 106.96 55.4418 107.509C54.1737 108.145 52.9204 108.824 51.7968 109.736C51.6603 109.878 51.4677 109.993 51.2751 110.108C51.2751 110.108 51.1922 110.137 51.1774 110.096C51.1213 110.069 51.0504 110.001 51.0357 109.959C51.0691 109.527 51.144 109.08 51.1921 108.69C51.3192 107.337 51.5439 105.997 51.6295 104.659C51.7753 102.834 51.9064 100.966 51.913 99.143C51.917 97.1807 51.9357 95.2599 51.913 93.3537C51.7471 89.0706 51.5811 84.7875 51.7349 80.4843C51.8472 77.6432 52.001 74.7873 52.4331 71.9261C52.52 71.3817 52.5922 70.7958 52.7059 70.1952C52.7273 69.8608 52.8049 69.5531 52.7848 69.2334C52.8089 69.0381 52.7501 68.8722 52.6912 68.7064C52.6297 68.4014 52.2364 68.2141 51.89 68.2904C51.6412 68.3787 51.4071 68.5084 51.3001 68.7332C51.1248 69.0288 50.9911 69.3097 50.872 69.632C50.2915 71.2854 49.9063 72.9628 49.6749 74.679C49.3392 76.759 49.1426 78.8364 49.0436 80.9258C48.8376 84.6872 48.7146 88.4192 48.7307 92.1486C48.7548 93.4006 48.7374 94.6673 48.72 95.9341C48.6987 97.7158 48.6505 99.5537 48.5877 101.35C48.5315 104.218 48.4486 107.142 48.4072 110.052C48.3577 111.096 48.3497 112.126 48.3564 113.198C48.3203 113.491 48.3256 113.769 48.4286 114.059C48.5049 114.406 48.7738 114.637 49.1229 114.7C49.4305 114.777 49.7208 114.674 49.896 114.379C50.0445 114.139 50.1783 113.858 50.2706 113.592C50.72 112.359 51.453 111.398 52.4669 110.572C52.7278 110.386 52.9739 110.158 53.2762 109.958C54.9121 108.91 56.6069 108.029 58.402 107.299C59.1899 107.019 59.9777 106.739 60.7509 106.418C61.0826 106.301 61.4291 106.224 61.6899 106.038C62.3507 105.664 63.0556 105.414 63.7606 105.164C65.046 104.707 66.3315 104.251 67.5755 103.81ZM64.0839 99.0728C64.5962 100.385 65.4109 101.497 66.4864 102.422C67.1097 102.995 67.8253 103.301 68.648 103.383C69.3168 103.425 70.0124 103.412 70.6317 103.052C71.1948 102.666 71.7847 102.223 72.2476 101.685C73.0368 100.751 73.6989 99.7228 74.2486 98.6406C74.8666 97.4876 75.2746 96.269 75.724 95.0357C76.4356 92.9623 76.9934 90.8502 77.3973 88.6993C77.6247 87.4981 77.8521 86.2969 77.9818 85.0836C78.0995 83.968 78.1611 82.8257 78.1811 81.6981C78.2092 78.0931 77.8493 74.5791 76.5036 71.1815C76.4742 71.0986 76.43 70.9742 76.3859 70.8498C75.8856 69.4399 75.1097 68.1745 74.2242 66.9948C73.4243 65.9247 72.3782 65.082 71.0473 64.6205C69.7993 64.1296 68.5325 64.1122 67.2912 64.6928C66.4498 65.0847 65.7088 65.6278 65.0975 66.405C63.9017 67.9031 63.3506 69.6394 63.2195 71.5067C63.047 73.3888 63.2918 75.2628 63.8001 77.09C63.9058 77.5194 63.9553 77.9221 63.8242 78.3421C63.7586 78.5521 63.7346 78.7474 63.669 78.9574C63.0604 81.321 62.6471 83.7087 62.3462 86.1499C62.1683 87.7537 62.1442 89.3963 62.2178 91.051C62.3703 93.1912 62.6058 95.302 63.4659 97.3312C63.6719 97.9117 63.8779 98.4923 64.0839 99.0728ZM66.0152 72.1488L66.0687 72.0364C65.7195 70.5262 66.0686 69.1418 66.8231 67.8469C67.4143 66.75 68.4336 66.2016 69.6 66.0678C70.42 66.0103 71.1891 66.2043 71.8392 66.7206C72.5455 67.2636 73.1835 67.8776 73.6852 68.6334C74.358 69.6085 74.9479 70.6131 75.3037 71.7474C75.3332 71.8303 75.3626 71.9132 75.392 71.9962C76.4434 74.5644 76.8849 77.2558 76.9652 79.9819C77.0521 82.3321 76.9438 84.6583 76.5158 87.0045C76.2282 88.6939 75.8992 90.3981 75.4163 92.0634C74.9361 93.8679 74.3021 95.6336 73.4581 97.3338C73.0033 98.2888 72.4361 99.1904 71.7981 100.024C71.4717 100.42 71.1306 100.774 70.7186 101.06C70.4016 101.22 70.0846 101.379 69.7943 101.482C69.282 101.617 68.7791 101.515 68.3831 101.189C67.6621 100.604 67.202 99.8339 66.8662 99.0193C66.4863 98.0802 66.1746 97.0703 65.9459 96.031C65.5793 94.3402 65.4349 92.6173 65.388 90.9065C65.3131 88.4586 65.5311 86.0469 65.9297 83.6177C65.9538 83.4224 66.0193 83.2124 66.0848 83.0024C66.1116 82.9462 66.1384 82.89 66.1919 82.7777C66.3163 82.7335 66.4019 82.8432 66.4728 82.9114C66.8032 83.4478 67.175 83.9695 67.5054 84.5059C68.2813 85.7713 69.1133 87.0634 70.0818 88.2138C70.3948 88.5696 70.7078 88.9254 71.0476 89.225C71.2041 89.4029 71.4288 89.5099 71.6535 89.6169C71.8782 89.724 72.1565 89.7186 72.4053 89.6303C72.8199 89.4832 73.1048 89.1019 73.0406 88.6578C72.9202 88.187 72.7731 87.7723 72.5016 87.4018C72.0414 86.6313 71.5545 85.917 71.0943 85.1466C70.2034 83.6885 69.2711 82.2452 68.4899 80.7016C67.9562 79.7238 67.6712 78.6577 67.2766 77.6772C67.1736 77.387 67.2097 77.094 67.2873 76.7864C67.4612 75.6975 67.6498 74.6501 67.8237 73.5613C67.8718 73.1707 67.8905 72.6972 67.8825 72.2798C67.8691 71.5843 66.9876 71.3368 66.5636 71.7207C66.4124 71.8211 66.2198 71.9361 66.0687 72.0364L66.0152 72.1488ZM102.837 49.5582C102.631 48.9776 102.41 48.3556 102.204 47.7751C102.045 47.4581 101.969 47.1116 101.783 46.8508C101.653 46.6167 101.467 46.3559 101.213 46.1659C101.015 46.0027 100.707 45.9251 100.39 46.0843C100.1 46.1873 99.9811 46.5097 99.9864 46.7879C99.9771 47.0247 100.024 47.2882 100.112 47.537C100.497 48.7543 100.69 50.0865 101.117 51.2891C101.19 51.4964 101.222 51.7185 101.255 51.9405C101.316 52.2455 101.434 52.5772 101.495 52.8822C101.616 53.353 101.68 53.7971 101.8 54.268C102.041 55.2097 102.075 56.225 102.206 57.2523C102.655 60.3609 102.702 63.5191 102.373 66.6706C102.072 69.1118 101.603 71.4727 100.938 73.8096C100.326 76.0341 99.4905 78.1516 98.5836 80.2008C97.662 82.2086 96.5571 84.0947 95.4375 85.9393C94.8169 86.9533 94.14 87.9405 93.3214 88.7912C93.09 89.0601 92.8171 89.3437 92.5295 89.5858C92.3784 89.6861 92.1858 89.8012 91.9784 89.8747C91.6614 90.0339 91.3511 89.8172 91.331 89.4975C91.3136 89.3169 91.323 89.0802 91.3471 88.8849C91.5464 86.9466 91.7604 85.0499 91.9596 83.1116C92.1135 81.7031 92.2111 80.2678 92.3649 78.8593C92.4291 77.856 92.5348 76.8381 92.5575 75.8496C92.6752 73.2866 92.7929 70.7237 92.8691 68.1755C92.9814 65.3344 93.067 62.5494 92.9011 59.7136C92.881 59.3939 92.8462 59.0328 92.8262 58.7131C92.7767 58.3104 92.3807 57.9841 91.9754 57.8944C91.5848 57.8463 91.1849 58.0349 91.0244 58.372C90.8638 58.7091 90.7301 58.99 90.6672 59.3391C90.5147 60.0935 90.3355 60.9041 90.2392 61.6853C89.9797 64.1118 89.7617 66.5236 89.5022 68.9501C89.4902 69.0477 89.4782 69.1454 89.4514 69.2015C89.2989 71.4033 89.1197 73.6612 88.9673 75.863C88.8001 78.0233 88.6182 80.1421 88.5339 82.273C88.4791 84.4867 88.4805 86.7273 88.9407 88.9451C89.1079 89.6795 89.4115 90.272 89.8543 90.8619C90.2823 91.4104 90.9685 91.6337 91.6467 91.4398C92.1443 91.2632 92.5857 91.0599 92.9536 90.6492C93.3629 90.2238 93.8551 89.769 94.235 89.2607C94.8878 88.4688 95.4697 87.6087 96.093 86.7339C96.8113 85.732 97.5002 84.6472 98.0914 83.5503C98.819 82.3116 99.5614 81.1144 100.177 79.8223C100.792 78.5301 101.393 77.1965 101.91 75.8923C102.455 74.5319 102.972 73.2277 103.378 71.87C104.295 68.9298 105.003 65.9241 105.181 62.873C105.27 61.0204 105.221 59.1704 104.934 57.3111C104.794 56.5205 104.68 55.6738 104.401 54.886C104.106 54.0566 103.812 53.2273 103.684 52.3391C103.664 52.0194 103.519 51.7438 103.431 51.495C103.237 50.8169 102.975 50.2096 102.754 49.5876C102.795 49.5729 102.795 49.5729 102.837 49.5582ZM119.486 62.0453C117.977 63.1877 116.681 64.5347 115.627 66.1693C114.318 68.2681 113.638 70.5635 113.603 73.0969C113.615 74.4466 113.932 75.7348 114.471 76.9908C115.241 78.6321 116.663 79.4815 118.388 79.4761C119.46 79.4694 120.484 79.1992 121.42 78.6802C122.535 78.0046 123.634 77.2877 124.577 76.3928C125.082 75.8403 125.657 75.3561 126.146 74.7622C126.689 74.0559 127.247 73.3911 127.79 72.6848C128.808 71.3431 129.841 70.0429 130.844 68.6598C131.156 68.2224 131.396 67.7168 131.652 67.2526C131.732 67.0841 131.73 66.9449 131.712 66.7644C131.724 66.6667 131.597 66.5717 131.526 66.5035C131.455 66.4353 131.316 66.438 131.289 66.4942C131.112 66.6507 130.892 66.8219 130.729 67.0199C129.901 68.1074 129.032 69.2096 128.204 70.2971C126.806 72.1471 125.21 73.8339 123.458 75.3427C122.334 76.255 121.152 77.0014 119.754 77.4041C119.2 77.5539 118.685 77.5499 118.126 77.4215C117.721 77.3319 117.452 77.1005 117.236 76.7567C117.08 76.5788 117.021 76.4129 116.947 76.2056C116.612 75.391 116.4 74.5322 116.411 73.6413C116.357 72.3064 116.499 70.9955 117.005 69.7889C117.775 67.8814 118.714 66.0542 120.02 64.4704C120.972 63.3388 121.983 62.373 123.293 61.7216C123.417 61.6774 123.542 61.6333 123.651 61.5477C123.761 61.462 123.841 61.2935 123.824 61.1129C123.848 60.9176 123.662 60.6568 123.467 60.6327C123.23 60.6234 122.979 60.5725 122.742 60.5632C122.505 60.5538 122.242 60.6006 121.975 60.5083C121.248 60.2997 120.654 59.8101 120.306 59.0931C119.887 58.3079 119.593 57.4786 119.506 56.5757C119.379 55.0334 119.572 53.471 120.016 51.9595C120.448 50.5456 121.019 49.129 121.759 47.7927C122.525 46.4002 123.531 45.1562 124.891 44.2533C125.742 43.6246 126.654 43.3009 127.652 43.0869C128.623 42.929 129.422 43.2059 130.021 43.9737C130.349 44.371 130.635 44.7829 130.797 45.2391C131.262 46.2878 131.479 47.4248 131.598 48.5497C131.616 48.7303 131.648 48.9524 131.721 49.1597C131.751 49.2426 131.878 49.3376 131.99 49.3911C132.103 49.4446 132.351 49.3563 132.405 49.244C132.458 49.1316 132.553 49.0045 132.565 48.9069C132.655 48.5016 132.718 48.1524 132.725 47.7766C132.721 46.8442 132.619 45.8999 132.31 45.0291C131.969 43.9362 131.394 42.9731 130.543 42.1545C129.606 41.2262 128.429 40.8035 127.136 40.8423C125.981 40.8784 124.889 41.2195 123.855 41.7265C121.911 42.6963 120.437 44.1998 119.273 45.9201C118.516 47.0758 117.898 48.2288 117.478 49.5451C116.716 51.8699 116.427 54.2135 116.807 56.5998C117.09 58.32 117.937 59.6536 119.293 60.713C119.506 60.9177 119.746 61.0662 120 61.2561C120.071 61.3243 120.073 61.4634 120.117 61.5878C119.898 61.759 119.72 61.9156 119.486 62.0453Z" fill="black"/>
<path opacity="0.5" d="M27.1724 116.478L28.4846 116.453L28.7622 117.235L27.5888 117.651L28.7874 118.547C28.6826 120.052 26.8278 121.444 23.2231 122.724L20.6239 124.086L20.6492 125.399L21.0403 125.26C20.9167 127.393 22.3131 136.293 25.2297 151.958L28.2075 156.627L27.8163 156.766C27.2334 156.973 26.2492 155.854 24.8638 153.409L23.8669 149.359L23.7281 148.968L23.337 149.107L23.6146 149.889C22.8323 150.167 22.5337 150.566 22.7188 151.088L22.8576 151.479L25.8606 157.46L25.9994 157.851L25.2171 158.128L23.2361 157.51L22.9838 158.04L22.5927 158.179C20.7495 156.294 19.534 154.524 18.9461 152.867L19.4761 153.119L19.8672 152.981L18.1133 150.52L19.148 149.713L18.454 147.757L17.6717 148.034L17.5329 147.643C18.3152 147.366 18.6138 146.966 18.4287 146.445L18.2899 146.053L17.5077 146.331C16.7674 144.245 16.7884 143.063 17.5707 142.786L15.7663 137.701C16.0499 137.186 15.5998 134.263 14.4162 128.931L11.817 130.294L6.20216 131.846L6.06336 131.455L7.88028 130.37L8.01907 130.761L8.27142 130.231L14.1386 128.149L13.7222 126.976L7.74148 129.979L7.21154 129.726L6.8204 129.865L4.61234 131.089L3.16131 130.723L2.85847 128.629L2.32853 128.376C1.86587 127.073 3.19911 125.866 6.32826 124.755L27.1724 116.478ZM25.2419 118.484L25.3807 118.875L26.9453 118.32L26.8065 117.929L25.2419 118.484ZM18.5423 145.524L20.8135 154.406L21.5958 154.129L20.5107 152.312L20.2331 151.529L20.599 150.078L20.2079 150.217L20.4602 149.687L20.3214 149.296L19.7915 149.044L19.6527 148.653L19.8798 146.811L18.9334 145.385L18.5423 145.524ZM27.1924 116.315L28.3658 115.899L29.451 117.716C30.2333 117.438 30.4856 116.908 30.208 116.126L30.5991 115.987L31.659 116.492L32.1007 118.978L32.4918 118.839L32.2395 119.369L32.3783 119.76L32.9082 120.012L33.047 120.403L32.6559 120.542L33.1858 120.794L33.3246 121.186L37.5138 134.232L37.6526 134.623L38.0437 134.484L37.8292 130.157L38.6114 129.879L38.5106 138.282L39.2929 138.005L39.2675 123.04L38.4852 123.318L38.725 128.958L37.9427 129.236L37.8039 128.844L38.3212 121.615L38.7123 121.476L38.9899 122.258L41.8414 120.365C43.0206 120.379 43.6809 120.585 43.8224 120.984L44.0747 120.454L45.2482 120.037L50.1439 128.87L50.535 128.731C50.1214 127.565 49.7927 120.117 49.5491 106.387L49.9403 106.248L50.7478 107.283L51.139 107.144L50.8614 106.362L51.2525 106.223C53.1852 105.537 54.367 105.558 54.798 106.286L55.0756 107.069L54.7097 108.52L54.8485 108.911L55.6308 108.633L55.0504 105.756L55.8327 105.479L56.8925 105.983L57.0313 106.375L59.0268 140.25L57.9921 141.058L57.7145 140.276L57.4622 140.806L57.0711 140.944L56.5411 140.692C56.9112 141.735 56.7052 142.395 55.9229 142.673C53.7715 143.229 52.5896 143.208 52.3773 142.61L52.7685 142.471C52.0451 141.26 51.1997 140.532 50.2323 140.288L45.6142 132.238C45.1748 132.412 44.9057 136.617 44.8068 144.856L43.5451 147.506L43.154 147.645L42.2076 146.219C43.8553 138.208 44.137 132.383 43.0528 128.743C42.6075 129.679 42.3005 134.191 42.1319 142.282C41.8098 142.396 41.8434 144.146 42.2329 147.531L38.7126 148.78L37.7663 147.354L37.5139 147.884L37.1228 148.023C36.622 146.612 35.8607 145.708 34.839 145.31L34.2838 143.746L36.2647 144.364L33.1229 137.992L33.3752 137.462L32.8453 137.21L33.0977 136.68L32.7065 136.819L32.9589 136.289L31.0157 130.813L30.7128 128.718L30.3217 128.857L30.574 128.327L26.9653 118.157L26.4354 117.905L26.2966 117.514L27.1924 116.315ZM50.2431 108.343C50.6441 121.689 51.1031 129.09 51.6202 130.548L51.759 130.939L52.1501 130.8L51.0254 108.065L50.2431 108.343ZM54.9006 123.658L55.3675 127.456L55.5063 127.847L55.8975 127.709L55.4306 123.911L55.2918 123.52L54.9006 123.658ZM55.8849 133.879L56.3518 137.676L56.6294 138.459L57.0206 138.32L56.4149 134.131L56.2761 133.74L55.8849 133.879ZM64.495 104.192C64.7112 104.996 65.3409 105.213 66.3839 104.843L67.6524 106.155L67.377 106.693L67.7681 106.554C67.8563 112.74 68.9806 119.534 71.141 126.937L71.8357 129.332L72.3656 129.585L72.4814 129.984L72.2061 130.522L72.5972 130.383L72.3219 130.921L73.5235 133.578L73.7551 134.376C72.958 136.559 72.6921 138.121 72.9573 139.063L71.3927 139.619L69.2284 139.506L68.8091 136.572L66.7583 135.538L65.3896 129.418L63.2824 122.238L63.7173 120.763L63.2542 119.166L62.7472 118.905L62.6314 118.506L63.4137 118.228L63.2979 117.829L62.791 117.568L61.7414 109.573L61.3503 109.712L61.6256 109.174L60.9079 106.786L60.401 106.526L60.2852 106.127L64.495 104.192ZM62.6678 112.768L63.5013 115.555L63.8924 115.416L63.0589 112.629L62.6678 112.768ZM63.4575 116.892L64.1522 119.287L64.5434 119.149L63.8486 116.753L63.4575 116.892ZM64.1085 120.624L64.8262 123.012L65.2174 122.873L64.4996 120.485L64.1085 120.624ZM69.5913 136.294L70.1703 138.291L70.698 137.223L70.3736 136.017L69.5913 136.294ZM79.0363 98.2293C79.9116 98.5059 82.1976 97.9883 85.8943 96.6765L86.0101 97.0758L83.2721 98.0474L83.3879 98.4467C86.655 97.2874 88.9727 97.3457 90.3409 98.6218L90.5724 99.4204L88.6167 100.114L88.7325 100.514L91.5863 99.9414L91.7021 100.341L89.3552 101.174L89.471 101.573C90.2533 101.295 90.7217 101.423 90.876 101.955C86.2283 103.604 82.6806 106.772 80.2329 111.457L80.3487 111.856C85.8741 111.415 90.9341 112.996 95.5284 116.599L95.6442 116.998C95.8906 120.71 94.3397 124.784 90.9914 129.219L88.7373 130.459L88.8531 130.858L89.6354 130.581C89.8551 131.297 87.7398 132.928 83.2895 135.475L83.058 134.676L85.0137 133.982L84.9209 133.575C83.249 134.168 81.4142 133.791 79.4167 132.445C78.0386 132.261 77.0502 131.325 76.4515 129.637C76.3971 129.484 76.3476 129.32 76.3031 129.146L77.2449 127.931L78.6499 128.313L79.4322 128.036C86.3867 124.273 89.3503 120.579 88.323 116.954C84.6847 116.483 82.367 116.425 81.37 116.779L81.4858 117.178L77.0882 116.977L77.5951 117.237L77.8497 118.028C73.7487 116.789 71.5134 115.527 71.1438 114.242L72.2608 107.68L73.7533 105.389L73.9849 106.187L79.0363 98.2293ZM77.4459 110.684L77.5616 111.084L82.9374 104.332L85.835 102.423L85.6034 101.624L84.8211 101.902C81.2392 104.9 78.7808 107.827 77.4459 110.684ZM85.2993 125.954L85.6905 125.815L86.2412 124.739L85.8501 124.878L85.2993 125.954ZM92.3399 123.455L91.3543 126.007L91.7454 125.868L92.7311 123.317L92.3399 123.455ZM88.5495 128.324L88.6883 128.715L89.0794 128.576L90.2966 126.823L88.5495 128.324ZM85.0805 132.637L85.1963 133.037L86.7608 132.481L88.6007 131.388L88.462 130.997L88.0708 131.136L85.0805 132.637ZM112.994 86.024L114.306 85.9988L114.584 86.7811L113.41 87.1975L114.609 88.0933C114.504 89.5985 112.649 90.9907 109.044 92.2698L106.445 93.6325L106.471 94.9447L106.862 94.8059C106.738 96.9395 108.134 105.839 111.051 121.505L114.029 126.173L113.638 126.312C113.055 126.519 112.071 125.4 110.685 122.956L109.688 118.905L109.549 118.514L109.158 118.653L109.436 119.435C108.654 119.713 108.355 120.113 108.54 120.634L108.679 121.025L111.682 127.006L111.821 127.397L111.038 127.675L109.057 127.056L108.805 127.586L108.414 127.725C106.571 125.84 105.355 124.07 104.767 122.413L105.297 122.666L105.689 122.527L103.935 120.066L104.969 119.259L104.275 117.303L103.493 117.581L103.354 117.19C104.137 116.912 104.435 116.512 104.25 115.991L104.111 115.6L103.329 115.877C102.589 113.791 102.61 112.609 103.392 112.332L101.588 107.247C101.871 106.732 101.421 103.809 100.237 98.4777L97.6383 99.8404L92.0235 101.392L91.8847 101.001L93.7016 99.9162L93.8404 100.307L94.0928 99.7774L99.9599 97.6954L99.5435 96.522L93.5628 99.525L93.0329 99.2727L92.6417 99.4115L90.4337 100.635L88.9826 100.27L88.6798 98.175L88.1499 97.9227C87.6872 96.6189 89.0204 95.4118 92.1496 94.3014L112.994 86.024ZM111.063 88.0302L111.202 88.4214L112.767 87.8662L112.628 87.4751L111.063 88.0302ZM104.364 115.07L106.635 123.952L107.417 123.675L106.332 121.858L106.054 121.076L106.42 119.625L106.029 119.763L106.282 119.234L106.143 118.842L105.613 118.59L105.474 118.199L105.701 116.357L104.755 114.931L104.364 115.07ZM132.183 80.0179L134.535 80.6598C134.804 83.172 134.202 84.6378 132.728 85.0575L122.675 89.1427L122.907 89.9413L124.888 89.3935L127.177 88.3225L127.7 88.629L128.099 88.5132L130.779 87.3034L131.585 87.0948L131.701 87.4941L122.948 91.6625L124.03 96.9774L124.43 96.8616L134.758 92.2383L135.25 92.53L135.365 92.9293L134.559 93.1379L134.697 93.529L137.602 93.172L137.718 93.5713C137.667 95.2299 134.343 97.7391 127.747 101.099L123.861 102.633L124.368 102.894L124.245 108.533L123.854 108.672L122.835 105.07L122.436 105.186L123.603 110.885C131.041 107.071 136.408 104.7 139.705 103.772L141.803 103.624L142.057 104.414L141.259 104.646L141.751 104.937L142.098 106.135C141.695 107.384 140.247 108.364 137.753 109.076L137.869 109.475L141.072 108.572L141.28 109.379L124.028 118.506L123.628 118.622C122.273 118.792 121.5 118.609 121.309 118.072L121.285 118.003L120.937 116.805L120.516 112.188L120.001 111.904L120.792 111.649L121.348 113.654L121.755 113.561C121.446 112.203 121.529 111.465 122.006 111.348L121.483 111.042L120.379 107.055L119.572 107.264L119.729 109.384L120.035 108.861L120.435 108.745L121.106 111.149L120.699 111.242L120.36 110.067L119.96 110.183L120.192 110.981L119.793 111.097L119.561 110.299L118.46 103.254L118.061 103.37L118.289 101.165L117.774 100.882L117.658 100.482L116.166 93.5767L116.681 93.8602L117.08 93.7444L116.849 92.9458L115.894 91.0569L115.274 87.3392L114.926 86.1413L115.334 86.0485L115.849 86.332L116.133 85.8169L116.54 85.7241L117.047 85.9847L117.33 85.4696L118.537 85.1452L132.183 80.0179ZM118.669 104.061L119.456 106.864L119.856 106.749L119.076 103.968L118.669 104.061ZM131.756 99.987L132.147 99.8482L132.24 100.256L125.407 103.484L124.883 103.177L124.776 102.801L128.262 101.382L128.378 101.782L131.756 99.987ZM139.919 77.1432L141.483 76.588L142.934 76.9539L145.534 75.5912C150.059 73.9855 155.156 75.1126 160.826 78.9725L164.17 82.19L163.917 82.7199L165.003 84.5368L165.697 86.4925C168.075 93.1956 164.403 100.224 154.682 107.577L150.909 109.356C150.675 108.696 150.015 108.49 148.928 108.737L149.483 110.302L148.31 110.718L147.477 108.372L146.947 108.119L147.199 107.589L147.061 107.198C145.115 106.68 144.009 106.045 143.742 105.293C140.333 93.2044 138.584 84.1366 138.493 78.0895L138.884 77.9507L139.414 78.2031L139.919 77.1432ZM139.742 81.6098L141.812 93.6469L141.95 94.0381L142.341 93.8993L140.411 82.2533L140.133 81.471L139.742 81.6098ZM146.972 82.1271C147.157 82.6486 146.728 83.0944 145.685 83.4645C146.329 88.5897 147.49 94.3433 149.168 100.725C150.686 100.186 154.135 97.4947 159.514 92.65L159.375 92.2588L158.593 92.5364C159.922 89.6641 160.179 87.0775 159.362 84.7766L158.946 83.6032C157.928 80.7348 155.371 79.7338 151.275 80.6003L146.972 82.1271ZM154.795 79.3511L154.934 79.7423L156.776 79.9694L156.637 79.5782L155.186 79.2123L154.795 79.3511ZM160.258 83.5779L161.533 88.4104L162.315 88.1328L161.899 86.9594L161.735 85.2561L160.649 83.4391L160.258 83.5779ZM164.107 85.7355L164.372 92.6878L164.511 93.0789L164.902 92.9401L164.775 86.379L164.498 85.5967L164.107 85.7355ZM161.167 89.8615L160.94 91.7036L161.331 91.5648L161.558 89.7227L161.167 89.8615ZM161.318 97.7348C161.899 97.4251 162.534 96.3189 163.224 94.4164L163.085 94.0252L161.318 97.7348ZM153.155 103.274L153.294 103.665L154.858 103.11L156.536 101.634L156.398 101.243L156.006 101.381L153.155 103.274ZM150.165 104.776L150.972 105.81L151.754 105.533L152.259 104.473L152.12 104.082L151.729 104.22L150.694 105.028L150.165 104.776ZM146.695 108.649L147.086 108.51L147.225 108.902L146.72 109.961L146.329 110.1L146.19 109.709L146.695 108.649Z" fill="black"/>
<defs>
<linearGradient id="paint0_linear_34_7" x1="35.0222" y1="174.777" x2="449.426" y2="172.564" gradientUnits="userSpaceOnUse">
<stop stop-color="#1A7F54"/>
<stop offset="1" stop-color="#7ADBAE"/>
</linearGradient>
<linearGradient id="paint1_linear_34_7" x1="24.1192" y1="191.278" x2="437.07" y2="156.539" gradientUnits="userSpaceOnUse">
<stop stop-color="#1A7F72"/>
<stop offset="1" stop-color="#7ADBAE"/>
</linearGradient>
<clipPath id="clip0_34_7">
<rect width="312.5" height="414.646" fill="white" transform="matrix(0.00534047 0.999986 0.999986 -0.00534047 34.1621 18.583)"/>
</clipPath>
<clipPath id="clip1_34_7">
<rect width="312.5" height="414.646" fill="white" transform="matrix(0.083827 0.99648 0.99648 -0.083827 10.9999 35.6318)"/>
</clipPath>
</defs>
</svg>
