<svg width="370" height="349" viewBox="0 0 370 349" fill="none" xmlns="http://www.w3.org/2000/svg">
<path d="M185.623 28.7293C171.201 27.2017 156.995 31.2389 144.09 37.5676C132.38 43.2416 121.318 50.6614 111.45 59.0633C92.7987 74.885 77.0749 95.5078 69.9179 119.294C62.6525 143.082 65.5803 168.178 77.0749 190.111C89.1118 213.134 108.848 231.465 130.861 244.668C155.044 259.071 182.696 267.583 210.673 269.218C236.374 270.746 263.808 266.6 285.387 251.652C305.016 238.012 316.619 216.08 319.655 192.402C322.799 168.069 317.161 143.518 305.124 122.24C292.328 99.6535 273.35 81.2137 252.422 66.3741C229.65 50.1158 203.083 35.9309 174.779 33.8577C167.948 33.3122 161.115 33.6395 154.393 34.7307C153.308 34.9489 153.741 36.4764 154.826 36.3674C183.672 31.6755 212.082 43.0234 236.374 57.863C257.844 70.9568 277.906 87.2149 293.195 107.293C308.051 126.823 317.811 149.957 318.787 174.726C319.655 197.858 313.041 221.754 297.317 238.994C279.857 258.198 253.832 266.272 228.674 267.692C201.673 269.109 174.128 263.545 149.405 252.415C105.161 232.556 62.4355 189.783 67.9661 137.081C70.4602 112.748 83.0391 90.4885 99.4136 72.8118C107.763 63.8644 117.089 55.8989 127.283 49.1339C138.777 41.4957 151.357 34.8397 164.911 31.6755C171.742 30.1478 178.682 29.6022 185.731 30.366C186.708 30.4752 186.708 28.8384 185.623 28.7293Z" fill="#1A7F72"/>
<path d="M196.576 274.893C181.828 280.021 165.778 277.73 150.706 275.329C136.283 272.928 121.969 269.546 108.306 264.527C82.3884 255.035 58.3149 239.104 42.6995 215.753C28.277 194.148 23.3973 168.178 29.6867 142.864C35.7593 118.313 50.9409 96.2715 70.3517 80.4498C114.92 43.6781 178.466 41.1685 233.12 48.0427C249.06 50.0068 264.893 53.1712 280.291 57.6449C293.195 61.3547 306.642 65.8285 317.269 74.4486C328.438 83.5051 333.969 96.8171 333.535 111.22C333.101 126.169 326.595 140.027 318.245 152.139C302.738 174.834 282.243 194.803 260.772 211.606C239.085 228.629 215.227 242.704 189.852 253.288C183.779 255.797 177.599 258.198 171.309 260.38C170.334 260.708 170.768 262.345 171.742 262.017C225.312 243.577 273.568 210.187 309.57 166.214C326.812 145.264 343.728 116.022 330.607 88.5244C324.969 76.6309 313.908 68.8837 302.305 63.6462C288.316 57.4266 273.134 53.6076 258.169 50.5524C227.806 44.3329 196.034 41.8232 165.128 44.4419C136.716 46.7334 108.197 53.9349 83.5814 68.8837C40.3138 95.1804 11.1435 150.719 32.2893 200.259C43.0249 225.355 63.8453 244.777 87.5936 257.217C100.823 264.199 115.137 269.11 129.669 272.711C144.524 276.311 160.14 279.367 175.429 279.585C182.696 279.693 189.961 278.931 196.901 276.421C197.986 276.093 197.552 274.456 196.576 274.893Z" fill="#1A7F72"/>
<path d="M75.3034 124.687C78.5218 121.447 78.5218 116.197 75.3034 112.959C72.085 109.721 66.8668 109.721 63.6484 112.959C60.4298 116.197 60.4298 121.447 63.6482 124.687C66.8668 127.925 72.085 127.925 75.3034 124.687Z" fill="#1A7F72"/>
<path d="M87.5936 28.5117C87.5936 31.2396 85.4249 33.5309 82.6054 33.5309C79.8943 33.5309 77.6172 31.3486 77.6172 28.5117C77.6172 25.7837 79.786 23.4924 82.6054 23.4924C85.4249 23.6015 87.5936 25.7837 87.5936 28.5117Z" fill="#1A7F72"/>
<path d="M61.1343 195.239C61.1343 197.966 58.9655 200.259 56.1461 200.259C53.4351 200.259 51.1578 198.077 51.1578 195.239C51.1578 192.511 53.3266 190.22 56.1461 190.22C58.9655 190.329 61.1343 192.511 61.1343 195.239Z" fill="#1A7F72"/>
<path d="M269.772 114.712C269.772 117.004 267.929 118.858 265.652 118.858C263.375 118.858 261.531 117.004 261.531 114.712C261.531 112.421 263.375 110.566 265.652 110.566C267.929 110.566 269.772 112.421 269.772 114.712Z" fill="#1A7F72"/>
<path d="M127.285 112.53C127.285 113.623 126.417 114.496 125.331 114.496C124.247 114.496 123.379 113.623 123.379 112.53C123.379 111.44 124.247 110.566 125.331 110.566C126.417 110.566 127.285 111.44 127.285 112.53Z" fill="#1A7F72"/>
<path d="M252.205 3.30546C252.205 4.94218 250.795 6.36068 249.169 6.36068C247.542 6.36068 246.132 4.94218 246.132 3.30546C246.132 1.66875 247.542 0.250244 249.169 0.250244C250.904 0.359413 252.205 1.66875 252.205 3.30546Z" fill="#1A7F72"/>
<path d="M252.205 250.452C252.205 252.089 250.795 253.507 249.169 253.507C247.542 253.507 246.132 252.089 246.132 250.452C246.132 248.815 247.542 247.396 249.169 247.396C250.904 247.396 252.205 248.706 252.205 250.452Z" fill="#1A7F72"/>
<path d="M369.428 183.128C369.428 187.055 366.175 190.329 362.272 190.329C358.367 190.329 355.114 187.055 355.114 183.128C355.114 179.199 358.367 175.926 362.272 175.926C366.284 175.926 369.428 179.09 369.428 183.128Z" fill="#1A7F72"/>
<path d="M13.8545 248.487C18.1067 248.487 21.5538 245.018 21.5538 240.74C21.5538 236.461 18.1067 232.993 13.8545 232.993C9.60237 232.993 6.15527 236.461 6.15527 240.74C6.15527 245.018 9.60237 248.487 13.8545 248.487Z" fill="#1A7F72"/>
<path d="M6.6977 69.3204C6.6977 70.9572 5.28791 72.3756 3.66128 72.3756C2.03465 72.3756 0.625 70.9572 0.625 69.3204C0.625 67.5746 2.03465 66.2651 3.66128 66.2651C5.28791 66.2651 6.6977 67.5746 6.6977 69.3204Z" fill="#1A7F72"/>
<path d="M320.522 94.526C324.475 94.526 327.68 91.3017 327.68 87.3244C327.68 83.3471 324.475 80.1228 320.522 80.1228C316.569 80.1228 313.366 83.3471 313.366 87.3244C313.366 91.3017 316.569 94.526 320.522 94.526Z" fill="#1A7F72"/>
<path d="M117.74 219.789L123.379 215.097C120.885 209.314 114.812 208.332 111.45 208.224L105.703 211.278C107.33 219.789 117.74 219.789 117.74 219.789Z" fill="#1D3542"/>
<path d="M164.802 213.788C164.802 213.788 155.585 208.115 149.405 215.316C149.405 215.316 143.765 210.625 134.006 217.935L130.427 219.463C130.427 219.463 140.187 227.209 151.031 221.536C151.031 221.536 167.948 224.154 168.49 219.463C168.924 214.88 164.802 213.788 164.802 213.788Z" fill="#1D3542"/>
<path d="M194.406 108.493C194.406 108.493 224.228 95.5074 229.867 70.1927C235.505 44.8781 213.926 16.9446 213.926 16.9446C213.926 16.9446 124.463 93.9799 143.983 110.02C154.068 118.313 194.406 114.711 194.406 114.711" fill="#1D3542"/>
<path opacity="0.22" d="M158.947 80.1225C158.947 80.1225 168.707 105.001 186.708 103.91C204.709 102.927 217.397 79.7951 218.48 68.0107C219.565 56.3354 156.887 67.1378 158.947 80.1225Z" fill="#1D3542"/>
<path d="M159.923 233.21C159.923 233.21 140.403 263.217 139.32 267.909C139.32 267.909 72.9543 271.51 57.5558 278.275C42.1574 285.04 36.5185 305.227 49.8566 315.484C63.1947 325.741 152.115 329.45 176.839 320.612C176.839 320.612 304.364 337.634 325.945 312.865C347.524 287.986 286.906 263.762 235.505 266.272C235.505 266.272 217.504 230.592 207.746 225.9C197.986 221.317 159.923 233.21 159.923 233.21Z" fill="#1F5148"/>
<path opacity="0.23" d="M88.4611 279.804C87.4852 280.894 82.2801 283.404 87.4852 285.477C92.5819 287.55 120.885 303.044 128.15 300.971C135.307 298.898 93.6662 274.129 88.4611 279.804Z" fill="#D25A5C"/>
<path opacity="0.23" d="M240.602 298.353C241.687 298.462 263.808 292.789 273.568 288.642C283.328 284.496 285.387 281.441 287.991 281.441C290.593 281.441 290.05 276.311 282.894 276.748C275.736 277.294 245.916 290.169 245.916 290.169L240.711 299.117" fill="#D25A5C"/>
<path opacity="0.23" d="M233.445 285.476C233.445 285.476 209.805 290.606 206.227 290.169C202.649 289.623 213.384 267.363 238.651 265.29C238.651 265.29 213.926 264.745 197.552 283.403C181.068 302.062 167.188 278.711 156.887 273.583C156.887 273.583 173.37 294.533 174.128 297.262C174.128 297.262 199.721 293.988 207.095 295.189C207.095 295.189 225.747 295.406 234.747 285.259L233.445 285.476Z" fill="#1F5148"/>
<path d="M145.393 295.515C152.874 298.898 161.117 298.898 169.14 298.134C178.142 297.371 187.141 296.171 196.142 295.843C205.576 295.406 215.011 295.406 224.444 296.279C227.264 296.498 230.083 296.716 232.903 297.48C235.398 298.025 237.784 298.789 240.168 299.444C245.157 300.971 250.362 302.39 255.242 304.245C255.676 304.464 255.892 303.7 255.458 303.481C251.229 301.844 246.892 300.535 242.554 299.225C238.325 297.916 233.879 296.388 229.434 295.843C210.89 293.77 192.347 294.751 173.912 296.824C164.586 297.807 154.61 298.789 145.718 294.751C145.284 294.642 144.959 295.298 145.393 295.515Z" fill="black"/>
<path d="M138.235 305.336C151.682 313.302 166.429 318.866 181.611 321.921C182.044 322.031 182.262 321.267 181.828 321.158C166.647 318.102 152.007 312.538 138.56 304.681C138.235 304.353 137.801 305.118 138.235 305.336Z" fill="#040404"/>
<path d="M111.776 289.078C103.86 287.114 95.5097 285.259 87.5937 288.097C87.1599 288.314 87.3767 288.97 87.8105 288.859C95.6182 286.023 103.86 287.878 111.559 289.842C112.101 289.951 112.209 289.296 111.776 289.078Z" fill="black"/>
<g opacity="0.49">
<path opacity="0.49" d="M173.261 296.607C170.441 292.461 167.514 288.314 164.695 284.059L173.261 296.607Z" fill="#D25A5C"/>
</g>
<path d="M235.822 266.012C232.243 266.122 228.773 266.995 225.411 268.085C222.05 269.068 218.688 270.378 215.543 272.123C215.11 272.342 215.543 272.996 215.977 272.778C219.013 271.142 222.266 269.832 225.628 268.849C228.881 267.868 232.351 266.995 235.822 266.886C236.255 266.776 236.255 266.012 235.822 266.012Z" fill="#050505"/>
<path d="M139.579 267.801C145 268.02 150.206 270.419 154.002 274.348C154.326 274.676 154.869 274.129 154.544 273.801C150.64 269.656 145.218 267.256 139.579 267.037C139.036 267.037 139.036 267.801 139.579 267.801Z" fill="#151515"/>
<path d="M230.735 288.533C224.228 291.915 217.504 294.533 210.023 294.642C209.48 294.642 209.48 295.406 210.023 295.406C217.613 295.298 224.444 292.679 231.059 289.187C231.602 289.078 231.168 288.314 230.735 288.533Z" fill="black"/>
<path d="M137.693 131.953C137.693 132.935 135.524 140.355 133.356 159.559C131.186 178.872 120.017 205.278 120.234 208.333C120.343 211.388 113.294 214.334 107.763 227.537C102.233 240.74 90.3046 250.124 87.2683 252.852C87.2683 252.852 80.9788 251.106 74.3641 251.87C67.7492 252.743 61.4597 250.888 60.3752 248.924C60.3752 248.924 57.4474 251.652 60.0499 254.162C62.761 256.672 68.8335 254.271 70.4602 257.326C72.1953 260.38 68.2914 265.182 64.6045 263.763C60.9175 262.345 59.8331 259.835 59.1824 258.307C58.6402 256.78 60.9175 250.452 56.1461 249.143C56.1461 249.143 54.7365 257.762 55.387 259.835C55.387 259.835 48.8806 252.851 45.4105 256.125C45.4105 256.125 51.8085 261.472 52.4592 263C52.4592 263 47.2541 260.708 45.8443 263.873C45.8443 263.873 50.6157 266.709 52.676 267.147C54.7365 267.583 56.363 268.02 57.4474 269.546C57.4474 269.546 51.7001 268.782 51.3747 271.947C51.3747 271.947 57.0136 271.728 59.6162 272.602C62.2188 273.475 72.0868 274.129 75.5569 271.838C79.027 269.546 127.283 243.032 137.91 218.154C137.91 218.154 150.814 174.071 150.814 163.704" fill="#F4A082"/>
<path opacity="0.21" d="M128.042 183.564C128.042 183.564 138.886 205.824 152.767 214.553C166.647 223.391 146.043 167.525 128.042 183.564Z" fill="#D18161"/>
<path d="M240.168 133.916C240.061 134.899 241.47 137.954 243.53 157.267C245.591 176.58 256.543 203.095 256.326 206.151C256.109 209.206 263.158 212.26 268.689 225.464C274.11 238.666 286.039 248.16 288.967 250.888C288.967 250.888 295.256 249.141 301.871 250.015C308.485 250.888 314.775 249.141 315.968 247.178C315.968 247.178 318.896 249.905 316.185 252.415C313.474 254.816 307.402 252.415 305.774 255.471C304.04 258.526 307.944 263.326 311.631 262.017C315.318 260.708 316.51 258.089 317.053 256.561C317.702 255.035 315.425 248.705 320.088 247.396C320.088 247.396 321.391 256.016 320.848 258.089C320.848 258.089 327.355 251.214 330.824 254.488C330.824 254.488 324.318 259.835 323.775 261.363C323.775 261.363 329.089 259.071 330.39 262.236C330.39 262.236 325.619 265.073 323.559 265.51C321.498 265.946 319.872 266.382 318.787 267.8C318.787 267.8 324.535 267.036 324.86 270.201C324.86 270.201 319.221 269.874 316.619 270.746C314.015 271.619 304.148 272.166 300.677 269.874C297.208 267.583 249.169 240.631 238.758 215.753C238.758 215.753 226.18 171.561 226.288 161.195" fill="#F4A082"/>
<path opacity="0.21" d="M238.651 224.919C238.651 224.919 248.41 208.333 257.194 206.26C265.869 204.295 233.988 185.638 238.651 224.919Z" fill="#D18161"/>
<path d="M158.947 235.284L149.187 164.905L136.934 135.88C136.934 135.88 134.548 128.569 161.984 115.258C189.745 101.837 238.542 117.876 240.386 135.553C242.338 155.085 228.349 161.305 228.349 161.305L217.504 235.284C217.504 235.284 192.347 248.268 158.947 235.284Z" fill="#F4A082"/>
<path opacity="0.21" d="M152.767 214.552C152.658 215.753 200.154 247.614 223.034 230.046C245.807 212.479 157.428 177.344 152.767 214.552Z" fill="#D18161"/>
<path d="M164.911 115.148C164.044 117.768 179.442 99.1086 177.924 72.2664H195.275C195.275 72.2664 195.275 105.656 212.842 116.131C212.95 116.24 185.298 141.991 164.911 115.148Z" fill="#F4A082"/>
<path opacity="0.34" d="M186.383 103.91C195.066 103.91 202.107 98.2429 202.107 91.2525C202.107 84.2621 195.066 78.5952 186.383 78.5952C177.698 78.5952 170.659 84.2621 170.659 91.2525C170.659 98.2429 177.698 103.91 186.383 103.91Z" fill="#D18161"/>
<path d="M144.524 295.298C144.524 295.298 142.464 289.624 140.403 283.404C138.344 277.184 129.56 276.639 122.945 280.349C116.222 283.95 102.341 275.657 97.2447 275.221C92.1481 274.674 84.8826 275.221 86.4007 279.367C88.2442 284.168 94.6422 279.913 97.2447 282.967C99.8473 286.024 129.669 305.773 138.344 305.773C138.344 305.664 144.524 304.136 144.524 295.298Z" fill="#F4A082"/>
<path d="M231.602 287.769C231.602 287.769 234.204 282.313 236.807 276.311C239.409 270.31 248.193 270.638 254.482 274.893C260.772 279.148 275.411 272.275 280.617 272.275C285.822 272.275 292.87 273.475 290.919 277.403C288.64 282.094 282.676 277.075 279.857 279.912C277.039 282.75 245.482 299.445 236.699 298.572C236.699 298.68 230.734 296.498 231.602 287.769Z" fill="#F4A082"/>
<path d="M139.862 129.769C140.512 129.769 225.963 161.413 242.011 145.046C242.011 145.046 245.265 171.343 248.952 181.382C253.072 192.73 257.194 205.714 257.194 206.26C257.194 206.26 251.555 205.278 234.097 222.846C210.456 246.633 159.273 225.028 128.042 183.345C127.933 183.345 131.512 129.333 139.862 129.769Z" fill="#FFD2B9"/>
<path d="M132.327 155.068C140.538 150.393 151.367 157.724 159.668 153.155C160.57 152.625 161.473 151.986 162.466 151.774C163.368 151.562 164.36 151.774 165.263 151.88C174.196 153.368 183.129 154.855 191.972 156.449C194.318 156.875 196.754 157.3 199.191 157.3C202.349 157.3 205.597 156.661 208.665 157.724C210.108 158.255 211.372 159.106 212.815 159.638C216.516 161.124 220.576 160.593 224.546 159.956C229.87 159.212 235.193 158.361 240.516 157.618C242.052 157.406 244.126 157.618 244.307 159.318C244.398 161.124 242.141 161.55 240.516 161.55C235.644 161.55 230.772 163.144 225.9 163.781C222.381 164.205 218.862 164.099 215.252 163.887C198.287 163.25 181.234 162.293 164.271 161.124C161.022 160.912 157.683 160.699 154.525 160.062C153.352 159.85 152.179 159.53 151.097 159.85C150.194 160.062 149.292 160.699 148.389 161.018C144.78 162.293 141.17 158.681 137.471 158.999C135.846 159.106 134.223 159.956 132.599 159.85C130.974 159.744 129.35 157.618 130.342 156.237" fill="#FCEBE6"/>
<path d="M131.398 170.746C131.751 168.542 134.309 167.771 136.25 168.432C138.103 169.092 139.69 170.746 141.543 171.517C147.191 174.161 153.365 168.982 159.453 169.313C163.6 169.534 167.483 172.288 171.541 171.737C172.776 171.517 173.923 171.076 175.07 170.966C177.628 170.636 180.187 171.517 182.657 172.177C190.863 174.382 199.42 174.602 207.89 174.822C213.096 174.932 218.213 175.042 223.419 175.152C228.094 175.263 232.859 175.373 237.358 173.941C239.123 173.39 240.799 172.618 242.652 172.618C244.505 172.618 246.445 173.611 247.063 175.483C241.857 176.364 236.652 177.136 231.446 178.017C228.888 178.458 226.417 178.898 223.859 178.898C219.977 179.008 216.096 178.458 212.213 178.238C200.127 177.577 187.951 180.552 176.04 178.458C172.864 177.907 169.776 176.916 166.6 177.246C163.865 177.467 161.218 178.568 158.483 178.458C156.454 178.348 154.512 177.687 152.484 177.026C145.602 174.932 138.367 174.271 131.22 175.152C130.339 173.611 129.457 171.957 128.662 170.415C129.721 170.415 130.78 170.305 131.839 170.305" fill="#FCEBE6"/>
<path d="M119.41 187.986C123.48 185.254 128.811 185.909 133.365 187.33C138.017 188.86 142.475 191.047 147.32 191.047C151.876 191.047 156.237 189.188 160.695 188.969C167.867 188.641 174.94 192.358 182.015 191.374C185.02 190.938 187.927 189.626 190.931 189.407C193.16 189.188 195.389 189.626 197.618 190.062C202.076 190.938 206.534 191.703 210.895 192.577C212.252 192.796 213.609 193.124 215.062 193.014C216.904 192.905 218.55 192.14 220.296 191.484C224.56 189.845 228.92 188.533 233.378 187.548C235.801 187.002 238.418 186.674 240.549 187.767C241.422 188.205 242.101 188.86 243.07 189.188C244.814 189.735 246.655 188.641 248.399 188.205C250.144 187.767 252.663 188.641 252.567 190.5C247.528 192.358 241.907 191.484 236.576 191.703C230.858 192.031 225.335 193.67 219.714 194.655C210.895 196.184 201.882 196.075 193.062 194.436C190.058 193.889 187.054 193.014 184.05 192.905C180.464 192.796 176.879 193.56 173.292 193.998C164.28 195.201 155.268 194.545 146.254 193.779C141.312 193.452 136.369 193.014 131.427 192.686C127.648 192.358 123.771 192.14 119.991 191.157C119.216 190.938 118.344 190.61 117.859 189.953C117.375 189.188 117.763 187.986 118.635 187.986" fill="#FCEBE6"/>
<path d="M154.677 206.444C157.611 204.732 160.95 205.302 164.046 206.559C167.06 207.814 170.074 209.528 173.17 209.985C182.13 211.469 191.499 202.675 199.888 207.244C201.355 208.043 202.74 209.185 204.37 209.185C205.591 209.071 206.65 208.271 207.791 207.928C211.048 206.673 214.552 208.386 217.647 209.985C218.787 210.557 220.091 211.241 221.313 210.784C222.21 210.442 222.942 209.528 223.757 208.957C225.712 207.814 227.911 208.957 230.03 209.3C233.125 209.871 236.221 208.843 239.397 208.271C242.493 207.701 245.915 207.701 248.439 209.985C246.566 211.812 244.041 212.383 241.678 212.498C233.777 213.183 225.712 211.469 218.055 214.096C216.832 214.553 215.611 215.01 214.388 215.01C213.003 214.896 211.701 214.21 210.397 213.639C205.429 211.355 200.134 211.355 194.92 211.355C192.802 211.355 190.602 211.355 188.485 211.584C183.515 212.269 178.627 214.667 173.659 214.439C167.63 214.096 161.929 210.099 155.9 209.985C155.004 209.985 154.107 209.985 153.294 209.642C152.479 209.185 151.828 208.043 152.153 206.901C152.479 205.759 153.945 205.645 154.108 206.787" fill="#FCEBE6"/>
<path d="M133.358 142.946C135.045 139.036 139.128 137.614 142.678 137.969C146.228 138.324 149.601 140.221 153.152 141.168C156.791 142.235 160.519 142.354 164.247 141.643C166.199 141.287 168.152 140.695 170.105 141.05C171.968 141.405 173.654 142.591 175.519 143.302C181.999 145.671 188.566 140.576 195.224 139.51C199.661 138.799 204.277 139.746 208.715 140.813C219.543 143.421 230.638 146.145 241.556 144.249C241.468 147.567 238.005 148.634 235.342 148.752C224.78 149.226 214.218 148.752 203.655 147.33C198.419 146.62 193.093 145.79 187.857 146.145C184.129 146.382 180.49 147.33 176.762 147.094C170.549 146.738 164.513 143.421 158.3 143.302C155.104 143.182 151.909 144.013 148.713 144.486C144.364 145.08 139.927 144.961 135.578 144.131C134.69 144.013 133.714 143.776 133.093 142.827C132.56 141.999 132.738 140.34 133.624 140.103" fill="#FCEBE6"/>
<path d="M172.718 222.279C181.922 222.609 191.208 222.829 200.412 221.288C202.484 220.957 204.474 220.517 206.546 220.517C208.371 220.517 210.195 220.957 211.936 221.398C218.569 222.829 225.203 224.042 231.918 224.703C226.114 228.119 219.398 227.678 213.014 226.685C206.63 225.584 200.245 223.822 193.944 224.813C190.295 225.364 186.648 226.796 183 226.685C180.18 226.575 177.362 225.474 175.039 223.602" fill="#FCEBE6"/>
<path opacity="0.22" d="M158.947 80.1225C158.947 80.1225 168.707 105.001 186.708 103.91C204.709 102.927 217.397 79.7951 218.48 68.0107C219.565 56.3354 156.887 67.1378 158.947 80.1225Z" fill="#1D3542"/>
<path d="M220.432 61.0277C220.432 82.4142 196.683 99.764 186.599 99.764C176.623 99.764 152.767 82.4142 152.767 61.0277C152.767 39.6411 167.297 12.7988 185.949 12.7988C204.6 12.7988 220.432 39.6411 220.432 61.0277Z" fill="#F4A082"/>
<path opacity="0.18" d="M185.84 24.2555C185.84 24.2555 197.986 50.0068 217.504 59.3906C237.024 68.7745 217.504 59.3906 217.504 59.3906L193.323 23.4917L178.791 20.4365C178.791 20.4365 157.321 52.7346 160.465 62.4459C163.61 72.1571 160.465 62.4459 160.465 62.4459C160.465 62.4459 178.249 27.8563 189.636 24.3647C201.022 20.873 183.454 19.2363 183.454 19.2363" fill="#A05940"/>
<path d="M186.165 25.2372C186.165 25.2372 168.707 36.5853 160.465 62.4454C160.465 62.4454 155.802 73.7934 158.947 80.013C161.984 86.2326 173.803 94.5254 171.309 102.273C171.309 102.273 171.851 115.694 160.032 125.077C160.032 125.077 171.309 120.386 181.068 138.498C181.068 138.498 201.673 127.587 216.528 146.791C216.528 146.791 227.373 134.352 238.108 150.393C238.108 150.393 247.868 143.626 252.965 156.611C252.965 156.611 260.664 150.393 258.062 167.524C258.062 167.524 266.845 174.725 256.001 181.49C256.001 181.49 257.519 185.091 251.338 188.691L248.302 179.853C248.302 179.853 249.819 178.325 253.399 178.325C253.399 178.325 250.361 171.124 255.458 167.414C255.458 167.414 247.217 165.341 247.217 156.502C247.217 156.502 238 162.722 231.818 151.811C231.818 151.811 216.963 164.25 205.033 147.664C205.033 147.664 181.395 163.704 170.55 142.536C170.55 142.536 141.271 155.957 139.754 129.551C139.754 129.551 124.355 108.383 143.874 95.9439C143.874 95.9439 125.982 72.0477 136.716 50.9885C148.103 28.838 158.947 -4.22375 183.563 9.74288C183.563 9.74288 226.721 -9.35222 220.541 62.0091C220.65 62.0091 199.069 45.4236 186.165 25.2372Z" fill="#1D3542"/>
<path d="M160.899 64.1914C161.875 68.2285 160.574 72.0477 157.862 72.7023C155.26 73.357 152.224 70.6292 151.248 66.5918C150.272 62.5546 151.573 58.7355 154.284 58.0809C156.995 57.4262 159.923 60.154 160.899 64.1914Z" fill="#F4A082"/>
<path d="M217.07 60.591C216.096 64.6282 217.397 68.4473 220.107 69.1019C222.709 69.7567 225.747 67.0288 226.723 62.9915C227.697 58.9543 226.396 55.1352 223.686 54.4806C221.084 53.8258 218.046 56.5537 217.07 60.591Z" fill="#F4A082"/>
<path d="M130.644 179.418C119.8 175.816 115.246 188.692 115.246 188.692C107.547 185.637 105.486 195.457 105.486 195.457C98.7629 201.132 105.486 208.878 105.486 208.878C105.486 209.751 105.595 210.515 105.703 211.279L111.45 208.224C110.041 208.224 109.065 208.333 109.065 208.333C111.667 203.205 107.547 197.422 107.547 197.422C115.246 197.967 117.848 191.202 117.848 191.202C145.609 201.568 152.767 169.488 152.767 169.488C152.767 169.488 141.488 183.019 130.644 179.418Z" fill="#1D3542"/>
<path d="M166.754 63.2099C169.031 63.7554 171.201 63.9738 173.478 63.8646C175.647 63.7554 177.815 63.2099 179.985 62.3369C178.249 63.8646 175.864 64.7375 173.478 64.9557C171.201 65.0649 168.707 64.5193 166.754 63.2099Z" fill="#2E2430"/>
<path d="M182.044 86.9964C185.189 88.3057 188.551 87.9785 191.479 86.3418C192.022 86.0144 191.479 85.2505 191.046 85.5779C188.335 87.2146 185.189 87.3238 182.262 86.1235C181.72 85.9053 181.502 86.7782 182.044 86.9964Z" fill="#A34F31"/>
<path d="M182.153 78.2678C183.02 78.2678 183.779 78.3768 184.539 78.3768C185.298 78.3768 186.058 78.3768 186.707 78.2678C187.467 78.2678 188.117 78.1586 188.876 78.0494C189.636 77.9404 190.394 77.8312 191.262 77.613C190.719 78.2678 190.069 78.8133 189.311 79.1406C188.551 79.4679 187.684 79.6863 186.816 79.7953C185.949 79.9045 185.081 79.7953 184.322 79.4679C183.563 79.3589 182.804 78.9224 182.153 78.2678Z" fill="#A34F31"/>
<path d="M194.624 63.319C196.901 63.8646 199.069 64.0828 201.346 63.9736C203.516 63.8646 205.685 63.319 207.853 62.446C206.118 63.9736 203.732 64.8465 201.346 65.0647C198.962 65.1739 196.467 64.6283 194.624 63.319Z" fill="#2E2430"/>
<path d="M166.647 58.1907C169.683 54.6991 174.128 53.0624 178.682 53.9352C179.442 54.0443 179.767 52.844 179.009 52.735C174.021 51.7529 169.14 53.3896 165.778 57.2087C165.237 57.8633 166.104 58.8454 166.647 58.1907Z" fill="#1D3542"/>
<path d="M208.179 56.7719C204.817 52.9528 199.937 51.3161 194.949 52.2982C194.19 52.4073 194.515 53.6076 195.275 53.4984C199.829 52.6255 204.275 54.1531 207.311 57.7539C207.746 58.2995 208.613 57.4266 208.179 56.7719Z" fill="#1D3542"/>
<path d="M187.141 23.4919C187.792 26.7655 189.093 30.0389 190.719 33.0941C192.347 36.1494 194.19 39.0954 196.467 41.7142C198.744 44.3329 201.239 46.8426 204.059 48.8067C205.36 49.8978 206.877 50.7707 208.395 51.7527C209.914 52.6257 211.433 53.3896 213.058 54.2624C211.433 53.4986 209.805 52.844 208.287 51.9711C206.77 51.0981 205.251 50.3344 203.841 49.2432C200.913 47.2791 198.311 44.9877 195.816 42.3689C193.432 39.7502 191.262 36.9131 189.527 33.8579C187.792 30.8027 186.274 27.5293 185.298 23.9285L187.141 23.4919Z" fill="#1D3542"/>
<path d="M187.901 21.2004C187.141 22.8371 186.708 24.692 186.383 26.6561C186.056 28.5112 185.949 30.4752 186.056 32.3301C186.165 34.2942 186.599 36.1491 187.25 38.0041C187.901 39.8591 188.876 41.4958 190.07 43.1325C188.769 41.6048 187.575 40.0773 186.816 38.2224C185.949 36.4765 185.407 34.5124 185.082 32.5483C184.755 30.5843 184.755 28.5111 184.864 26.5471C185.082 24.4738 185.407 22.6189 186.056 20.5457L187.901 21.2004Z" fill="#1D3542"/>
<path d="M189.636 23.2737C188.769 23.8192 187.792 24.5832 186.925 25.3469C186.056 26.1107 185.298 26.9836 184.539 27.8566C183.779 28.7295 183.129 29.7115 182.478 30.6936C181.828 31.6756 181.286 32.7667 180.852 33.8579C181.177 32.7667 181.611 31.5664 182.044 30.4753C182.478 29.3841 183.129 28.293 183.779 27.311C184.43 26.3289 185.082 25.2378 185.949 24.3648C186.708 23.3828 187.575 22.5099 188.551 21.637L189.636 23.2737Z" fill="#1D3542"/>
<path opacity="0.56" d="M345.356 343.526C345.356 346.255 273.677 348.546 185.189 348.546C96.7027 348.546 25.0239 346.364 25.0239 343.526C25.0239 340.798 96.7027 338.507 185.189 338.507C273.677 338.507 345.356 340.798 345.356 343.526Z" fill="black" fill-opacity="0.2"/>
</svg>
