<svg width="467" height="372" viewBox="0 0 467 372" fill="none" xmlns="http://www.w3.org/2000/svg">
<g opacity="0.1" clip-path="url(#clip0_20_230)">
<path d="M334.956 98.5477C313.544 94.1233 290.872 94.8219 269.963 88.3018C241.749 79.6859 219.833 59.427 196.153 42.8938C172.222 26.5935 141.741 13.3204 113.526 21.9363C75.9917 33.3465 62.8923 75.7273 55.5868 111.588C47.7776 149.777 39.9683 187.966 32.1591 226.389C27.8766 246.648 24.0979 268.769 34.6782 287.165C48.0295 310.452 79.0146 318.602 106.977 322.793C218.07 340.025 510.539 352.134 427.66 170.036C411.538 134.408 375.766 106.931 334.956 98.5477Z" fill="url(#paint0_linear_20_230)"/>
</g>
<g opacity="0.1" clip-path="url(#clip1_20_230)">
<path d="M352.325 106.805C331.326 100.714 308.669 99.6302 288.337 91.4888C260.887 80.6846 240.628 58.7677 218.32 40.4266C195.742 22.2979 166.396 6.67284 137.593 13.0472C99.2783 21.4755 82.8923 62.6972 72.7942 97.8737C62.011 135.332 51.2279 172.79 40.4264 210.481C34.5667 230.341 29.063 252.098 38.1665 271.268C49.6485 295.53 79.8982 306.088 107.445 312.461C216.842 338.361 507.458 373.393 439.13 185.351C425.855 148.567 392.351 118.366 352.325 106.805Z" fill="url(#paint1_linear_20_230)"/>
</g>
<path d="M150.232 246.45C150.232 246.263 148.923 265.705 162.761 282.155C159.582 281.033 156.59 279.911 153.598 278.79C153.037 275.051 149.858 258.227 143.126 243.833C143.126 243.646 141.069 262.153 153.037 278.603C150.045 277.294 147.053 275.986 144.061 274.677C143.687 271.126 141.817 254.862 136.02 240.842C136.02 240.655 133.028 258.227 143.5 274.49C140.508 272.995 137.703 271.499 134.898 270.004C134.898 266.826 133.963 251.124 129.101 237.291C129.101 237.104 125.548 253.554 134.337 269.63C131.532 267.948 128.727 266.265 125.922 264.583C126.109 261.592 126.296 246.824 122.182 233.178C122.182 232.991 118.068 248.507 125.361 264.209C122.556 262.34 119.938 260.47 117.32 258.601C117.694 255.797 118.816 241.777 115.637 228.692C115.637 228.692 110.962 242.899 116.946 258.227C114.328 256.171 111.71 254.115 109.279 252.058C109.653 249.441 111.71 236.356 109.279 223.831C109.279 223.831 104.23 237.104 108.905 251.871C106.474 249.815 104.043 247.572 101.612 245.142C102.173 242.899 104.791 230.561 103.108 218.597C103.108 218.597 97.6854 230.748 101.425 244.955C98.9943 242.712 96.7504 240.282 94.5064 237.851C95.0674 235.795 98.2464 224.392 97.3114 212.989C97.3114 212.989 91.7014 224.205 94.3194 237.478C92.0754 235.047 89.8315 232.43 87.7745 229.813C88.5225 228.131 92.0754 217.663 91.7014 206.82C91.7014 206.82 85.9045 217.102 87.5875 229.626C85.5305 227.009 83.4735 224.392 81.6035 221.588C82.3515 220.093 86.2785 210.559 86.4655 200.465C86.4655 200.465 80.6686 209.624 81.4165 221.401C79.5466 218.597 77.6766 215.793 75.8066 212.989C76.5546 211.681 80.8556 203.269 81.4165 193.735C81.4165 193.735 75.6196 201.96 75.8066 212.802C73.9366 209.811 72.2536 207.007 70.7577 203.83C71.3187 202.895 75.8066 195.231 76.9286 186.445C76.9286 186.445 71.3187 193.735 70.7577 203.643C69.0747 200.652 67.5787 197.474 66.2697 194.296C66.6437 193.735 71.3187 187.006 72.6276 178.78C72.6276 178.78 67.2047 185.136 66.2697 194.109C65.7087 192.987 65.1477 191.679 64.7737 190.557C64.9607 189.996 67.2047 181.398 66.2697 172.425C66.2697 172.425 62.9038 181.024 64.7737 190.37C64.2127 188.875 63.4647 187.379 62.9038 185.884C63.0907 186.071 63.0907 186.258 63.2777 186.445C63.2777 186.445 61.9688 176.35 57.8548 167.564C57.8548 167.564 58.2288 177.472 62.9038 185.697C63.4647 187.192 64.0257 188.875 64.7737 190.37C64.0257 189.249 58.6028 181.584 51.8709 176.724C51.8709 176.724 57.1068 186.258 64.7737 190.557C65.3347 191.679 65.7087 192.987 66.2697 194.109C58.9768 188.875 50.5619 186.632 50.5619 186.632C57.2938 193.174 65.5217 194.109 66.2697 194.109C67.5787 197.287 69.0747 200.465 70.7577 203.456C62.3428 198.222 52.9929 196.352 52.9929 196.352C60.6598 203.082 69.6357 203.643 70.7577 203.643C72.2536 206.634 73.9366 209.624 75.8066 212.615C66.2697 207.568 55.9848 205.886 55.9848 205.886C64.7737 212.802 74.4976 212.615 75.8066 212.615C77.4896 215.606 79.3596 218.41 81.4165 221.214C70.7577 216.354 59.5378 215.232 59.5378 215.232C69.2617 222.149 79.9206 221.401 81.4165 221.401C83.2865 224.205 85.3435 226.822 87.4005 229.439C75.6196 224.953 63.4647 224.392 63.4647 224.392C74.4976 231.309 85.7175 229.813 87.5875 229.626C89.6445 232.243 91.8884 234.86 94.1324 237.291C81.2295 233.365 68.1397 233.365 68.1397 233.365C80.2946 240.095 92.2624 237.851 94.3194 237.478C96.5634 239.908 98.8073 242.338 101.238 244.768C87.2135 241.403 73.3756 242.151 73.3756 242.151C86.6525 248.694 99.3683 245.516 101.612 244.955C104.043 247.198 106.474 249.441 108.905 251.685C93.9454 249.067 79.1726 250.563 78.9856 250.75C93.5714 256.919 106.848 252.806 109.092 252.058C111.523 254.302 114.141 256.358 116.759 258.227C100.677 256.545 85.1565 258.975 84.9695 258.975C100.864 264.77 114.515 259.536 117.133 258.414C119.751 260.47 122.369 262.34 125.174 264.209C108.157 263.461 91.7014 266.826 91.7014 266.826C108.905 272.06 123.117 265.705 125.548 264.396C128.353 266.265 131.158 267.948 133.963 269.63C115.824 270.004 98.8073 274.303 98.8073 274.49C117.32 278.977 131.719 271.499 134.524 270.004C137.329 271.686 140.321 273.182 143.126 274.677C124.052 276.173 106.474 281.781 106.474 281.781C126.109 285.519 141.069 276.734 143.687 274.864C146.679 276.36 149.671 277.668 152.663 278.977C132.841 281.781 114.515 288.51 114.515 288.697C135.459 291.688 150.606 281.407 153.224 279.351C156.216 280.659 159.395 281.781 162.387 282.902C141.817 287.202 122.93 295.24 122.93 295.24C145.183 297.109 160.33 285.519 163.135 283.089C167.062 284.398 170.989 285.706 175.102 286.828C175.289 286.454 175.289 285.893 175.476 285.519C171.363 284.585 167.436 283.276 163.509 281.968C162.574 278.603 158.086 261.031 150.232 246.45Z" fill="url(#paint2_linear_20_230)"/>
<path d="M118.255 271.873C118.255 271.686 125.174 284.584 140.695 289.445C138.264 290.005 135.833 290.566 133.402 290.94C131.532 288.884 122.743 279.35 112.458 272.994C112.458 272.807 118.442 285.519 132.841 291.127C130.41 291.501 127.979 291.875 125.548 292.249C123.865 290.192 116.198 280.659 106.661 273.929C106.661 273.742 111.71 286.08 124.987 292.249C122.556 292.435 120.125 292.622 117.694 292.809C116.385 290.753 109.466 281.219 100.864 274.303C100.864 274.116 105.165 286.08 117.32 292.809C114.889 292.996 112.458 292.996 109.84 292.996C108.718 290.94 102.921 281.406 94.8801 274.49C94.8801 274.49 98.4331 285.893 109.466 292.996C107.035 292.996 104.604 292.809 101.986 292.622C101.051 290.753 96.1891 281.406 88.8962 274.303C88.8962 274.303 91.7012 285.332 101.799 292.622C99.3681 292.435 96.9371 292.249 94.3191 291.875C93.5712 290.005 89.4572 280.846 82.9123 273.929C82.9123 273.929 84.9692 284.397 94.1321 291.875C91.7012 291.501 89.2702 291.127 86.8392 290.566C86.2782 288.884 82.9123 280.098 77.1153 272.994C77.1153 272.994 78.6113 282.902 86.6522 290.379C84.2213 289.818 81.7903 289.258 79.3593 288.697C78.9853 287.201 76.3673 278.602 71.1314 271.686C71.1314 271.686 72.0664 281.033 79.1723 288.51C76.7413 287.762 74.3104 287.201 71.8794 286.267C71.5054 284.958 69.6354 276.733 65.1475 270.003C65.1475 270.003 65.5215 278.789 71.6924 286.08C69.2614 285.332 67.0174 284.397 64.5865 283.463C64.3995 282.154 63.0905 274.49 59.1635 268.134C59.1635 268.134 59.1635 276.359 64.3995 283.463C61.9685 282.528 59.7245 281.406 57.4805 280.285C57.4805 279.163 56.7326 272.06 53.1796 265.704C53.1796 265.704 52.8056 273.368 57.2935 280.098C55.0496 278.976 52.6186 277.855 50.3746 276.546C50.3746 275.611 50.1876 269.069 47.1957 263.087C47.1957 263.087 46.4477 270.003 50.1876 276.546C47.9436 275.238 45.6997 273.929 43.4557 272.434C43.4557 271.873 43.6427 265.704 41.2117 259.909C41.2117 259.909 40.2767 266.265 43.2687 272.247C42.5207 271.686 41.5857 271.125 40.8377 270.564C40.6507 270.19 38.5938 263.648 34.4798 258.414C34.4798 258.414 35.7888 265.143 40.8377 270.564C39.9027 269.817 38.7808 269.256 37.8458 268.508C38.0328 268.508 38.0328 268.695 38.2198 268.695C38.2198 268.695 33.3578 262.713 27.1869 258.974C27.1869 258.974 31.4878 265.143 37.6588 268.508C38.5938 269.256 39.7157 270.003 40.6507 270.751C39.7157 270.377 33.1708 267.573 26.9999 267.199C26.9999 267.199 34.1058 271.125 40.8377 270.751C41.5857 271.312 42.5207 271.873 43.2687 272.434C36.5368 272.06 30.3658 273.929 30.3658 273.929C37.2848 275.425 42.8947 272.621 43.4557 272.434C45.6997 273.929 47.7567 275.238 50.0006 276.546C42.5207 276.546 35.7888 279.163 35.7888 279.163C43.4557 280.285 49.2526 276.92 50.0006 276.546C52.2446 277.855 54.4886 278.976 56.7326 280.285C48.6916 280.846 41.3987 284.023 41.3987 284.023C49.6266 284.958 55.9846 280.846 56.7326 280.285C58.9765 281.406 61.4075 282.528 63.6515 283.463C55.0496 284.771 47.3827 288.51 47.3827 288.51C56.3586 288.884 62.9035 284.21 63.8385 283.463C66.2695 284.397 68.5134 285.332 70.9444 286.267C61.7815 288.136 53.7406 292.809 53.7406 292.809C63.4645 292.809 70.1964 287.201 71.1314 286.454C73.5624 287.201 75.9933 288.136 78.4243 288.697C68.7004 291.314 60.2855 296.735 60.2855 296.735C70.7574 296.174 77.4893 289.818 78.6113 288.697C81.0423 289.445 83.4733 290.005 85.9042 290.566C75.6194 294.118 67.0174 300.287 67.0174 300.287C78.2373 298.978 84.9692 291.875 86.0912 290.566C88.5222 291.127 90.9532 291.501 93.3842 291.875C82.7253 296.361 73.9364 303.278 73.9364 303.278C85.7172 301.221 92.4492 293.37 93.5712 291.875C96.0021 292.249 98.4331 292.622 101.051 292.809C90.0182 298.23 81.2293 306.082 81.2293 306.082C93.5712 303.278 100.303 294.492 101.425 292.809C103.856 292.996 106.287 293.183 108.905 293.183C97.6851 299.539 88.7092 308.325 88.7092 308.512C101.799 304.96 108.157 295.053 109.279 293.183C111.71 293.183 114.141 293.183 116.759 293.183C105.352 300.661 96.3761 310.381 96.3761 310.568C110.027 306.082 116.198 295.239 117.32 293.183C119.751 292.996 122.182 292.996 124.8 292.622C113.393 301.221 104.23 312.063 104.23 312.063C118.255 306.455 124.239 294.866 125.174 292.622C127.605 292.435 130.036 292.062 132.467 291.688C120.873 301.408 112.084 313.185 112.084 313.372C126.67 306.642 132.093 294.118 133.028 291.688C135.459 291.314 137.89 290.753 140.321 290.192C128.914 301.221 120.125 313.933 120.125 314.12C135.085 306.269 139.947 292.809 140.882 290.192C143.874 289.445 147.053 288.697 150.045 287.575C149.858 287.201 149.858 286.827 149.671 286.641C146.679 287.575 143.687 288.51 140.695 289.258C139.199 287.201 129.288 277.855 118.255 271.873Z" fill="url(#paint3_linear_20_230)"/>
<path d="M186.135 256.545C185.761 256.358 183.143 237.665 176.411 235.422C169.306 232.804 168.745 239.16 168.745 239.16C168.371 238.973 163.883 219.158 158.834 216.354C153.411 213.363 150.98 219.158 150.98 219.158C150.793 219.158 148.736 203.456 144.061 198.969C139.199 194.483 138.451 201.4 138.451 201.4C138.264 201.4 135.833 186.819 132.654 183.08C129.288 179.341 125.735 185.136 125.735 185.323C125.548 185.323 123.678 169.621 121.06 167.004C118.068 164.387 116.385 167.939 116.385 167.939C116.198 167.939 113.393 149.619 106.474 150.18C98.9943 150.928 104.23 170.556 104.417 170.369C104.417 170.369 101.051 167.565 99.7423 171.303C98.2463 175.229 106.661 191.492 106.848 191.305C106.848 191.305 100.116 187.94 99.9293 193.548C99.7423 199.343 110.214 214.111 110.401 213.924C110.401 213.924 103.856 208.503 104.791 216.354C105.726 224.579 120.312 237.852 120.499 237.478C120.499 237.478 113.58 236.169 114.702 243.647C115.824 251.685 137.516 266.079 137.516 265.705C137.516 265.705 130.41 264.022 133.215 273.369C136.394 283.277 158.647 288.885 158.46 288.511C158.647 288.511 144.809 290.941 159.769 302.157C175.663 313.56 197.355 291.875 196.981 291.875C196.794 291.689 206.331 262.901 197.542 253.741C188.379 244.207 186.135 256.358 186.135 256.545Z" fill="url(#paint4_linear_20_230)"/>
<path opacity="0.07" d="M197.542 254.115C188.379 244.207 186.135 256.358 186.135 256.545C185.761 256.358 183.143 237.665 176.411 235.421C169.305 232.804 168.744 239.16 168.744 239.16C168.37 238.973 163.883 219.158 158.834 216.354C153.411 213.363 150.98 219.158 150.98 219.158C150.793 219.158 148.736 203.456 144.061 198.969C142.191 197.287 140.882 197.1 140.134 197.848C146.866 218.971 151.354 250.189 131.719 262.153C134.711 264.396 136.955 265.705 137.516 265.891H137.703C137.703 265.891 137.703 265.891 137.516 265.891C136.768 265.705 130.597 264.77 133.402 273.556C136.394 283.089 157.338 288.697 158.647 288.697C157.712 288.884 145.744 291.501 160.143 302.344C176.037 313.746 197.729 292.062 197.355 292.062C196.981 292.062 206.518 263.274 197.542 254.115Z" fill="#1F5148"/>
<path opacity="0.8" d="M174.728 246.451C174.167 255.424 174.354 264.77 175.289 274.304C162.948 263.462 151.915 251.124 142.565 237.852C142.004 228.692 142.378 219.719 143.126 210.933C141.817 218.972 141.256 227.197 141.069 235.796C131.532 222.149 123.678 207.382 117.694 191.679C117.694 191.305 117.694 190.558 117.881 189.623C118.068 188.128 118.068 186.071 118.255 184.015C118.442 181.959 118.442 180.089 118.629 178.407C118.629 176.912 118.816 175.977 118.816 175.977C118.816 175.977 118.629 176.912 118.442 178.407C118.255 179.903 118.068 181.772 117.881 183.828C117.694 185.884 117.694 187.941 117.694 189.436C117.694 190.371 117.694 191.119 117.694 191.492C113.58 181.024 110.401 170.369 108.157 159.34C111.897 177.846 118.068 195.792 126.67 212.616C126.296 212.242 125.548 211.681 124.426 210.933C122.743 209.812 120.686 208.129 118.442 206.634C116.198 205.139 113.954 203.643 112.271 202.521C110.588 201.4 109.466 200.652 109.466 200.652C109.466 200.652 110.588 201.587 112.084 203.082C113.767 204.391 115.824 206.073 118.068 207.756C120.312 209.251 122.556 210.747 124.239 211.681C125.361 212.242 126.296 212.803 126.67 212.99C130.971 221.402 135.646 229.44 141.069 237.291C145.744 244.208 150.98 250.75 156.403 257.106C147.24 255.424 137.703 252.994 128.353 249.816C138.264 253.741 148.175 256.732 157.899 258.788C166.875 268.883 176.972 278.23 187.818 286.455C180.712 288.885 173.419 290.941 165.94 292.623C173.98 291.502 181.834 289.819 189.314 287.576C193.428 290.567 197.542 293.371 201.843 296.175C202.03 295.614 202.404 295.24 202.591 294.68C193.428 288.885 184.826 282.529 176.598 275.612C175.289 265.705 174.541 255.984 174.728 246.451Z" fill="#1F5148"/>
<path d="M316.847 254.302C316.847 254.115 318.156 273.556 304.318 290.006C307.497 288.885 310.489 287.763 313.481 286.641C314.042 282.903 317.221 266.079 323.953 251.685C323.953 251.498 326.01 270.004 314.042 286.455C317.034 285.146 320.026 283.837 323.018 282.529C323.392 278.977 325.262 262.714 331.059 248.694C331.059 248.507 334.051 266.079 323.579 282.342C326.571 280.847 329.376 279.351 332.181 277.856C332.181 274.678 333.116 258.975 337.978 245.142C337.978 244.955 341.53 261.405 332.742 277.482C335.547 275.799 338.351 274.117 341.156 272.435C340.969 269.444 340.782 254.676 344.896 241.03C344.896 240.843 349.01 256.358 341.717 272.061C344.522 270.191 347.14 268.322 349.758 266.453C349.384 263.649 348.262 249.629 351.441 236.543C351.441 236.543 356.116 250.75 350.132 266.079C352.75 264.022 355.368 261.966 357.799 259.91C357.425 257.293 355.368 244.208 357.799 231.683C357.799 231.683 362.848 244.955 357.986 259.723C360.417 257.667 362.848 255.424 365.279 252.993C364.718 250.75 362.1 238.413 363.783 226.449C363.783 226.449 369.206 238.6 365.466 252.806C367.897 250.563 370.141 248.133 372.385 245.703C371.824 243.647 368.645 232.244 369.58 220.841C369.58 220.841 375.19 232.057 372.572 245.329C374.816 242.899 377.06 240.282 379.117 237.665C378.369 235.982 374.816 225.514 375.19 214.672C375.19 214.672 380.987 224.953 379.304 237.478C381.361 234.861 383.418 232.244 385.288 229.44C384.54 227.944 380.613 218.411 380.426 208.316C380.426 208.316 386.223 217.476 385.475 229.253C387.345 226.449 389.215 223.645 391.085 220.841C390.337 219.532 386.036 211.12 385.475 201.587C385.475 201.587 391.272 209.812 391.085 220.654C392.955 217.663 394.638 214.859 396.134 211.681C395.573 210.746 391.085 203.082 389.963 194.296C389.963 194.296 395.573 201.587 396.134 211.494C397.817 208.503 399.313 205.325 400.622 202.148C400.248 201.587 395.573 194.857 394.264 186.632C394.264 186.632 399.687 192.988 400.622 201.961C401.183 200.839 401.744 199.53 402.118 198.409C401.931 197.848 399.687 189.249 400.622 180.276C400.622 180.276 403.988 188.875 402.118 198.222C402.679 196.726 403.427 195.231 403.988 193.736C403.801 193.922 403.801 194.109 403.614 194.296C403.614 194.296 404.923 184.202 409.037 175.416C409.037 175.416 408.663 185.323 403.988 193.549C403.427 195.044 402.866 196.726 402.118 198.222C402.866 197.1 408.289 189.436 415.021 184.576C415.021 184.576 409.785 194.109 402.118 198.409C401.557 199.53 401.183 200.839 400.622 201.961C407.915 196.726 416.33 194.483 416.33 194.483C409.598 201.026 401.37 201.961 400.622 201.961C399.313 205.138 397.817 208.316 396.134 211.307C404.549 206.073 413.712 204.204 413.899 204.204C406.232 210.933 397.256 211.494 396.134 211.494C394.638 214.485 392.955 217.476 391.085 220.467C400.622 215.42 410.907 213.737 410.907 213.737C402.118 220.654 392.394 220.467 391.085 220.467C389.402 223.458 387.532 226.262 385.475 229.066C396.134 224.206 407.354 223.084 407.354 223.084C397.63 230.001 386.971 229.253 385.475 229.253C383.605 232.057 381.548 234.674 379.491 237.291C391.272 232.805 403.427 232.244 403.427 232.244C392.394 239.16 381.174 237.665 379.304 237.478C377.247 240.095 375.003 242.712 372.759 245.142C385.662 241.217 398.752 241.217 398.752 241.217C386.597 247.946 374.629 245.703 372.572 245.329C370.328 247.759 368.084 250.189 365.653 252.62C379.678 249.255 393.516 250.002 393.516 250.002C380.239 256.545 367.523 253.367 365.279 252.806C362.848 255.05 360.417 257.293 357.986 259.536C372.946 256.919 387.719 258.414 387.906 258.601C373.32 264.77 360.043 260.658 357.799 259.91C355.368 262.153 352.75 264.209 350.132 266.079C366.214 264.396 381.735 266.826 381.922 266.826C366.027 272.621 352.376 267.387 349.758 266.266C347.14 268.322 344.522 270.191 341.717 272.061C358.734 271.313 375.19 274.678 375.19 274.678C357.986 279.912 343.774 273.556 341.343 272.248C338.539 274.117 335.734 275.799 332.929 277.482C351.067 277.856 368.084 282.155 368.084 282.342C349.571 286.828 335.173 279.351 332.368 277.856C329.563 279.538 326.571 281.033 323.766 282.529C342.839 284.024 360.417 289.632 360.417 289.632C340.782 293.371 325.823 284.585 323.205 282.716C320.213 284.211 317.221 285.52 314.229 286.828C334.051 289.632 352.376 296.362 352.376 296.549C331.433 299.54 316.286 289.259 313.668 287.202C310.676 288.511 307.497 289.632 304.505 290.754C325.075 295.053 343.961 303.092 343.961 303.092C321.709 304.961 306.562 293.371 303.757 290.941C299.83 292.249 295.903 293.558 291.789 294.68C291.602 294.306 291.602 293.745 291.415 293.371C295.529 292.436 299.456 291.128 303.383 289.819C304.318 286.268 308.806 268.883 316.847 254.302Z" fill="url(#paint5_linear_20_230)"/>
<path opacity="0.82" d="M242.422 233.738C242.235 233.551 249.715 251.497 241.674 271.499C244.292 269.442 246.91 267.386 249.341 265.33C248.78 261.591 246.349 244.58 248.406 228.878C248.219 228.691 256.26 245.515 249.902 264.956C252.333 262.9 254.764 260.657 257.194 258.413C256.446 255.049 253.081 238.972 254.203 223.644C254.016 223.457 262.43 239.159 257.568 258.04C259.812 255.796 262.243 253.366 264.3 250.936C263.365 247.758 259.251 232.804 259.438 218.036C259.251 218.036 268.04 232.43 264.674 250.375C266.918 247.945 268.975 245.515 271.032 242.898C269.91 240.094 265.048 226.074 264.674 212.054C264.487 212.054 273.463 225.326 271.406 242.524C273.463 239.907 275.333 237.29 277.203 234.673C276.081 232.056 270.658 219.157 269.536 205.885C269.536 205.885 278.512 218.036 277.577 234.299C279.447 231.682 281.317 228.878 283 226.074C281.691 223.831 275.894 211.867 274.211 199.342C274.211 199.342 283.187 210.371 283.187 225.887C284.87 223.083 286.553 220.279 288.049 217.288C286.74 215.232 280.569 204.39 278.325 192.613C278.325 192.613 287.301 202.52 288.236 217.101C289.732 214.11 291.228 211.119 292.537 208.128C291.228 206.446 284.683 196.538 282.065 185.509C282.065 185.509 291.041 194.482 292.724 207.941C294.033 204.95 295.342 201.773 296.464 198.595C295.342 197.099 288.61 188.313 285.431 178.032C285.431 178.032 294.22 185.883 296.464 198.408C297.586 195.23 298.708 192.052 299.643 188.874C298.521 187.753 291.789 179.901 288.423 170.368C288.423 170.368 296.838 177.284 299.643 188.687C300.578 185.509 301.513 182.145 302.261 178.967C301.326 178.032 294.407 171.302 290.854 162.516C290.854 162.516 298.895 168.498 302.261 178.967C303.009 175.602 303.757 172.237 304.318 168.872C303.383 168.125 296.838 162.33 293.098 154.291C293.098 154.291 300.765 159.526 304.318 168.685C304.879 165.32 305.44 161.956 305.814 158.404C305.253 158.03 298.708 152.983 294.781 145.692C294.781 145.692 302.074 149.992 305.814 158.217C306.001 156.908 306.001 155.6 306.188 154.291C305.814 153.731 300.952 146.253 299.082 137.467C299.082 137.467 304.879 144.571 306.188 154.104C306.375 152.422 306.375 150.927 306.562 149.244C306.562 149.431 306.562 149.618 306.375 149.805C306.375 149.805 304.318 139.898 305.627 130.177C305.627 130.177 308.432 139.711 306.562 149.057C306.562 150.74 306.375 152.422 306.188 154.104C306.562 152.796 309.18 143.823 314.042 137.094C314.042 137.094 311.985 147.749 306.188 154.291C306.188 155.6 306.001 156.908 305.814 158.217C311.05 150.927 318.343 146.253 318.343 146.253C314.042 154.478 306.562 158.03 305.814 158.404C305.44 161.769 305.066 165.32 304.505 168.685C310.863 161.021 319.091 156.348 319.091 156.348C314.042 165.134 305.44 168.498 304.505 168.872C303.944 172.237 303.383 175.602 302.635 178.967C310.115 171.115 319.278 166.442 319.278 166.442C313.107 175.602 303.757 178.78 302.635 179.154C301.887 182.518 300.952 185.696 300.017 189.061C308.619 181.21 318.904 176.537 318.904 176.537C311.798 186.257 301.513 188.874 300.017 189.248C299.082 192.426 297.96 195.604 296.838 198.782C306.562 190.93 317.969 186.444 317.969 186.444C309.741 196.351 298.521 198.595 296.838 198.969C295.716 202.146 294.407 205.137 293.098 208.315C304.131 200.651 316.473 196.538 316.473 196.538C307.123 206.82 294.968 208.315 292.911 208.689C291.602 211.68 290.106 214.671 288.61 217.662C300.765 210.185 314.229 206.446 314.416 206.446C303.757 216.727 290.667 217.849 288.61 217.849C287.114 220.84 285.431 223.644 283.748 226.635C297.212 219.531 311.798 216.353 311.798 216.353C299.83 226.822 285.992 227.009 283.561 227.009C281.878 229.813 280.008 232.617 278.325 235.421C293.098 228.691 308.619 226.074 308.619 226.261C295.342 236.729 280.569 235.981 277.951 235.794C276.081 238.598 274.211 241.215 272.154 243.833C288.049 237.664 304.692 235.794 304.879 235.981C290.293 246.263 274.772 244.767 271.967 244.393C269.91 247.01 267.853 249.441 265.609 252.058C282.813 246.637 300.391 245.515 300.578 245.702C284.496 255.796 268.227 253.179 265.235 252.618C262.991 255.049 260.747 257.479 258.503 259.722C277.016 255.236 295.529 254.862 295.716 255.049C278.138 264.769 261.308 261.03 258.129 260.283C255.886 262.526 253.455 264.769 250.837 267.012C270.471 263.461 290.106 264.208 290.106 264.208C271.032 273.555 253.642 268.508 250.276 267.386C247.845 269.629 245.227 271.686 242.609 273.555C263.552 271.125 283.935 272.807 283.935 272.994C263.365 281.78 245.414 275.424 242.048 274.116C238.682 276.733 235.316 278.976 231.763 281.406C231.576 281.032 231.202 280.658 231.015 280.285C234.568 278.041 237.934 275.611 241.3 273.181C240.739 267.947 239.43 250.001 242.422 233.738Z" fill="url(#paint6_linear_20_230)"/>
<path d="M280.756 264.21C281.13 264.023 283.748 245.329 290.48 243.086C297.586 240.469 298.147 246.825 298.147 246.825C298.521 246.638 303.009 226.823 308.058 224.019C313.481 221.028 315.912 226.823 315.912 226.823C316.099 226.823 318.343 211.12 322.831 206.634C327.693 202.148 328.441 209.064 328.441 209.064C328.628 209.064 331.059 194.483 334.238 190.745C337.604 187.006 341.157 192.801 341.157 192.988C341.344 192.988 343.214 177.285 345.832 174.668C348.824 172.051 350.507 175.603 350.507 175.603C350.694 175.603 353.499 157.284 360.418 157.844C367.897 158.592 362.662 178.22 362.475 178.033C362.475 178.033 365.84 175.229 367.149 178.968C368.645 182.893 360.231 199.157 360.044 198.97C360.044 198.97 366.775 195.605 366.962 201.213C367.149 207.008 356.678 221.776 356.491 221.589C356.491 221.589 363.036 216.168 362.101 224.019C361.166 232.244 346.58 245.516 346.393 245.142C346.393 245.142 353.312 243.834 352.19 251.311C351.068 259.349 329.376 273.743 329.376 273.369C329.376 273.369 336.482 271.687 333.677 281.034C330.498 290.941 308.245 296.549 308.432 296.175C308.245 296.175 322.083 298.605 307.123 309.821C291.228 321.224 269.537 299.54 269.911 299.54C270.098 299.353 260.561 270.565 269.35 261.406C278.512 251.872 280.943 264.023 280.756 264.21Z" fill="url(#paint7_linear_20_230)"/>
<path opacity="0.05" d="M269.349 261.779C278.512 251.872 280.756 264.022 280.756 264.209C281.13 264.022 283.748 245.329 290.48 243.086C297.586 240.469 298.147 246.825 298.147 246.825C298.521 246.638 303.009 226.823 308.058 224.019C313.481 221.028 315.912 226.823 315.912 226.823C316.099 226.823 318.343 211.12 322.831 206.634C324.701 204.951 326.01 204.764 326.758 205.512C320.026 226.636 315.538 257.854 335.173 269.817C332.181 272.061 329.937 273.369 329.376 273.556H329.189C329.189 273.556 329.189 273.556 329.376 273.556C330.124 273.369 336.295 272.434 333.49 281.22C330.498 290.754 309.554 296.362 308.245 296.362C309.18 296.549 321.148 299.166 306.749 310.008C290.854 321.411 269.162 299.727 269.536 299.727C270.097 299.727 260.561 271.126 269.349 261.779Z" fill="#1F5148"/>
<path opacity="0.8" d="M292.35 254.302C292.911 263.275 292.724 272.621 291.789 282.155C304.131 271.313 315.164 258.975 324.514 245.703C325.075 236.543 324.701 227.57 323.953 218.785C325.262 226.823 325.823 235.048 326.01 243.647C335.547 230.001 343.401 215.233 349.384 199.53C349.384 199.157 349.384 198.409 349.197 197.474C349.01 195.979 349.01 193.922 348.823 191.866C348.636 189.81 348.637 187.941 348.45 186.258C348.45 184.763 348.262 183.828 348.262 183.828C348.262 183.828 348.449 184.763 348.636 186.258C348.823 187.754 349.01 189.623 349.197 191.679C349.384 193.735 349.384 195.792 349.384 197.287C349.384 198.222 349.384 198.97 349.384 199.343C353.498 188.875 356.677 178.22 358.921 167.191C355.181 185.697 349.01 203.643 340.409 220.467C340.783 220.093 341.531 219.532 342.653 218.785C344.336 217.663 346.393 215.981 348.636 214.485C350.88 212.99 353.124 211.494 354.807 210.373C356.49 209.251 357.612 208.503 357.612 208.503C357.612 208.503 356.677 209.438 354.994 210.933C353.311 212.242 351.254 213.924 349.011 215.607C346.767 217.102 344.523 218.598 342.84 219.532C341.718 220.093 340.783 220.654 340.409 220.841C336.108 229.253 331.433 237.291 326.01 245.142C321.335 252.059 316.099 258.601 310.676 264.957C319.839 263.275 329.376 260.845 338.726 257.667C328.815 261.592 318.904 264.583 309.18 266.64C300.204 276.734 290.106 286.081 279.26 294.306C286.366 296.736 293.659 298.792 301.139 300.475C293.098 299.353 285.244 297.671 277.764 295.427C273.65 298.418 269.536 301.222 265.235 304.026C265.048 303.465 264.674 303.092 264.487 302.531C273.65 296.736 282.252 290.38 290.48 283.464C291.789 273.556 292.35 263.649 292.35 254.302Z" fill="#1F5148"/>
<path d="M139.386 302.531C139.386 302.531 91.3272 320.29 57.8546 245.33C58.0416 245.33 138.077 245.33 139.386 302.531Z" fill="url(#paint8_linear_20_230)"/>
<path opacity="0.1" d="M123.304 266.639C115.076 281.22 95.0669 280.846 77.1151 277.481C107.222 314.494 139.385 302.53 139.385 302.53C139.011 286.454 132.467 274.864 123.304 266.639Z" fill="#1A7F72"/>
<path opacity="0.4" d="M107.596 259.162L111.336 281.594L86.2785 264.77L84.2215 252.058L85.1565 264.022L77.4896 258.975V258.601H77.1156L65.3347 250.563L76.3676 258.601L67.0177 258.975L77.4896 259.723V259.536L97.4984 274.117L78.9856 274.677L98.9944 275.238L123.678 293.184C123.304 293.184 123.117 293.184 122.743 293.184C120.125 293.184 116.759 293.184 113.393 293.184C106.661 293.184 99.7423 293.184 99.7423 293.184C99.7423 293.184 106.474 293.558 113.393 293.745C116.759 293.932 120.125 294.118 122.743 294.118C123.678 294.118 124.613 294.305 125.361 294.305L138.638 303.839L140.508 301.222L112.832 282.529L107.596 259.162Z" fill="#1F5148"/>
<path d="M343.961 291.127C343.961 291.127 382.483 324.775 440.452 266.639C440.452 266.452 365.653 238.038 343.961 291.127Z" fill="url(#paint9_linear_20_230)"/>
<path opacity="0.05" d="M372.011 263.274C374.442 279.724 393.329 286.641 411.281 289.818C369.954 313.746 344.149 291.127 344.149 291.127C350.133 276.172 360.417 267.76 372.011 263.274Z" fill="#1F5148"/>
<path opacity="0.4" d="M389.215 261.78L377.808 281.408L407.167 274.491L413.712 263.275L408.663 274.117L417.639 272.061L417.826 271.874L418.2 272.061L432.038 268.696L418.948 272.248L427.55 275.8L417.452 272.809L417.639 272.622L393.703 279.165L410.72 286.268L391.833 279.725L362.474 287.764C362.661 287.95 363.035 287.95 363.409 288.137C365.84 289.072 369.019 290.194 372.198 291.502C378.556 293.932 384.914 296.362 384.914 296.362C384.914 296.362 378.556 294.306 372.011 292.063C368.832 290.941 365.466 290.007 363.222 289.259C362.287 288.885 361.352 288.698 360.791 288.511L345.083 292.811L344.336 289.633L376.873 281.969L389.215 261.78Z" fill="#1F5148"/>
<path d="M232.885 264.583C232.885 264.583 273.089 256.171 263.926 191.118C263.926 191.118 209.51 224.953 232.885 264.583Z" fill="url(#paint10_linear_20_230)"/>
<path opacity="0.1" d="M228.771 233.178C240.552 239.534 254.015 230.935 264.674 220.84C259.999 258.788 232.885 264.396 232.885 264.396C226.34 253.367 225.966 242.712 228.771 233.178Z" fill="#1A7F72"/>
<path opacity="0.6" d="M236.064 221.588L242.983 238.412L252.706 216.354L248.779 206.82L253.267 215.232L256.259 208.503L256.072 208.316L256.446 208.129L261.121 197.661L257.007 207.755L263.552 204.016L256.82 209.064L256.633 208.877L249.153 227.196L261.869 219.719L248.592 228.692L239.43 251.311C239.617 251.124 239.804 251.124 239.991 250.937C241.674 249.815 244.105 248.32 246.349 247.011C251.023 244.207 255.511 241.216 255.511 241.216C255.511 241.216 251.023 244.207 246.536 247.385C244.292 248.88 242.048 250.563 240.365 251.684C239.804 252.245 239.243 252.619 238.682 252.806L233.82 264.957L231.389 264.022L242.235 239.534L236.064 221.588Z" fill="#1F5148"/>
<path d="M156.964 206.447C156.964 206.447 115.076 190.183 136.581 121.579C136.581 121.579 189.314 167.938 156.964 206.447Z" fill="url(#paint11_linear_20_230)"/>
<path opacity="0.2" d="M151.167 137.842C156.216 155.414 154.72 171.677 136.768 186.258C144.622 201.586 156.964 206.447 156.964 206.447C177.346 182.145 163.883 154.853 151.167 137.842Z" fill="#1A7F72"/>
<path opacity="0.6" d="M161.078 159.339L150.606 176.35L143.874 150.74L149.858 141.02L143.5 149.432L141.443 141.58L141.63 141.394L141.443 141.207L138.264 129.056L140.882 140.833L134.524 135.786L140.882 142.328L141.069 142.141L145.744 163.265L133.215 152.983L145.931 164.947L151.728 191.118C151.541 190.931 151.354 190.744 151.167 190.557C149.484 189.062 147.24 187.005 144.996 185.136C140.508 181.21 136.02 177.285 136.02 177.285C136.02 177.285 140.321 181.397 144.622 185.51C146.679 187.566 148.923 189.622 150.419 191.305C150.98 191.866 151.541 192.426 151.915 192.8L155.094 206.82L157.899 206.073L150.606 177.659L161.078 159.339Z" fill="#1F5148"/>
<path d="M238.667 146.189C251.57 145.815 259.05 150.489 269.148 158.34C279.246 166.191 314.027 169.182 314.027 169.182C310.848 161.705 315.71 131.234 311.783 123.009C307.856 114.784 303.181 104.129 300.377 98.708C297.572 93.2869 293.084 83.9402 296.076 78.1453C299.068 72.5373 310.474 69.5464 316.084 73.472C321.881 77.3976 320.759 82.0709 320.759 82.0709C320.759 82.0709 324.312 81.697 324.686 91.0437C325.06 100.39 323.19 111.793 324.686 117.962C326.182 124.131 341.142 177.033 336.093 189.558C331.044 202.082 297.198 197.222 283.36 193.296C269.522 189.558 260.359 183.763 249.513 185.632C238.48 187.501 227.447 201.708 227.447 201.708C227.447 201.708 203.512 211.242 205.382 182.267C204.634 173.855 216.788 154.975 216.788 154.975L238.667 146.189Z" fill="#F4A082"/>
<path opacity="0.3" d="M241.285 146.189C240.35 146.189 239.602 146.189 238.667 146.189L216.976 155.162C216.976 155.162 204.634 174.042 205.569 182.454C203.512 211.429 227.634 201.895 227.634 201.895C227.634 201.895 229.878 199.091 233.244 195.727C205.382 200.026 223.333 159.835 241.285 146.189Z" fill="url(#paint12_linear_20_230)"/>
<path d="M154.892 163.387C154.892 163.387 162.185 122.074 164.99 109.924C167.795 97.7731 172.47 74.4064 178.454 61.508C184.625 48.4227 188.365 38.3283 194.91 37.5805C201.455 36.8328 247.643 41.5061 259.05 43.3755C270.457 45.2448 280.929 45.2448 289.531 50.8528C298.133 56.6477 308.231 65.8075 309.913 70.6678C311.783 75.528 313.84 78.7059 306.735 80.5752C299.629 82.4446 291.027 80.5752 285.604 76.6496C280.181 72.724 270.644 62.6296 263.725 59.4517C253.253 55.9 212.114 64.1251 203.138 61.3211C203.138 61.3211 201.455 72.3502 198.276 82.0707C195.097 91.7912 190.796 116.653 194.723 129.365C198.837 141.889 154.892 163.387 154.892 163.387Z" fill="#F4A082"/>
<path opacity="0.55" d="M168.169 95.5303C166.86 100.951 165.925 105.999 164.99 109.924C162.185 122.075 154.892 163.387 154.892 163.387C154.892 163.387 199.024 142.077 194.91 129.365C194.162 127.122 193.788 124.692 193.601 121.888C182.568 126.561 162.933 120.019 168.169 95.5303Z" fill="url(#paint13_linear_20_230)"/>
<path d="M212.114 55.1521C214.171 49.731 208 40.3844 201.081 41.319C194.162 42.2537 190.983 43.7492 188.739 49.3572C188.739 49.3572 191.544 43.9361 195.845 45.2446C195.845 45.2446 186.308 45.9924 185.747 58.5169C185.186 71.0415 197.341 71.2284 197.341 71.2284L212.114 55.1521Z" fill="#1D3542"/>
<path d="M210.554 46.9553C204.009 47.5161 197.464 51.4417 192.228 54.0588C196.529 52.5633 199.521 51.2548 203.822 51.2548C195.407 51.2548 190.919 59.4799 188.862 68.0788C192.228 71.6306 197.464 71.8175 197.464 71.8175L212.236 55.5543C213.171 52.9372 212.424 49.5724 210.554 46.9553Z" fill="url(#paint14_linear_20_230)"/>
<path d="M200.146 113.289C189.674 112.167 186.495 97.9603 187.991 84.3142C189.487 70.668 200.894 51.9747 220.155 49.5445C233.244 47.8621 251.383 58.7043 255.31 65.4339C261.855 76.8368 260.359 89.1744 260.359 89.1744L200.146 113.289Z" fill="#1D3542"/>
<path d="M257.367 71.6025C262.042 78.706 262.042 100.016 253.44 108.055C244.838 115.906 254.562 123.383 242.781 129.365C242.781 129.365 249.326 125.439 247.082 116.653C244.838 107.681 249.7 80.9492 249.7 80.9492L257.367 71.6025Z" fill="#1D3542"/>
<path opacity="0.3" d="M313.28 139.833C313.093 151.235 311.971 164.508 313.841 169.181C313.841 169.181 308.605 168.807 301.499 167.686C302.995 177.219 296.637 186.005 293.084 195.539C308.979 198.53 332.166 199.838 336.093 189.557C336.467 188.809 336.654 187.874 336.841 186.753C320.198 177.593 319.45 156.47 313.28 139.833Z" fill="url(#paint15_linear_20_230)"/>
<path d="M218.472 221.337C220.903 212.364 227.635 201.895 227.635 201.895C227.635 201.895 208.561 201.895 211.927 184.137C214.171 172.36 238.854 146.376 238.854 146.376L235.114 146.002L205.943 148.806L193.975 127.122C193.975 127.122 190.983 126 188.739 127.122C186.495 128.244 161.25 149.741 155.079 160.209C148.908 170.678 139.932 172.36 141.054 182.828C142.176 193.296 146.477 200.026 148.534 205.821C149.469 208.438 150.404 217.598 153.77 229.749C176.21 235.917 200.333 234.235 218.472 221.337Z" fill="#FFD2B9"/>
<path d="M147.973 204.7C148.16 205.074 148.347 205.447 148.347 205.821C149.282 208.438 150.217 217.598 153.583 229.749C176.21 236.104 200.333 234.422 218.471 221.337C220.902 212.364 227.634 201.896 227.634 201.896C227.634 201.896 220.341 201.896 215.48 197.596C199.959 215.916 169.478 213.672 147.973 204.7Z" fill="#FFD2B9"/>
<path d="M153.583 229.561C157.51 243.208 164.803 260.779 179.95 277.043C179.95 277.043 219.22 283.398 227.634 237.226C227.634 237.226 217.537 236.852 217.537 227.131C217.537 225.262 217.911 223.206 218.472 221.149C200.333 234.235 176.21 235.917 153.583 229.561Z" fill="#F4A082"/>
<path opacity="0.7" d="M217.536 227.318C217.536 225.449 217.91 223.393 218.471 221.336C214.544 224.14 210.244 226.571 205.756 228.253C212.488 248.629 196.967 267.509 179.015 276.108C179.389 276.482 179.576 276.856 179.95 277.23C179.95 277.23 218.097 284.333 227.634 237.413C227.634 237.226 217.536 236.852 217.536 227.318Z" fill="url(#paint16_linear_20_230)"/>
<path d="M354.045 247.133C344.321 226.57 334.971 206.568 333.475 201.895C330.67 192.361 324.125 178.154 320.385 168.995C316.646 159.835 317.019 154.227 316.646 149.554C316.085 145.067 316.085 140.02 311.971 139.272C307.67 138.524 308.792 147.31 305.613 151.423C302.434 155.535 303.93 163.387 305.052 174.603C306.174 185.819 296.45 189.931 297.946 201.708C299.442 213.485 308.418 206.007 316.085 216.476C320.198 222.271 322.068 239.842 324.686 256.666C335.345 257.04 345.256 252.928 354.045 247.133Z" fill="#F4A082"/>
<path opacity="0.7" d="M321.133 233.3C322.442 240.403 323.564 248.628 324.686 256.853C335.345 257.04 345.256 252.928 354.045 247.133C353.671 246.385 353.484 245.824 353.11 245.077C341.329 245.45 329.174 241.712 321.133 233.3Z" fill="#F4A082"/>
<path d="M376.672 296.67C374.802 291.062 364.143 268.817 353.858 247.133C345.256 252.927 335.158 257.04 324.499 256.853C326.743 271.247 329.361 285.08 334.41 290.875C329.548 288.071 283.173 273.677 277.563 269.378C271.766 265.078 270.457 255.545 258.489 246.385C246.521 237.225 233.618 240.59 227.447 237.225C227.447 237.225 217.911 278.35 177.706 274.612C137.501 270.873 86.077 276.855 88.321 300.782C90.7519 324.71 122.168 323.775 135.257 324.149C148.16 324.71 193.04 323.588 212.301 323.588C231.374 323.588 243.342 312.185 247.269 311.625C251.009 311.064 331.792 333.683 358.72 330.318C385.274 327.327 380.599 307.699 376.672 296.67Z" fill="#1F5148"/>
<path d="M201.829 98.8945C201.829 98.8945 195.845 121.887 194.723 125.252C192.292 133.29 136.192 168.06 161.25 184.51C187.43 201.708 234.927 145.815 234.927 145.815C234.927 145.815 226.138 145.441 223.146 138.711C220.341 131.982 225.39 121.14 225.39 121.14C225.39 121.14 213.236 95.7167 201.829 98.8945Z" fill="#F4A082"/>
<path opacity="0.7" d="M223.333 138.711C220.528 131.982 225.577 121.14 225.577 121.14C225.577 121.14 213.422 95.7167 201.829 98.8945C201.829 98.8945 201.455 100.203 200.333 104.689C202.39 123.196 210.992 145.067 227.447 154.04C232.122 149.18 235.114 145.815 235.114 145.815C235.114 145.815 226.138 145.628 223.333 138.711Z" fill="url(#paint17_linear_20_230)"/>
<path d="M253.627 74.9677C253.627 74.9677 255.684 90.8571 255.497 97.9606C255.31 105.064 251.757 106.373 250.822 108.242C249.887 110.298 249.887 115.345 247.082 120.58C244.277 125.814 234.179 135.534 227.634 135.16C219.78 134.6 210.617 125.253 207.439 119.084C204.26 113.102 203.325 100.391 203.325 100.391C203.325 100.391 196.78 101.512 196.032 93.2872C195.284 84.8752 198.276 80.0149 205.008 83.3797C205.008 83.3797 206.13 64.3125 228.195 63.9387C249.887 63.3779 253.627 74.9677 253.627 74.9677Z" fill="#F4A082"/>
<path opacity="0.4" d="M212.301 99.8296C214.919 84.5011 224.268 73.6589 236.423 64.3123C233.992 63.9384 231 63.7515 227.821 63.7515C205.756 64.1253 204.634 83.1925 204.634 83.1925C197.902 79.8277 194.91 84.688 195.658 93.1C196.406 101.512 202.951 100.203 202.951 100.203C202.951 100.203 203.886 113.102 207.065 118.897C210.057 124.505 217.91 132.917 225.203 134.599C214.171 128.057 211.179 112.354 212.301 99.8296Z" fill="url(#paint18_linear_20_230)"/>
<path d="M255.31 78.893C248.017 85.6226 238.667 90.296 223.333 86.1834C223.333 86.1834 233.805 84.6879 238.667 80.7623C227.447 85.4357 212.488 80.2015 209.496 88.9874C206.504 97.7733 215.106 119.645 204.447 123.383C204.447 123.383 211.553 120.766 207.252 110.298C204.634 104.129 199.024 94.2216 202.577 78.893C206.13 63.5645 218.659 56.6479 235.114 58.5173C251.57 60.5735 257.554 71.6026 257.554 71.6026L255.31 78.893Z" fill="#1D3542"/>
<path d="M239.848 102.575C241.25 103.411 242.647 104.006 244.185 104.405C245.65 104.783 247.206 104.87 248.829 104.739C247.359 105.395 245.591 105.481 243.958 105.131C242.349 104.709 240.803 103.829 239.848 102.575Z" fill="#2E2430"/>
<path d="M224.274 98.7004C225.651 99.5762 227.03 100.212 228.555 100.656C230.009 101.076 231.561 101.208 233.188 101.125C231.699 101.738 229.929 101.772 228.307 101.375C226.712 100.906 225.192 99.9811 224.274 98.7004Z" fill="#2E2430"/>
<path d="M250.687 98.8055C248.598 96.341 245.519 95.2439 242.341 95.8079C241.858 95.868 242.05 96.6338 242.534 96.5736C245.436 96.0738 248.24 97.0965 250.124 99.4185C250.394 99.77 250.955 99.2262 250.687 98.8055Z" fill="#1D3542"/>
<path d="M225.42 93.9953C228.23 92.4014 231.498 92.4322 234.287 94.0567C234.72 94.2795 234.276 94.9323 233.843 94.7091C231.291 93.2402 228.306 93.2342 225.737 94.7648C225.363 95.0019 225.023 94.2981 225.42 93.9953Z" fill="#1D3542"/>
<path d="M230.043 113.259C230.821 113.492 231.463 113.821 232.143 114.025C232.823 114.228 233.504 114.432 234.124 114.479C234.805 114.683 235.425 114.73 236.143 114.807C236.862 114.884 237.579 114.961 238.432 114.94C237.719 115.554 236.948 116.012 236.155 116.188C235.36 116.364 234.508 116.385 233.693 116.279C232.878 116.173 232.138 115.814 231.571 115.231C230.929 114.902 230.4 114.193 230.043 113.259Z" fill="#A34F31"/>
<path d="M226.933 122.519C229.674 124.741 233.11 125.401 236.499 124.632C237.134 124.466 236.819 123.548 236.292 123.746C233.119 124.578 229.961 123.765 227.405 121.715C226.93 121.339 226.458 122.143 226.933 122.519Z" fill="#A34F31"/>
<path d="M204.449 123.196C204.257 123.388 204.449 123.196 204.449 123.196V123.196Z" fill="url(#paint19_linear_20_230)"/>
<path opacity="0.47" d="M255.497 68.986C250.448 75.5287 240.35 76.8372 232.496 76.8372C236.797 75.3418 241.098 72.5378 244.09 68.2383C233.992 76.8372 218.098 72.5378 209.496 82.6322C201.455 89.5487 210.057 106.186 208.561 115.159C209.122 120.954 205.382 122.823 204.634 123.197C215.106 119.271 206.504 97.5868 209.683 88.801C212.675 80.0151 227.634 85.2492 238.854 80.5759C233.992 84.5015 223.521 85.997 223.521 85.997C238.854 90.1095 248.204 85.4362 255.497 78.7066L257.554 71.4162C257.367 71.6031 256.806 70.4815 255.497 68.986Z" fill="url(#paint20_linear_20_230)"/>
<g opacity="0.7">
<path d="M277.937 59.4519C277.937 59.4519 278.498 59.6388 279.62 60.0127C280.181 60.1996 280.742 60.5735 281.49 60.9474C282.238 61.3212 282.986 61.882 283.734 62.6298C285.23 63.9383 286.913 65.6207 288.783 67.3031C289.718 68.2378 290.653 68.7986 291.775 69.3594C292.336 69.5463 292.897 69.7332 293.645 70.1071C294.206 70.294 294.954 70.8548 295.515 71.6026C295.702 71.9764 295.889 72.3503 295.889 72.7242C295.889 72.9111 296.076 73.4719 295.889 74.0327C295.702 74.9674 294.954 75.7151 294.206 75.9021C292.71 76.4629 291.401 76.089 290.092 75.9021C289.531 75.7151 288.97 75.7151 288.222 75.5282C287.661 75.3412 287.1 75.1543 286.539 74.9674C285.417 74.5935 284.482 74.2196 283.547 73.6588C282.612 73.098 281.864 72.7242 281.116 72.3503C280.368 71.9764 279.807 71.4156 279.433 71.2287C278.872 70.8548 278.498 70.6679 278.311 70.481C278.124 70.294 277.937 70.1071 277.937 70.1071C277.937 70.1071 278.498 70.481 279.62 70.8548C280.181 71.0418 280.742 71.4156 281.49 71.7895C282.238 72.1634 282.986 72.3503 283.921 72.9111C284.856 73.285 285.791 73.6588 286.913 74.0327C287.474 74.2196 288.035 74.4066 288.596 74.5935C289.157 74.7804 289.718 74.7804 290.279 74.9674C291.401 75.1543 292.71 75.1543 293.645 74.9674C294.206 74.7804 294.393 74.5935 294.58 74.0327C294.58 73.8458 294.58 73.6588 294.58 73.285C294.58 73.098 294.393 72.9111 294.393 72.7242C293.832 71.9764 292.523 71.6026 291.401 71.0418C290.092 70.481 288.97 69.5463 288.222 68.6116C286.539 66.7423 285.043 65.0599 283.547 63.7514C282.799 63.0036 282.051 62.4428 281.49 62.069C280.929 61.5082 280.181 61.3212 279.807 60.9474C278.498 59.6388 277.937 59.4519 277.937 59.4519Z" fill="url(#paint21_linear_20_230)"/>
</g>
<path d="M311.223 74.033C311.223 74.033 314.962 79.641 308.605 81.3234C302.247 83.0058 295.141 80.7626 295.141 80.7626C295.141 80.7626 294.954 84.8751 295.515 87.1183C296.263 89.5484 295.702 87.866 295.702 87.866C295.702 87.866 297.198 84.5012 301.312 84.3143C305.426 84.1274 309.727 82.6319 312.158 80.0148C314.775 77.3978 311.223 74.033 311.223 74.033Z" fill="url(#paint22_linear_20_230)"/>
<path opacity="0.2" d="M168.169 296.11C168.169 296.11 142.55 287.511 133.574 287.511C133.574 287.511 154.892 285.641 169.665 291.81C184.438 297.979 198.65 304.709 205.569 303.4C212.487 302.092 214.731 299.848 214.731 299.848C214.731 299.848 212.113 303.961 203.512 305.456C194.536 306.765 168.169 296.11 168.169 296.11Z" fill="#192E2A"/>
<path d="M164.429 324.523C185.56 324.71 206.13 325.084 210.431 325.832C219.406 327.327 233.992 327.701 243.155 328.262C252.318 328.823 256.806 331.44 260.92 332.936C264.847 334.431 269.148 336.487 271.392 333.122C273.636 329.945 265.969 327.141 263.725 322.841C261.668 318.542 254.375 316.672 244.651 313.121C234.74 309.569 235.301 299.661 225.016 296.11C214.544 292.558 217.162 303.213 205.382 305.269C199.024 306.391 183.503 300.783 168.356 296.11C163.681 304.895 162.933 314.99 164.429 324.523Z" fill="#F4A082"/>
<path opacity="0.5" d="M201.081 305.269C193.414 304.521 180.698 300.035 168.169 296.109C163.681 304.895 163.12 314.803 164.429 324.523C165.738 324.523 167.234 324.523 168.543 324.523C175.275 312.56 188.365 308.073 201.081 305.269Z" fill="#F4A082"/>
<defs>
<linearGradient id="paint0_linear_20_230" x1="442.245" y1="175.571" x2="27.8353" y2="175.571" gradientUnits="userSpaceOnUse">
<stop stop-color="#1A7F54"/>
<stop offset="1" stop-color="#7ADBAE"/>
</linearGradient>
<linearGradient id="paint1_linear_20_230" x1="453.236" y1="192.013" x2="40.1053" y2="159.481" gradientUnits="userSpaceOnUse">
<stop stop-color="#1A7F72"/>
<stop offset="1" stop-color="#7ADBAE"/>
</linearGradient>
<linearGradient id="paint2_linear_20_230" x1="390.055" y1="82.5004" x2="-230.314" y2="398.077" gradientUnits="userSpaceOnUse">
<stop stop-color="#41CBB9"/>
<stop offset="1" stop-color="#307E70"/>
</linearGradient>
<linearGradient id="paint3_linear_20_230" x1="166.305" y1="156.562" x2="-90.1036" y2="567.18" gradientUnits="userSpaceOnUse">
<stop stop-color="#41CBB9"/>
<stop offset="1" stop-color="#307E70"/>
</linearGradient>
<linearGradient id="paint4_linear_20_230" x1="288.393" y1="-66.8259" x2="-82.8315" y2="492.767" gradientUnits="userSpaceOnUse">
<stop stop-color="#41CBB9"/>
<stop offset="1" stop-color="#3EB39D"/>
</linearGradient>
<linearGradient id="paint5_linear_20_230" x1="168.18" y1="148.126" x2="522.264" y2="319.747" gradientUnits="userSpaceOnUse">
<stop stop-color="#41CBB9"/>
<stop offset="1" stop-color="#307E70"/>
</linearGradient>
<linearGradient id="paint6_linear_20_230" x1="97.8672" y1="175.312" x2="542.346" y2="243.124" gradientUnits="userSpaceOnUse">
<stop stop-color="#41CBB9"/>
<stop offset="1" stop-color="#307E70"/>
</linearGradient>
<linearGradient id="paint7_linear_20_230" x1="124.451" y1="-172.557" x2="495.679" y2="387.039" gradientUnits="userSpaceOnUse">
<stop stop-color="#41CBB9"/>
<stop offset="1" stop-color="#359D8A"/>
</linearGradient>
<linearGradient id="paint8_linear_20_230" x1="165.324" y1="-187.393" x2="54.6524" y2="579.739" gradientUnits="userSpaceOnUse">
<stop stop-color="#41CBB9"/>
<stop offset="1" stop-color="#32BFA6"/>
</linearGradient>
<linearGradient id="paint9_linear_20_230" x1="504.073" y1="-221.344" x2="335.091" y2="535.155" gradientUnits="userSpaceOnUse">
<stop stop-color="#41CBB9"/>
<stop offset="1" stop-color="#319E8B"/>
</linearGradient>
<linearGradient id="paint10_linear_20_230" x1="-37.3988" y1="-110.331" x2="462.94" y2="481.831" gradientUnits="userSpaceOnUse">
<stop stop-color="#41CBB9"/>
<stop offset="1" stop-color="#4DD0B9"/>
</linearGradient>
<linearGradient id="paint11_linear_20_230" x1="410.977" y1="-60.9268" x2="-179.235" y2="441.757" gradientUnits="userSpaceOnUse">
<stop stop-color="#41CBB9"/>
<stop offset="1" stop-color="#2EA892"/>
</linearGradient>
<linearGradient id="paint12_linear_20_230" x1="469.383" y1="53.3608" x2="-222.132" y2="403.975" gradientUnits="userSpaceOnUse">
<stop offset="0.00537634" stop-color="#F5906B"/>
<stop offset="0.7473" stop-color="#F5906B"/>
</linearGradient>
<linearGradient id="paint13_linear_20_230" x1="437.127" y1="-10.2318" x2="-254.36" y2="340.368" gradientUnits="userSpaceOnUse">
<stop offset="0.00537634" stop-color="#F5906B"/>
<stop offset="0.7473" stop-color="#F5906B"/>
</linearGradient>
<linearGradient id="paint14_linear_20_230" x1="417.095" y1="-49.7998" x2="-274.428" y2="300.818" gradientUnits="userSpaceOnUse">
<stop stop-color="#313F46"/>
<stop offset="1" stop-color="#305062"/>
</linearGradient>
<linearGradient id="paint15_linear_20_230" x1="485.257" y1="84.6679" x2="-206.26" y2="435.283" gradientUnits="userSpaceOnUse">
<stop offset="0.00537634" stop-color="#EA7951"/>
<stop offset="0.7473" stop-color="#F5906B"/>
</linearGradient>
<linearGradient id="paint16_linear_20_230" x1="494.784" y1="103.468" x2="-196.721" y2="454.077" gradientUnits="userSpaceOnUse">
<stop offset="0.00537634" stop-color="#F5906B"/>
<stop offset="0.7473" stop-color="#F5906B"/>
</linearGradient>
<linearGradient id="paint17_linear_20_230" x1="446.821" y1="8.85578" x2="-244.696" y2="359.471" gradientUnits="userSpaceOnUse">
<stop offset="0.00537634" stop-color="#F5906B"/>
<stop offset="0.7473" stop-color="#F5906B"/>
</linearGradient>
<linearGradient id="paint18_linear_20_230" x1="437.617" y1="-9.26626" x2="-253.865" y2="341.331" gradientUnits="userSpaceOnUse">
<stop offset="0.00537634" stop-color="#F5906B"/>
<stop offset="0.7473" stop-color="#F5906B"/>
</linearGradient>
<linearGradient id="paint19_linear_20_230" x1="450.39" y1="-1.20527" x2="-260.903" y2="359.894" gradientUnits="userSpaceOnUse">
<stop stop-color="#000077"/>
<stop offset="0.1459" stop-color="#020087"/>
<stop offset="0.7232" stop-color="#0B00C1"/>
<stop offset="1" stop-color="#0F00D8"/>
</linearGradient>
<linearGradient id="paint20_linear_20_230" x1="435.433" y1="-13.5853" x2="-256.066" y2="337.02" gradientUnits="userSpaceOnUse">
<stop stop-color="#305062"/>
<stop offset="1" stop-color="#305062"/>
</linearGradient>
<linearGradient id="paint21_linear_20_230" x1="277.489" y1="67.6175" x2="295.981" y2="67.6175" gradientUnits="userSpaceOnUse">
<stop offset="0.00537634" stop-color="#F5906B"/>
<stop offset="0.7473" stop-color="#F5906B"/>
</linearGradient>
<linearGradient id="paint22_linear_20_230" x1="446.612" y1="8.45329" x2="-244.901" y2="359.066" gradientUnits="userSpaceOnUse">
<stop offset="0.00537634" stop-color="#F5906B"/>
<stop offset="0.7473" stop-color="#F5906B"/>
</linearGradient>
<clipPath id="clip0_20_230">
<rect width="312.5" height="414.646" fill="white" transform="translate(442.271 19.3757) rotate(90)"/>
</clipPath>
<clipPath id="clip1_20_230">
<rect width="312.5" height="414.646" fill="white" transform="translate(465.524 36.302) rotate(94.5026)"/>
</clipPath>
</defs>
</svg>
