<svg width="213" height="502" viewBox="0 0 213 502" fill="none" xmlns="http://www.w3.org/2000/svg">
<g clip-path="url(#clip0_23_9678)">
<path opacity="0.2" d="M109.308 500.953C162.379 500.953 205.402 493.195 205.402 483.625C205.402 474.055 162.379 466.296 109.308 466.296C56.2366 466.296 13.2137 474.055 13.2137 483.625C13.2137 493.195 56.2366 500.953 109.308 500.953Z" fill="black" fill-opacity="0.2"/>
<path d="M141.523 483.232C140.421 485.28 136.955 486.067 135.064 486.067C132.544 486.067 122.619 486.54 122.619 486.54C122.619 486.54 120.178 488.115 117.657 487.721C116.791 487.643 115.688 486.934 114.822 485.989C113.089 484.334 111.829 481.814 112.852 480.475C114.428 478.348 114.743 462.674 114.743 459.445C114.743 456.294 115.058 453.931 116.712 451.647C118.366 449.363 119.784 445.818 119.784 445.818C129.551 442.825 136.246 446.921 136.246 446.921C136.246 446.921 131.993 461.571 133.568 466.297C135.222 471.023 140.736 476.852 141.681 480.79C141.996 481.814 141.917 482.602 141.523 483.232Z" fill="#F4A082"/>
<path d="M171.218 297.82C166.571 313.651 162.711 324.679 159.088 332.082C153.811 342.952 149.321 346.103 144.359 345.315C139.712 344.606 134.828 342.401 131.363 338.62C129.157 336.178 127.503 332.949 127.109 329.011C127.03 328.144 126.952 327.278 126.952 326.333C127.188 314.675 131.205 276.868 131.914 270.725C132.623 264.975 129.63 255.523 129.157 254.263C129.157 254.184 129.078 254.105 129.078 254.105C129.078 254.105 131.914 244.26 138.294 239.691C139.082 239.14 140.106 238.431 141.366 237.643C150.975 231.578 173.423 219.685 176.889 228.034C177.047 228.113 182.639 258.674 171.218 297.82Z" fill="#1F5148"/>
<path d="M159.167 332.161C159.009 332.555 154.756 345.709 154.598 351.301C154.362 357.051 154.835 371.544 152.787 384.067C150.739 396.591 136.325 447 136.325 447C129.078 450.308 119.862 445.898 119.862 445.898C119.862 445.898 119.862 445.898 120.729 436.682C121.595 427.467 120.493 398.875 120.729 390.29C120.729 390.211 120.729 390.053 120.729 389.975C121.123 381.31 127.503 365.951 126.164 355.869C124.746 345.63 127.109 329.168 127.109 329.168H127.266L133.647 329.798L159.167 332.161Z" fill="#1F5148"/>
<path d="M177.046 228.112C177.046 231.342 176.18 234.886 173.108 237.879C166.728 244.023 153.889 252.057 139.79 254.105C137.191 254.499 134.434 254.656 131.756 254.656C130.89 254.577 130.102 254.499 129.236 254.42C127.424 254.184 125.534 253.79 123.801 253.317C113.64 250.718 104.582 244.968 98.2018 239.455C95.9176 237.485 93.9485 235.516 92.4519 233.705C87.0958 227.325 90.2465 219.448 91.743 216.376C92.1368 215.589 92.4519 215.116 92.4519 215.116L95.8388 215.51L113.482 217.4L133.568 219.606L174.92 219.37C174.998 219.37 177.046 223.387 177.046 228.112Z" fill="#1F5148"/>
<path d="M124.667 252.529C124.51 252.765 124.194 253.002 123.801 253.238C115.058 259.775 58.1887 285.61 37.0007 291.124C36.6069 291.203 36.2919 291.281 35.898 291.439C34.2439 291.833 32.7474 292.227 31.4084 292.463C29.518 292.857 32.1173 289.785 30.4632 289.942C30.3844 289.942 26.9187 290.1 26.9187 290.1C22.2715 290.573 15.8915 292.935 12.8197 292.148C9.27519 291.203 8.40877 290.1 6.28209 288.21C4.78554 286.871 3.60406 285.453 2.50134 284.035C1.63491 282.932 1.08355 281.672 0.768491 280.254C-0.649293 274.111 2.65887 265.683 8.09371 260.721C11.3231 257.728 23.6106 249.536 37.6309 241.108C52.6751 231.971 75.2021 222.677 84.7328 218.896C87.2533 217.872 89.695 217.085 91.9005 216.533C93.3183 216.14 94.6573 215.825 95.9963 215.667C104.345 214.249 110.017 215.746 113.64 217.557C117.184 219.369 118.681 221.574 118.681 221.574C121.91 227.167 122.54 227.876 123.643 231.814C123.801 232.208 123.879 232.602 123.958 232.995C124.273 234.334 124.51 235.516 124.667 236.697C125.218 242.998 127.503 249.457 124.667 252.529Z" fill="#1F5148"/>
<path d="M139.16 354.372C140.972 355.869 140.815 358.783 138.767 359.964C135.38 361.934 131.205 364.927 129.709 367.998C127.424 372.646 127.188 388.005 120.729 389.895C121.123 381.231 127.503 365.872 126.164 355.79C124.746 345.55 127.109 329.089 127.109 329.089H127.267C127.188 328.222 127.109 327.356 127.109 326.411C127.346 314.753 131.363 276.946 132.072 270.803C132.78 265.053 129.787 255.601 129.315 254.341C127.503 254.104 125.613 253.711 123.88 253.238C115.137 259.775 58.268 285.61 37.08 291.124C36.6861 291.203 36.3711 291.281 35.9772 291.439L48.8161 264.423C48.8161 264.423 80.9525 257.885 99.7776 248.276C106.473 244.81 111.671 242.132 113.483 241.187C116.397 239.612 120.729 240.478 125.455 241.738C131.914 243.471 137.428 237.091 141.996 234.886C141.996 234.886 141.839 235.91 141.681 237.721C141.287 241.108 140.578 247.173 139.948 254.104C139.239 261.43 138.53 269.7 138.215 276.631C137.428 293.644 140.736 317.353 137.191 322.394C135.931 324.205 134.671 326.726 133.647 329.64C132.623 332.475 131.835 335.626 131.599 338.619C131.363 341.14 131.52 343.503 132.15 345.393C133.253 348.937 136.404 352.167 139.16 354.372Z" fill="#1D4941"/>
<path d="M131.284 320.897C131.284 320.897 132.78 329.482 125.613 329.01C125.613 329.01 126.006 324.126 125.061 320.818C124.746 319.715 124.195 317.195 123.486 314.281C122.068 308.216 120.099 300.261 118.524 298.213C116.161 295.062 111.513 294.274 111.513 294.274L110.883 287.579L109.623 273.638C109.623 273.638 117.815 272.378 122.068 270.409C126.321 268.361 131.599 268.676 133.017 272.614C134.513 276.552 131.126 288.603 133.017 296.244C135.064 303.962 137.427 319.164 131.284 320.897Z" fill="#F4A082"/>
<path d="M194.769 105.238C192.721 111.775 188.153 120.282 177.677 125.087C177.677 125.087 180.276 134.223 175.944 142.888C171.612 151.473 169.092 173.527 168.54 183.373C167.989 193.218 172.321 208.971 174.448 210.704C176.574 212.437 175.393 214.879 174.999 216.454C174.605 218.029 177.047 219.368 171.691 220.55C166.335 221.731 144.832 223.779 133.174 223.149C121.517 222.519 100.408 218.108 95.1304 216.375C89.9319 214.642 92.4524 213.54 92.2949 211.964C92.0586 210.31 91.1922 207.79 93.4764 206.293C95.7606 204.797 101.747 189.595 102.298 179.75C102.849 170.298 102.692 149.583 99.7776 139.895C99.6201 139.501 99.5413 139.107 99.3838 138.713C97.8872 134.775 97.8085 130.915 98.1235 127.765C98.5174 123.669 99.6201 120.912 99.6201 120.912C96.9421 119.337 94.7366 117.525 92.925 115.556C87.884 110.279 85.6785 104.135 84.7334 99.2518C84.2608 96.6525 84.6546 94.0533 85.8361 91.9266C85.8361 91.8479 85.9148 91.8479 85.9148 91.7691C85.9936 91.6116 86.0724 91.5328 86.1511 91.3753C86.2299 91.2965 86.3087 91.139 86.3087 91.0602C87.9628 88.461 90.7196 86.5706 93.949 86.0193C99.8564 85.0741 105.685 83.4988 110.726 81.2934C111.671 80.8995 112.538 80.5057 113.483 80.1119C117.894 78.3791 121.911 77.04 124.51 76.2524C125.377 76.0161 126.007 75.7798 126.479 75.6223C126.952 75.4647 127.188 75.386 127.188 75.386L141.287 72.4717L154.992 76.8825C154.992 76.8825 156.016 77.2763 157.592 77.9852C160.034 79.0092 163.972 80.8208 168.068 83.0262C168.934 83.4988 169.8 83.9714 170.667 84.444C175.393 87.2007 181.064 89.3274 186.814 90.9815C193.115 92.793 196.66 99.173 194.769 105.238Z" fill="#F4A082"/>
<path d="M205.954 178.097C205.481 178.333 205.008 178.412 204.536 178.412C203.433 178.333 202.173 177.703 200.834 176.6C199.337 175.498 197.762 173.843 196.108 171.953C193.824 169.275 191.618 166.124 189.728 163.053C188.31 160.768 187.129 158.563 186.262 156.673C183.899 151.553 180.591 144.228 178.228 136.981C176.574 132.019 175.314 127.057 175.077 122.804C174.999 120.913 175.235 119.023 175.786 117.133C178.228 108.311 186.026 99.6469 188.074 97.2052C190.594 94.2121 193.272 95.4723 193.272 95.4723C193.272 95.4723 205.796 126.269 209.892 147.142C213.83 168.015 210.758 175.498 205.954 178.097Z" fill="#F4A082"/>
<path opacity="0.6" d="M196.029 171.952C192.091 167.305 188.232 161.083 186.184 156.672C182.245 148.008 175.55 133.2 174.999 122.803C174.92 120.913 175.156 119.022 175.708 117.132L194.454 156.908L196.029 171.952Z" fill="#DB8C70"/>
<path d="M100.329 120.835C99.8563 123.04 99.1474 125.324 98.1234 127.766C95.5241 134.303 91.3496 141.313 87.8051 147.063C86.5448 149.111 85.2846 151.002 84.2606 152.656C82.7641 154.94 80.7162 157.618 78.3532 160.296C73.4697 165.809 67.4048 171.008 63.7028 171.402C62.9151 171.48 62.2062 171.323 61.5761 170.929C58.4255 168.566 56.5351 163.762 58.4255 153.601C59.1344 149.741 60.3946 145.173 62.3638 139.738C68.7438 121.701 83.0792 96.8113 85.9147 91.9279C85.9147 91.8491 85.9935 91.8491 85.9935 91.7703C86.0723 91.6128 86.151 91.4553 86.2298 91.3765C86.3086 91.2978 86.3873 91.1402 86.3873 91.0615C86.3873 91.0615 89.2229 90.2738 91.2708 93.5819C92.3735 95.3935 95.6029 100.277 97.9659 106.106C98.7535 107.917 99.3837 109.886 99.8563 111.777C100.644 114.848 100.88 117.999 100.329 120.835Z" fill="#F4A082"/>
<path opacity="0.6" d="M106.079 136.194L99.8563 139.896C99.6988 139.502 99.62 139.108 99.4625 138.714C97.9659 134.776 97.8872 130.917 98.2022 127.766C95.603 134.304 91.4284 141.314 87.8839 147.064L71.2644 156.909L92.8462 124.143L97.8872 114.612L100.723 109.256L105.606 106.185L106.079 136.194Z" fill="#DB8C70"/>
<path d="M156.332 105.396C153.417 115.556 139.003 116.738 139.003 116.738C139.003 116.738 127.188 114.454 123.722 106.105C123.407 105.317 123.171 104.529 123.013 103.584C121.202 93.1871 126.794 61.4448 126.794 61.4448L141.76 66.092L157.119 63.0989C157.119 63.0989 157.907 75.6225 157.828 87.516C157.749 94.6049 157.355 101.536 156.332 105.396Z" fill="#F4A082"/>
<path opacity="0.6" d="M157.828 87.4373C157.513 86.0195 157.198 84.6805 157.04 83.4202C156.253 78.0642 155.229 73.4171 153.732 73.1808C152.236 72.9445 145.698 76.5677 140.815 77.119C137.821 77.4341 134.75 75.465 132.78 73.8897C131.441 72.787 129.394 73.102 128.448 74.5198C127.031 76.7252 125.455 80.5059 125.219 86.8859C124.746 98.7006 129.63 105.868 129.63 105.868L123.644 106.105C123.329 105.317 120.099 100.197 119.942 99.3308C118.13 88.9338 126.715 61.4448 126.715 61.4448L141.681 66.092L157.04 63.0989C157.119 63.0201 157.907 75.5437 157.828 87.4373Z" fill="#DB8C70"/>
<path opacity="0.6" d="M124.431 86.0205C124.431 86.0205 128.606 89.0923 131.52 89.6437C134.513 90.1163 138.215 89.8012 138.845 91.2978C139.475 92.7943 138.688 94.5271 136.246 93.2669C133.804 92.0067 131.678 91.7704 129.551 91.6128C127.424 91.3765 124.274 89.5649 124.274 89.5649L124.431 86.0205Z" fill="#DB8C70"/>
<path opacity="0.6" d="M157.749 87.832C157.749 87.832 153.259 90.4313 150.266 90.6676C147.273 90.8251 143.571 90.1162 142.862 91.4552C142.075 92.873 142.626 94.6846 145.225 93.6607C147.824 92.7155 149.951 92.7155 151.999 92.7155C154.126 92.7155 157.513 91.2189 157.513 91.2189L157.749 87.832Z" fill="#DB8C70"/>
<path d="M138.845 106.892L139.791 102.403L140.027 107.444L138.845 106.892Z" fill="#E67B70"/>
<path d="M171.691 220.63C166.335 221.812 144.832 223.859 133.174 223.229C121.517 222.599 100.408 218.188 95.1303 216.456C92.9249 215.668 92.1372 215.116 91.9009 214.486C91.5859 213.699 92.3735 212.911 92.2948 211.966C92.0585 210.312 91.192 207.791 93.4762 206.295C95.7605 204.798 101.747 189.597 102.298 179.751C102.849 169.905 102.692 147.772 99.3837 138.715C96.0755 129.657 99.62 120.835 99.62 120.835C101.747 113.352 105.527 106.185 105.527 106.185C105.527 106.185 109.151 99.1745 110.962 90.983C111.75 87.2022 112.774 83.264 113.562 80.1134C117.972 78.3806 121.989 76.9628 124.589 76.2539C124.51 76.4902 119.942 85.7845 121.359 94.5274C122.147 99.2533 127.346 102.168 132.071 103.9C136.089 105.397 139.633 105.948 139.633 105.948C139.633 105.948 153.732 105.87 156.174 97.2841C157.434 92.637 157.828 87.3598 157.907 83.5003C157.985 80.3497 157.828 78.223 157.828 78.1443C160.27 79.1682 164.208 80.9798 168.304 83.1852C168.776 86.4146 167.516 91.9281 167.91 95.7876C168.776 104.137 174.605 114.297 174.605 114.297C174.605 114.297 175.393 115.715 176.259 118.866C176.732 120.52 177.204 122.646 177.677 125.246C177.677 125.246 180.276 134.382 175.944 143.047C175.55 143.913 175.156 144.858 174.763 145.882C173.187 150.372 171.848 156.594 170.824 162.974C169.564 170.772 168.855 178.648 168.54 183.532C167.989 193.377 172.321 209.13 174.447 210.863C176.574 212.596 175.393 215.038 174.999 216.613C174.605 218.11 177.047 219.449 171.691 220.63Z" fill="#D0F4EA"/>
<path d="M176.259 118.707C172.872 109.491 163.578 108.704 157.355 109.255C156.253 109.334 155.544 107.995 156.41 107.207C161.294 102.481 163.972 94.2108 162.239 90.6664C160.821 87.7521 159.009 84.9953 157.907 83.42C157.986 80.2694 157.828 78.1427 157.828 78.064C160.27 79.0879 164.208 80.8995 168.304 83.1049C168.776 86.3343 167.516 91.8478 167.91 95.7073C168.776 104.056 174.605 114.217 174.605 114.217C174.605 114.217 175.314 115.556 176.259 118.707Z" fill="#AAE9D7"/>
<path d="M100.25 214.329C100.25 214.329 112.065 217.952 125.14 218.739C119.39 218.503 108.048 217.873 99.9351 216.849C99.6201 216.061 100.408 215.274 100.25 214.329Z" fill="#AAE9D7"/>
<path d="M112.38 209.13L93.5552 206.295C95.8394 204.798 101.826 189.597 102.377 179.751C102.928 169.905 102.771 147.772 99.4626 138.715C96.1545 129.657 99.6989 120.835 99.6989 120.835C101.826 113.352 105.606 106.185 105.606 106.185C105.606 106.185 109.23 99.1745 111.041 90.983C111.829 87.2022 112.853 83.264 113.641 80.1134C118.051 78.3806 122.068 76.9628 124.668 76.2539C124.589 76.4902 120.021 85.7845 121.438 94.5274C122.226 99.2533 127.425 102.168 132.151 103.9C132.151 103.9 113.404 101.616 108.127 108.863C102.85 116.109 100.093 142.732 111.041 142.889C116.24 142.968 120.887 142.416 124.274 141.708C125.534 141.471 126.243 143.125 125.14 143.834C122.226 145.803 118.524 148.009 115.452 149.033C109.151 151.081 108.915 152.026 107.024 162.58C105.134 173.135 104.346 187.706 104.189 194.559C104.11 199.127 109.623 204.404 113.404 207.398C114.034 207.949 113.404 209.288 112.38 209.13Z" fill="#AAE9D7"/>
<path d="M124.589 76.1742C121.596 81.8453 120.414 101.3 122.147 106.105C123.88 110.673 124.825 121.858 122.147 129.262C122.068 129.498 121.989 129.734 121.911 129.971C118.996 137.375 107.339 138.005 107.339 138.005L108.284 134.382C103.795 139.029 94.5789 139.501 94.5789 139.501C94.5789 139.501 97.7296 135.248 99.3836 130.916C100.171 128.868 100.644 126.82 100.408 125.245C99.7775 121.7 99.6987 114.927 100.25 107.208C100.486 103.899 100.88 100.513 101.353 97.1257C103.007 85.7835 106.394 75.5441 115.294 71.0545C124.274 66.5649 126.007 55.6953 126.007 55.6953L129.315 58.5308C129.315 58.5308 129.157 59.7123 128.842 61.6027C128.054 65.5409 126.637 72.3147 124.589 76.1742Z" fill="#1D3542"/>
<path d="M174.763 145.724C173.187 150.214 171.848 156.436 170.824 162.816C170.352 158.405 168.619 152.734 163.027 151.553C157.198 150.371 154.362 148.008 153.023 146.275C152.63 145.803 153.181 145.094 153.732 145.33C163.578 149.662 174.763 145.724 174.763 145.724Z" fill="#AAE9D7"/>
<path d="M122.147 106.105C123.88 110.673 124.825 121.858 122.147 129.261C125.928 107.05 113.955 110.122 111.986 97.1254C109.938 84.2079 118.839 80.7423 122.305 76.0951C125.77 71.3692 127.031 60.4209 127.031 60.4209L128.763 61.6024C128.055 65.5406 126.637 72.3144 124.589 76.1739C121.517 81.845 120.335 101.379 122.147 106.105Z" fill="#01080A"/>
<path d="M118.13 35.1384C118.13 35.1384 114.034 31.909 112.931 36.1623C111.829 40.3368 114.507 48.1346 116.633 49.001C118.681 49.8674 121.28 47.977 121.28 47.977L118.13 35.1384Z" fill="#E67B70"/>
<path d="M164.838 35.1384C164.838 35.1384 168.934 31.909 170.036 36.1623C171.139 40.3368 168.461 48.1346 166.334 49.001C164.287 49.8674 161.687 47.977 161.687 47.977L164.838 35.1384Z" fill="#E67B70"/>
<path d="M141.681 7.56987C141.681 7.56987 105.842 5.75828 119.863 51.3632C126.794 73.89 141.681 72.4722 141.681 72.4722C141.681 72.4722 156.568 73.9687 163.499 51.3632C177.441 5.75828 141.681 7.56987 141.681 7.56987Z" fill="#F4A082"/>
<path d="M165.941 40.888C164.051 45.7714 164.287 43.566 162.869 40.888C161.688 38.6826 158.774 34.9806 151.291 32.3026C150.739 32.1451 150.188 31.9088 149.637 31.7512C148.692 31.4362 147.746 31.1999 146.644 30.8848C146.329 30.8061 146.014 30.7273 145.698 30.6485C134.041 27.9705 127.661 20.1728 127.661 20.1728C126.322 27.5767 123.802 28.9945 122.148 30.2547C122.148 30.2547 122.148 30.2547 122.069 30.3335C121.596 30.6485 121.281 30.9636 120.966 31.3574C119.627 33.3265 117.815 43.7235 117.815 43.7235C117.815 43.7235 116.319 36.9497 115.61 35.3744C114.901 33.7991 112.381 26.7891 115.059 18.44C117.737 10.0121 124.195 1.42675 142.154 0.875391C150.976 0.560331 160.034 7.64917 163.263 11.8237C166.729 16.2346 167.832 21.1967 168.304 23.5597C169.407 28.0493 167.832 36.0046 165.941 40.888Z" fill="#1D3542"/>
<path d="M149.636 31.7515C148.691 31.4364 147.746 31.2001 146.643 30.8851C145.225 28.9947 144.516 26.0804 144.123 23.7962C144.044 23.5599 144.516 23.4024 144.516 23.7174C145.462 26.553 146.958 30.2549 149.636 31.7515Z" fill="#01080A"/>
<path d="M165.941 40.8874C164.05 45.7708 164.287 43.5654 162.869 40.8874C161.687 38.6819 158.773 34.98 151.29 32.302C155.544 32.9321 160.112 34.98 162.318 36.0039C163.105 36.3978 163.972 36.0039 164.208 35.2163C167.122 25.8433 164.996 16.864 163.263 11.9019C166.728 16.3127 167.831 21.2749 168.304 23.6378C169.406 28.0487 167.831 36.0039 165.941 40.8874Z" fill="#01080A"/>
<path d="M116.555 32.3026C116.555 32.3026 120.493 31.515 122.068 30.3335C121.596 30.6486 121.281 30.9636 120.966 31.3574C119.626 33.3266 117.815 43.7235 117.815 43.7235C117.5 38.9976 119.626 32.3026 119.626 32.3026C118.76 32.5389 116.555 32.3026 116.555 32.3026Z" fill="#01080A"/>
<path d="M127.739 20.2521C126.4 27.656 123.88 29.0738 122.226 30.3341C123.801 29.1526 125.14 26.002 126.007 23.4027C126.558 21.7487 126.479 19.9371 126.243 18.7556C126.243 18.5193 126.479 18.4405 126.637 18.5981L127.739 20.2521Z" fill="#01080A"/>
<path d="M137.979 123.119C137.743 123.434 134.513 127.845 120.965 138.084C76.8565 171.638 63.5451 171.402 63.5451 171.402C63.1513 169.905 62.915 168.487 62.8362 167.148C61.3397 150.214 77.1716 141.235 87.7262 136.824C98.3596 132.413 118.051 123.828 126.794 119.732C127.424 119.417 128.054 119.181 128.527 118.865C132.623 116.896 135.065 118.314 136.404 120.047C137.585 121.465 137.979 123.119 137.979 123.119Z" fill="#F4A082"/>
<path d="M137.979 123.118C135.852 125.56 133.332 125.56 131.284 124.694C128.921 123.67 127.109 121.386 126.794 119.81C126.794 119.81 126.794 119.81 126.794 119.731C127.267 118.314 135.38 92.3213 136.089 87.7529C136.64 84.2872 137.506 82.7907 138.767 82.9482C139.003 82.9482 139.239 83.1058 139.476 83.1845C139.948 83.4996 140.184 84.0509 140.184 84.6023V109.886C140.184 109.886 142.469 117.92 137.979 123.118Z" fill="#F4A082"/>
<path opacity="0.6" d="M137.979 123.119C137.742 123.434 134.513 127.845 120.965 138.084C76.8565 171.638 63.5451 171.402 63.5451 171.402C63.5451 171.402 63.5451 171.402 63.5451 171.323C62.915 168.645 64.0965 165.809 66.4595 164.392C71.658 161.241 79.6921 158.327 84.5756 156.279C93.4761 152.656 116.712 138.636 123.722 133.91C130.732 129.184 130.89 124.615 130.89 124.615C130.89 124.615 131.047 124.615 131.205 124.537C132.465 124.379 136.955 123.513 136.482 120.205C136.482 120.126 136.482 120.047 136.482 119.968C136.01 116.109 139.003 109.65 139.003 109.65C139.003 109.65 139.081 87.5171 139.003 84.7604C138.924 83.7364 139.16 83.3426 139.475 83.1851C139.948 83.5001 140.184 84.0515 140.184 84.6028V109.886C140.184 109.886 142.468 117.92 137.979 123.119Z" fill="#DB8C70"/>
<path d="M206.033 172.583C205.796 174.394 205.245 176.363 204.536 178.332C204.378 178.254 203.276 178.017 200.834 176.521C195.242 173.213 182.403 163.997 155.938 138.084C153.732 135.957 151.842 134.067 150.266 132.334C142.626 124.378 140.972 121.149 140.972 121.149C140.972 121.149 143.729 113.588 150.818 118.077C156.568 121.779 168.304 130.443 178.307 136.902C180.67 138.399 182.875 139.816 184.923 140.998C194.375 146.511 208.396 156.83 206.033 172.583Z" fill="#F4A082"/>
<path d="M153.417 119.731C153.417 119.731 144.832 92.3994 144.123 87.7522C143.414 83.1051 142.075 82.0024 140.027 83.5777V109.885C140.027 109.885 137.743 117.919 142.232 123.118C146.722 128.237 152.944 122.645 153.417 119.731Z" fill="#F4A082"/>
<path opacity="0.6" d="M205.954 178.095C205.481 178.332 205.009 178.41 204.536 178.41C203.434 178.332 202.173 177.701 200.834 176.599C195.242 173.291 182.403 164.075 155.938 138.161C153.732 136.035 151.842 134.144 150.266 132.412C150.739 132.805 177.204 154.151 189.807 163.051C192.721 165.099 194.927 166.517 195.872 166.753C198.708 167.62 203.67 170.061 206.19 172.582C207.844 174.472 208.396 176.441 205.954 178.095Z" fill="#DB8C70"/>
<path d="M136.905 44.0835C135.727 45.2581 134.006 45.981 132.193 45.981C130.472 45.981 128.841 45.3484 127.663 44.2642" stroke="black" stroke-width="0.32" stroke-miterlimit="10" stroke-linecap="round" stroke-linejoin="round"/>
<path d="M156.39 44.0835C155.211 45.2581 153.49 45.981 151.677 45.981C149.955 45.981 148.324 45.3484 147.147 44.2642" stroke="black" stroke-width="0.32" stroke-miterlimit="10" stroke-linecap="round" stroke-linejoin="round"/>
<path d="M147.69 61.1743C146.24 62.2587 144.156 62.8911 141.89 62.8911C139.715 62.8911 137.812 62.349 136.363 61.355" stroke="black" stroke-width="0.32" stroke-miterlimit="10" stroke-linecap="round" stroke-linejoin="round"/>
<path d="M144.881 64.8789C144.156 65.1506 143.159 65.3318 141.98 65.3318C140.893 65.3318 139.896 65.1506 139.171 64.9695" stroke="black" stroke-width="0.32" stroke-miterlimit="10" stroke-linecap="round" stroke-linejoin="round"/>
<path d="M129.475 35.9658C133.1 34.6104 135.637 36.6886 136 38.6765C136 38.6765 133.734 37.9535 130.291 38.4053C126.847 38.9475 124.037 40.3931 124.037 40.3931C124.037 40.3931 125.85 37.2307 129.475 35.9658Z" fill="#372E2A"/>
<path d="M154.577 35.9658C150.952 34.6104 148.415 36.6886 148.052 38.6765C148.052 38.6765 150.318 37.9535 153.762 38.4053C157.205 38.9475 160.015 40.3931 160.015 40.3931C160.015 40.3931 158.202 37.2307 154.577 35.9658Z" fill="#372E2A"/>
<path d="M142.723 46.5596C141.992 48.66 142.316 51.0229 143.616 52.7733C144.186 53.4734 144.835 54.1735 145.161 55.0488C145.486 56.0114 145.241 57.1492 144.592 57.8493C144.023 58.6369 143.047 59.0745 142.153 59.162" stroke="black" stroke-width="0.32" stroke-miterlimit="10" stroke-linecap="round" stroke-linejoin="round"/>
<path d="M125.94 45.0765C125.94 45.0765 127.21 45.439 128.388 44.8047" stroke="black" stroke-width="0.32" stroke-miterlimit="10" stroke-linecap="round" stroke-linejoin="round"/>
<path d="M157.932 45.0765C157.932 45.0765 156.662 45.439 155.484 44.8047" stroke="black" stroke-width="0.32" stroke-miterlimit="10" stroke-linecap="round" stroke-linejoin="round"/>
<path opacity="0.6" d="M123.486 314.36C122.068 308.295 120.099 300.34 118.524 298.292C116.161 295.141 111.514 294.354 111.514 294.354L110.883 287.659C112.774 287.58 117.815 287.265 120.729 285.453C124.274 283.169 121.596 291.754 123.171 297.032C124.746 302.309 126.164 320.582 123.486 314.36Z" fill="#DB8C70"/>
<path d="M111.514 294.275C111.514 294.275 99.0686 294.275 84.5756 295.457C73.0758 296.402 41.9633 294.197 22.9808 292.936C18.0973 292.621 14.474 292.306 12.82 292.07C12.7412 292.07 12.7412 292.07 12.7412 292.07C12.6624 291.991 11.7172 291.204 10.9296 289.943C10.3782 289.077 9.90562 287.974 9.90562 286.635C9.90562 286.635 8.48784 281.673 13.135 278.207C13.6076 277.892 14.0802 277.577 14.6316 277.262C21.0904 273.797 34.7169 266.393 42.9085 265.054C51.1789 263.715 60.4733 264.502 67.7985 265.841C75.1237 267.18 90.4831 271.985 96.1542 272.694C97.8083 272.851 109.702 273.639 109.702 273.639C109.702 273.639 111.671 283.012 111.907 289.55C111.986 291.44 111.907 293.173 111.514 294.275Z" fill="#1F5148"/>
<path d="M111.513 294.275C111.513 294.275 99.0683 294.275 84.5754 295.456C73.0756 296.401 41.9631 294.196 22.9806 292.936C18.0971 292.62 14.4739 292.305 12.8198 292.069C12.741 292.069 12.741 292.069 12.741 292.069C12.741 292.069 12.741 292.069 12.6622 291.99C11.4808 290.966 10.9294 289.312 11.3232 287.737C12.1896 284.271 14.3951 281.357 19.5149 282.696C30.227 285.532 45.9014 282.145 63.2299 285.374C77.5653 288.052 100.801 290.179 111.907 289.549C111.986 291.439 111.907 293.172 111.513 294.275Z" fill="#1D4941"/>
<path opacity="0.6" d="M140.263 483.232C140.814 483.232 141.129 483.941 140.657 484.335C139.16 485.595 136.64 486.147 135.064 486.147C132.544 486.147 122.619 486.619 122.619 486.619C122.619 486.619 120.178 488.195 117.657 487.801C116.791 487.722 115.688 487.013 114.822 486.068C115.058 485.201 116.633 485.359 119.548 485.674C123.013 486.068 121.438 483.232 121.438 483.232C121.438 483.232 126.164 484.571 133.174 483.626C136.088 483.154 138.451 483.154 140.263 483.232Z" fill="#DB8C70"/>
</g>
<defs>
<clipPath id="clip0_23_9678">
<rect width="211.875" height="501.25" fill="white" transform="translate(0.374878 0.250488)"/>
</clipPath>
</defs>
</svg>
