<svg width="479" height="334" viewBox="0 0 479 334" fill="none" xmlns="http://www.w3.org/2000/svg">
<g opacity="0.1" clip-path="url(#clip0_34_6)">
<path d="M152.006 85.3006C173.612 81.9494 196.221 83.7776 217.429 78.3082C246.037 71.1099 268.937 51.969 293.411 36.6372C318.126 21.5505 349.231 9.81383 376.98 19.8259C413.9 33.0935 424.869 76.0747 430.378 112.255C436.273 150.786 442.168 189.317 448.052 228.081C451.319 248.528 453.99 270.811 442.505 288.657C428.009 311.248 396.656 317.843 368.52 320.635C256.706 332.306 -36.0029 329.816 55.8529 152.078C73.7317 117.298 110.829 91.6382 152.006 85.3006Z" fill="url(#paint0_linear_34_6)"/>
</g>
<g opacity="0.1" clip-path="url(#clip1_34_6)">
<path d="M134.247 92.6811C155.523 87.6441 178.206 87.6918 198.919 80.5744C226.874 71.1524 248.2 50.2729 271.396 33.067C294.85 16.0867 324.937 1.94434 353.387 9.74702C391.234 20.0754 405.544 62.0628 413.876 97.6991C422.777 135.649 431.679 173.598 440.588 211.78C445.45 231.908 449.862 253.912 439.814 272.604C427.136 296.264 396.398 305.3 368.568 310.292C258.015 330.705 -33.9861 351.201 43.6331 166.8C58.7264 130.725 93.6945 102.232 134.247 92.6811Z" fill="url(#paint1_linear_34_6)"/>
</g>
<path fill-rule="evenodd" clip-rule="evenodd" d="M325.875 101.186C325.875 101.186 340.087 79.5506 362.524 80.9731C379.8 82.0841 406.708 91.669 407.875 118.941C409.366 150.009 394.121 141.012 397.191 155.477C400.266 170.167 413.054 170.948 411.529 181.059C410.003 191.17 396.597 200.923 397.21 207.173C397.823 213.423 407.395 228.165 400.857 235.051C393.017 243.538 384.046 243.104 384.883 249.348C386.55 261.612 397.353 263.566 394.932 265.196C392.511 266.826 356.268 268.453 349.83 253.629C345.058 242.565 353.946 231.365 354.894 224.85C356.785 211.596 341.67 199.015 332.039 190.541C322.402 181.843 327.55 164.699 327.32 155.977C327.313 147.249 304.252 139.129 325.875 101.186Z" fill="#1D3542"/>
<path d="M361.552 86.5936C372.932 84.9507 397.99 92.3465 399.599 119.383C401.173 145.078 383.92 144.862 386.989 159.327C390.064 174.017 403.094 175.463 401.574 185.798C400.049 195.909 388.327 201.589 388.94 207.839C389.553 214.089 399.255 225.247 392.723 232.357C384.883 240.844 375.458 240.197 384.96 260.759" stroke="#01080A" stroke-width="0.625" stroke-miterlimit="10" stroke-linecap="round" stroke-linejoin="round"/>
<path d="M407.162 117.394C410.108 144.171 400.354 139.505 403.453 155.089C406.328 170.679 418.456 171.925 416.73 182.937C415.223 193.719 400.886 202.153 401.51 208.851C402.135 215.548 410.087 228.318 400.863 235.275" stroke="#01080A" stroke-width="0.625" stroke-miterlimit="10" stroke-linecap="round" stroke-linejoin="round"/>
<path d="M356.987 91.8604C368.367 90.2176 367.284 100.093 393.756 118.641C395.329 144.336 374.725 144.432 378.024 159.115C381.099 173.805 394.129 175.251 392.609 185.586C391.084 195.697 379.362 201.377 379.975 207.627C380.588 213.877 390.29 225.035 383.757 232.145C375.918 240.632 366.493 239.985 375.995 260.547" stroke="#01080A" stroke-width="0.625" stroke-miterlimit="10" stroke-linecap="round" stroke-linejoin="round"/>
<path d="M375.59 117.779C378.506 143.438 357.925 144.428 361.89 158.87C365.631 173.318 378.872 174.312 377.795 184.411C376.941 194.504 365.461 200.849 366.298 207.094C367.358 213.332 377.496 224.03 371.193 231.358C363.813 240.281 358.623 238.851 369.233 258.936" stroke="#01080A" stroke-width="0.625" stroke-miterlimit="10" stroke-linecap="round" stroke-linejoin="round"/>
<path d="M354.962 116.98C360.329 142.127 340.255 145.342 345.551 159.302C350.846 173.261 364.052 172.913 364.1 183.206C364.147 193.499 353.362 200.721 355.094 206.942C356.826 213.163 368.054 222.713 362.664 230.688C356.197 240.258 350.801 239.505 363.613 258.19" stroke="#01080A" stroke-width="0.625" stroke-miterlimit="10" stroke-linecap="round" stroke-linejoin="round"/>
<path d="M65.1213 295.377C65.1213 295.377 49.0174 304.753 48.128 305C44.1521 307.119 31.5646 313.941 17.8757 321.463C12.545 323.171 6.53102 324.448 7.26739 326.89C7.99786 329.109 29.3327 331.232 35.0227 326.159C37.4317 324.081 40.9482 321.526 43.8993 323.015C46.8504 324.504 54.4607 324.303 57.2821 320.872C59.8855 317.67 57.5764 315.046 59.2786 311.644C59.4966 311.414 74.9113 301.385 75.1292 301.155C77.9329 297.053 66.211 294.229 65.1213 295.377Z" fill="#F4A082"/>
<path d="M224.867 271.471C224.867 271.471 220.561 269.57 218.399 272.536C213.304 274.685 212.851 282.977 212.851 282.977C212.851 282.977 208.592 282.866 205.989 286.068C205.117 286.986 201.73 285.956 202.466 288.398C202.949 289.728 222.77 293.905 224.614 295.871C226.222 297.395 224.702 273.713 224.867 271.471Z" fill="#F4A082"/>
<path d="M212.629 155.645C209.507 156.175 204.642 158.541 201.567 160.86C166.526 174.093 139.473 226.95 124.501 245.248C122.115 248.22 116.637 252.841 114.04 256.266C107.755 264.265 82.7451 284.17 62.0174 296.578C61.5756 296.814 65.5931 304.764 68.7444 305.352C86.9454 299.054 121.881 290.3 139.569 264.545C145.4 256.334 178.426 234.651 197.711 218.477C201.469 216.587 211.936 222.801 211.642 228.628C215.271 247.331 219.796 308.531 226.023 315.304C232.249 322.078 236.52 322.636 239.806 319.864C249.566 316.25 257.304 252.936 252.567 217.701C254.205 211.84 258.346 207.478 258.045 204.577C258.045 204.577 211.598 159.029 212.629 155.645Z" fill="#1F5148"/>
<path d="M207.096 157.578C207.096 157.578 225.207 197.775 256.491 209.042" stroke="#1D4941" stroke-width="0.9375" stroke-miterlimit="10"/>
<path d="M204.203 159.12C204.203 159.12 219.851 203.229 255.261 211.09" stroke="#1D4941" stroke-width="0.9375" stroke-miterlimit="10"/>
<path d="M341.826 120.011C337.161 121.477 322.129 129.034 321.617 126.586C321.369 125.697 321.947 122.102 321.693 120.989C319.466 112.991 335.7 91.5267 329.45 92.3629C322.311 93.4463 269.97 121.682 265.988 123.577C263.78 124.754 247.311 137.273 233.433 146.144C227.266 150.111 218.166 153.26 211.521 156.121C224.31 182.415 256.537 206.854 258.045 204.576C262.557 197.296 274.019 181.776 288.774 180.715C291.024 181.103 308.029 180.431 312.011 178.536C315.993 176.64 339.148 188.338 338.818 175.815C338.488 163.291 327.125 148.596 329.764 146.736C332.403 144.877 339.477 141.333 346.734 136.218C353.778 131.557 346.491 118.545 341.826 120.011Z" fill="#F4A082"/>
<path opacity="0.6" d="M343.617 136.972C340.301 138.626 333.056 135.684 330.464 130.829C327.872 125.974 329.989 124.655 333.258 123.47C336.574 121.816 339.576 119.623 342.168 124.478C344.766 129.557 346.934 135.318 343.617 136.972Z" fill="#DB8C70"/>
<path d="M270.542 134.87C263.226 129.245 287.806 110.022 305.5 92.9944C315.113 83.7891 340.765 71.2516 362.83 67.0891C370.841 65.0875 405.534 55.6685 441.672 67.0242C441.672 67.0242 442.226 71.0379 438.167 70.0259C434.115 69.2376 379.152 74.4914 366.082 79.9834C359.208 82.6264 338.091 88.778 327.135 98.0187C316.18 107.259 307.227 133.008 290.051 127.195C272.421 121.169 268.333 136.048 270.542 134.87Z" fill="#F4A082"/>
<path d="M430.198 65.0889C437.284 61.9928 444.593 58.8907 448.186 59.2435C453.346 59.555 458.53 60.7611 462.182 63.3503C465.828 65.7159 473.109 69.9998 472.455 70.6884C471.801 71.3771 453.229 72.0906 453.229 72.0906C453.229 72.0906 446.944 71.5849 448.328 73.115C449.713 74.6451 456.846 73.338 456.94 76.9162C456.94 76.9162 451.114 76.846 448.87 76.6814C446.626 76.5168 432.925 75.0877 428.054 68.7262C428.277 68.7203 427.541 66.278 430.198 65.0889Z" fill="#F4A082"/>
<path d="M335.675 243.483C337.56 247.014 349.318 276.693 351.428 305.73C355.233 305.63 357.99 308.243 361.801 308.366C353.895 297.385 361.658 268.982 348.74 237.768C343.002 224.044 342.153 183.336 341.357 178.657C339.566 170.2 339.566 161.696 331.832 157.2C324.098 152.705 303.611 165.777 304.554 176.047C304.554 176.047 320.782 171.367 320.117 180.113C320.17 182.125 333.79 239.952 335.675 243.483Z" fill="#F4A082"/>
<path d="M375.814 313.145C375.814 313.145 365.241 311.409 363.421 310.338C361.595 309.044 358.001 300.187 357.966 298.845L352.352 298.321C348.265 304.695 350.639 309.78 347.811 312.988C346.504 314.365 343.659 316.902 345.02 317.537C347.058 318.379 348.836 317.884 350.58 316.048C352.323 314.212 354.95 311.904 356.123 313.888C357.071 315.877 358.461 317.63 361.159 318.007C363.857 318.383 384.897 317.828 384.638 316.493C384.155 315.163 375.814 313.145 375.814 313.145Z" fill="#F4A082"/>
<path d="M351.875 101.843C351.875 101.843 353.536 96.8758 349.33 98.777C340.477 102.815 341.979 108.818 341.997 109.489C342.021 110.383 351.875 101.843 351.875 101.843Z" fill="#F4A082"/>
<path d="M369.818 136.729C369.818 136.729 374.784 138.164 370.814 140.507C362.432 145.428 358.509 141.055 357.82 140.402C357.36 139.967 369.818 136.729 369.818 136.729Z" fill="#F4A082"/>
<path fill-rule="evenodd" clip-rule="evenodd" d="M360.498 97.5876C357.394 98.7885 353.4 100.237 349.872 102.344C332.201 111.761 332.991 124.721 337.486 133.778C343.188 146.16 363.05 143.398 372.068 137.118C377.787 133.163 380.191 130.861 383 126.983C389.173 114.735 382.611 120.727 360.498 97.5876Z" fill="#F4A082"/>
<path d="M236.52 144.273C247.989 145.984 272.422 172.195 270.202 189.934C270.202 189.934 286.324 181.228 287.673 181.416C288.568 181.393 289.469 181.593 290.141 181.575C306.817 185.387 315.611 179.113 318.391 174.116C321.171 169.12 328.18 163.116 331.243 160.35C334.312 157.807 334.695 155.335 334.695 155.335L332.427 154.276C332.427 154.276 319.563 167.595 317.071 166.542C314.585 165.713 296.826 154.767 294.74 152.137C292.879 149.5 298.963 125.394 303.18 123.94C307.398 122.486 319.243 121.502 322.406 122.538C323.314 122.961 323.225 119.607 322.33 119.631C321.205 119.436 301.708 119.055 288.878 116.708C285.05 115.914 287.023 114.295 280.308 114.472C273.163 115.332 236.508 143.825 236.52 144.273Z" fill="#FFD2B9"/>
<path d="M366.166 117.132C362.219 120.369 357.336 122.064 356.217 122.094C354.644 121.912 354.579 119.452 353.702 120.146C351.505 121.771 352.93 124.866 354.521 125.719" stroke="#EFAFA3" stroke-width="0.8625" stroke-miterlimit="10" stroke-linecap="round" stroke-linejoin="round"/>
<path opacity="0.69" d="M360.646 103.178C361.788 104.043 363.644 106.456 363.933 108.91" stroke="#682C1A" stroke-width="0.81875" stroke-miterlimit="10" stroke-linecap="round" stroke-linejoin="round"/>
<path d="M357.542 112.883C355.522 112.713 353.419 109.411 354.255 107.151" stroke="#49241B" stroke-width="0.625" stroke-miterlimit="10" stroke-linecap="round" stroke-linejoin="round"/>
<path d="M367.462 132.316C365.441 132.146 363.338 128.844 364.175 126.584" stroke="#49241B" stroke-width="0.625" stroke-miterlimit="10" stroke-linecap="round" stroke-linejoin="round"/>
<path opacity="0.69" d="M373.635 128.571C373.593 127.006 372.397 124.128 370.783 122.38" stroke="#682C1A" stroke-width="0.81875" stroke-miterlimit="10" stroke-linecap="round" stroke-linejoin="round"/>
<path d="M347.464 121.43C346.816 122.342 346.969 128.157 351.935 129.592" stroke="#BC4926" stroke-width="0.90625" stroke-miterlimit="10" stroke-linecap="round" stroke-linejoin="round"/>
<path opacity="0.24" fill-rule="evenodd" clip-rule="evenodd" d="M350.244 116.433C348.229 116.486 346.374 114.073 346.079 111.395C345.779 108.494 347.293 106.44 349.307 106.386C351.322 106.333 353.177 108.746 353.472 111.424C353.542 114.108 352.258 116.379 350.244 116.433Z" fill="#ED5851"/>
<path opacity="0.24" fill-rule="evenodd" clip-rule="evenodd" d="M357.577 131.232C356.729 133.045 357.695 135.705 359.981 137.435C362.261 138.942 364.947 138.871 365.795 137.058C366.643 135.245 365.677 132.585 363.391 130.855C361.112 129.349 358.426 129.42 357.577 131.232Z" fill="#ED5851"/>
<path opacity="0.6" d="M234.778 180.125C233.9 180.82 232.781 180.85 232.321 180.414C231.861 179.979 232.504 178.842 233.382 178.147C234.26 177.453 235.379 177.423 235.839 177.859C236.299 178.294 235.88 179.425 234.778 180.125Z" fill="#DB8C70"/>
<path d="M367.702 90.4595C374.205 90.7356 388.984 99.0738 394.274 112.81" stroke="#01080A" stroke-width="0.625" stroke-miterlimit="10" stroke-linecap="round" stroke-linejoin="round"/>
<path opacity="0.56" d="M379.514 321.186C379.544 322.375 302.566 325.305 207.504 327.692C112.443 330.078 35.4158 331.06 35.3847 329.824C35.3549 328.635 112.333 325.704 207.394 323.318C302.456 320.932 379.485 319.997 379.514 321.186Z" fill="black" fill-opacity="0.2"/>
<path opacity="0.5" d="M39.9097 66.4111C39.9163 67.1219 39.8823 67.8495 39.889 68.5603C39.8756 70.6113 39.9603 72.6696 40.045 74.7279C40.1296 76.7862 40.3125 78.8517 40.5767 80.8838C40.8241 82.8752 41.1697 84.8738 41.4579 86.8485C41.9607 89.9242 42.3247 93.0094 42.9089 96.0517C43.09 97.0714 43.2545 98.0504 43.4596 99.0126C43.6291 99.6565 43.9374 100.291 44.1882 100.901C44.2718 101.105 44.4201 101.234 44.5684 101.364C44.7741 101.517 45.1332 101.465 45.2291 101.235C45.2843 101.022 45.3969 100.833 45.3947 100.596C45.3997 100.261 45.364 99.9426 45.3283 99.6242C44.8138 96.1727 44.3401 92.7045 43.8256 89.253C43.466 86.6417 43.2453 84.0209 43.2041 81.3739C43.1657 78.1549 43.1848 74.9599 43.3593 71.7961C43.4296 70.578 43.4425 69.3359 43.472 68.1344C43.5568 66.7201 43.5842 65.2817 43.6689 63.8674C43.7738 61.1128 44.1898 58.4206 44.6632 55.7524C44.7256 55.4414 44.7881 55.1303 44.7691 54.8526C44.8344 53.9696 44.2222 53.1746 43.3799 53.0926C42.5208 52.9699 41.7977 53.4098 41.4788 54.2544C41.3422 54.5008 41.3204 54.7951 41.258 55.1062C40.9073 56.9153 40.3436 58.6692 39.6651 60.3751C39.0657 61.8106 38.4904 63.1888 37.8743 64.5836C37.7544 64.8707 37.5939 65.1745 37.4333 65.4784C36.4699 67.3014 35.6788 69.1963 34.945 71.1152C34.6981 71.7875 34.5659 72.5078 34.5319 73.2353C34.4689 74.3554 34.7002 75.4971 35.2571 76.5051C35.3742 76.79 35.5559 77.0007 35.8191 77.178C35.9673 77.3073 36.245 77.2884 36.3911 77.1808C36.5371 77.0732 36.6258 76.9416 36.5996 76.7621C36.5806 76.4845 36.5042 76.1829 36.4446 75.922C36.1965 74.7395 36.1854 73.5548 36.5835 72.4398C36.9504 71.4804 37.3339 70.5616 37.8156 69.6502C38.3765 68.4683 39.0115 67.3511 39.6298 66.1931C39.6538 66.1357 39.7352 66.1023 39.8166 66.0688C39.8668 66.1909 39.9169 66.313 39.9097 66.4111ZM92.9864 81.0866C93.3527 80.936 93.6783 80.8023 94.0446 80.6517C95.8186 79.8752 97.6594 79.2614 99.2756 78.2167C99.3163 78.2 99.357 78.1833 99.3977 78.1665C100.755 77.4184 102.015 76.663 103.157 75.6228C103.643 75.1851 104.17 74.7308 104.639 74.2525C104.874 74.0133 105.109 73.7741 105.286 73.511C105.48 73.2886 105.559 73.0182 105.605 72.6664C105.687 71.824 104.785 71.4811 104.232 71.756C104.028 71.8396 103.882 71.9472 103.696 72.0715C103.071 72.5186 102.446 72.9657 101.845 73.3554C101.081 73.812 100.267 74.1464 99.5534 74.7251C99.0265 75.1794 98.4255 75.5691 97.858 76.0402C96.3254 77.2884 94.635 78.2684 92.8538 79.1431C91.4628 79.8099 90.122 80.5987 88.6569 81.2007C88.5348 81.2509 88.4534 81.2844 88.348 81.3752C87.8764 81.6166 87.4454 81.8413 87.0145 82.0659C86.6649 82.2572 86.3154 82.4484 86.0065 82.6229C85.6163 82.8308 85.2667 83.022 84.8765 83.2299C84.6083 83.3877 84.2827 83.5215 84.0146 83.6793C83.0066 84.2362 82.0393 84.7764 81.0481 85.374C79.8126 86.072 78.5939 86.8106 77.5163 87.7767C77.3869 87.925 77.2001 88.0493 77.0134 88.1737C77.0134 88.1737 76.932 88.2071 76.9153 88.1664C76.8578 88.1424 76.7837 88.0778 76.767 88.0371C76.7792 87.6039 76.8322 87.154 76.8612 86.7615C76.922 85.4046 77.0809 84.0549 77.101 82.7146C77.1574 80.8838 77.197 79.0123 77.1145 77.1909C77.0226 75.2308 76.9474 73.3113 76.8315 71.4086C76.4564 67.1387 76.0813 62.8688 76.0245 58.5632C75.9978 55.72 76.0118 52.86 76.3035 49.9811C76.3637 49.4331 76.4072 48.8444 76.4914 48.2389C76.4964 47.9039 76.5589 47.5928 76.5232 47.2745C76.5377 47.0782 76.4708 46.9154 76.4039 46.7526C76.3275 46.451 75.9256 46.2832 75.5833 46.3763C75.3391 46.4767 75.1116 46.6177 75.0157 46.8474C74.8552 47.1512 74.7353 47.4383 74.6321 47.7661C74.1331 49.4459 73.8304 51.1401 73.6832 52.8655C73.4495 54.9595 73.3547 57.044 73.358 59.1357C73.3362 62.9027 73.3957 66.6363 73.5941 70.3604C73.6794 71.6097 73.7239 72.8758 73.7685 74.1419C73.8343 75.9226 73.876 77.7606 73.9011 79.558C73.9852 82.4252 74.0453 85.3499 74.1462 88.2578C74.1478 89.3036 74.1902 90.3328 74.2492 91.4026C74.2275 91.697 74.2464 91.9746 74.3635 92.2595C74.4566 92.6018 74.7365 92.8198 75.0882 92.8655C75.3993 92.928 75.6842 92.8109 75.8448 92.5071C75.9814 92.2607 76.1012 91.9735 76.1804 91.7032C76.569 90.4494 77.2542 89.4542 78.2265 88.579C78.4779 88.3805 78.7126 88.1414 79.0048 87.9262C80.5875 86.8001 82.2372 85.8367 83.9945 85.0195C84.7677 84.7017 85.541 84.384 86.2975 84.0255C86.6231 83.8917 86.9654 83.7986 87.2168 83.6002C87.8585 83.1938 88.5504 82.9095 89.2422 82.6252C90.5039 82.1067 91.7655 81.5883 92.9864 81.0866ZM89.2675 76.5258C89.8433 77.8114 90.7113 78.8818 91.8308 79.7538C92.4813 80.2951 93.2111 80.5661 94.0368 80.6074C94.7069 80.6174 95.401 80.5701 96.0019 80.1804C96.5455 79.7667 97.1131 79.2957 97.549 78.7359C98.2916 77.7648 98.9027 76.705 99.3989 75.5973C99.9598 74.4154 100.308 73.1783 100.696 71.9245C101.306 69.8188 101.76 67.682 102.058 65.5139C102.226 64.303 102.395 63.0921 102.465 61.874C102.528 60.7539 102.534 59.61 102.498 58.4827C102.35 54.8807 101.819 51.3885 100.309 48.0608C100.275 47.9794 100.225 47.8573 100.175 47.7352C99.6064 46.3515 98.7696 45.1255 97.8275 43.9904C96.9762 42.9607 95.8902 42.1701 94.5383 41.7743C93.2678 41.345 92.0017 41.3896 90.7902 42.0301C89.969 42.4627 89.2554 43.0414 88.6828 43.8475C87.5617 45.4023 87.0961 47.1635 87.0565 49.035C86.9762 50.9232 87.3123 52.783 87.9093 54.5832C88.0359 55.0069 88.105 55.4066 87.9946 55.8326C87.9394 56.0455 87.9249 56.2418 87.8697 56.4547C87.3774 58.8453 87.0813 61.2503 86.9001 63.7033C86.8008 65.3139 86.8571 66.9557 87.0114 68.6048C87.2684 70.735 87.6067 72.8318 88.565 74.8165C88.7992 75.3863 89.0333 75.9561 89.2675 76.5258ZM89.8802 49.5396L89.9282 49.4247C89.5056 47.9334 89.7866 46.5335 90.4768 45.2034C91.0137 44.0789 92.005 43.4813 93.1635 43.2907C93.9797 43.1931 94.7574 43.3492 95.4319 43.8332C96.1639 44.3411 96.8312 44.9231 97.3692 45.6534C98.0889 46.5945 98.7272 47.569 99.1381 48.6846C99.1715 48.766 99.205 48.8474 99.2384 48.9288C100.414 51.4426 100.987 54.1091 101.2 56.828C101.402 59.1712 101.407 61.4999 101.095 63.8642C100.89 65.5657 100.645 67.2839 100.244 68.9709C99.8522 70.7967 99.3053 72.5912 98.5454 74.3306C98.1378 75.3068 97.6154 76.235 97.0189 77.0986C96.7123 77.51 96.3889 77.8807 95.9914 78.1868C95.6825 78.3613 95.3737 78.5357 95.0888 78.6528C94.5837 78.8128 94.0764 78.7359 93.665 78.4292C92.9162 77.8806 92.419 77.1336 92.0438 76.3363C91.6184 75.417 91.2578 74.4235 90.9785 73.3966C90.5297 71.7258 90.3012 70.012 90.1708 68.3055C89.9763 65.8642 90.0761 63.4447 90.3555 60.999C90.37 60.8027 90.4252 60.5898 90.4804 60.3768C90.5044 60.3194 90.5283 60.262 90.5763 60.1471C90.6984 60.0969 90.7892 60.2023 90.8634 60.267C91.2196 60.7866 91.6165 61.2894 91.9728 61.809C92.8096 63.035 93.7038 64.2849 94.7273 65.3866C95.0573 65.7267 95.3874 66.0667 95.7414 66.3494C95.9064 66.5194 96.1361 66.6153 96.3657 66.7112C96.5954 66.8071 96.8731 66.7882 97.1173 66.6878C97.5242 66.5206 97.7902 66.1259 97.7043 65.6855C97.5611 65.2211 97.3938 64.8141 97.1045 64.4573C96.6072 63.7102 96.086 63.0206 95.5887 62.2735C94.6276 60.8608 93.6258 59.4648 92.7701 57.9612C92.1892 57.0107 91.8525 55.9598 91.4104 54.9997C91.2934 54.7149 91.3151 54.4205 91.3776 54.1094C91.498 53.0134 91.6352 51.958 91.7556 50.862C91.7846 50.4695 91.7802 49.9957 91.7517 49.5792C91.7044 48.8851 90.8118 48.681 90.4071 49.0852C90.261 49.1928 90.0742 49.3171 89.9282 49.4247L89.8802 49.5396ZM125.554 25.1759C125.32 24.6062 125.069 23.9957 124.835 23.4259C124.66 23.1171 124.567 22.7748 124.368 22.5233C124.227 22.2959 124.029 22.0444 123.766 21.8671C123.56 21.7138 123.249 21.6514 122.94 21.8259C122.655 21.9429 122.552 22.2707 122.571 22.5484C122.573 22.7853 122.633 23.0462 122.733 23.2904C123.178 24.4874 123.435 25.8086 123.92 26.9889C124.004 27.1924 124.047 27.4126 124.09 27.6328C124.166 27.9344 124.3 28.26 124.376 28.5616C124.519 29.026 124.605 29.4664 124.749 29.9308C125.035 30.8596 125.118 31.872 125.299 32.8917C125.9 35.9747 126.101 39.1268 125.927 42.2906C125.746 44.7436 125.392 47.1246 124.842 49.4912C124.34 51.7429 123.609 53.8988 122.803 55.9899C121.981 58.0404 120.97 59.9782 119.942 61.8754C119.371 62.9184 118.743 63.9375 117.967 64.8273C117.749 65.1071 117.491 65.4037 117.215 65.6596C117.069 65.7672 116.882 65.8915 116.679 65.9751C116.37 66.1496 116.05 65.9483 116.014 65.63C115.988 65.4505 115.985 65.2136 116 65.0173C116.104 63.0717 116.225 61.1667 116.33 59.221C116.414 57.8066 116.442 56.3683 116.526 54.9539C116.542 53.9488 116.597 52.9269 116.572 51.9384C116.564 49.3728 116.556 46.8072 116.508 44.2583C116.481 41.4151 116.43 38.6293 116.126 35.805C116.09 35.4866 116.038 35.1276 116.002 34.8093C115.933 34.4095 115.522 34.1029 115.113 34.0332C114.72 34.0042 114.33 34.2122 114.186 34.5567C114.042 34.9012 113.922 35.1883 113.877 35.5401C113.761 36.3011 113.622 37.1195 113.564 37.9044C113.423 40.3407 113.323 42.7603 113.183 45.1965C113.176 45.2946 113.168 45.3928 113.144 45.4502C113.1 47.6568 113.031 49.9208 112.986 52.1273C112.925 54.2932 112.847 56.4184 112.867 58.5508C112.92 60.7646 113.031 63.0024 113.599 65.1951C113.802 65.9204 114.135 66.4974 114.606 67.065C115.06 67.5918 115.756 67.7814 116.424 67.5545C116.913 67.3538 117.343 67.1292 117.691 66.701C118.079 66.2561 118.548 65.7778 118.903 65.2515C119.516 64.4287 120.055 63.5412 120.635 62.6369C121.304 61.6011 121.939 60.4839 122.475 59.3594C123.142 58.0867 123.825 56.8546 124.376 55.5339C124.927 54.2132 125.462 52.8518 125.915 51.5239C126.393 50.1385 126.846 48.8105 127.184 47.4346C127.957 44.4532 128.517 41.4165 128.545 38.3603C128.544 36.5055 128.404 34.6602 128.028 32.8171C127.849 32.0343 127.694 31.1942 127.376 30.4209C127.041 29.607 126.707 28.793 126.535 27.9122C126.5 27.5938 126.342 27.3257 126.242 27.0815C126.015 26.4136 125.723 25.8198 125.472 25.2094C125.513 25.1927 125.513 25.1927 125.554 25.1759ZM142.793 36.8343C141.342 38.049 140.113 39.4578 139.14 41.142C137.935 43.3022 137.369 45.6281 137.458 48.1603C137.536 49.5077 137.915 50.7789 138.515 52.007C139.364 53.6087 140.825 54.3876 142.549 54.2979C143.619 54.2388 144.629 53.9188 145.539 53.3547C146.618 52.6255 147.682 51.8556 148.58 50.9157C149.056 50.3392 149.607 49.8275 150.067 49.2103C150.575 48.4784 151.1 47.7871 151.608 47.0551C152.559 45.6653 153.527 44.3161 154.461 42.8856C154.751 42.4335 154.967 41.9167 155.199 41.4406C155.271 41.2683 155.262 41.1295 155.235 40.95C155.243 40.8519 155.111 40.7632 155.037 40.6986C154.963 40.6339 154.824 40.6434 154.8 40.7008C154.63 40.8658 154.419 41.0476 154.266 41.2533C153.492 42.3799 152.678 43.5234 151.904 44.65C150.598 46.5661 149.087 48.3289 147.41 49.9216C146.333 50.8878 145.188 51.6911 143.811 52.1616C143.266 52.3383 142.751 52.3595 142.186 52.2586C141.777 52.1889 141.497 51.9709 141.265 51.638C141.1 51.468 141.033 51.3052 140.95 51.1017C140.575 50.3045 140.322 49.4571 140.289 48.5668C140.17 47.236 140.248 45.9198 140.694 44.6899C141.37 42.7471 142.218 40.8761 143.445 39.2304C144.341 38.0535 145.304 37.0395 146.58 36.3248C146.702 36.2746 146.824 36.2245 146.929 36.1336C147.035 36.0427 147.107 35.8704 147.08 35.6909C147.095 35.4947 146.897 35.2433 146.7 35.2288C146.463 35.231 146.21 35.1925 145.973 35.1947C145.736 35.197 145.475 35.2566 145.205 35.1774C144.468 35.0046 143.85 34.5446 143.468 33.8455C143.011 33.0817 142.677 32.2678 142.546 31.3702C142.344 29.836 142.46 28.2661 142.829 26.7346C143.192 25.3013 143.693 23.8585 144.366 22.4876C145.064 21.0593 146.008 19.7676 147.322 18.7993C148.141 18.1298 149.037 17.7618 150.023 17.4993C150.985 17.2941 151.796 17.5317 152.432 18.2692C152.779 18.65 153.085 19.0475 153.269 19.4952C153.785 20.5199 154.057 21.6449 154.231 22.7627C154.257 22.9422 154.3 23.1624 154.384 23.3659C154.417 23.4473 154.549 23.536 154.664 23.5839C154.779 23.6319 155.023 23.5315 155.071 23.4167C155.119 23.3018 155.207 23.1703 155.215 23.0722C155.284 22.663 155.33 22.3112 155.318 21.9354C155.269 21.0044 155.121 20.0661 154.77 19.2115C154.376 18.1366 153.754 17.2028 152.864 16.4267C151.884 15.5453 150.687 15.1807 149.397 15.2826C148.246 15.3752 147.171 15.7693 146.163 16.3262C144.269 17.3899 142.871 18.9637 141.792 20.7387C141.093 21.9301 140.532 23.1119 140.177 24.4471C139.529 26.8065 139.355 29.1613 139.851 31.5263C140.218 33.2305 141.129 34.5212 142.536 35.513C142.758 35.707 143.005 35.8436 143.268 36.0209C143.342 36.0856 143.351 36.2244 143.402 36.3465C143.191 36.5282 143.021 36.6932 142.793 36.8343Z" fill="black"/>
<path opacity="0.5" d="M46.4316 97.9366L46.7019 98.723L45.5502 99.1962L45.6854 99.5894L46.0693 99.4316L53.228 96.0412L54.7636 95.4102L54.8988 95.8033L54.4239 96.8959L54.943 97.1313L55.2359 97.9084C55.7351 99.2517 55.6366 100.19 54.9404 100.722L55.775 101.725L55.7966 103.063L55.2775 102.827L54.8936 102.985C51.3849 104.638 49.6911 105.633 49.8121 105.97L49.2705 105.744C45.1742 108.237 43.4795 110.429 44.1864 112.321L45.3355 115.438L54.2559 110.875L54.7976 111.101L54.9327 111.494L53.0133 112.283L53.1484 112.676C54.4281 112.151 55.158 112.15 55.3382 112.674L55.496 113.058C55.9767 114.356 55.9611 115.11 55.4492 115.321L53.1459 116.267L53.2811 116.66L55.9683 115.556L56.2612 116.333C56.4256 116.776 53.5569 119.002 47.6553 123.011L48.8486 127.456L49.3903 127.682L49.548 128.066L49.2993 128.617L49.4345 129.01L50.2465 130.023L49.8626 130.18L50.6746 131.193C51.2103 132.24 51.1312 134.595 50.4371 138.259L47.2083 139.137L46.1501 135.085C45.1716 135.487 44.4874 135.213 44.0977 134.265L44.0513 134.152C44.1767 133.344 42.9854 129.118 40.4775 121.473L41.2453 121.157L40.7262 120.922L39.961 117.647L40.4801 117.882L40.864 117.724L39.8284 113.663L39.2651 112.099C37.9855 112.625 37.2405 112.632 37.0302 112.12L37.3699 110.635C36.3462 111.055 35.6991 110.873 35.4288 110.086C34.5576 107.752 34.5058 106.427 35.2736 106.112C36.5532 105.586 36.9527 104.674 36.472 103.375L36.8559 103.218L37.375 103.453L37.8724 102.351L39.0241 101.878L40.6039 102.575L46.4316 97.9366ZM48.2817 99.4199L48.4168 99.8131L49.5685 99.3399L53.6561 97.2114L53.4984 96.8275L51.195 97.774L48.2817 99.4199ZM46.4039 105.127L46.5616 105.511L46.9455 105.354L54.3078 101.431L54.1726 101.038L52.8858 101.118L52.6371 101.669L52.2532 101.826L51.7341 101.591L46.4039 105.127ZM42.5296 124.668L44.1068 128.956L44.4907 128.798L42.9135 124.51L42.5296 124.668ZM47.5947 135.388L48.158 136.952L48.5419 136.794L47.9786 135.231L47.5947 135.388ZM62.5605 92.8661C62.8158 93.6586 63.4553 93.8445 64.479 93.4238L65.81 94.6717L65.5613 95.2227L65.9452 95.0649C66.3356 101.239 67.7907 107.97 70.3104 115.258L71.1214 117.617L71.663 117.843L71.7982 118.236L71.5495 118.787L71.9334 118.63L71.6847 119.181L73.0147 121.775L73.2851 122.561C72.5956 124.78 72.4064 126.354 72.7173 127.282L71.1818 127.913L69.0146 127.906L68.4523 124.996L66.3534 124.064L64.6872 118.018L62.2315 110.95L62.5938 109.455L62.0531 107.882L61.5341 107.647L61.3989 107.254L62.1667 106.938L62.0315 106.545L61.5124 106.309L60.0733 98.3753L59.6894 98.533L59.9381 97.9821L59.1045 95.6324L58.5854 95.397L58.4503 95.0038L62.5605 92.8661ZM61.1546 101.521L62.1234 104.264L62.5073 104.106L61.5385 101.363L61.1546 101.521ZM62.145 105.601L62.9561 107.96L63.34 107.802L62.5289 105.443L62.145 105.601ZM62.9777 109.297L63.8113 111.647L64.1952 111.489L63.3616 109.139L62.9777 109.297ZM69.22 124.681L69.8959 126.646L70.3707 125.554L69.9878 124.365L69.22 124.681ZM87.8474 81.4982L89.1569 81.4089L89.4724 82.1766L88.3207 82.6499L89.5617 83.4861C89.5306 84.9946 87.7461 86.4758 84.2082 87.9296L81.6788 89.4177L81.7681 90.7271L82.152 90.5694C82.1328 92.7065 83.9626 101.527 87.6415 117.031L90.844 121.549L90.4601 121.706C89.888 121.942 88.8503 120.872 87.347 118.499L86.1533 114.502L85.9956 114.118L85.6117 114.276L85.9272 115.044C85.1594 115.359 84.8807 115.773 85.091 116.285L85.2488 116.668L88.5406 122.495L88.6984 122.879L87.9306 123.195L85.9218 122.674L85.6956 123.216L85.3117 123.373C83.3786 121.581 82.078 119.872 81.4099 118.246L81.9515 118.472L82.3354 118.314L80.4634 115.943L81.4573 115.086L80.6685 113.166L79.9008 113.482L79.743 113.098C80.5108 112.782 80.7895 112.368 80.5792 111.857L80.4214 111.473L79.6536 111.788C78.8123 109.741 78.7755 108.559 79.5433 108.244L77.4925 103.253C77.7505 102.725 77.1581 99.8274 75.7153 94.5606L73.1858 96.0488L67.6536 97.8734L67.4958 97.4895L69.2575 96.3169L69.4153 96.7008L69.6414 96.1591L75.3998 93.7928L74.9265 92.6412L69.0998 95.933L68.5581 95.7068L68.1742 95.8646L66.0286 97.195L64.5615 96.9005L64.1566 94.8233L63.615 94.5971C63.0891 93.3175 64.3618 92.0467 67.4329 90.7847L87.8474 81.4982ZM86.0173 83.5964L86.1751 83.9803L87.7107 83.3493L87.5529 82.9654L86.0173 83.5964ZM80.6476 110.931L83.3503 119.692L84.1181 119.377L82.9455 117.615L82.63 116.847L82.9245 115.38L82.5406 115.538L82.7667 114.996L82.609 114.612L82.0673 114.386L81.9096 114.002L82.0463 112.151L81.0314 110.773L80.6476 110.931ZM93.358 80.2632L96.9917 81.4623C96.6762 80.6945 96.7744 80.2054 97.2862 79.9951L97.6701 79.8373L108.724 91.4488L109.039 92.2166L108.655 92.3744L106.941 90.3865L106.557 90.5443L106.873 91.3121L112.242 96.7339L112.626 96.5762C110.915 89.5014 109.535 81.9475 108.487 73.9144L109.954 74.2089L110.948 73.3518L113.724 73.5569L113.882 73.9408C113.114 74.2563 112.941 74.9259 113.361 75.9497L113.745 75.7919L114.287 76.018L114.671 75.8603L114.266 73.7831L115.034 73.4676L115.191 73.8515L114.965 74.3931L115.507 74.6192L115.665 75.0031C116.169 81.7114 117.924 90.9061 120.929 102.587L120.161 102.903L118.405 96.4448C117.893 96.6552 118.124 99.402 119.099 104.685C118.466 105.843 117.728 106.595 116.885 106.941L117.2 107.709L116.816 107.867C116.606 107.355 115.989 107.309 114.965 107.73L113.861 105.043C113.385 103.884 108.196 98.5371 98.2957 89.0033L97.9118 89.161C98.7626 94.1432 100.391 100.654 102.797 108.692L102.255 108.466C100.905 109.549 100.4 110.504 100.74 111.332L99.9727 111.647C99.0649 110.894 98.1254 109.336 97.1541 106.972L96.7703 107.13L98.19 110.585L97.4222 110.901L96.2496 109.139C93.3915 102.184 91.4565 93.1071 90.4446 81.9091L93.358 80.2632ZM91.9273 92.069L92.0851 92.4529L92.6267 92.679L92.4006 93.2206L92.7161 93.9884L93.1 93.8307L92.8529 92.1374L92.3112 91.9112L91.9273 92.069ZM109.039 92.2166C109.702 91.9444 110.634 92.7578 111.837 94.6567L111.995 95.0406L111.611 95.1984L109.039 92.2166ZM135.715 62.6462L138.096 63.1725C138.488 65.6684 137.958 67.162 136.505 67.6532L126.665 72.2249L126.935 73.0113L128.888 72.3673L131.121 71.1857L131.658 71.4663L132.052 71.3311L134.669 69.9917L135.464 69.744L135.599 70.1371L127.06 74.7284L128.401 79.9841L128.795 79.8489L138.884 74.7262L139.39 74.9935L139.525 75.3867L138.729 75.6344L138.887 76.0183L141.77 75.5197L141.906 75.9129C141.936 77.572 138.739 80.2406 132.315 83.9189L128.509 85.6412L129.028 85.8766L129.181 91.5152L128.797 91.673L127.603 88.1252L127.21 88.2603L128.654 93.8958C135.897 89.7233 141.142 87.0928 144.39 86.0044L146.477 85.7536L146.77 86.5307L145.984 86.801L146.49 87.0683L146.895 88.2478C146.553 89.5144 145.155 90.5643 142.699 91.3974L142.834 91.7905L145.989 90.7317L146.237 91.5274L129.451 101.487L129.058 101.622C127.712 101.858 126.931 101.713 126.714 101.186L126.687 101.118L126.281 99.939L125.635 95.3478L125.107 95.0898L125.884 94.7969L126.537 96.772L126.939 96.6594C126.564 95.3179 126.612 94.577 127.082 94.4365L126.544 94.156L125.247 90.2283L124.451 90.476L124.711 92.5863L124.992 92.0487L125.385 91.9135L126.174 94.2818L125.771 94.3944L125.375 93.2375L124.982 93.3727L125.252 94.159L124.859 94.2942L124.589 93.5078L123.145 86.5258L122.752 86.661L122.871 84.4473L122.343 84.1893L122.208 83.7962L120.38 76.9719L120.908 77.2299L121.302 77.0947L121.031 76.3084L119.985 74.4684L119.184 70.7854L118.779 69.6059L119.181 69.4933L119.709 69.7513L119.967 69.223L120.37 69.1104L120.889 69.3458L121.147 68.8175L122.336 68.4345L135.715 62.6462ZM123.393 87.3214L124.316 90.0829L124.709 89.9477L123.795 87.2088L123.393 87.3214ZM136.265 82.6124L136.649 82.4546L136.762 82.8571L130.094 86.4152L129.556 86.1346L129.43 85.764L132.843 84.1769L132.978 84.5701L136.265 82.6124ZM149.777 56.2077C150.665 56.4412 152.923 55.8125 156.551 54.3216L156.686 54.7147L153.999 55.819L154.134 56.2122C157.341 54.8945 159.659 54.8395 161.087 56.0472L161.358 56.8335L159.438 57.6223L159.573 58.0154L162.396 57.3043L162.531 57.6975L160.228 58.644L160.363 59.0372C161.131 58.7217 161.605 58.826 161.785 59.3503C157.223 61.2247 153.835 64.5617 151.619 69.3611L151.754 69.7542C157.251 69.0437 162.383 70.3753 167.148 73.7491L167.283 74.1422C167.71 77.8378 166.36 81.9822 163.233 86.5756L161.042 87.9246L161.177 88.3177L161.945 88.0022C162.2 88.7071 160.167 90.44 155.846 93.2008L155.576 92.4145L157.495 91.6257L157.383 91.2232C155.742 91.8976 153.891 91.6112 151.83 90.3641C150.444 90.2471 149.411 89.3606 148.731 87.7046C148.669 87.5541 148.612 87.3929 148.559 87.2212L149.44 85.9616L150.862 86.2746L151.63 85.9591C158.392 81.8606 161.171 78.0261 159.968 74.4557C156.311 74.1636 153.993 74.2186 153.015 74.6208L153.15 75.0139L148.748 75.028L149.267 75.2635L149.56 76.0405C145.403 75.0035 143.109 73.8523 142.677 72.5869L143.472 65.9783L144.85 63.6168L145.121 64.4032L149.777 56.2077ZM148.797 68.7256L148.933 69.1188L153.972 62.1121L156.773 60.0638L156.502 59.2774L155.735 59.5929C152.304 62.7625 149.991 65.8068 148.797 68.7256ZM157.388 83.5928L157.772 83.4351L158.269 82.3332L157.885 82.491L157.388 83.5928ZM164.298 80.7533L163.438 83.3502L163.822 83.1924L164.682 80.5955L164.298 80.7533ZM160.75 85.801L160.908 86.1849L161.292 86.0271L162.422 84.2166L160.75 85.801ZM157.496 90.2792L157.631 90.6723L159.167 90.0413L160.951 88.8594L160.793 88.4755L160.41 88.6332L157.496 90.2792ZM172.043 47.0581C172.931 47.2916 175.189 46.6628 178.817 45.1719L178.952 45.5651L176.265 46.6694L176.4 47.0625C179.606 45.7448 181.924 45.6898 183.353 46.8975L183.623 47.6838L181.704 48.4726L181.839 48.8658L184.662 48.1547L184.797 48.5478L182.493 49.4944L182.629 49.8875C183.396 49.572 183.87 49.6764 184.051 50.2006C179.489 52.0751 176.1 55.412 173.885 60.2114L174.02 60.6046C179.517 59.8941 184.648 61.2257 189.413 64.5994L189.548 64.9926C189.976 68.6881 188.626 72.8326 185.499 77.426L183.308 78.7749L183.443 79.1681L184.211 78.8526C184.465 79.5575 182.432 81.2903 178.112 84.0511L177.841 83.2648L179.761 82.476L179.648 82.0736C178.007 82.7479 176.156 82.4615 174.095 81.2144C172.71 81.0975 171.677 80.211 170.996 78.555C170.935 78.4045 170.877 78.2433 170.824 78.0715L171.706 76.8119L173.128 77.125L173.895 76.8095C180.658 72.7109 183.437 68.8765 182.234 65.3061C178.577 65.014 176.259 65.069 175.28 65.4711L175.416 65.8643L171.013 65.8784L171.533 66.1138L171.825 66.8909C167.669 65.8539 165.375 64.7027 164.943 63.4373L165.737 56.8286L167.116 54.4672L167.386 55.2535L172.043 47.0581ZM171.063 59.576L171.198 59.9692L176.238 52.9625L179.038 50.9141L178.768 50.1278L178 50.4433C174.569 53.6129 172.257 56.6571 171.063 59.576ZM179.654 74.4432L180.038 74.2854L180.535 73.1836L180.151 73.3414L179.654 74.4432ZM186.564 71.6037L185.704 74.2005L186.088 74.0428L186.948 71.4459L186.564 71.6037ZM183.016 76.6513L183.174 77.0352L183.557 76.8775L184.687 75.0669L183.016 76.6513ZM179.762 81.1295L179.897 81.5227L181.433 80.8917L183.217 79.7097L183.059 79.3258L182.675 79.4836L179.762 81.1295Z" fill="black"/>
<defs>
<linearGradient id="paint0_linear_34_6" x1="41.0101" y1="156.878" x2="454.904" y2="177.542" gradientUnits="userSpaceOnUse">
<stop stop-color="#1A7F54"/>
<stop offset="1" stop-color="#7ADBAE"/>
</linearGradient>
<linearGradient id="paint1_linear_34_6" x1="29.2129" y1="172.751" x2="443.452" y2="160.859" gradientUnits="userSpaceOnUse">
<stop stop-color="#1A7F72"/>
<stop offset="1" stop-color="#7ADBAE"/>
</linearGradient>
<clipPath id="clip0_34_6">
<rect width="312.5" height="414.646" fill="white" transform="matrix(-0.0498641 0.998756 0.998756 0.0498641 48.7728 0.874512)"/>
</clipPath>
<clipPath id="clip1_34_6">
<rect width="312.5" height="414.646" fill="white" transform="matrix(0.0286964 0.999588 0.999588 -0.0286964 24.705 16.6206)"/>
</clipPath>
</defs>
</svg>
