<svg width="35" height="35" viewBox="0 0 35 35" fill="none" xmlns="http://www.w3.org/2000/svg">
<g clip-path="url(#clip0_34_38)">
<path d="M20.9772 17.6882C20.9772 19.5052 19.5043 20.978 17.6874 20.978C15.8704 20.978 14.3976 19.5052 14.3976 17.6882C14.3976 15.8713 15.8704 14.3984 17.6874 14.3984C19.5043 14.3984 20.9772 15.8713 20.9772 17.6882Z" fill="black"/>
<path d="M25.381 11.8671C25.2229 11.4385 24.9706 11.0507 24.6427 10.7323C24.3244 10.4044 23.9367 10.1521 23.5079 9.994C23.1602 9.85894 22.6378 9.69817 21.6755 9.65438C20.6346 9.60691 20.3225 9.59668 17.6873 9.59668C15.0519 9.59668 14.7398 9.60665 13.6991 9.65411C12.7369 9.69817 12.2142 9.85894 11.8667 9.994C11.4379 10.1521 11.05 10.4044 10.7319 10.7323C10.4041 11.0507 10.1518 11.4383 9.99339 11.8671C9.85833 12.2148 9.69756 12.7375 9.65377 13.6997C9.6063 14.7404 9.59607 15.0525 9.59607 17.6879C9.59607 20.3231 9.6063 20.6352 9.65377 21.6761C9.69756 22.6384 9.85833 23.1608 9.99339 23.5085C10.1518 23.9373 10.4038 24.325 10.7317 24.6433C11.05 24.9712 11.4377 25.2235 11.8665 25.3816C12.2142 25.5169 12.7369 25.6777 13.6991 25.7215C14.7398 25.769 15.0516 25.7789 17.6871 25.7789C20.3228 25.7789 20.6349 25.769 21.6753 25.7215C22.6375 25.6777 23.1602 25.5169 23.5079 25.3816C24.3687 25.0496 25.049 24.3693 25.381 23.5085C25.5161 23.1608 25.6768 22.6384 25.7209 21.6761C25.7684 20.6352 25.7783 20.3231 25.7783 17.6879C25.7783 15.0525 25.7684 14.7404 25.7209 13.6997C25.6771 12.7375 25.5163 12.2148 25.381 11.8671ZM17.6873 22.7556C14.8882 22.7556 12.6191 20.4868 12.6191 17.6877C12.6191 14.8886 14.8882 12.6198 17.6873 12.6198C20.4862 12.6198 22.7552 14.8886 22.7552 17.6877C22.7552 20.4868 20.4862 22.7556 17.6873 22.7556ZM22.9556 13.6038C22.3015 13.6038 21.7712 13.0735 21.7712 12.4194C21.7712 11.7653 22.3015 11.235 22.9556 11.235C23.6097 11.235 24.14 11.7653 24.14 12.4194C24.1397 13.0735 23.6097 13.6038 22.9556 13.6038Z" fill="black"/>
<path d="M17.6874 0.5C8.19643 0.5 0.499878 8.19655 0.499878 17.6875C0.499878 27.1784 8.19643 34.875 17.6874 34.875C27.1783 34.875 34.8749 27.1784 34.8749 17.6875C34.8749 8.19655 27.1783 0.5 17.6874 0.5ZM27.4972 21.7565C27.4495 22.8071 27.2824 23.5244 27.0385 24.1522C26.5258 25.4779 25.4778 26.5259 24.1521 27.0386C23.5245 27.2826 22.807 27.4493 21.7566 27.4973C20.7042 27.5453 20.3679 27.5569 17.6876 27.5569C15.0071 27.5569 14.6711 27.5453 13.6184 27.4973C12.5681 27.4493 11.8505 27.2826 11.2229 27.0386C10.5641 26.7908 9.96774 26.4024 9.47469 25.9002C8.97272 25.4074 8.58432 24.8107 8.33648 24.1522C8.09258 23.5246 7.92552 22.8071 7.87779 21.7567C7.82927 20.704 7.81799 20.3678 7.81799 17.6875C7.81799 15.0072 7.82927 14.671 7.87752 13.6185C7.92526 12.5679 8.09205 11.8506 8.33596 11.2228C8.58379 10.5642 8.97246 9.9676 9.47469 9.47481C9.96748 8.97258 10.5641 8.58418 11.2227 8.33634C11.8505 8.09244 12.5678 7.92564 13.6184 7.87765C14.6709 7.82965 15.0071 7.81811 17.6874 7.81811C20.3677 7.81811 20.7039 7.82965 21.7563 7.87791C22.807 7.92564 23.5242 8.09244 24.1521 8.33608C24.8106 8.58391 25.4073 8.97258 25.9003 9.47481C26.4023 9.96786 26.791 10.5642 27.0385 11.2228C27.2827 11.8506 27.4495 12.5679 27.4975 13.6185C27.5455 14.671 27.5568 15.0072 27.5568 17.6875C27.5568 20.3678 27.5455 20.704 27.4972 21.7565Z" fill="black"/>
</g>
<defs>
<clipPath id="clip0_34_38">
<rect width="34.375" height="34.375" fill="white" transform="translate(0.499878 0.5)"/>
</clipPath>
</defs>
</svg>
