<svg width="64" height="63" viewBox="0 0 64 63" fill="none" xmlns="http://www.w3.org/2000/svg">
<g clip-path="url(#clip0_13_65)">
<path d="M29.3142 37.9671L11.7361 42.9776V36.1151L29.3142 31.1047V37.9671Z" fill="#CAE0DD"/>
<path d="M6.85333 61.4047C9.55003 61.4047 11.7361 59.2186 11.7361 56.5218C11.7361 53.8252 9.55003 51.6392 6.85333 51.6392C4.15664 51.6392 1.97052 53.8252 1.97052 56.5218C1.97052 59.2186 4.15664 61.4047 6.85333 61.4047Z" fill="#CAE0DD"/>
<path d="M24.4314 56.3947C27.1282 56.3947 29.3142 54.2086 29.3142 51.5118C29.3142 48.8152 27.1282 46.6292 24.4314 46.6292C21.7348 46.6292 19.5485 48.8152 19.5485 51.5118C19.5485 54.2086 21.7348 56.3947 24.4314 56.3947Z" fill="#CAE0DD"/>
<path d="M49.2839 11.8816L62.0291 8.20861V1.34619L49.2839 5.01917V11.8816Z" fill="#CAE0DD"/>
<path d="M44.401 30.3092C47.0978 30.3092 49.2839 28.1231 49.2839 25.4263C49.2839 22.7297 47.0978 20.5435 44.401 20.5435C41.7044 20.5435 39.5184 22.7297 39.5184 25.4263C39.5184 28.1231 41.7044 30.3092 44.401 30.3092Z" fill="#CAE0DD"/>
<path d="M48.6919 51.9447L42.8516 55.0152L43.9669 48.512L39.2421 43.9065L45.7717 42.9575L48.6919 37.0408L51.6121 42.9575L58.1416 43.9065L53.4167 48.512L54.5321 55.0152L48.6919 51.9447Z" fill="#7ADBAE"/>
<path d="M9.9256 13.5925L5.12678 16.1154L6.04328 10.7718L2.16095 6.98754L7.52619 6.20788L9.9256 1.34619L12.325 6.20788L17.6902 6.98754L13.8079 10.7718L14.7244 16.1154L9.9256 13.5925Z" fill="#7ADBAE"/>
<path d="M29.3142 29.8843C29.1982 29.8843 29.0862 29.9014 28.98 29.9318L28.9796 29.9309L25.4735 30.9303C24.8251 31.1152 24.4494 31.7905 24.6342 32.4387C24.7871 32.9755 25.276 33.3252 25.8075 33.3252C25.9182 33.3252 26.0309 33.31 26.1426 33.2782L28.0935 32.7223V37.0461L12.9568 41.3605V37.0368L15.5769 36.29C16.2252 36.1052 16.6011 35.4298 16.4163 34.7814C16.2315 34.1332 15.5563 33.7577 14.9077 33.9421L11.4015 34.9416L11.4016 34.9423C10.8903 35.088 10.5154 35.5575 10.5154 36.1155V51.6427C9.49454 50.8745 8.22634 50.4186 6.8533 50.4186C3.48782 50.4186 0.749786 53.1566 0.749786 56.5221C0.749786 59.8875 3.48782 62.6255 6.8533 62.6255C10.2188 62.6255 12.9568 59.8875 12.9568 56.5221V43.8993L28.0935 39.5846V46.6321C27.0726 45.8641 25.8044 45.4082 24.4314 45.4082C21.066 45.4082 18.3279 48.1462 18.3279 51.5118C18.3279 54.8771 21.066 57.6152 24.4314 57.6152C27.7969 57.6152 30.535 54.8771 30.535 51.5118V31.105C30.535 30.4307 29.9884 29.8843 29.3142 29.8843ZM6.8533 60.1841C4.83402 60.1841 3.1912 58.5414 3.1912 56.5221C3.1912 54.5028 4.83402 52.86 6.8533 52.86C8.87259 52.86 10.5154 54.5028 10.5154 56.5221C10.5154 58.5414 8.87259 60.1841 6.8533 60.1841ZM24.4314 55.1737C22.4121 55.1737 20.7692 53.5311 20.7692 51.5118C20.7692 49.4925 22.4121 47.8496 24.4314 47.8496C26.4507 47.8496 28.0935 49.4925 28.0935 51.5118C28.0935 53.5311 26.4507 55.1737 24.4314 55.1737Z" fill="black"/>
<path d="M62.763 0.370253C62.4566 0.139662 62.0596 0.0666644 61.6911 0.172621L48.9459 3.8456C48.4232 3.99623 48.0632 4.4745 48.0632 5.01857V20.5458C47.0423 19.7776 45.7741 19.3217 44.4011 19.3217C41.0357 19.3217 38.2977 22.0598 38.2977 25.4253C38.2977 28.7908 41.0357 31.5289 44.4011 31.5289C47.7666 31.5289 50.5046 28.7908 50.5046 25.4253V12.7996L62.3671 9.38099C62.8898 9.23035 63.2498 8.75208 63.2498 8.20801V1.34559C63.2498 0.96205 63.0694 0.600844 62.763 0.370253ZM44.4011 29.0875C42.3818 29.0875 40.7391 27.4446 40.7391 25.4253C40.7391 23.406 42.3818 21.7632 44.4011 21.7632C46.4203 21.7632 48.0632 23.406 48.0632 25.4253C48.0632 27.4446 46.4203 29.0875 44.4011 29.0875ZM60.8084 7.28944L50.5046 10.2588V5.93714L60.8084 2.96778V7.28944Z" fill="black"/>
<path d="M58.3171 42.6983L52.4225 41.8417L49.7864 36.5004C49.5807 36.0838 49.1564 35.8201 48.6918 35.8201C48.2273 35.8201 47.8028 36.0838 47.5973 36.5004L44.9611 41.8417L39.0666 42.6983C38.6068 42.7651 38.2248 43.0872 38.0811 43.5292C37.9375 43.971 38.0573 44.4561 38.3902 44.7804L42.6553 48.9381L41.6484 54.8088C41.5698 55.2667 41.758 55.7297 42.1339 56.0029C42.5098 56.2758 43.0082 56.3118 43.4195 56.0958L48.6918 53.3238L53.9639 56.0956C54.1425 56.1895 54.3377 56.236 54.5318 56.236C54.7848 56.236 55.0368 56.1572 55.2495 56.0027C55.6255 55.7297 55.8137 55.2668 55.735 54.8088L54.728 48.9381L58.9934 44.7802C59.3261 44.456 59.4459 43.9708 59.3023 43.529C59.1587 43.087 58.777 42.7651 58.3171 42.6983ZM52.5646 47.6377C52.277 47.9181 52.1455 48.3222 52.2136 48.7181L52.9109 52.7836L49.2598 50.8642C48.9043 50.6772 48.4794 50.6772 48.1237 50.8642L44.4727 52.7836L45.17 48.7181C45.238 48.3222 45.1066 47.9181 44.8189 47.6377L41.8653 44.7586L45.9471 44.1654C46.3448 44.1077 46.6886 43.8579 46.8662 43.4977L48.6918 39.7988L50.5173 43.4977C50.6952 43.8579 51.0387 44.1077 51.4364 44.1654L55.5182 44.7586L52.5646 47.6377Z" fill="black"/>
<path d="M4.73221 11.1973L3.9241 15.9083C3.84548 16.3662 4.03373 16.8291 4.40969 17.1023C4.78555 17.3754 5.28409 17.4115 5.69521 17.1952L9.92592 14.9709L14.1568 17.1952C14.3353 17.2891 14.5304 17.3353 14.7246 17.3353C14.9777 17.3353 15.2296 17.2567 15.4423 17.1022C15.8183 16.829 16.0065 16.3662 15.9279 15.9082L15.1198 11.1971L18.5426 7.86084C18.8755 7.5365 18.9951 7.0514 18.8515 6.6095C18.708 6.16759 18.326 5.84558 17.8661 5.77868L13.1359 5.09131L11.0207 0.805175C10.8151 0.38855 10.3908 0.124756 9.92605 0.124756C9.46133 0.124756 9.03701 0.38855 8.83144 0.805175L6.71608 5.09143L1.98587 5.77881C1.52603 5.84558 1.14407 6.16772 1.0004 6.60961C0.856719 7.0515 0.976592 7.53661 1.30936 7.86097L4.73221 11.1973ZM7.70217 7.41516C8.09976 7.35741 8.44351 7.10766 8.62124 6.74743L9.92592 4.10375L11.2306 6.74743C11.4085 7.10766 11.7521 7.35741 12.1497 7.41516L15.0672 7.83911L12.9563 9.89697C12.6686 10.1775 12.5373 10.5815 12.6052 10.9775L13.1037 13.8833L10.4942 12.5115C10.3163 12.418 10.1212 12.3712 9.92617 12.3712C9.73098 12.3712 9.53592 12.418 9.35817 12.5115L6.74869 13.8833L7.2471 10.9775C7.31508 10.5815 7.18375 10.1775 6.89603 9.89697L4.78469 7.83911L7.70217 7.41516Z" fill="black"/>
<path d="M29.3148 10.6606C28.6402 10.6606 28.0936 11.2074 28.0936 11.8819V13.1031C28.0936 13.7776 28.6402 14.3243 29.3148 14.3243C29.9892 14.3243 30.536 13.7776 30.536 13.1031V11.8819C30.536 11.2074 29.9892 10.6606 29.3148 10.6606Z" fill="black"/>
<path d="M29.3148 19.2061C28.6402 19.2061 28.0936 19.7529 28.0936 20.4273V21.6485C28.0936 22.3231 28.6402 22.8698 29.3148 22.8698C29.9892 22.8698 30.536 22.3231 30.536 21.6485V20.4273C30.536 19.7529 29.9892 19.2061 29.3148 19.2061Z" fill="black"/>
<path d="M34.1982 15.5432H32.977C32.3024 15.5432 31.7557 16.0899 31.7557 16.7644C31.7557 17.4389 32.3024 17.9856 32.977 17.9856H34.1982C34.8726 17.9856 35.4194 17.4389 35.4194 16.7644C35.4194 16.0899 34.8726 15.5432 34.1982 15.5432Z" fill="black"/>
<path d="M24.4319 17.9856H25.6532C26.3277 17.9856 26.8744 17.4389 26.8744 16.7644C26.8744 16.0899 26.3277 15.5432 25.6532 15.5432H24.4319C23.7575 15.5432 23.2107 16.0899 23.2107 16.7644C23.2107 17.4389 23.7575 17.9856 24.4319 17.9856Z" fill="black"/>
<path d="M20.5257 34.8321C20.8469 34.8321 21.1621 34.7015 21.3891 34.4743C21.6164 34.2472 21.747 33.9321 21.747 33.6109C21.747 33.2884 21.6164 32.9747 21.3891 32.7462C21.1621 32.5192 20.8469 32.3896 20.5257 32.3896C20.2045 32.3896 19.8896 32.5192 19.6623 32.7462C19.4353 32.9747 19.3045 33.2884 19.3045 33.6109C19.3045 33.9321 19.4353 34.2472 19.6623 34.4743C19.8896 34.7015 20.2045 34.8321 20.5257 34.8321Z" fill="black"/>
</g>
<defs>
<clipPath id="clip0_13_65">
<rect width="62.5" height="62.5" fill="white" transform="translate(0.749817 0.124756)"/>
</clipPath>
</defs>
</svg>
