<svg width="64" height="63" viewBox="0 0 64 63" fill="none" xmlns="http://www.w3.org/2000/svg">
<g clip-path="url(#clip0_13_23)">
<path d="M56.4139 54.7239C56.4009 58.7775 53.0341 62.0241 48.9805 62.0241H14.9099C10.8536 62.0241 7.57279 58.7297 7.58573 54.6759C7.59879 50.6225 10.9655 47.3757 15.0191 47.3757H17.1182C17.9068 48.5538 19.2507 49.3289 20.7743 49.3289H43.2253C44.7536 49.3289 46.0986 48.547 46.8814 47.3757H49.0896C53.1461 47.3757 56.4268 50.6704 56.4139 54.7239Z" fill="#FFE4CC"/>
<path d="M48.9806 62.0241H47.6249V54.6998L33.9531 58.1179L33.8468 57.7981C33.3268 56.2391 31.8681 55.1881 30.2261 55.1881C28.7793 55.1881 28.0765 55.8502 26.1406 57.1413L16.3749 54.6998V62.0241H14.91C10.8649 62.0241 7.58582 58.7454 7.58582 54.6998C7.58582 50.6564 10.8629 47.3756 14.91 47.3756H17.1183C17.9069 48.5536 19.2508 49.3288 20.7743 49.3288H43.2254C44.7536 49.3288 46.0986 48.5468 46.8815 47.3756C49.1692 47.3756 51.8152 47.0689 54.2692 49.5204C58.869 54.1245 55.5943 62.0241 48.9806 62.0241Z" fill="#7ADBAE"/>
<path d="M46.8814 47.3752C46.0989 48.546 44.7543 49.3283 43.2253 49.3283H20.7743C19.2837 49.3283 17.9248 48.5802 17.1182 47.3752C16.8167 47.3763 14.4912 47.3847 14.451 47.3899C10.6001 47.6276 7.57327 50.8315 7.58573 54.7233C7.59879 58.777 10.9655 62.0236 15.0191 62.0236H16.3748V60.0706H15.0047C10.2206 60.0706 7.69986 54.3101 11.1123 50.9018C12.9519 49.0599 15.3187 49.3283 14.9099 49.3283C15.0642 49.3283 15.2097 49.4004 15.3023 49.524C16.1022 50.5913 17.3788 51.2815 18.8162 51.2815H42.7419C44.9903 51.2815 46.858 49.5901 47.1071 47.3899C46.726 47.3654 46.416 47.3752 46.8814 47.3752Z" fill="#7ADBAE"/>
<path d="M27.1171 60.0706C25.553 60.0706 24.8893 58.0794 26.1407 57.141L22.1645 58.7313C21.2814 59.0845 21.2182 60.0706 21.2579 60.0706C19.1934 60.0706 17.379 58.702 16.8119 56.717L16.375 55.1877V62.0236H47.625V60.0706H27.1171Z" fill="#F9CFAC"/>
<path d="M47.6251 44.9293C47.6251 47.3462 45.6613 49.3287 43.2256 49.3287H20.7746C17.9673 49.3287 15.8677 46.7253 16.4801 43.9746L17.7386 38.307C19.2312 31.5977 25.1835 26.8677 32.0001 26.8677C38.8699 26.8677 44.7801 31.6454 46.2615 38.307C47.6144 44.3993 47.6251 44.277 47.6251 44.9293Z" fill="#F9CFAC"/>
<path d="M47.5198 43.9744L46.2613 38.3066C45.6791 35.6882 44.4145 33.3651 42.6798 31.5085C41.2838 30.2687 39.6066 29.2787 37.775 28.6448C37.7079 28.7375 37.6102 28.8278 37.487 28.9133C37.3863 28.8705 37.0871 28.7541 36.7716 28.6448C35.6613 30.1771 28.3395 30.1526 27.2293 28.646C26.9718 28.7339 26.7166 28.8303 26.4652 28.9328C23.1313 30.925 20.5952 34.2444 19.6914 38.3066C18.3238 44.4658 18.392 44.1108 18.3561 44.4419C18.599 46.6416 20.4643 48.3517 22.7273 48.3517C46.9823 48.3517 45.3191 48.4103 46.1552 48.2078C47.2741 47.2649 47.8813 45.5978 47.5198 43.9744Z" fill="#FFE4CC"/>
<path d="M34.3887 49.3285H31.0232C31.0232 48.7888 31.4603 48.3519 31.9998 48.3519C32.8078 48.3519 33.4646 47.6951 33.4646 46.887C33.4646 46.096 32.8328 45.4424 32.0369 45.4226C31.5291 45.4099 31.0798 45.0535 31.0286 44.5479C30.9689 43.9624 31.4266 43.469 31.9998 43.469C35.0486 43.469 36.5843 47.1835 34.3887 49.3285Z" fill="#F9CFAC"/>
<path d="M39.0532 36.6336L40.7891 44.4461H40.0493C37.4746 44.4461 34.9069 43.4468 32.9766 41.5163H31.0234C29.1634 43.3765 26.6235 44.4461 23.9507 44.4461H22.2343L23.178 40.2004C24.9944 39.8798 25.6185 39.7818 26.2334 39.634C32.0085 38.2631 36.3835 33.6538 37.5505 27.9629C41.2834 29.4938 44.3632 32.5868 45.783 36.6336H39.0532Z" fill="#7ADBAE"/>
<path d="M45.7829 36.6336H45.4008C43.8368 33.027 40.8963 30.2502 37.3379 28.854C37.4186 28.5599 37.4893 28.2631 37.5504 27.9629C41.2832 29.4938 44.3631 32.5868 45.7829 36.6336Z" fill="#EDAC5F"/>
<path d="M42.7421 44.446H40.7891C39.2432 37.4852 39.6322 39.2355 39.0532 36.6335H40.7891L42.7421 44.446Z" fill="#F9CFAC"/>
<path d="M40.7891 19.0227C40.3112 19.9736 39.908 20.4524 38.7748 21.9842H38.5527C37.7116 24.8077 35.0982 26.867 32 26.867C28.8982 26.867 26.2852 24.8002 25.4473 21.9842H25.225L24.0873 20.4461C20.0737 15.0177 22.9643 7.6141 29.0703 5.79891V4.47323C29.0703 1.83273 32.21 0.477259 34.0714 2.33455C35.0869 3.35226 34.9296 4.39682 34.9296 5.79891C40.5168 7.46028 43.4111 13.7994 40.7891 19.0227Z" fill="#F9CFAC"/>
<path d="M38.8358 15.1489V18.0786C38.8358 21.8474 35.7528 25.0267 31.984 25.0182C29.1458 25.0117 27.1171 22.7162 27.1171 20.1321C27.1171 16.0759 30.3196 13.1958 33.9531 13.1958H36.8799C37.9583 13.1958 38.8342 14.069 38.8358 15.1489Z" fill="#FFE4CC"/>
<path d="M32.0677 1.47737C29.8823 1.44001 28.0938 3.27523 28.0938 5.46076V7.33614H35.9062V5.38301C35.9062 3.25165 34.1904 1.5135 32.0677 1.47737Z" fill="#797A7A"/>
<path d="M39.9125 20.4469L38.7748 21.9849H38.5527C38.9344 20.7033 38.8359 20.1883 38.8359 15.1491C38.8359 14.4704 38.7369 13.8148 38.5527 13.1959H37.9741C37.3091 13.1959 36.6937 12.8206 36.3944 12.2194C36.0953 11.6212 35.4839 11.2428 34.8148 11.2428H29.185C28.5202 11.2428 27.9048 11.6182 27.6053 12.2194C27.3064 12.8175 26.6948 13.1959 26.0259 13.1959H25.4473C25.0655 14.4776 25.1641 14.9926 25.1641 20.0319C25.1641 20.7106 25.2628 21.3662 25.4473 21.9849H25.225L24.0873 20.4469C20.0737 15.0184 22.9643 7.61488 29.0703 5.7997C30.9094 5.25014 33.0464 5.23695 34.9296 5.7997C41.0355 7.61488 43.9262 15.0184 39.9125 20.4469Z" fill="#6D6D6D"/>
<path d="M49.0898 62.0237H47.625V60.0705H50.0664C53.4234 60.0705 56.1516 57.4727 56.397 54.2014C56.6816 58.4702 53.3007 62.0237 49.0898 62.0237Z" fill="#7ADBAE"/>
<path d="M40.911 44.4455C40.0273 44.4455 39.6355 44.4582 38.986 44.3882C37.0048 44.177 35.1287 43.3775 33.6016 42.0909C33.0091 41.5902 32.2625 41.4268 31.5726 41.5464C30.3148 41.7461 30.1973 42.6796 27.7787 43.6839C25.6151 44.5805 23.9869 44.4455 22.2343 44.4455L23.178 40.2L25.2105 39.8423L24.9907 40.433C24.8259 40.8763 25.1409 41.3523 25.6144 41.3755C26.3591 41.2511 27.0855 41.0411 27.7787 40.7541C30.1735 39.7598 30.3232 38.815 31.5726 38.6168C32.2575 38.4979 33.0028 38.6554 33.6016 39.1611C35.3878 40.6654 37.6221 41.5159 40.1787 41.5159L40.911 44.4455Z" fill="#7ADBAE"/>
<path d="M26.1177 35.869L25.2363 39.8374L23.1782 40.2L24.2109 35.4442C24.328 34.9181 24.8493 34.5859 25.3755 34.7033C25.9029 34.8204 26.2348 35.3416 26.1177 35.869Z" fill="#F9CFAC"/>
<path d="M19.4124 34.0192C19.8606 34.32 20.4679 34.2006 20.7687 33.7524C20.8266 33.666 20.8867 33.5819 20.948 33.4979C21.2654 33.0614 21.1689 32.4502 20.7324 32.1326C20.296 31.8151 19.6846 31.9115 19.3671 32.3481C19.2914 32.4521 19.2172 32.5563 19.1455 32.6628C18.8447 33.1111 18.9643 33.7182 19.4124 34.0192Z" fill="black"/>
<path d="M62.2731 61.0472H54.4305C60.3171 56.0865 56.8488 46.3989 49.0896 46.3989H48.3972C48.8781 44.6985 48.5297 44.0183 47.2144 38.0948C46.0033 32.6512 41.9251 28.1392 36.3533 26.5155C37.6826 25.6199 38.7215 24.3264 39.3008 22.8074C39.5037 22.6778 39.4508 22.7133 40.6976 21.0267C45.0319 15.1638 42.059 7.3739 35.906 5.09118V4.40674C35.906 2.25281 34.1537 0.500488 31.9997 0.500488C29.8458 0.500488 28.0935 2.25281 28.0935 4.40674V5.09118C21.9389 7.3745 18.969 15.1658 23.3019 21.0267C24.5535 22.7198 24.4956 22.6778 24.6987 22.8074C25.2778 24.3255 26.3156 25.6185 27.6439 26.5139C25.5676 27.119 23.623 28.1533 21.9496 29.5662C21.5374 29.9142 21.4855 30.5303 21.8335 30.9424C22.1814 31.3546 22.7976 31.4065 23.2096 31.0585C26.8117 28.0171 31.7955 27.0078 36.3997 28.579C34.9855 33.8951 30.6669 37.8871 25.1869 38.8539L24.4481 38.9842L25.1405 35.8685C25.2574 35.3421 24.9255 34.8205 24.399 34.7033C23.8726 34.5864 23.351 34.9183 23.2339 35.4448C23.0165 36.4224 21.738 42.1765 21.4506 43.469H20.281C19.7417 43.469 19.3044 43.9064 19.3044 44.4456C19.3044 44.9849 19.7417 45.4223 20.281 45.4223H23.9503C26.883 45.4223 29.6399 44.2803 31.7137 42.2065C31.9044 42.016 31.9997 41.7662 31.9997 41.5164C31.9999 41.7662 32.0953 42.016 32.2858 42.2065C34.3596 44.2803 37.1165 45.4223 40.0492 45.4223H43.7185C44.2578 45.4223 44.6951 44.9851 44.6951 44.4458C44.6951 43.9065 44.2578 43.4692 43.7185 43.4692H42.5487L41.2465 37.6098H45.0692C45.1581 37.9098 45.2397 38.2121 45.3078 38.5185C46.6874 44.7317 46.6481 44.4201 46.6481 44.9292C46.6481 46.8198 45.116 48.3521 43.2253 48.3521H35.0872C35.2989 47.9078 35.4178 47.4112 35.4178 46.8873C35.4178 43.5771 31.0231 42.4692 31.0231 44.4458C31.0231 44.9851 31.4605 45.4223 31.9997 45.4223C32.8087 45.4223 33.4646 46.0781 33.4646 46.8873C33.4646 47.6949 32.8074 48.3521 31.9997 48.3521H20.7742C18.5902 48.3521 16.9576 46.3235 17.433 44.1862C18.7249 38.368 18.783 37.8985 19.229 36.7071C19.418 36.2019 19.1617 35.6392 18.6567 35.4501C18.1516 35.261 17.589 35.5173 17.3998 36.0223C16.8955 37.3698 16.8611 37.7523 15.5264 43.7623C15.3334 44.6298 15.3573 45.5324 15.604 46.3989H14.9099C7.22449 46.3989 3.64709 56.0505 9.56261 61.0472H1.72632C1.18701 61.0472 0.749756 61.4844 0.749756 62.0239C0.749756 62.5631 1.18701 63.0003 1.72632 63.0003H62.2731C62.8124 63.0003 63.2497 62.5631 63.2497 62.0239C63.2497 61.4844 62.8124 61.0472 62.2731 61.0472ZM30.0465 4.40674C30.0465 3.32972 30.9228 2.45361 31.9997 2.45361C33.0767 2.45361 33.953 3.32972 33.953 4.40674C33.953 4.807 34.083 4.34325 31.6449 4.41174C29.8689 4.46143 30.0465 4.74365 30.0465 4.40674ZM24.0721 11.2194C27.2314 4.73009 36.7619 4.71704 39.9276 11.2194C41.1278 13.6844 41.0678 16.4299 39.8124 18.7808C39.8122 14.8528 40.0308 12.2192 38.5524 12.2192C38.0428 12.2192 37.5305 12.3102 37.2676 11.7825C36.8001 10.8472 35.8601 10.2661 34.8147 10.2661C28.743 10.2661 28.6267 10.1333 27.741 10.6765C26.601 11.3839 26.8585 12.2192 26.0256 12.2192H25.4471C23.9605 12.2192 24.1873 14.873 24.1873 18.7808C22.9317 16.4299 22.8719 13.6843 24.0721 11.2194ZM26.1405 20.0317C26.1405 14.673 26.113 14.8146 26.2224 14.1654C27.188 14.0975 28.0405 13.5321 28.4794 12.6545C28.5444 12.5242 28.6449 12.4141 28.7665 12.3387C29.0394 12.1713 28.7226 12.2192 34.8147 12.2192C35.6449 12.2192 35.3885 13.0537 36.5344 13.7646C36.9128 13.9967 37.3389 14.1337 37.7769 14.1653C37.8922 14.8479 37.859 14.7687 37.859 20.0317C37.859 23.2626 35.2306 25.8912 31.9997 25.8912C28.7689 25.8912 26.1405 23.2626 26.1405 20.0317ZM40.8126 35.6567L40.7655 35.4449C40.6485 34.9185 40.1269 34.5864 39.6003 34.7035C39.0739 34.8205 38.7419 35.3421 38.8589 35.8687L40.548 43.4692H40.0492C37.6383 43.4692 35.3717 42.5303 33.6669 40.8255C33.0501 40.2087 32.0001 40.6537 31.9997 41.5157C31.9996 40.6539 30.9497 40.2087 30.3326 40.8255C28.6278 42.5303 26.3612 43.4692 23.9503 43.4692H23.4515L23.9896 41.0485L25.5265 40.7773C31.7469 39.6798 36.5692 35.1167 38.2155 29.3482C40.9497 30.7464 43.0537 32.9764 44.3224 35.6567H40.8126ZM22.9735 57.356L21.993 57.7483C20.6615 58.2808 20.0003 59.7194 20.3926 61.0472H17.3513V55.9505L22.9735 57.356ZM23.0046 61.0472C22.1633 61.0472 21.9317 59.8764 22.7183 59.5615C26.7658 57.9426 26.561 58.0339 26.6821 57.9537C28.7512 56.5742 29.1435 56.1646 30.2255 56.1646C31.4497 56.1646 32.5324 56.9449 32.9196 58.1064L33.0262 58.4265C33.1876 58.9106 33.6942 59.1889 34.1896 59.0651L46.6481 55.9505V61.0472H23.0046ZM48.6013 61.0472V55.4621L49.8147 55.1589C50.338 55.028 50.656 54.4978 50.5253 53.9746C50.3946 53.4514 49.8642 53.1333 49.341 53.264L34.5605 56.959C33.7772 55.2951 32.0997 54.2114 30.2256 54.2114C28.4806 54.2114 27.5683 55.0155 25.9581 56.0889L14.6584 53.2639C14.1351 53.1331 13.605 53.4514 13.4741 53.9744C13.3434 54.4976 13.6615 55.028 14.1847 55.1587L15.3981 55.4621V61.0472H14.9098C11.3934 61.0472 8.56213 58.2001 8.56213 54.6998C8.56213 51.1996 11.4097 48.3521 14.9098 48.3521H16.6317C17.6185 49.5442 19.109 50.3051 20.774 50.3051H43.2253C44.8472 50.3051 46.3426 49.591 47.3697 48.3521C49.364 48.3521 51.5019 48.1364 53.578 50.2105C57.5424 54.1785 54.7576 61.0472 49.0896 61.0472H48.6013Z" fill="black"/>
</g>
<defs>
<clipPath id="clip0_13_23">
<rect width="62.5" height="62.5" fill="white" transform="translate(0.749756 0.500488)"/>
</clipPath>
</defs>
</svg>
