<svg width="330" height="47" viewBox="0 0 330 47" fill="#ddf4ee" xmlns="http://www.w3.org/2000/svg">
<path d="M0.322476 15.4598C1.08019 8.15546 8.66483 3.16455 15.8781 2.91835C23.0937 2.61624 29.9366 5.82656 36.3977 8.96426C42.9114 12.1602 49.6396 15.4776 56.8431 15.455C70.9184 15.4514 83.5057 2.89279 97.3618 5.40011C107.618 7.24669 116.199 17.2539 126.504 15.4619C133.484 14.2534 138.605 7.75501 145.447 5.92438C153.404 3.75018 161.456 8.24533 169.012 11.4867C187.683 19.5805 209.457 20.8081 228.371 13.2297C237.099 9.7448 245.192 4.43996 254.261 1.9781C265.108 -0.910485 277.03 0.560497 286.854 6.02891C293.777 9.91486 299.63 15.6586 306.611 19.491C313.592 23.3234 322.59 25.0033 329.165 20.4725L328.148 43.8405L8.45457 46.2604L0.322476 15.4598Z" fill="#ddf4ee"/>
</svg>
