<svg width="345" height="68" viewBox="0 0 345 68" fill="#ddf4ee" xmlns="http://www.w3.org/2000/svg">
<path d="M345 60.5873C344.705 46.4506 334.858 38.8529 324.598 37.1714C314.338 35.49 303.843 38.2924 293.937 41.2194C284.031 44.1464 273.771 47.3225 263.393 46.3883C243.404 44.6446 226.187 28.0791 206.375 31.1306C198.238 32.3762 191.28 36.8601 184.086 40.4721C176.893 44.0841 168.402 46.9488 160.56 44.7691C150.89 42.0913 145.17 32.563 135.618 29.5737C121.407 25.0898 105.546 36.6109 91.2767 32.2516C84.5547 30.1965 79.6607 24.9653 75.7101 19.6095C71.7005 14.316 68.1037 8.58661 62.5611 4.60093C57.0184 0.615249 48.6455 -1.12849 42.7491 2.48354C36.204 6.5315 33.5506 16.2466 25.5905 16.3711C20.0478 16.4334 16.3331 11.4513 13.3259 7.27881C10.3187 3.1063 5.18884 -1.31532 -3.05176e-05 0.366144L0.53064 67.5L345 60.5873Z" fill="#ddf4ee"/>
</svg>
