<svg width="345" height="68" viewBox="0 0 345 68" fill="#ddf4ee" xmlns="http://www.w3.org/2000/svg">
<path d="M0 60.5873C0.294821 46.4506 10.1419 38.8529 20.4016 37.1714C30.6614 35.49 41.1571 38.2924 51.063 41.2194C60.969 44.1464 71.2288 47.3225 81.6065 46.3883C101.595 44.6446 118.813 28.0791 138.625 31.1306C146.762 32.3762 153.72 36.8601 160.913 40.4721C168.107 44.0841 176.598 46.9488 184.44 44.7691C194.11 42.0913 199.83 32.563 209.382 29.5737C223.592 25.0898 239.454 36.6109 253.723 32.2516C260.445 30.1965 265.339 24.9653 269.29 19.6095C273.299 14.316 276.896 8.58661 282.439 4.60093C287.981 0.615249 296.354 -1.12849 302.251 2.48354C308.796 6.5315 311.449 16.2466 319.409 16.3711C324.952 16.4334 328.667 11.4513 331.674 7.27881C334.681 3.1063 339.811 -1.31532 345 0.366144L344.469 67.5L0 60.5873Z" fill="#ddf4ee"/>
</svg>
