<svg width="93" height="75" viewBox="0 0 93 75" fill="none" xmlns="http://www.w3.org/2000/svg">
<g filter="url(#filter0_d_34_1)">
<path d="M74.9496 43.1717C76.1816 34.35 74.6539 25.9226 72.9782 20.0086C72.8797 19.7129 72.8304 19.4665 72.7318 19.1708C71.7954 20.255 70.7605 21.1914 69.6763 22.0785C69.282 22.3742 68.8877 22.7192 68.4935 23.0149C68.0006 23.3598 67.5571 23.7048 67.0643 24.0498C64.8465 25.5776 62.5302 26.9575 60.3617 28.5346C58.144 23.4584 55.2363 18.6779 52.4764 13.8482C50.308 10.1027 48.2381 6.30788 46.5625 2.36522C46.4639 2.11881 46.3653 1.87239 46.2668 1.62598C44.5419 5.86433 42.3241 9.90555 40.0078 13.8482C37.248 18.6779 34.3402 23.4584 32.1225 28.5346C29.954 26.9575 27.6377 25.5776 25.42 24.0498C24.9272 23.7048 24.4343 23.3598 23.9908 23.0149C22.463 21.8814 20.9845 20.6 19.7032 19.1708C17.929 25.0848 16.2041 33.9064 17.4854 43.1224C10.6843 42.4324 6.00244 41.1018 2.74976 39.574C4.03112 46.0794 7.82592 57.7595 18.4711 64.7577C18.4711 64.7577 18.5204 64.7577 18.5204 64.807C19.3089 65.2998 20.1467 65.7926 20.9845 66.2855C21.3295 66.4826 21.6745 66.6305 22.0195 66.8276C25.6664 68.6511 30.0033 69.9324 35.1288 70.4253C30.299 66.3348 26.9478 61.85 24.6808 57.2174C23.1037 54.014 22.0687 50.7613 21.4281 47.5086C23.9908 47.8043 26.3071 48.3464 28.4756 49.1349C28.722 50.6627 29.067 52.1905 29.6091 53.7183C31.334 58.6959 34.8331 63.0328 39.3178 65.8419C40.9442 66.8769 42.7184 67.6654 44.5419 68.2568C44.8868 64.5606 43.9505 60.0758 41.437 55.8867C40.7963 54.8518 40.0571 53.8168 39.2193 52.8312C38.2336 48.6914 38.6279 44.2066 40.4514 40.3132C41.8806 37.307 44.3447 33.2658 45.9711 30.4073C46.0696 30.2595 46.1682 30.0624 46.2668 29.9145C46.3653 30.0624 46.4639 30.2595 46.5132 30.4073C48.1888 33.315 50.653 37.307 52.0329 40.3132C53.8564 44.2066 54.2506 48.6914 53.265 52.8312C49.0759 57.7102 47.5481 63.5749 47.9424 68.1582C47.9424 68.1582 47.9424 68.1582 47.9424 68.2075C47.9424 68.2568 47.9424 68.2568 47.9424 68.2568C49.7659 67.6654 51.5401 66.8769 53.1664 65.8419C53.8564 65.3984 54.4971 64.9548 55.1377 64.462C58.6861 61.7021 61.3967 57.9566 62.8752 53.7183C63.4173 52.2398 63.7623 50.712 64.0087 49.1349C66.1772 48.3464 68.4935 47.8043 71.0562 47.5086C69.4791 55.3939 65.5365 63.4763 57.3555 70.376C62.4809 69.8831 66.8178 68.6018 70.4648 66.7783C70.8098 66.6304 71.1548 66.4333 71.4997 66.2362C83.377 59.8787 87.8617 47.9521 89.4881 40.7568C89.5866 40.3625 89.6852 39.9683 89.7345 39.574C86.3832 41.1018 81.7013 42.4324 74.9496 43.1717ZM22.463 57.9566C24.73 61.8993 27.8842 65.6448 32.1225 69.0946C28.9684 68.4046 26.1592 67.3697 23.7444 66.039C14.5284 61.1107 10.2408 52.5355 8.22018 46.0794C11.0293 46.7201 14.2327 47.1636 17.8304 47.2129C17.929 47.2129 18.0768 47.2129 18.1754 47.2129C19.0625 50.8598 20.3931 54.4575 22.463 57.9566ZM30.3483 32.8222C29.3627 35.6806 28.6234 38.6376 28.3277 41.6439C28.2784 42.3339 28.2291 42.9745 28.1799 43.6645C28.1799 44.2066 28.1306 44.7487 28.1306 45.3401C25.9621 44.5516 23.498 43.9109 20.7874 43.5659C20.6888 42.531 20.5903 41.496 20.5903 40.5104C20.3931 35.1878 21.0831 30.2102 22.0195 26.0704C23.0544 26.7111 24.0894 27.3518 25.1736 27.8939C27.1449 28.9288 29.1655 29.9145 31.0383 31.048C30.7919 31.5901 30.5947 32.1815 30.3483 32.8222ZM41.1906 58.9916C42.7184 61.4557 43.5069 64.0184 43.5562 66.4826C43.5562 66.5812 43.5562 66.6797 43.5562 66.7783C42.817 66.384 42.0777 65.8912 41.3877 65.3984C37.1494 62.3428 33.9953 57.858 32.5168 52.8804C32.3196 52.1905 32.1718 51.5005 32.0239 50.8106C34.1924 51.9441 36.0652 53.2747 37.6422 54.7532C39.0714 56.0346 40.2542 57.5131 41.1906 58.9916ZM37.7408 41.5946C37.5437 42.2846 37.3958 43.0238 37.2972 43.7138C37.2972 43.8124 37.248 43.8616 37.248 43.9602C36.903 46.3258 36.903 48.7407 37.4451 51.0077C37.2972 50.9091 37.1987 50.7613 37.0508 50.6627C35.523 49.2335 33.6996 47.9521 31.5804 46.8679C31.5804 46.3751 31.5311 45.8822 31.5311 45.3401C31.5311 44.7487 31.5311 44.108 31.5804 43.5167C31.5804 43.4181 31.5804 43.2702 31.5804 43.1717C31.7282 40.8061 32.1718 38.4405 32.7632 36.1242C33.0589 35.04 33.3546 33.9557 33.6996 32.9208C34.1924 33.315 34.7345 33.7586 35.1781 34.2021C36.558 35.5328 37.6915 37.0606 38.5293 38.7362C38.3322 39.6726 38.0365 40.6089 37.7408 41.5946ZM49.4702 29.4217C48.3859 27.2039 47.351 24.9369 46.5625 22.5713C46.4146 22.177 46.3161 21.8321 46.2175 21.4378C45.3797 24.1977 44.1969 26.8097 42.9155 29.3724C41.7327 31.7873 40.5006 34.2021 39.4657 36.6663C38.48 34.4978 36.903 32.5265 35.1288 30.9495C34.9809 30.8016 34.8331 30.6538 34.6852 30.5552C35.3259 28.8303 36.0159 27.1546 36.7551 25.479C37.4944 23.7541 38.2829 22.0785 39.0714 20.3536C41.0428 16.1645 43.8519 11.1376 46.2175 5.76576C47.8438 9.51128 49.7166 13.109 51.3922 16.3616C52.0822 17.7908 52.7721 19.1215 53.3635 20.4029C54.1521 22.0785 54.9406 23.8034 55.6798 25.5283C56.4191 27.2039 57.1091 28.8796 57.7497 30.6045C57.6019 30.7523 57.454 30.9002 57.3062 30.9987C55.532 32.6251 53.9549 34.5471 52.9693 36.7156C51.9343 34.2514 50.653 31.8365 49.4702 29.4217ZM53.7578 38.6869C54.5956 37.0113 55.7291 35.4835 57.1091 34.1529C57.6019 33.7093 58.0947 33.2658 58.5876 32.8715C58.9325 33.9557 59.2775 34.9907 59.5239 36.0749C60.1646 38.4898 60.6082 40.9539 60.756 43.4674C60.8053 44.6009 60.8546 45.6851 60.8053 46.8186C60.8053 46.8186 60.8053 46.8186 60.756 46.8186C58.6368 47.9029 56.8626 49.1842 55.2856 50.6134C55.1377 50.712 55.0392 50.8598 54.8913 50.9584C55.6306 47.9029 55.3841 44.6502 54.5956 41.5946C54.3985 40.6089 54.1028 39.6726 53.7578 38.6869ZM48.8295 66.4826C48.9281 60.8643 53.1171 54.5561 60.3617 50.7613C60.2139 51.4512 60.0661 52.1412 59.8689 52.8312C58.7847 56.626 56.6655 60.1251 53.9057 62.8849C53.0186 63.772 52.0329 64.6098 51.0472 65.3491C50.3573 65.8419 49.618 66.2855 48.8788 66.729C48.8295 66.6305 48.8295 66.5319 48.8295 66.4826ZM64.2551 45.3401C64.3044 41.1018 63.4173 36.8141 62.0374 32.8222C61.8402 32.2308 61.5938 31.5901 61.3474 30.9987C63.2695 29.8652 65.2901 28.8796 67.2121 27.8446C68.2963 27.3025 69.3313 26.6618 70.3662 26.0211C70.5141 26.6125 70.6126 27.2039 70.7605 27.7953C71.4997 31.5408 71.9926 35.8778 71.7954 40.4611C71.7462 41.4468 71.6969 42.4817 71.5983 43.5167C68.8877 43.9109 66.4236 44.5516 64.2551 45.3401ZM68.6413 66.0883C66.2264 67.3697 63.4173 68.4539 60.2632 69.1439C68.2963 62.6385 72.3868 54.9503 74.2103 47.3115C74.3089 47.3115 74.4567 47.3115 74.5553 47.3115C78.2022 47.2622 81.4056 46.8186 84.1655 46.1779C82.1942 52.5848 77.8573 61.16 68.6413 66.0883Z" fill="url(#paint0_linear_34_1)"/>
</g>
<defs>
<filter id="filter0_d_34_1" x="0.249756" y="0.375977" width="91.9847" height="73.7993" filterUnits="userSpaceOnUse" color-interpolation-filters="sRGB">
<feFlood flood-opacity="0" result="BackgroundImageFix"/>
<feColorMatrix in="SourceAlpha" type="matrix" values="0 0 0 0 0 0 0 0 0 0 0 0 0 0 0 0 0 0 127 0" result="hardAlpha"/>
<feOffset dy="1.25"/>
<feGaussianBlur stdDeviation="1.25"/>
<feColorMatrix type="matrix" values="0 0 0 0 0 0 0 0 0 0 0 0 0 0 0 0 0 0 0.25 0"/>
<feBlend mode="normal" in2="BackgroundImageFix" result="effect1_dropShadow_34_1"/>
<feBlend mode="normal" in="SourceGraphic" in2="effect1_dropShadow_34_1" result="shape"/>
</filter>
<linearGradient id="paint0_linear_34_1" x1="46.2421" y1="1.62598" x2="46.2421" y2="70.4253" gradientUnits="userSpaceOnUse">
<stop stop-color="#7ADBAE"/>
<stop offset="1" stop-color="#1A7F72"/>
</linearGradient>
</defs>
</svg>
