<svg width="133" height="147" viewBox="0 0 133 147" fill="none" xmlns="http://www.w3.org/2000/svg">
<g opacity="0.07" clip-path="url(#clip0_42_68)">
<path d="M5.09823 106.32C5.09823 106.32 14.3375 33.5526 132.275 41.4903C132.275 41.4903 79.0901 143.245 5.09823 106.32Z" fill="url(#paint0_linear_42_68)"/>
<path opacity="0.08" d="M61.8899 110.026C48.8486 89.8005 62.1735 64.4974 78.8122 44.169C11.4337 57.3022 5.09828 106.321 5.09828 106.321C25.9736 116.763 45.1034 116.263 61.8899 110.026Z" fill="#1F5148"/>
<path opacity="0.8" d="M81.6285 94.9983L50.3173 84.7006L88.4844 64.5144L106.16 70.5235L90.5398 63.5317L102.215 57.2041L102.544 57.4197L102.758 57.0938L120.814 47.4921L103.4 56.116L109.035 43.9558L101.016 56.883L101.345 57.0987L69.5429 72.6017L81.2552 49.0385L66.9451 73.6947L27.6783 92.6923C27.8923 92.3663 28.1063 92.0404 28.3204 91.7144C29.9182 88.5653 32.3721 84.1125 34.6119 79.9855C39.3057 71.4057 43.6711 62.6103 43.6711 62.6103C43.6711 62.6103 38.6489 70.9744 33.9551 79.5542C31.3868 83.4655 28.9329 87.9184 27.0067 90.8518C26.1506 92.1556 25.5085 93.1334 25.0804 93.7853L4.0983 104.264L6.09842 108.377L48.5903 85.899L81.6285 94.9983Z" fill="#1F5148"/>
</g>
<defs>
<linearGradient id="paint0_linear_42_68" x1="454.139" y1="353.094" x2="-864.55" y2="-603.436" gradientUnits="userSpaceOnUse">
<stop stop-color="#41CBB9"/>
<stop offset="1" stop-color="#3EB29D"/>
</linearGradient>
<clipPath id="clip0_42_68">
<rect width="125.167" height="76.2233" fill="white" transform="translate(0.514648 104.71) rotate(-56.7094)"/>
</clipPath>
</defs>
</svg>
