<svg width="192" height="211" viewBox="0 0 192 211" fill="none" xmlns="http://www.w3.org/2000/svg">
<g opacity="0.09" clip-path="url(#clip0_42_52)">
<path d="M184.228 175.933C184.228 175.933 93.5819 187.817 65.8386 43.1298C65.8386 43.1298 205.331 75.0529 184.228 175.933Z" fill="url(#paint0_linear_42_52)"/>
<path opacity="0.08" d="M170.727 106.298C150.471 128.418 115.752 120.36 85.982 106.733C123.131 183.804 184.228 175.933 184.228 175.933C190.212 147.464 183.557 124.561 170.727 106.298Z" fill="#1F5148"/>
<path opacity="0.8" d="M146.367 87.2566L143.858 128.261L107.449 88.6359L109.1 65.4262L105.614 86.469L94.2918 74.3958L94.4479 73.9316L93.9873 73.7767L76.6998 55.0478L92.6054 73.312L76.1633 70.3664L94.2842 75.9431L94.4403 75.479L123.191 108.912L91.0793 102.247L125.33 111.698L160.655 153.024C160.194 152.869 159.734 152.714 159.273 152.559C154.971 151.629 148.827 150.08 143.143 148.685C131.315 145.741 119.331 143.262 119.331 143.262C119.331 143.262 131.003 146.67 142.831 149.614C148.359 151.472 154.503 153.022 158.649 154.416C160.491 155.035 161.873 155.5 162.794 155.81L182.065 177.789L186.39 174.077L145.85 129.963L146.367 87.2566Z" fill="#1F5148"/>
</g>
<g opacity="0.09" clip-path="url(#clip1_42_52)">
<path d="M184.558 175.682C184.558 175.682 94.8633 157.996 114.778 12.0255C114.778 12.0255 236.772 86.8237 184.558 175.682Z" fill="url(#paint1_linear_42_52)"/>
<path opacity="0.08" d="M194.002 105.381C167.743 119.875 137.415 101.151 113.555 78.7307C124.147 163.629 184.558 175.682 184.558 175.682C199.32 150.614 200.328 126.785 194.002 105.381Z" fill="#1F5148"/>
<path opacity="0.8" d="M176.998 79.5582L161.526 117.614L139.677 68.437L148.655 46.97L138.63 65.7975L131.757 50.7409L132.053 50.3508L131.666 50.057L121.265 26.7881L130.505 49.1753L115.864 41.1332L131.256 52.2048L131.552 51.8147L148.12 92.6781L119.818 76.1078L149.258 96.0014L169.535 146.445C169.148 146.151 168.761 145.857 168.374 145.563C164.594 143.308 159.267 139.878 154.326 136.741C144.057 130.174 133.493 123.997 133.493 123.997C133.493 123.997 143.465 130.954 153.734 137.521C158.378 141.048 163.706 144.478 167.19 147.123C168.738 148.299 169.899 149.18 170.673 149.768L181.916 176.75L187.199 174.614L162.869 119.864L176.998 79.5582Z" fill="#1F5148"/>
</g>
<g opacity="0.09" clip-path="url(#clip2_42_52)">
<path d="M183.839 174.877C183.839 174.877 107.439 225.086 19.3993 106.964C19.3993 106.964 158.857 74.8869 183.839 174.877Z" fill="url(#paint2_linear_42_52)"/>
<path opacity="0.08" d="M141.334 118.091C132.746 146.829 97.9866 154.712 65.2537 155.425C132.284 208.594 183.839 174.877 183.839 174.877C176.814 146.647 160.841 128.935 141.334 118.091Z" fill="#1F5148"/>
<path opacity="0.8" d="M111.109 111.574L126.726 149.57L76.6848 129.78L68.0539 108.172L74.0887 128.63L58.6363 122.7L58.5744 122.214L58.0923 122.275L34.3696 112.955L56.6461 122.459L40.5644 126.976L59.304 124.096L59.2421 123.61L99.6907 141.166L67.8858 149.166L102.831 142.741L152.638 164.535C152.155 164.597 151.673 164.658 151.191 164.719C146.914 165.758 140.709 167.042 134.986 168.264C123.057 170.771 111.191 173.763 111.191 173.763C111.191 173.763 123.181 171.742 135.11 169.236C140.895 168.499 147.1 167.215 151.439 166.662C153.367 166.417 154.813 166.233 155.777 166.11L182.702 177.49L184.976 172.264L129.26 150.235L111.109 111.574Z" fill="#1F5148"/>
</g>
<defs>
<linearGradient id="paint0_linear_42_52" x1="339.653" y1="-443.466" x2="-396.262" y2="1448.86" gradientUnits="userSpaceOnUse">
<stop stop-color="#41CBB9"/>
<stop offset="1" stop-color="#3EB29D"/>
</linearGradient>
<linearGradient id="paint1_linear_42_52" x1="529.648" y1="-361.649" x2="-772.041" y2="1196.57" gradientUnits="userSpaceOnUse">
<stop stop-color="#41CBB9"/>
<stop offset="1" stop-color="#3EB29D"/>
</linearGradient>
<linearGradient id="paint2_linear_42_52" x1="53.7134" y1="-450.326" x2="216.294" y2="1573.54" gradientUnits="userSpaceOnUse">
<stop stop-color="#41CBB9"/>
<stop offset="1" stop-color="#3EB29D"/>
</linearGradient>
<clipPath id="clip0_42_52">
<rect width="156" height="95" fill="white" transform="translate(183.736 181.968) rotate(-161.414)"/>
</clipPath>
<clipPath id="clip1_42_52">
<rect width="156" height="95" fill="white" transform="translate(182.165 181.244) rotate(-142.791)"/>
</clipPath>
<clipPath id="clip2_42_52">
<rect width="156" height="95" fill="white" transform="translate(186.028 180.523) rotate(172.742)"/>
</clipPath>
</defs>
</svg>
