<svg width="141" height="180" viewBox="0 0 141 180" fill="none" xmlns="http://www.w3.org/2000/svg">
<g opacity="0.09" clip-path="url(#clip0_42_41)">
<path d="M6.2295 148.819C6.2295 148.819 -4.88375 58.076 140.034 31.5628C140.034 31.5628 106.927 170.779 6.2295 148.819Z" fill="url(#paint0_linear_42_41)"/>
<path opacity="0.08" d="M75.9772 135.911C54.0298 115.468 62.3826 80.8184 76.2618 51.1651C-1.12183 87.658 6.22953 148.819 6.22953 148.819C34.6469 155.045 57.6057 148.585 75.9772 135.911Z" fill="#1F5148"/>
<path opacity="0.8" d="M95.2242 111.713L54.243 108.857L94.1755 72.7848L117.37 74.6337L96.3579 70.9683L108.527 59.7494L108.99 59.9094L109.149 59.4501L128.024 42.3224L109.625 58.0722L112.71 41.6558L106.98 59.7286L107.442 59.8887L73.7668 88.3538L80.7039 56.3004L70.9628 90.4696L29.3378 125.442C29.4966 124.983 29.6554 124.524 29.8142 124.064C30.7806 119.77 32.3822 113.64 33.825 107.968C36.8694 96.1652 39.4509 84.2026 39.4509 84.2026C39.4509 84.2026 35.9437 95.8452 32.8994 107.648C30.9938 113.159 29.3922 119.29 27.963 123.424C27.3278 125.261 26.8514 126.639 26.5338 127.558L4.39189 146.641L8.06719 150.997L52.5234 110.833L95.2242 111.713Z" fill="#1F5148"/>
</g>
<defs>
<linearGradient id="paint0_linear_42_41" x1="624.286" y1="309.5" x2="-1261.72" y2="-442.462" gradientUnits="userSpaceOnUse">
<stop stop-color="#41CBB9"/>
<stop offset="1" stop-color="#3EB29D"/>
</linearGradient>
<clipPath id="clip0_42_41">
<rect width="156" height="95" fill="white" transform="translate(0.19873 148.277) rotate(-70.9277)"/>
</clipPath>
</defs>
</svg>
