<svg width="17" height="19" viewBox="0 0 17 19" fill="none" xmlns="http://www.w3.org/2000/svg">
<g filter="url(#filter0_d_23_9095)">
<path d="M15.1493 7.93282L3.90179 1.05905C3.71234 0.943196 3.49544 0.879914 3.27342 0.875712C3.05139 0.87151 2.83225 0.92654 2.63855 1.03514C2.44485 1.14374 2.28359 1.30198 2.17134 1.4936C2.0591 1.68521 1.99994 1.90326 1.99994 2.12533V15.8741C2.00012 16.0961 2.0594 16.314 2.17168 16.5055C2.28397 16.6971 2.44521 16.8552 2.63885 16.9638C2.83249 17.0723 3.05153 17.1274 3.27349 17.1233C3.49545 17.1192 3.71231 17.056 3.90179 16.9404L15.1493 10.0666C15.3321 9.95488 15.483 9.7981 15.5878 9.61128C15.6925 9.42447 15.7475 9.21389 15.7475 8.99972C15.7475 8.78555 15.6925 8.57497 15.5878 8.38815C15.483 8.20134 15.3321 8.04456 15.1493 7.93282Z" fill="white"/>
</g>
<defs>
<filter id="filter0_d_23_9095" x="0.749939" y="0.250488" width="16.2476" height="18.748" filterUnits="userSpaceOnUse" color-interpolation-filters="sRGB">
<feFlood flood-opacity="0" result="BackgroundImageFix"/>
<feColorMatrix in="SourceAlpha" type="matrix" values="0 0 0 0 0 0 0 0 0 0 0 0 0 0 0 0 0 0 127 0" result="hardAlpha"/>
<feOffset dy="0.625"/>
<feGaussianBlur stdDeviation="0.625"/>
<feColorMatrix type="matrix" values="0 0 0 0 0 0 0 0 0 0 0 0 0 0 0 0 0 0 0.25 0"/>
<feBlend mode="normal" in2="BackgroundImageFix" result="effect1_dropShadow_23_9095"/>
<feBlend mode="normal" in="SourceGraphic" in2="effect1_dropShadow_23_9095" result="shape"/>
</filter>
</defs>
</svg>
