<svg width="35" height="35" viewBox="0 0 35 35" fill="none" xmlns="http://www.w3.org/2000/svg">
<g clip-path="url(#clip0_34_36)">
<path d="M17.8124 0.5C8.32143 0.5 0.624878 8.19655 0.624878 17.6875C0.624878 27.1784 8.32143 34.875 17.8124 34.875C27.3033 34.875 34.9999 27.1784 34.9999 17.6875C34.9999 8.19655 27.3033 0.5 17.8124 0.5ZM25.66 13.901C25.6676 14.0701 25.6713 14.2401 25.6713 14.4108C25.6713 19.6238 21.7033 25.635 14.4468 25.6353H14.447H14.4468C12.2189 25.6353 10.1457 24.9823 8.39985 23.8632C8.70853 23.8997 9.02272 23.9178 9.34084 23.9178C11.1892 23.9178 12.8903 23.2873 14.2406 22.2291C12.5137 22.1971 11.0576 21.0565 10.5551 19.489C10.7956 19.5351 11.0429 19.5603 11.2965 19.5603C11.6566 19.5603 12.0054 19.5118 12.3369 19.4213C10.5318 19.0599 9.17194 17.4646 9.17194 15.5543C9.17194 15.5364 9.17194 15.5204 9.17247 15.5039C9.70407 15.7995 10.312 15.9773 10.9592 15.9972C9.89998 15.2904 9.20368 14.0822 9.20368 12.7135C9.20368 11.9907 9.39906 11.3135 9.7379 10.7305C11.6833 13.1176 14.5908 14.6875 17.8695 14.8525C17.8019 14.5634 17.767 14.2624 17.767 13.9529C17.767 11.7751 19.5338 10.0082 21.7124 10.0082C22.8472 10.0082 23.8722 10.4879 24.5921 11.2548C25.4908 11.0775 26.3348 10.7491 27.0972 10.2973C26.8021 11.2181 26.1769 11.9907 25.3623 12.4793C26.1604 12.3838 26.9209 12.1722 27.6277 11.858C27.0998 12.6492 26.4302 13.3442 25.66 13.901Z" fill="black"/>
</g>
<defs>
<clipPath id="clip0_34_36">
<rect width="34.375" height="34.375" fill="white" transform="translate(0.624878 0.5)"/>
</clipPath>
</defs>
</svg>
