<svg width="50" height="174" viewBox="0 0 50 174" fill="none" xmlns="http://www.w3.org/2000/svg">
<path d="M1.73866 6.49681C6.6041 8.54864 7.70584 14.4916 6.68223 19.3349C5.65862 24.1781 3.26652 28.8736 3.5717 33.783C3.89693 39.2044 7.5594 44.0045 8.35209 49.3788C9.99992 60.4354 -0.489845 71.0001 1.27979 82.0159C2.22856 88.0028 6.74965 93.2019 7.07799 99.2798C7.52038 107.117 0.870995 114.239 0.905411 122.089C0.947581 128.138 4.91626 133.479 6.54209 139.312C8.20478 145.198 7.44807 151.443 7.96624 157.53C8.51556 163.614 10.7451 170.129 16.3845 173.302L49.9168 169.928L32.8161 -0.000249144L0.0317536 3.299L1.73866 6.49681Z" fill="#3F40E1"/>
</svg>
