<svg width="64" height="63" viewBox="0 0 64 63" fill="none" xmlns="http://www.w3.org/2000/svg">
<g clip-path="url(#clip0_13_44)">
<path d="M34.7527 8.78246C34.7527 11.0482 34.0145 12.4612 33.3684 13.929C32.2795 16.4022 28.4184 16.4021 27.3297 13.929L26.7633 12.6423C26.1759 11.3058 25.719 9.22912 26.0552 7.89014C26.4961 6.12621 28.234 4.77856 30.3484 4.77856C32.7433 4.77856 34.7527 6.54089 34.7527 8.78246Z" fill="#F9CFAC"/>
<path d="M34.6428 7.88672C34.423 9.35597 33.9544 10.2728 33.3685 11.6025C32.2812 14.075 28.418 14.0773 27.3296 11.6025C26.729 10.2395 26.2814 9.3683 26.0553 7.89039C26.8123 4.86183 30.9978 3.70656 33.4624 5.95192C34.0374 6.47439 34.4549 7.14089 34.6428 7.88672Z" fill="#FFE4CC"/>
<path d="M34.7527 8.78308C34.7527 9.31287 34.7075 9.84022 34.6184 10.3627C34.4218 9.65222 34.0154 9.01746 33.4624 8.51576C31.0307 6.30042 26.902 7.39051 26.0795 10.3639C25.7681 8.54199 25.9352 6.95997 27.4309 5.78505C30.2415 3.51783 34.7527 5.31239 34.7527 8.78308Z" fill="#6D6D6D"/>
<path d="M28.147 5.37078V3.67988C28.147 2.46267 29.1328 1.47681 30.35 1.47681C31.569 1.47681 32.553 2.46267 32.553 3.67988V5.37078" fill="#6D6D6D"/>
<path d="M37.7628 17.3462L36.973 16.3574C36.5934 15.9778 36.0953 15.7886 35.5973 15.7886H25.1005C24.6025 15.7886 24.1045 15.9778 23.7248 16.3574C23.6884 16.4029 22.9528 17.3237 22.9057 17.3828C24.0496 23.5565 24.8441 21.3793 24.8441 31.1999H35.8525C35.8525 26.0997 35.9821 24.3807 36.6045 22.1459C36.7295 21.6908 37.9005 17.5127 37.7628 17.3462Z" fill="#B3CEC9"/>
<path d="M36.3708 17.0537L35.7292 16.2506C35.421 15.9423 35.0164 15.7886 34.6119 15.7886H26.0862C25.6816 15.7886 25.2771 15.9423 24.9687 16.2506C24.9392 16.2876 24.3417 17.0355 24.3033 17.0835C25.0594 21.1634 25.7364 20.899 25.8507 25.6468C25.9075 28.0074 27.8358 29.8929 30.1971 29.8929C33.1692 29.8929 34.7891 27.8143 34.8478 25.624C34.8962 23.7625 34.9755 22.5833 35.4298 20.9522C35.5342 20.5725 36.4824 17.1887 36.3708 17.0537Z" fill="#CAE0DD"/>
<path d="M45.3179 37.8248L35.8526 31.2002H24.8444C23.5383 39.275 24.6888 44.5589 25.8599 53.2338L30.3485 53.2166V37.8054L38.0547 40.0075V44.4105H43.2415C46.7942 44.4105 48.1795 39.8339 45.3179 37.8248Z" fill="#5FC68F"/>
<path d="M45.3179 37.8248L35.8525 31.2002H24.8443C23.7455 37.9927 24.4388 40.7655 25.5791 49.2079C25.8423 51.1695 28.2529 51.9786 29.6502 50.5775C30.0811 50.1441 30.3484 49.5461 30.3484 48.8868V37.2622C30.3484 36.5602 31.0198 36.0536 31.6948 36.2464L38.0546 38.0641C38.0546 38.085 37.8436 37.9748 40.7891 39.407H38.0546C38.0546 41.0972 39.423 42.4672 41.115 42.4672H43.2414C44.9039 42.4672 46.3041 41.3479 46.7289 39.8207C46.5016 38.9938 45.9871 38.2948 45.3179 37.8248Z" fill="#7ADBAE"/>
<path d="M30.3483 53.2168V61.0477C30.3483 61.5872 29.9114 62.0241 29.3717 62.0241H22.7983C22.0476 62.0241 21.5653 61.2052 21.9512 60.5631C22.1908 60.0836 22.8655 59.4914 23.6783 59.2886L26.5789 58.5636C26.4044 57.2654 26.5481 58.3316 25.8598 53.2339C26.0646 53.2338 25.4676 53.2359 30.3483 53.2168Z" fill="#F9CFAC"/>
<path d="M30.3485 53.2168V60.0711C30.3485 60.6105 29.9115 61.0477 29.3719 61.0477H22.7985C22.4249 61.0477 22.1185 60.845 21.9514 60.563C22.191 60.0836 22.8658 59.4914 23.6787 59.2886L26.579 58.5636L26.4521 57.6188L26.579 57.587L25.9919 53.2339L30.3485 53.2168Z" fill="#FFE4CC"/>
<path d="M38.0548 40.0073V44.4104H33.6517C33.0858 46.6702 33.0458 47.4645 32.0844 48.2166C31.601 48.5937 30.9955 48.8134 30.3485 48.8134V41.9605C30.3485 40.8818 31.223 40.0073 32.3015 40.0073H38.0548Z" fill="#F9CFAC"/>
<path d="M38.0548 40.0073V43.1079H33.6517C33.0858 45.3677 33.0457 46.162 32.0842 46.9141C31.6008 47.2912 30.9955 47.5111 30.3485 47.5111V41.9605C30.3485 40.8818 31.2228 40.0073 32.3015 40.0073H38.0548Z" fill="#FFE4CC"/>
<path d="M30.3485 20.6535V26.7972C30.3485 27.4069 29.8537 27.8983 29.2474 27.8983H19.5844C18.0659 27.8983 16.9241 26.5238 17.171 25.0553C17.3143 24.1774 17.1009 24.6508 23.7249 16.3578C24.5846 15.4983 25.964 15.6877 26.5569 16.4457C27.2344 17.2111 27.2076 18.3792 26.4764 19.1105C23.7333 22.6053 23.4058 23.0231 22.1698 24.5951H27.0465L27.4505 22.2806C28.0628 20.4367 29.8526 20.2421 29.8651 20.2299C30.1203 20.1896 30.3485 20.3946 30.3485 20.6535Z" fill="#F9CFAC"/>
<path d="M41.1139 27.8979H31.4496C30.8419 27.8979 30.3485 27.4036 30.3485 26.7968V20.6531C30.3485 20.3943 30.5767 20.1891 30.8319 20.2295C30.8442 20.2416 32.6348 20.4379 33.2464 22.2802L33.6517 24.5947H38.5283C37.5048 23.2929 38.0562 23.9947 34.2205 19.11C33.0007 17.8903 33.8662 15.7886 35.5974 15.7886C36.0955 15.7886 36.5935 15.9778 36.9732 16.3574C37.6701 17.2299 42.9876 23.8786 43.0242 23.9245C44.2932 25.5108 43.1673 27.8979 41.1139 27.8979Z" fill="#F9CFAC"/>
<path d="M29.8601 24.8965C29.8601 25.5061 29.3655 25.9976 28.759 25.9976H19.096C18.299 25.9976 17.5864 25.6063 17.171 25.0552C17.3143 24.1772 17.1009 24.6506 23.7249 16.3577C24.4828 15.6 25.7171 15.5984 26.4764 16.3577C26.5014 16.3827 26.3448 16.8532 25.9882 17.2097C23.1499 20.8258 23.8835 19.8917 22.5164 21.6311C21.9989 22.2902 21.8671 23.1742 22.1698 23.9554H22.6726L22.1698 24.5951H27.0465L27.4505 22.2806C27.7928 21.2497 28.6487 20.501 29.6673 20.2688C29.9274 20.5772 29.8601 20.374 29.8601 24.8965Z" fill="#FFE4CC"/>
<path d="M43.5479 25.2186C43.2066 25.6327 42.5066 25.9976 41.762 25.9976H32.0975C31.4902 25.9976 30.9964 25.5031 30.9964 24.8965C30.9964 20.4177 30.9371 20.5995 31.1625 20.3017C32.1196 20.5667 32.9173 21.2901 33.2462 22.2804L33.6516 24.5949H38.5282L38.0254 23.9552H38.6882C38.7955 23.6781 38.848 23.3865 38.848 23.0983C38.848 22.0636 38.3175 21.6006 37.2527 20.2456C34.3807 16.5885 34.4545 16.7635 34.3437 16.2453C35.1018 15.6051 36.25 15.6345 36.973 16.3576C41.608 22.1602 37.5732 17.1093 43.0241 23.9247C43.322 24.297 43.5027 24.7476 43.5479 25.2186Z" fill="#FFE4CC"/>
<path d="M33.3954 5.89311C31.7397 6.55829 28.9003 6.50273 27.431 5.78447C29.1553 4.39361 31.7565 4.4594 33.3954 5.89311Z" fill="#797A7A"/>
<path d="M1.729 62.9999H62.2758C62.8151 62.9999 63.2522 62.5625 63.2522 62.0232C63.2522 61.484 62.8151 61.0466 62.2758 61.0466H31.328V49.6627C32.6394 49.315 33.6926 48.2809 34.0344 46.9138L34.4163 45.3861H43.2444C47.7326 45.3861 49.5405 39.5866 45.8801 37.0245L36.8322 30.6909C36.8338 30.0179 36.8388 29.4163 36.8472 28.8738H41.1162C43.9747 28.8738 45.5749 25.5458 43.7894 23.314C37.2606 15.1508 37.7224 15.7224 37.666 15.6661C36.636 14.636 35.5683 14.8114 34.0038 14.8114C34.1976 14.5007 34.2126 14.4389 34.8313 13.0353C35.4172 11.7017 35.7312 10.2566 35.7312 8.78212C35.7312 7.1238 34.8692 5.67227 33.5296 4.7621C33.5296 3.48171 33.639 2.4733 32.5985 1.42887C30.5978 -0.565145 27.173 0.86576 27.173 3.67812V4.7621C25.8339 5.67202 24.9713 7.12332 24.9713 8.78212C24.9713 10.2445 25.274 11.6755 25.8717 13.0365C26.4749 14.4048 26.4974 14.4888 26.6989 14.8114C25.2001 14.8114 24.0731 14.6299 23.0369 15.6663C22.9671 15.7359 22.4892 16.3456 22.0976 16.8317C21.2912 17.8292 22.7821 19.1117 23.6712 17.9921C24.4415 17.0277 24.4939 16.8605 24.9233 16.781C25.0606 16.7555 24.389 16.7645 35.6001 16.7645C36.2158 16.7645 36.3381 17.1508 37.0187 17.975C37.1613 18.16 36.4346 17.245 42.2642 24.534C43.0297 25.4908 42.3415 26.9206 41.1163 26.9206H31.4521C31.2724 26.9206 31.3276 27.1509 31.3276 21.4104C31.7647 21.644 32.1181 22.0274 32.3006 22.5256L32.6922 24.7624C32.774 25.2295 33.1799 25.5704 33.6542 25.5704H38.531C39.3426 25.5704 39.8026 24.6318 39.2988 23.9906L36.4815 20.4043C36.1483 19.98 35.5346 19.9063 35.1105 20.2395C34.6862 20.5725 34.6124 21.1865 34.9456 21.6108L35.5372 22.3638C35.4303 22.7754 35.3388 23.1779 35.2606 23.6174H34.4746L34.2108 22.1111C34.1155 21.5638 33.5705 20.5938 32.7088 19.9756C31.318 18.97 29.4149 18.9502 27.9947 19.9742C27.166 20.5704 26.5924 21.5313 26.491 22.1115L26.2281 23.6174H25.4415C25.3633 23.179 25.2719 22.7763 25.1653 22.364L25.7571 21.6104C26.0901 21.1859 26.0162 20.5722 25.5919 20.2393C25.1676 19.9063 24.5539 19.9804 24.2208 20.4045L21.4042 23.9906C20.9028 24.629 21.3567 25.5704 22.1722 25.5704H27.0489C27.5235 25.5704 27.9292 25.2293 28.011 24.7618L28.4014 22.5252C28.581 22.0356 28.9317 21.6467 29.3744 21.4104V26.7959C29.3744 26.9877 29.8915 26.9206 19.5867 26.9206C18.369 26.9206 17.667 25.4988 18.4397 24.5327L18.6276 24.2972C18.964 23.8754 18.8949 23.2611 18.4734 22.9247C18.0517 22.5884 17.4372 22.6574 17.1009 23.079L16.9137 23.3136C15.1074 25.5717 16.7524 28.8734 19.5867 28.8734H23.8547C23.8647 29.5359 23.8697 30.2811 23.8699 31.1274C22.5333 39.4915 23.6924 44.4647 25.4965 57.8265L23.4435 58.3397C22.0765 58.6815 21.0433 59.7347 20.6955 61.0463H1.729C1.1897 61.0463 0.752441 61.4836 0.752441 62.0229C0.752441 62.5622 1.18958 62.9999 1.729 62.9999ZM29.1262 3.67825C29.1262 2.58561 30.4524 2.04764 31.2172 2.80986C31.5967 3.19071 31.5765 3.5823 31.5765 3.93277C30.7947 3.76505 29.9626 3.75332 29.1262 3.93277V3.67825ZM27.8942 6.67385C28.4817 6.1398 28.4997 6.38589 28.8265 6.07094C29.7813 5.65041 30.9208 5.6503 31.876 6.07094C32.1862 6.36989 32.2383 6.15555 32.8083 6.67385C33.9449 7.70693 33.918 9.0193 33.5931 10.5443C33.3653 11.616 33.0688 12.1922 32.4765 13.5357C31.7312 15.2304 28.9715 15.2305 28.2258 13.5348C27.526 11.9475 26.9246 10.7804 26.9246 8.78225C26.9246 7.9911 27.2689 7.24234 27.8942 6.67385ZM33.6539 43.4331C33.2058 43.4331 32.8151 43.7381 32.7065 44.1727L32.1396 46.4402C32.0203 46.9174 31.7224 47.3109 31.3278 47.5574V40.9827H37.0806V43.4331H33.6539ZM30.3508 28.5559C31.0263 28.9797 31.2581 28.874 34.894 28.874C34.8837 29.5529 34.8787 30.3209 34.8787 31.1995C34.8787 31.4491 34.9778 31.6972 35.1547 31.8791C35.254 31.9813 34.6347 31.537 44.7601 38.6247C46.8696 40.1013 45.8212 43.4333 43.2446 43.4333H39.034V40.9829H40.259C40.7983 40.9829 41.2356 40.5456 41.2356 40.0063C41.2356 39.467 40.7983 39.0297 40.259 39.0297H38.1942L30.6197 36.8656C29.9971 36.6877 29.3747 37.1552 29.3747 37.8045V52.2399H26.7135C25.5812 43.8527 24.6569 39.3993 25.6865 32.1759H30.3515C30.8908 32.1759 31.3281 31.7386 31.3281 31.1993C31.3281 30.6599 30.8908 30.2227 30.3512 30.2227H25.8214C25.819 29.7383 25.8147 29.2908 25.8087 28.8738C29.4817 28.8738 29.6862 28.9734 30.3508 28.5559ZM23.9172 60.235L26.8185 59.5099C27.3012 59.3891 27.616 58.9249 27.5494 58.4316L26.9771 54.1931H29.3747V61.0468H22.8003C23.0465 60.6522 23.4401 60.3543 23.9172 60.235Z" fill="black"/>
<path d="M19.6601 19.879L19.5088 20.0672C19.1701 20.4877 19.2367 21.1029 19.6571 21.4414C20.0803 21.7821 20.6952 21.7108 21.0315 21.2931L21.1831 21.1049C21.5216 20.6843 21.4549 20.0692 21.0346 19.7305C20.614 19.392 19.9987 19.4585 19.6601 19.879Z" fill="black"/>
</g>
<defs>
<clipPath id="clip0_13_44">
<rect width="62.5" height="62.5" fill="white" transform="translate(0.749939 0.500488)"/>
</clipPath>
</defs>
</svg>
