<svg width="98" height="83" viewBox="0 0 98 83" fill="none" xmlns="http://www.w3.org/2000/svg">
<g opacity="0.06" clip-path="url(#clip0_42_83)">
<path d="M94.9664 42.9434C94.9664 42.9434 65.2173 81.5808 0.231763 37.4017C0.231763 37.4017 64.9286 -3.09797 94.9664 42.9434Z" fill="url(#paint0_linear_42_83)"/>
<path opacity="0.08" d="M63.6339 21.7364C64.3193 37.7201 48.1741 47.7577 31.7996 53.8282C74.8625 68.9331 94.9663 42.9434 94.9663 42.9434C86.5001 29.9395 75.3587 23.7988 63.6339 21.7364Z" fill="#1F5148"/>
<path opacity="0.8" d="M47.2622 23.7246L61.7633 40.1519L33.0872 38.9075L24.9667 29.5216L31.578 38.7806L22.7545 38.4875L22.6385 38.2534L22.4063 38.3685L8.82282 37.8097L21.7094 38.7136L14.3915 43.7959L23.3346 39.0746L23.2186 38.8405L46.6698 40.6326L32.0343 50.2139L48.5273 40.8785L77.4348 43.1741C77.2025 43.2892 76.9703 43.4042 76.738 43.5193C74.7634 44.7889 71.8596 46.5187 69.1881 48.1334C63.6129 51.478 58.1537 55.0566 58.1537 55.0566C58.1537 55.0566 63.8448 51.9461 69.42 48.6015C72.2074 47.2208 75.1112 45.491 77.2017 44.4555C78.1309 43.9953 78.8277 43.6501 79.2923 43.42L94.8491 44.4587L95.0834 41.4277L63.1566 40.0447L47.2622 23.7246Z" fill="#1F5148"/>
</g>
<defs>
<linearGradient id="paint0_linear_42_83" x1="-79.7034" y1="-249.486" x2="355.351" y2="742.273" gradientUnits="userSpaceOnUse">
<stop stop-color="#41CBB9"/>
<stop offset="1" stop-color="#3EB29D"/>
</linearGradient>
<clipPath id="clip0_42_83">
<rect width="83.2089" height="50.6721" fill="white" transform="translate(97.0546 45.4072) rotate(153.649)"/>
</clipPath>
</defs>
</svg>
